/* XPM */
static char * float_xpm[] = {
"32 32 56 1",
" 	c None",
".	c #BA8137",
"+	c #A98960",
"@	c #A08D74",
"#	c #CFB087",
"$	c #8A879D",
"%	c #776FB1",
"&	c #C4C1D7",
"*	c #DAC7AE",
"=	c #3F28EC",
"-	c #B1A9EB",
";	c #432CE7",
">	c #6650BD",
",	c #B29D62",
"'	c #947F86",
")	c #4D36DB",
"!	c #7661AA",
"~	c #B9A45B",
"{	c #FFEB07",
"]	c #5039D8",
"^	c #B39E61",
"/	c #E9D521",
"(	c #5A43CC",
"_	c #937D88",
":	c #D7C237",
"<	c #FDE909",
"[	c #4630E3",
"}	c #897394",
"|	c #CFBB40",
"1	c #F3DF15",
"2	c #442EE5",
"3	c #6852BB",
"4	c #AE9967",
"5	c #FBE70B",
"6	c #4A33E0",
"7	c #E8D423",
"8	c #4029EB",
"9	c #533CD4",
"0	c #877197",
"a	c #C9B447",
"b	c #846E9A",
"c	c #C2AD4F",
"d	c #EFDB1A",
"e	c #624CC2",
"f	c #A58F73",
"g	c #FCE80B",
"h	c #4C35DD",
"i	c #988282",
"j	c #DEC92E",
"k	c #F8E40F",
"l	c #7B66A4",
"m	c #BFAA53",
"n	c #867097",
"o	c #AA946D",
"p	c #D9C434",
"q	c #D7D4EA",
"................................",
".+@@@@@@@@@@@@@@@@@@@@@@@@@@@@#.",
".@$%%%%%%%%%%%%%%%%%%%%%%%%%%&*.",
".@%==========================-*.",
".@%==========================-*.",
".@%====================;>,'==-*.",
".@%==================)!~{{,==-*.",
".@%=================]^/{{{>==-*.",
".@%===============(_:<{{{~;==-*.",
".@%=============[}|1{{{{/!===-*.",
".@%===========2345{{{{{<^)===-*.",
".@%==========647{{{{{{{:]====-*.",
".@%=======890a{{{{{{{{1_=====-*.",
".@%=======bcd{{{{{{{{{|(=====-*.",
".@%=====efg{{{{{{{{{{5}======-*.",
".@%===hijk{{{{{{{{{{{4[======-*.",
".@%==l{{{{{{{{{{{{{{73=======-*.",
".@%==m{{{{{{{{{{{{{{42=======-*.",
".@%==m{{{{{{{{{{{{{a6========-*.",
".@%==noooooop{{{{{d0=========-*.",
".@%=========o{{{{{c9=========-*.",
".@%=========o{{{{gb8=========-*.",
".@%=========o{{{kf===========-*.",
".@%=========o{{{je===========-*.",
".@%=========o{{{i============-*.",
".@%=========o{{{h============-*.",
".@%=========nmml=============-*.",
".@%==========================-*.",
".@%==========================-*.",
".@&--------------------------q*.",
".#****************************#.",
"................................"};
