/* XPM */
static char * logo_32_xpm[] = {
"32 32 11 1",
" 	c None",
".	c #3F28EC",
"+	c #543ED3",
"@	c #7F69A0",
"#	c #FFEB07",
"$	c #947F86",
"%	c #D4C03A",
"&	c #6A53B9",
"*	c #BFAA53",
"=	c #EAD520",
"-	c #AA946D",
"                                ",
"                                ",
"                                ",
"   ..........................   ",
"   .....................+@##.   ",
"   ....................$%###.   ",
"   ..................&#####@.   ",
"   .................*=####%+.   ",
"   ..............&-#######$..   ",
"   .............&=########...   ",
"   ...........@%########=&...   ",
"   ..........$##########*....   ",
"   .......+@############.....   ",
"   ......$%############-.....   ",
"   ....&-#############=&.....   ",
"   ...*=##############&......   ",
"   .-################%.......   ",
"   .#################@.......   ",
"   .################$........   ",
"   .################.........   ",
"   .........#######@.........   ",
"   .........######%+.........   ",
"   .........######$..........   ",
"   .........#####-...........   ",
"   .........####=&...........   ",
"   .........####*............   ",
"   .........####.............   ",
"   .........###-.............   ",
"   ..........................   ",
"                                ",
"                                ",
"                                "};
