/* XPM */
static char * property_xpm[] = {
"32 32 504 2",
"  	c None",
". 	c #DDDDDD",
"+ 	c #D6D6D6",
"@ 	c #D7D7D7",
"# 	c #D9D9D9",
"$ 	c #CCCCCC",
"% 	c #C6C6C6",
"& 	c #BFBFBF",
"* 	c #E2E2E2",
"= 	c #C1C1C1",
"- 	c #D4D4D4",
"; 	c #C5C6C6",
"> 	c #F2E4E1",
", 	c #93959A",
"' 	c #B7B8B9",
") 	c #929396",
"! 	c #A2A4A8",
"~ 	c #B3B3B4",
"{ 	c #8F9195",
"] 	c #B1B2B5",
"^ 	c #A6A6A7",
"/ 	c #939499",
"( 	c #BDBDBF",
"_ 	c #98999B",
": 	c #9C9EA2",
"< 	c #BEBEBF",
"[ 	c #8E9093",
"} 	c #A8AAAE",
"| 	c #B3B2B2",
"1 	c #CEA598",
"2 	c #FCD2C3",
"3 	c #B6A4A0",
"4 	c #8B8C91",
"5 	c #686B73",
"6 	c #A3A4A8",
"7 	c #B1B1B2",
"8 	c #A1999B",
"9 	c #C1C1C3",
"0 	c #A4A4A5",
"a 	c #AAABAD",
"b 	c #C0C0C2",
"c 	c #99999A",
"d 	c #B7B8BA",
"e 	c #BBBCBD",
"f 	c #989899",
"g 	c #BFC0C2",
"h 	c #B2B2B3",
"i 	c #9FA0A2",
"j 	c #C0C2C4",
"k 	c #BAADA9",
"l 	c #EAC6B7",
"m 	c #FFDBCC",
"n 	c #E3B09F",
"o 	c #7F787A",
"p 	c #5F626A",
"q 	c #6F7179",
"r 	c #B8B8BA",
"s 	c #9F9EA0",
"t 	c #B2A2A3",
"u 	c #CFCDCE",
"v 	c #909192",
"w 	c #BFBFC0",
"x 	c #BCBCBE",
"y 	c #8D8E8F",
"z 	c #CECECF",
"A 	c #AAAAAC",
"B 	c #98999A",
"C 	c #D2D2D3",
"D 	c #9A9B9C",
"E 	c #AEAEB0",
"F 	c #C8C8CA",
"G 	c #B6B4B3",
"H 	c #D0C9C5",
"I 	c #E9C8BB",
"J 	c #C39585",
"K 	c #818083",
"L 	c #60636B",
"M 	c #6D6E70",
"N 	c #6F7279",
"O 	c #C9C9CB",
"P 	c #E5E4E6",
"Q 	c #EBDBDC",
"R 	c #EBE9EA",
"S 	c #DFDFE1",
"T 	c #E9E9EA",
"U 	c #E4E4E6",
"V 	c #DEDEDF",
"W 	c #E8E8E9",
"X 	c #DFDFE0",
"Y 	c #E1E1E2",
"Z 	c #E7E8E9",
"` 	c #DDDDDE",
" .	c #C2C3C5",
"..	c #C3C4C5",
"+.	c #C5C0BD",
"@.	c #A39B99",
"#.	c #A4A6A9",
"$.	c #60636A",
"%.	c #5E5E61",
"&.	c #71737B",
"*.	c #B8BAC8",
"=.	c #D6D6E8",
"-.	c #D8C9D9",
";.	c #D3D3E4",
">.	c #D3D4E6",
",.	c #D1D2E4",
"'.	c #CFD1E2",
").	c #D0D1E3",
"!.	c #D1D3E5",
"~.	c #D2D1DE",
"{.	c #DBC9A2",
"].	c #CDC0A1",
"^.	c #C9C8C6",
"/.	c #A9ABB8",
"(.	c #ACADB9",
"_.	c #61636A",
":.	c #5E5F61",
"<.	c #73757C",
"[.	c #C6C7CD",
"}.	c #E7E6ED",
"|.	c #E7D7DE",
"1.	c #E3E2E9",
"2.	c #E2E3EA",
"3.	c #E1E2E9",
"4.	c #E0E1E8",
"5.	c #DFE0E7",
"6.	c #DEDFE6",
"7.	c #DEDEE5",
"8.	c #E0E2EA",
"9.	c #E7D9BE",
"0.	c #F4C54F",
"a.	c #EAA51B",
"b.	c #C1A579",
"c.	c #9C9DA2",
"d.	c #DCDDE3",
"e.	c #B7B8BE",
"f.	c #61636B",
"g.	c #74777E",
"h.	c #BFC0CD",
"i.	c #D9D9E9",
"j.	c #DBCCDA",
"k.	c #D6D6E6",
"l.	c #D6D7E7",
"m.	c #D5D6E5",
"n.	c #D4D5E5",
"o.	c #D3D4E4",
"p.	c #D3D4E3",
"q.	c #D2D4E3",
"r.	c #D3D5E5",
"s.	c #D4D3DD",
"t.	c #EACB82",
"u.	c #F3B220",
"v.	c #DE8E04",
"w.	c #A0845C",
"x.	c #B8BAC7",
"y.	c #DBDCEC",
"z.	c #B0B1BC",
"A.	c #62646B",
"B.	c #5F5F61",
"C.	c #76797F",
"D.	c #F2F1F1",
"E.	c #F1E1E1",
"F.	c #EEEDED",
"G.	c #EDEDED",
"H.	c #ECECEC",
"I.	c #EBEBEB",
"J.	c #EAEAEA",
"K.	c #E9E9E9",
"L.	c #EAEBEC",
"M.	c #EEDFBA",
"N.	c #F5C349",
"O.	c #EC9E04",
"P.	c #BD8328",
"Q.	c #B4B2AD",
"R.	c #EEEFEF",
"S.	c #F4F4F4",
"T.	c #BFBFC1",
"U.	c #63656C",
"V.	c #5F5F62",
"W.	c #787A80",
"X.	c #C2C3CF",
"Y.	c #DADAE9",
"Z.	c #DCCDDB",
"`.	c #D7D7E6",
" +	c #D6D7E6",
".+	c #D4D5E4",
"++	c #D7D4DB",
"@+	c #EFCE7C",
"#+	c #F3AF19",
"$+	c #D98B07",
"%+	c #9F896D",
"&+	c #C6C9D9",
"*+	c #D9DAEA",
"=+	c #B2B3BD",
"-+	c #64666C",
";+	c #5F6062",
">+	c #797B81",
",+	c #CFD0D4",
"'+	c #EBEAEF",
")+	c #EBDBDF",
"!+	c #E8E7EB",
"~+	c #E7E7EC",
"{+	c #E6E7EB",
"]+	c #E5E6EA",
"^+	c #E5E5EA",
"/+	c #E4E5E9",
"(+	c #E4E5EB",
"_+	c #E8D8B3",
":+	c #F4BF41",
"<+	c #EA9A02",
"[+	c #B98432",
"}+	c #BDBCBC",
"|+	c #E9EAEE",
"1+	c #EDEDF2",
"2+	c #BCBDC1",
"3+	c #64666D",
"4+	c #7A7C82",
"5+	c #CECED4",
"6+	c #E7E7EE",
"7+	c #E8D8DF",
"8+	c #E5E4EB",
"9+	c #E4E4EB",
"0+	c #E3E3EA",
"a+	c #E2E2EA",
"b+	c #E1E2EA",
"c+	c #E4E0DD",
"d+	c #F4D176",
"e+	c #F2AB13",
"f+	c #D3880B",
"g+	c #A6947F",
"h+	c #DADBE5",
"i+	c #E6E6ED",
"j+	c #E6E6EE",
"k+	c #E9EAF1",
"l+	c #BCBCC2",
"m+	c #66686D",
"n+	c #7B7D84",
"o+	c #C8C9D3",
"p+	c #DEDEEB",
"q+	c #E0D1DC",
"r+	c #DCDBE8",
"s+	c #DBDCE9",
"t+	c #DBDBE9",
"u+	c #DADBE8",
"v+	c #DADAE8",
"w+	c #D9DAE9",
"x+	c #E3D1AC",
"y+	c #F4BD38",
"z+	c #E79701",
"A+	c #B4853E",
"B+	c #BEBFC7",
"C+	c #DDDDEB",
"D+	c #DCDDEA",
"E+	c #DDDEEB",
"F+	c #DFE0EE",
"G+	c #B9BAC2",
"H+	c #68696F",
"I+	c #606062",
"J+	c #7D7F85",
"K+	c #D7D7D9",
"L+	c #F3F2F3",
"M+	c #F2E2E3",
"N+	c #F0EEEF",
"O+	c #EFEFF0",
"P+	c #EEEEEF",
"Q+	c #EDEDEE",
"R+	c #EDEDEF",
"S+	c #EEE9DD",
"T+	c #F6D06E",
"U+	c #F1A80D",
"V+	c #CF8610",
"W+	c #B3A692",
"X+	c #EAEBED",
"Y+	c #F0F0F1",
"Z+	c #F0F1F1",
"`+	c #F1F1F2",
" @	c #F4F4F5",
".@	c #C6C7C8",
"+@	c #696A70",
"@@	c #7E7F85",
"#@	c #C5C6D3",
"$@	c #D9D9EA",
"%@	c #DCCDDC",
"&@	c #D7D7E7",
"*@	c #D6D7E8",
"=@	c #D5D6E8",
"-@	c #E5D2A7",
";@	c #F5BA30",
">@	c #E49401",
",@	c #B0864B",
"'@	c #C0C2D1",
")@	c #D7D8E9",
"!@	c #D8D9E9",
"~@	c #DADBEC",
"{@	c #BABBC6",
"]@	c #6B6C71",
"^@	c #7F8186",
"/@	c #D8D8DA",
"(@	c #F2F1F3",
"_@	c #F0EFF0",
":@	c #EFEFF1",
"<@	c #EEEEF0",
"[@	c #EEEEF1",
"}@	c #EEE8DA",
"|@	c #F5CC65",
"1@	c #F0A409",
"2@	c #CB8617",
"3@	c #BFB5A6",
"4@	c #F0F0F2",
"5@	c #F3F4F5",
"6@	c #CBCBCD",
"7@	c #6C6E73",
"8@	c #808187",
"9@	c #CDCED7",
"0@	c #E3E2EE",
"a@	c #E4D5DF",
"b@	c #E1E0EB",
"c@	c #E0E1EC",
"d@	c #E0E0EC",
"e@	c #E0E0EB",
"f@	c #EFDAA3",
"g@	c #F5B728",
"h@	c #E19101",
"i@	c #B08C5B",
"j@	c #D0D2DE",
"k@	c #E1E2ED",
"l@	c #E1E1EC",
"m@	c #E3E4EF",
"n@	c #C4C5CC",
"o@	c #6E6F74",
"p@	c #818287",
"q@	c #D0D1D9",
"r@	c #E6E6EF",
"s@	c #E7D8E0",
"t@	c #E4E3ED",
"u@	c #E4E4EE",
"v@	c #E3E4ED",
"w@	c #E4DED4",
"x@	c #F3C75B",
"y@	c #EEA106",
"z@	c #C78620",
"A@	c #C4BDB7",
"B@	c #E4E5EF",
"C@	c #E4E5EE",
"D@	c #E4E4EF",
"E@	c #E5E6F1",
"F@	c #C6C7CE",
"G@	c #6F7175",
"H@	c #606162",
"I@	c #828388",
"J@	c #D9D9DC",
"K@	c #F1F1F4",
"L@	c #F1E1E4",
"M@	c #EFEDF0",
"N@	c #EFEFF2",
"O@	c #EEEEF2",
"P@	c #F6DE9E",
"Q@	c #F4B320",
"R@	c #DD8D03",
"S@	c #B99A6F",
"T@	c #E4E6EB",
"U@	c #EEEFF2",
"V@	c #EEEEF3",
"W@	c #EDEEF3",
"X@	c #CCCCD0",
"Y@	c #717276",
"Z@	c #838489",
"`@	c #CACAD7",
" #	c #DCDCEC",
".#	c #DECFDE",
"+#	c #DADAEA",
"@#	c #DADBEB",
"##	c #D9DBEC",
"$#	c #DED6CE",
"%#	c #F4C552",
"&#	c #EC9E03",
"*#	c #C4872A",
"=#	c #C3BFC4",
"-#	c #D9DAEB",
";#	c #D7D8EA",
">#	c #D5D6E7",
",#	c #BEBFC8",
"'#	c #6F7075",
")#	c #606163",
"!#	c #85868A",
"~#	c #DFDFDF",
"{#	c #F8F7F7",
"]#	c #F7E7E7",
"^#	c #F6F4F4",
"/#	c #F5F6F6",
"(#	c #F4F4F2",
"_#	c #F6DC95",
":#	c #F4AF18",
"<#	c #D98B06",
"[#	c #C5AC86",
"}#	c #F0F2F3",
"|#	c #F5F5F5",
"1#	c #F2F2F3",
"2#	c #E9E9EB",
"3#	c #E3E4E6",
"4#	c #C7C7C8",
"5#	c #6C6C71",
"6#	c #616163",
"7#	c #86878C",
"8#	c #D2D2DB",
"9#	c #E5E4F0",
"0#	c #E6D7E1",
"a#	c #E2E4F0",
"b#	c #EBE1CB",
"c#	c #F7C54C",
"d#	c #EA9A01",
"e#	c #C08937",
"f#	c #CFCDD4",
"g#	c #E3E4F0",
"h#	c #E3E3EF",
"i#	c #D8D9E3",
"j#	c #CCCDD8",
"k#	c #CECFDC",
"l#	c #D8D9E5",
"m#	c #DFE0EC",
"n#	c #E6E7F2",
"o#	c #B4B4BB",
"p#	c #696A6E",
"q#	c #87888C",
"r#	c #D5D6DD",
"s#	c #E8E8F2",
"t#	c #E9DAE3",
"u#	c #E7E6F0",
"v#	c #EAD39F",
"w#	c #F6B223",
"x#	c #D98B0E",
"y#	c #C9B59A",
"z#	c #E6E8F3",
"A#	c #E6E7F0",
"B#	c #DBDCE6",
"C#	c #C9CAD4",
"D#	c #D6D7E1",
"E#	c #DFDFEA",
"F#	c #E6E6F0",
"G#	c #E9E9F3",
"H#	c #8F9097",
"I#	c #68696D",
"J#	c #616263",
"K#	c #88898D",
"L#	c #F5F4F3",
"M#	c #F3E7E6",
"N#	c #F3F2F1",
"O#	c #EDEAE7",
"P#	c #EDCCA1",
"Q#	c #E39A2E",
"R#	c #C39452",
"S#	c #E3E2E0",
"T#	c #EBECEB",
"U#	c #CACACB",
"V#	c #D6D7D8",
"W#	c #E3E3E5",
"X#	c #E5E6E6",
"Y#	c #ECECEB",
"Z#	c #ACACAD",
"`#	c #6C6D6F",
" $	c #797A7F",
".$	c #626264",
"+$	c #7A7B7F",
"@$	c #8F8F92",
"#$	c #969699",
"$$	c #959497",
"%$	c #939497",
"&$	c #A8A09B",
"*$	c #E2B496",
"=$	c #B28765",
"-$	c #85807C",
";$	c #898A8D",
">$	c #808083",
",$	c #7F7F82",
"'$	c #89898C",
")$	c #8E8F92",
"!$	c #8D8D91",
"~$	c #8D8E91",
"{$	c #8B8C8F",
"]$	c #808084",
"^$	c #76767B",
"/$	c #85868B",
"($	c #7C7D82",
"_$	c #606061",
":$	c #666669",
"<$	c #464649",
"[$	c #444547",
"}$	c #434447",
"|$	c #7E7068",
"1$	c #B08C71",
"2$	c #514B46",
"3$	c #3E3F42",
"4$	c #3E3E41",
"5$	c #424345",
"6$	c #47474A",
"7$	c #47484A",
"8$	c #47484B",
"9$	c #48484B",
"0$	c #48494B",
"a$	c #494A4C",
"b$	c #4B4C4E",
"c$	c #4B4B4E",
"d$	c #464648",
"e$	c #5C5956",
"                                                                ",
"                                                                ",
"              .     +     @         .     +     #               ",
"              $     %     &   * =   -     ;   > &               ",
"            , ' ) ! ~ { ] ^ / ( _ : < [ } | 1 2 3 4             ",
"          5 6 7 8 9 0 a b c d e f g h i j k l m n o p           ",
"          q r s t u v w x y z A B C D E F G H I J K L M         ",
"          N O P Q R S T U V W X Y T V Z `  ...+.@.#.$.%.        ",
"          &.*.=.-.;.>.,.,.,.'.).).).!.~.{.].^.0 /.(._.:.        ",
"          <.[.}.|.1.2.3.4.5.6.7.6.5.8.9.0.a.b.c.d.e.f.:.        ",
"          g.h.i.j.k.l.m.n.o.p.q.o.r.s.t.u.v.w.x.y.z.A.B.        ",
"          C.C D.E.F.G.H.I.J.K.K.K.L.M.N.O.P.Q.R.S.T.U.V.        ",
"          W.X.Y.Z.`.l. +m.m..+.+n.++@+#+$+%+&+*+y.=+-+;+        ",
"          >+,+'+)+!+~+{+]+^+/+/+(+_+:+<+[+}+|+|+1+2+3+;+        ",
"          4+5+6+7+8+9+0+2.a+3.b+c+d+e+f+g+h+i+j+k+l+m+;+        ",
"          n+o+p+q+r+s+t+u+v+v+w+x+y+z+A+B+C+D+E+F+G+H+I+        ",
"          J+K+L+M+N+O+R.P+Q+R+S+T+U+V+W+X+Y+Z+`+ @.@+@I+        ",
"          @@#@$@%@&@*@*@*@l.=@-@;@>@,@'@)@)@)@!@~@{@]@I+        ",
"          ^@/@(@M+_@:@O+<@[@}@|@1@2@3@[@Y+4@4@`+5@6@7@I+        ",
"          8@9@0@a@b@c@c@d@e@f@g@h@i@j@k@c@l@k@k@m@n@o@I+        ",
"          p@q@r@s@t@u@v@m@w@x@y@z@A@B@v@u@C@C@D@E@F@G@H@        ",
"          I@J@K@L@M@N@O@<@P@Q@R@S@T@N@[@N@N@U@V@W@X@Y@H@        ",
"          Z@`@ #.#+#@###$#%#&#*#=#~@*+-#@#-#;#>.>#,#'#)#        ",
"          !#~#{#]#^#/#(#_#:#<#[#}#|#|#|#1#2#3#W S.4#5#6#        ",
"          7#8#9#0#0@a#b#c#d#e#f#g#h#k@i#j#k#l#m#n#o#p#6#        ",
"          q#r#s#t#u#B@v#w#x#y#z#A#B#C#o+D#E#F#G#v@H#I#J#        ",
"          K#~#L#M#N#O#P#Q#R#S#T#@ U#V#W#X#H.Y#~#Z#`# $.$        ",
"          +$@$#$$$%$&$*$=$-$;$>$,$'$)$!$!$~${$]$^$/$($_$        ",
"            :$<$[$}$|$1$2$3$4$5$6$7$7$8$9$9$0$a$b$c$d$          ",
"                    e$                                          ",
"                                                                ",
"                                                                "};
