/* XPM */
static char * tool_start_dis_xpm[] = {
"32 32 110 2",
"  	g None",
". 	g #E7E7E7",
"+ 	g #CCCCCC",
"@ 	g #BCBCBC",
"# 	g #B4B4B4",
"$ 	g #D2D2D2",
"% 	g #A0A0A0",
"& 	g #828282",
"* 	g #717171",
"= 	g #777777",
"- 	g #7B7B7B",
"; 	g #7E7E7E",
"> 	g #757575",
", 	g #E6E6E6",
"' 	g #A4A4A4",
") 	g #797979",
"! 	g #7C7C7C",
"~ 	g #A5A5A5",
"{ 	g #BFBFBF",
"] 	g #C2C2C2",
"^ 	g #C1C1C1",
"/ 	g #A9A9A9",
"( 	g #D6D6D6",
"_ 	g #919191",
": 	g #6F6F6F",
"< 	g #A8A8A8",
"[ 	g #C3C3C3",
"} 	g #A7A7A7",
"| 	g #DADADA",
"1 	g #898989",
"2 	g #767676",
"3 	g #B8B8B8",
"4 	g #B6B6B6",
"5 	g #737373",
"6 	g #EAEAEA",
"7 	g #909090",
"8 	g #B5B5B5",
"9 	g #BDBDBD",
"0 	g #C5C5C5",
"a 	g #D3D3D3",
"b 	g #D7D7D7",
"c 	g #CDCDCD",
"d 	g #C6C6C6",
"e 	g #B2B2B2",
"f 	g #AAAAAA",
"g 	g #707070",
"h 	g #B9B9B9",
"i 	g #D1D1D1",
"j 	g #C9C9C9",
"k 	g #D4D4D4",
"l 	g #D5D5D5",
"m 	g #C4C4C4",
"n 	g #DCDCDC",
"o 	g #818181",
"p 	g #8E8E8E",
"q 	g #CBCBCB",
"r 	g #F6F6F6",
"s 	g #C8C8C8",
"t 	g #8A8A8A",
"u 	g #AFAFAF",
"v 	g #AEAEAE",
"w 	g #FBFBFB",
"x 	g #FFFFFF",
"y 	g #ECECEC",
"z 	g #CECECE",
"A 	g #888888",
"B 	g #FAFAFA",
"C 	g #FEFEFE",
"D 	g #D8D8D8",
"E 	g #DFDFDF",
"F 	g #7F7F7F",
"G 	g #F4F4F4",
"H 	g #C7C7C7",
"I 	g #ACACAC",
"J 	g #BBBBBB",
"K 	g #E0E0E0",
"L 	g #858585",
"M 	g #D0D0D0",
"N 	g #CFCFCF",
"O 	g #878787",
"P 	g #F9F9F9",
"Q 	g #A6A6A6",
"R 	g #8B8B8B",
"S 	g #E1E1E1",
"T 	g #B1B1B1",
"U 	g #838383",
"V 	g #F1F1F1",
"W 	g #787878",
"X 	g #F7F7F7",
"Y 	g #B7B7B7",
"Z 	g #CACACA",
"` 	g #B0B0B0",
" .	g #BEBEBE",
"..	g #848484",
"+.	g #EEEEEE",
"@.	g #A3A3A3",
"#.	g #ABABAB",
"$.	g #E2E2E2",
"%.	g #A2A2A2",
"&.	g #9C9C9C",
"*.	g #B3B3B3",
"=.	g #DBDBDB",
"-.	g #9D9D9D",
";.	g #6D6D6D",
">.	g #929292",
",.	g #808080",
"'.	g #727272",
").	g #9E9E9E",
"!.	g #686868",
"~.	g #6C6C6C",
"                                                                ",
"                                                                ",
"                        . + @ # # @ + .                         ",
"                    $ % & * = - ; - > & % $                     ",
"                , ' ) ! ~ { ] ] ] ] ^ / ; ) ' ,                 ",
"              ( _ : < [ [ [ [ [ [ [ [ [ [ } : _ (               ",
"            | 1 2 3 ] ] ] ] ] [ [ ] ] ] ] ] 4 5 1 |             ",
"          6 7 5 8 9 9 0 + a ( b b ( a c d 9 9 e * 7 6           ",
"          f g / h [ i j d k l l l l l l l $ m h ~ g f           ",
"        n o p 4 q k k [ r a s k k k k k k k k c 3 t o n         ",
"        u 2 v + a a a ^ w x y 0 z a a a a a a a z u 2 u         ",
"        A t 0 $ $ $ $ { B x x C D ^ i $ $ $ $ $ $ s t A         ",
"      E F / i i i i i 9 B x x x x G d H i i i i i i I F E       ",
"      c ; ] i i i i i J B x x x x x x K @ z i i i i d ; c       ",
"      d L c M M M M M h B x x x x x x x B s e ] q M N L d       ",
"      s O M M M M M M 3 P x x x x x x x x x . Q { c M R s       ",
"      l ; q i i i i i 4 P x x x x x x x x S T { ] d c U l       ",
"      V W @ c i i i i 8 P x x x x x x X 9 Y d d d d ] W V       ",
"        p } Z Z + + q v P x x x x x k ` s Z Z Z Z Z v p         ",
"         ...s c c c c u P x x x +.8 ^ c c c c c c Z O  .        ",
"          - @.M i i i ` P x C H # M i i i i i i i / -           ",
"          H 2 #.a k k T P $.` + k k k k k k k a T 2 H           ",
"            %.; ~ c D e 4 @ D D D D D D D D M / ; %.            ",
"              7 - &.*.H b =.=.=.=.=.=.=.i 4 -.- 7               ",
"                < ;.>.-.' # 9 ] [ 9 8 Q -.>.;.<                 ",
"                  | ,.'.R ).% % % % ).R '.,.|                   ",
"                      i ).5 !.~.~.!.5 ).i                       ",
"                                                                ",
"                                                                ",
"                                                                ",
"                                                                ",
"                                                                "};
