/* XPM */
static char * tool_up_dis_xpm[] = {
"32 32 108 2",
"  	g None",
". 	g #E7E7E7",
"+ 	g #CCCCCC",
"@ 	g #BCBCBC",
"# 	g #B4B4B4",
"$ 	g #D2D2D2",
"% 	g #A0A0A0",
"& 	g #828282",
"* 	g #717171",
"= 	g #777777",
"- 	g #7B7B7B",
"; 	g #7E7E7E",
"> 	g #757575",
", 	g #E6E6E6",
"' 	g #A4A4A4",
") 	g #797979",
"! 	g #7C7C7C",
"~ 	g #A5A5A5",
"{ 	g #BFBFBF",
"] 	g #C2C2C2",
"^ 	g #C1C1C1",
"/ 	g #A9A9A9",
"( 	g #D6D6D6",
"_ 	g #919191",
": 	g #6F6F6F",
"< 	g #A8A8A8",
"[ 	g #C3C3C3",
"} 	g #A7A7A7",
"| 	g #DADADA",
"1 	g #898989",
"2 	g #767676",
"3 	g #B8B8B8",
"4 	g #B6B6B6",
"5 	g #737373",
"6 	g #EAEAEA",
"7 	g #909090",
"8 	g #B5B5B5",
"9 	g #BDBDBD",
"0 	g #C5C5C5",
"a 	g #D3D3D3",
"b 	g #BEBEBE",
"c 	g #CDCDCD",
"d 	g #C6C6C6",
"e 	g #B2B2B2",
"f 	g #AAAAAA",
"g 	g #707070",
"h 	g #B9B9B9",
"i 	g #D1D1D1",
"j 	g #D5D5D5",
"k 	g #D4D4D4",
"l 	g #B7B7B7",
"m 	g #DCDCDC",
"n 	g #B3B3B3",
"o 	g #C4C4C4",
"p 	g #818181",
"q 	g #8E8E8E",
"r 	g #CBCBCB",
"s 	g #F6F6F6",
"t 	g #FFFFFF",
"u 	g #F0F0F0",
"v 	g #AEAEAE",
"w 	g #8A8A8A",
"x 	g #AFAFAF",
"y 	g #FEFEFE",
"z 	g #FCFCFC",
"A 	g #CECECE",
"B 	g #888888",
"C 	g #E1E1E1",
"D 	g #D0D0D0",
"E 	g #ACACAC",
"F 	g #C8C8C8",
"G 	g #DFDFDF",
"H 	g #7F7F7F",
"I 	g #F1F1F1",
"J 	g #E8E8E8",
"K 	g #A3A3A3",
"L 	g #C9C9C9",
"M 	g #CACACA",
"N 	g #939393",
"O 	g #858585",
"P 	g #D8D8D8",
"Q 	g #CFCFCF",
"R 	g #878787",
"S 	g #BBBBBB",
"T 	g #8B8B8B",
"U 	g #838383",
"V 	g #787878",
"W 	g #848484",
"X 	g #BABABA",
"Y 	g #C0C0C0",
"Z 	g #C7C7C7",
"` 	g #ABABAB",
" .	g #EFEFEF",
"..	g #EEEEEE",
"+.	g #EDEDED",
"@.	g #B1B1B1",
"#.	g #A2A2A2",
"$.	g #9C9C9C",
"%.	g #DBDBDB",
"&.	g #9D9D9D",
"*.	g #6D6D6D",
"=.	g #929292",
"-.	g #A6A6A6",
";.	g #808080",
">.	g #727272",
",.	g #9E9E9E",
"'.	g #686868",
").	g #6C6C6C",
"                                                                ",
"                                                                ",
"                        . + @ # # @ + .                         ",
"                    $ % & * = - ; - > & % $                     ",
"                , ' ) ! ~ { ] ] ] ] ^ / ; ) ' ,                 ",
"              ( _ : < [ [ [ [ [ [ [ [ [ [ } : _ (               ",
"            | 1 2 3 ] ] ] ] ] [ [ ] ] ] ] ] 4 5 1 |             ",
"          6 7 5 8 9 9 0 + a ( b ^ ( a c d 9 9 e * 7 6           ",
"          f g / h [ i j j k l , m n k j j $ o h ~ g f           ",
"        m p q 4 r k k k c @ s t t u v + k k k c 3 w p m         ",
"        x 2 v + a a a o c y t t t t z h @ a a a A x 2 x         ",
"        B w 0 $ $ i { C t t t t t t t t D E $ $ $ F w B         ",
"      G H / i i A ] I t t t t t t t t t t J K r i i E H G       ",
"      c ; ] i i 3 L M d . t t t t t t G # # E N i i d ; c       ",
"      d O c D D D D D + P t t t t t t + b { { ] r D Q O d       ",
"      F R D D D D D D c P t t t t t t + S { { { { c D T F       ",
"      j ; r i i i i i c P t t t t t t + b ] ] ] ] d c U j       ",
"      I V @ c i i i i c P t t t t t t + ^ d d d d d ] V I       ",
"        q } M M + + r d P t t t t t t + 0 M M M M M v q         ",
"        b W F c c c c r 3 b @ X 3 4 # } M c c c c M R b         ",
"          - K D i i i [ ^ Y { b 9 @ @ X @ i i i i / -           ",
"          Z 2 ` a k k A I u u u  .....+.{ k k a @.2 Z           ",
"            #.; ~ c P ^ k a $ i Q A c r v P D / ; #.            ",
"              7 - $.n Q %.%.%.%.%.%.%.%.i 4 &.- 7               ",
"                < *.=.&.' # 9 ] [ 9 8 -.&.=.*.<                 ",
"                  | ;.>.T ,.% % % % ,.T >.;.|                   ",
"                      i ,.5 '.).).'.5 ,.i                       ",
"                                                                ",
"                                                                ",
"                                                                ",
"                                                                ",
"                                                                "};
