/* XPM */
static char * tool_sub_xpm[] = {
"32 32 175 2",
"  	c None",
". 	c #097A91",
"+ 	c #037884",
"@ 	c #037883",
"# 	c #097A90",
"$ 	c #028388",
"% 	c #049DA2",
"& 	c #049CA2",
"* 	c #028387",
"= 	c #037782",
"- 	c #049BA1",
"; 	c #09CFD6",
"> 	c #09CED6",
", 	c #09CED5",
"' 	c #049BA0",
") 	c #037682",
"! 	c #049A9F",
"~ 	c #09CCD3",
"{ 	c #09CBD3",
"] 	c #09CCD2",
"^ 	c #09CBD2",
"/ 	c #04999F",
"( 	c #037681",
"_ 	c #04989E",
": 	c #09C9D0",
"< 	c #09C8D0",
"[ 	c #09C8CF",
"} 	c #08C8CF",
"| 	c #04989D",
"1 	c #027580",
"2 	c #04979C",
"3 	c #09C6CD",
"4 	c #08C6CD",
"5 	c #09C6CC",
"6 	c #08C6CC",
"7 	c #09C5CC",
"8 	c #08C5CC",
"9 	c #03969C",
"0 	c #03959B",
"a 	c #08C3CA",
"b 	c #08C3C9",
"c 	c #08C2C9",
"d 	c #03959A",
"e 	c #027480",
"f 	c #02747F",
"g 	c #039499",
"h 	c #08C0C7",
"i 	c #08C0C6",
"j 	c #08BFC6",
"k 	c #039399",
"l 	c #02737F",
"m 	c #039298",
"n 	c #08BDC4",
"o 	c #08BDC3",
"p 	c #08BCC3",
"q 	c #039297",
"r 	c #02737E",
"s 	c #039196",
"t 	c #08BBC1",
"u 	c #08BAC1",
"v 	c #08BAC0",
"w 	c #08B9C0",
"x 	c #039096",
"y 	c #02727E",
"z 	c #02727D",
"A 	c #039095",
"B 	c #08B7BE",
"C 	c #08B8BE",
"D 	c #07B7BE",
"E 	c #08B7BD",
"F 	c #07B7BD",
"G 	c #07B6BD",
"H 	c #08B6BD",
"I 	c #038F94",
"J 	c #02717D",
"K 	c #038E93",
"L 	c #07B4BB",
"M 	c #07B5BB",
"N 	c #54CBD0",
"O 	c #EFFAFA",
"P 	c #FFFFFF",
"Q 	c #83D9DC",
"R 	c #07B4BA",
"S 	c #02717C",
"T 	c #038D92",
"U 	c #07B2B8",
"V 	c #C0EBED",
"W 	c #07B1B7",
"X 	c #07B0B7",
"Y 	c #038C91",
"Z 	c #02707C",
"` 	c #038B90",
" .	c #07AFB5",
"..	c #07AEB5",
"+.	c #B1E5E7",
"@.	c #EFF9FA",
"#.	c #07AEB4",
"$.	c #02707B",
"%.	c #01707B",
"&.	c #038A8F",
"*.	c #07ACB2",
"=.	c #35BAC0",
"-.	c #B1E4E6",
";.	c #C0EAEB",
">.	c #C0E9EB",
",.	c #54C5C9",
"'.	c #07ABB1",
").	c #03898E",
"!.	c #016F7B",
"~.	c #016F7A",
"{.	c #03888D",
"].	c #07A9AF",
"^.	c #06A9AF",
"/.	c #07A9AE",
"(.	c #06A9AE",
"_.	c #07A8AE",
":.	c #06A8AE",
"<.	c #02888D",
"[.	c #016E7A",
"}.	c #02878C",
"|.	c #06A6AC",
"1.	c #06A6AB",
"2.	c #06A5AB",
"3.	c #02868B",
"4.	c #016E79",
"5.	c #02858A",
"6.	c #06A3A9",
"7.	c #06A3A8",
"8.	c #06A2A8",
"9.	c #016D78",
"0.	c #028489",
"a.	c #06A0A6",
"b.	c #06A0A5",
"c.	c #069FA5",
"d.	c #016C78",
"e.	c #069DA3",
"f.	c #069DA2",
"g.	c #069CA2",
"h.	c #028287",
"i.	c #016C77",
"j.	c #028186",
"k.	c #069AA0",
"l.	c #069A9F",
"m.	c #059A9F",
"n.	c #05999F",
"o.	c #06999F",
"p.	c #028085",
"q.	c #016B77",
"r.	c #027F84",
"s.	c #05989D",
"t.	c #05979D",
"u.	c #05979C",
"v.	c #06979C",
"w.	c #06969C",
"x.	c #05969C",
"y.	c #016B76",
"z.	c #027E83",
"A.	c #05949A",
"B.	c #059499",
"C.	c #059399",
"D.	c #027D82",
"E.	c #016A76",
"F.	c #016A75",
"G.	c #027D81",
"H.	c #059297",
"I.	c #059196",
"J.	c #059096",
"K.	c #027C81",
"L.	c #006975",
"M.	c #017276",
"N.	c #027B80",
"O.	c #027B7F",
"P.	c #017B7F",
"Q.	c #016179",
"R.	c #006974",
"                                                                ",
"                                                                ",
"                                                                ",
"      . + + + @ + @ @ + @ @ @ @ @ @ @ @ @ @ @ @ @ @ @ @ #       ",
"      @ $ % % % % % % % & & & & & & & & & & & & & & & * @       ",
"      = - ; ; ; ; ; ; ; ; ; > > > , > , > , , , , , , ' =       ",
"      ) ! ~ ~ ~ ~ ~ ~ ~ ~ ~ ~ ~ { ] { ^ ^ ^ ^ ^ ^ ^ ^ / (       ",
"      ( _ : : : : : : : : : : < : < [ [ [ } [ [ [ [ [ | (       ",
"      1 2 3 3 3 3 4 3 4 3 5 5 4 3 4 6 6 7 8 8 8 8 7 8 9 1       ",
"      1 0 a a a a a a a a a a a b b b b b c c c c c c d e       ",
"      f g h h h h h h h i h h h i i i i i i j i j j j k f       ",
"      l m n n n n n n o n n n n n o o o p o o p o p p q r       ",
"      r s t u u u u u u u u u u v v v v v v v v w w v x y       ",
"      z A B C B B B D B D B D E F F F E F E E G H F H I z       ",
"      J K L L M N O P P P P P P P P P P P P P Q R R R K J       ",
"      S T U U U V P P P P P P P P P P P P P P P W X W Y Z       ",
"      Z `  . ...+.P P P P P P P P P P P P P P @.#.#.#.` $.      ",
"      %.&.*.*.*.=.-.;.;.;.;.>.>.>.>.>.>.>.>.>.,.'.'.'.).!.      ",
"      ~.{.].^.^.^.]././.^.(.(._._._.:.:._.:.:.:._.:.:.<.~.      ",
"      [.}.|.|.|.|.|.|.|.|.|.1.1.2.1.2.2.1.2.2.2.2.2.2.3.4.      ",
"      4.5.6.6.6.6.6.6.7.7.7.7.7.7.8.8.8.8.8.8.8.8.8.8.5.4.      ",
"      9.0.a.a.a.a.a.b.a.b.b.b.b.b.b.b.c.c.b.c.c.c.c.c.$ 9.      ",
"      d.* e.e.e.e.e.e.f.e.e.f.f.f.f.f.f.g.f.g.g.g.g.g.h.d.      ",
"      i.j.k.k.k.k.k.l.k.l.l.l.l.m.m.m.l.m.n.l.n.n.o.o.p.i.      ",
"      q.r.s.t.u.t.v.u.u.u.u.u.u.u.v.u.u.v.u.w.x.v.x.x.r.y.      ",
"      y.z.A.A.A.A.B.A.B.B.B.B.B.B.B.B.B.B.B.B.C.B.B.C.D.E.      ",
"      F.G.H.H.H.H.I.I.I.I.I.I.I.I.I.I.I.I.I.I.I.I.J.I.K.F.      ",
"      L.M.N.N.N.N.N.O.O.O.O.O.O.O.P.O.O.O.O.O.O.O.O.O.M.L.      ",
"      Q.R.R.R.R.R.R.R.R.R.R.R.R.R.R.R.R.R.R.R.R.R.R.R.R.Q.      ",
"                                                                ",
"                                                                ",
"                                                                "};
