/* XPM */
static char * tool_down_xpm[] = {
"32 32 124 2",
"  	c None",
". 	c #C67C1C",
"+ 	c #BE7312",
"@ 	c #C27716",
"# 	c #D58C2D",
"$ 	c #BD7211",
"% 	c #D58B2B",
"& 	c #FDB557",
"* 	c #BD7210",
"= 	c #D48A29",
"- 	c #FCB353",
"; 	c #FDB353",
"> 	c #BD7110",
", 	c #D48927",
"' 	c #FCB150",
") 	c #FBB150",
"! 	c #FCB050",
"~ 	c #FBB050",
"{ 	c #BD710F",
"] 	c #D48825",
"^ 	c #FBAF4C",
"/ 	c #FBAE4C",
"( 	c #BD710E",
"_ 	c #D38723",
": 	c #FAAD48",
"< 	c #FAAC48",
"[ 	c #D38623",
"} 	c #BD700E",
"| 	c #BD700D",
"1 	c #D38521",
"2 	c #F9AA44",
"3 	c #F9AB44",
"4 	c #F9AA45",
"5 	c #BC700D",
"6 	c #D28420",
"7 	c #F8A841",
"8 	c #F8A941",
"9 	c #BC6F0C",
"0 	c #D2831E",
"a 	c #F7A63D",
"b 	c #FAC786",
"c 	c #FCE8CE",
"d 	c #FDE8CE",
"e 	c #FBD7A9",
"f 	c #BC6F0B",
"g 	c #D1821C",
"h 	c #F7A439",
"i 	c #F6A439",
"j 	c #FBDCB4",
"k 	c #FFFFFF",
"l 	c #FDEDD9",
"m 	c #F6A945",
"n 	c #BC6E0A",
"o 	c #D1811A",
"p 	c #F6A236",
"q 	c #FBDBB2",
"r 	c #F6A742",
"s 	c #D18018",
"t 	c #F5A032",
"u 	c #FBDBB1",
"v 	c #FDEDD8",
"w 	c #F5A53E",
"x 	c #BC6E09",
"y 	c #D07F16",
"z 	c #F49E2E",
"A 	c #F8C889",
"B 	c #FADAB0",
"C 	c #F4A43B",
"D 	c #BB6D08",
"E 	c #D07E14",
"F 	c #F39C2A",
"G 	c #F7C17A",
"H 	c #FAD9AE",
"I 	c #BB6D07",
"J 	c #CF7D13",
"K 	c #F29A27",
"L 	c #F6C078",
"M 	c #FAD8AD",
"N 	c #F29A26",
"O 	c #BB6C07",
"P 	c #CF7C11",
"Q 	c #F19823",
"R 	c #F19723",
"S 	c #F29823",
"T 	c #F6BE75",
"U 	c #FAD8AC",
"V 	c #BB6C06",
"W 	c #CF7B0F",
"X 	c #F1961F",
"Y 	c #F1951F",
"Z 	c #F0961F",
"` 	c #F0951F",
" .	c #CE7B0F",
"..	c #BB6C05",
"+.	c #CE7A0D",
"@.	c #F0931C",
"#.	c #F0941B",
"$.	c #F0931B",
"%.	c #F0941C",
"&.	c #BB6B05",
"*.	c #BB6B04",
"=.	c #CE790B",
"-.	c #EF9118",
";.	c #BA6B04",
">.	c #CD7809",
",.	c #EE8F14",
"'.	c #BA6A03",
").	c #CD7707",
"!.	c #ED8D10",
"~.	c #BA6A02",
"{.	c #CC7605",
"].	c #EC8B0D",
"^.	c #ED8B0D",
"/.	c #EC8B0C",
"(.	c #CC7606",
"_.	c #BA6901",
":.	c #CC7504",
"<.	c #EB8909",
"[.	c #EC8909",
"}.	c #BD6B01",
"|.	c #CC7402",
"1.	c #C06C00",
"2.	c #B96900",
"3.	c #BA6900",
"                                                                ",
"                                                                ",
"                                                                ",
"      . + + + + + + + + + + + + + + + + + + + + + + + + .       ",
"      + @ # # # # # # # # # # # # # # # # # # # # # # @ +       ",
"      $ % & & & & & & & & & & & & & & & & & & & & & & % $       ",
"      * = - ; - - - ; - - - - - - - - - - - ; - - - - = *       ",
"      > , ' ' ' ) ' ' ' ' ' ) ) ' ' ' ' ' ) ' ' ! ' ~ , >       ",
"      { ] ^ / ^ ^ ^ ^ ^ ^ ^ ^ ^ ^ ^ ^ ^ ^ / ^ ^ / ^ ^ ] {       ",
"      ( _ : < : : : : < < < < < < : < < < < < : < : < [ }       ",
"      | 1 2 2 3 2 2 2 3 4 3 2 2 2 2 2 2 2 3 3 2 3 2 2 1 |       ",
"      5 6 7 7 7 7 7 7 7 7 7 7 7 7 7 7 7 8 7 7 7 7 7 7 6 5       ",
"      9 0 a a a b c c c c c d c c c c c c c c e a a a 0 9       ",
"      f g h i i i j k k k k k k k k k k k k l m h i i g f       ",
"      n o p p p p p q k k k k k k k k k k l r p p p p o n       ",
"      n s t t t t t t u k k k k k k k k v w t t t t t s n       ",
"      x y z z z z z z z A k k k k k k B C z z z z z z y x       ",
"      D E F F F F F F F F G k k k k H F F F F F F F F E D       ",
"      I J K K K K K K K K K L k k M K K K N K N K K N J I       ",
"      O P Q Q Q R S Q Q Q Q S T U S R Q Q Q Q Q S Q S P O       ",
"      V W X X Y X Z X Y Y Y X Y Y ` X X Y X Y X Y Y X  .V       ",
"      ..+.@.@.@.@.@.@.#.@.@.@.@.$.@.%.@.$.@.$.@.%.@.@.+.&.      ",
"      *.=.-.-.-.-.-.-.-.-.-.-.-.-.-.-.-.-.-.-.-.-.-.-.=.*.      ",
"      ;.>.,.,.,.,.,.,.,.,.,.,.,.,.,.,.,.,.,.,.,.,.,.,.>.;.      ",
"      '.).!.!.!.!.!.!.!.!.!.!.!.!.!.!.!.!.!.!.!.!.!.!.).'.      ",
"      ~.{.].].^.].].].].].]./.].].].]./.].^.].].]././.(.~.      ",
"      _.:.<.[.[.[.<.<.[.[.[.[.[.[.[.[.<.<.<.[.[.[.[.[.:._.      ",
"      _.}.|.|.|.|.|.|.|.|.|.|.|.|.|.|.|.|.|.|.|.|.|.|.}._.      ",
"      1.2.2.2.3.2.2.2.2.3.2.3.2.3.2.3.2.2.2.3.2.2.2.2.3.1.      ",
"                                                                ",
"                                                                ",
"                                                                "};
