/* XPM */
static char * tool_pause_dis_xpm[] = {
"32 32 102 2",
"  	g None",
". 	g #E7E7E7",
"+ 	g #CCCCCC",
"@ 	g #BCBCBC",
"# 	g #B4B4B4",
"$ 	g #D2D2D2",
"% 	g #A0A0A0",
"& 	g #828282",
"* 	g #717171",
"= 	g #777777",
"- 	g #7B7B7B",
"; 	g #7E7E7E",
"> 	g #757575",
", 	g #E6E6E6",
"' 	g #A4A4A4",
") 	g #797979",
"! 	g #7C7C7C",
"~ 	g #A5A5A5",
"{ 	g #BFBFBF",
"] 	g #C2C2C2",
"^ 	g #C1C1C1",
"/ 	g #A9A9A9",
"( 	g #D6D6D6",
"_ 	g #919191",
": 	g #6F6F6F",
"< 	g #A8A8A8",
"[ 	g #C3C3C3",
"} 	g #A7A7A7",
"| 	g #DADADA",
"1 	g #898989",
"2 	g #767676",
"3 	g #B8B8B8",
"4 	g #B6B6B6",
"5 	g #737373",
"6 	g #EAEAEA",
"7 	g #909090",
"8 	g #B5B5B5",
"9 	g #BDBDBD",
"0 	g #C5C5C5",
"a 	g #D3D3D3",
"b 	g #D7D7D7",
"c 	g #CDCDCD",
"d 	g #C6C6C6",
"e 	g #B2B2B2",
"f 	g #AAAAAA",
"g 	g #707070",
"h 	g #B9B9B9",
"i 	g #D1D1D1",
"j 	g #D5D5D5",
"k 	g #C4C4C4",
"l 	g #DCDCDC",
"m 	g #818181",
"n 	g #8E8E8E",
"o 	g #CBCBCB",
"p 	g #D4D4D4",
"q 	g #8A8A8A",
"r 	g #AFAFAF",
"s 	g #AEAEAE",
"t 	g #C8C8C8",
"u 	g #CECECE",
"v 	g #888888",
"w 	g #B7B7B7",
"x 	g #EBEBEB",
"y 	g #B0B0B0",
"z 	g #DFDFDF",
"A 	g #7F7F7F",
"B 	g #FFFFFF",
"C 	g #CACACA",
"D 	g #ACACAC",
"E 	g #BABABA",
"F 	g #858585",
"G 	g #D0D0D0",
"H 	g #B3B3B3",
"I 	g #C7C7C7",
"J 	g #BBBBBB",
"K 	g #CFCFCF",
"L 	g #878787",
"M 	g #B1B1B1",
"N 	g #8B8B8B",
"O 	g #BEBEBE",
"P 	g #838383",
"Q 	g #F1F1F1",
"R 	g #787878",
"S 	g #ABABAB",
"T 	g #9F9F9F",
"U 	g #848484",
"V 	g #ADADAD",
"W 	g #9E9E9E",
"X 	g #A3A3A3",
"Y 	g #A2A2A2",
"Z 	g #999999",
"` 	g #D8D8D8",
" .	g #9C9C9C",
"..	g #DBDBDB",
"+.	g #9D9D9D",
"@.	g #6D6D6D",
"#.	g #929292",
"$.	g #A6A6A6",
"%.	g #808080",
"&.	g #727272",
"*.	g #686868",
"=.	g #6C6C6C",
"                                                                ",
"                                                                ",
"                        . + @ # # @ + .                         ",
"                    $ % & * = - ; - > & % $                     ",
"                , ' ) ! ~ { ] ] ] ] ^ / ; ) ' ,                 ",
"              ( _ : < [ [ [ [ [ [ [ [ [ [ } : _ (               ",
"            | 1 2 3 ] ] ] ] ] [ [ ] ] ] ] ] 4 5 1 |             ",
"          6 7 5 8 9 9 0 + a ( b b ( a c d 9 9 e * 7 6           ",
"          f g / h [ i j j j j j j j j j j $ k h ~ g f           ",
"        l m n 4 o p p p p p p p p p p p p p p c 3 q m l         ",
"        r 2 s + a a ^ 9 9 9 k a a t 9 9 9 9 $ a u r 2 r         ",
"        v q 0 $ $ $ w x x x # $ $ y x x x ^ u $ $ t q v         ",
"      z A / i i i i @ B B B 3 i i s B B B C c i i i D A z       ",
"      c ; ] i i i i E B B B 4 i i D B B B t + i i i d ; c       ",
"      d F c G G G G 3 B B B H G G f B B B I J ] o G K F d       ",
"      t L G G G G G 4 B B B M G c ' B B B 0 J { { c G N t       ",
"      j ; o i i i i # B B B s d ] % B B B [ O ] ] d c P j       ",
"      Q R @ c i i i e B B B S d d % B B B ^ ^ d d d ] R Q       ",
"        n } C C + + r B B B f C C T B B B { k C C C s n         ",
"        O U t c c c V B B B < c c W B B B O I c c C L O         ",
"          - X G i i W } } } Y i i S } } } Z u i i / -           ",
"          I 2 S a p p p p p p p p p p p p p p a M 2 I           ",
"            Y ; ~ c ` ` ` ` ` ` ` ` ` ` ` ` G / ; Y             ",
"              7 -  .H K ................i 4 +.- 7               ",
"                < @.#.+.' # 9 ] [ 9 8 $.+.#.@.<                 ",
"                  | %.&.N W % % % % W N &.%.|                   ",
"                      i W 5 *.=.=.*.5 W i                       ",
"                                                                ",
"                                                                ",
"                                                                ",
"                                                                ",
"                                                                "};
