/* XPM */
static char * tool_reload_xpm[] = {
"32 32 179 2",
"  	c None",
". 	c #AC6E1C",
"+ 	c #9F6212",
"@ 	c #A56716",
"# 	c #C2812D",
"$ 	c #9F6111",
"% 	c #C2802B",
"& 	c #FDB557",
"* 	c #9F6110",
"= 	c #C17F29",
"- 	c #FCB353",
"; 	c #FDB353",
"> 	c #C17E27",
", 	c #FCB150",
"' 	c #FBB150",
") 	c #FCB050",
"! 	c #FBB050",
"~ 	c #9F600F",
"{ 	c #C17D25",
"] 	c #FBAF4C",
"^ 	c #FBAE4C",
"/ 	c #9E600E",
"( 	c #C07C23",
"_ 	c #FAAD48",
": 	c #FAAC48",
"< 	c #FAB257",
"[ 	c #FBC785",
"} 	c #FDE6C9",
"| 	c #FFFFFF",
"1 	c #FDE1BD",
"2 	c #FAB65F",
"3 	c #FAAC4A",
"4 	c #FBBD6E",
"5 	c #9E5F0D",
"6 	c #C07B21",
"7 	c #F9AA44",
"8 	c #F9AB44",
"9 	c #F9AB46",
"0 	c #FBC988",
"a 	c #FEFAF5",
"b 	c #FEFBF7",
"c 	c #FBCD91",
"d 	c #FDE4C3",
"e 	c #FEF4E6",
"f 	c #F9AF4D",
"g 	c #BF7A20",
"h 	c #F8A841",
"i 	c #F8A944",
"j 	c #FCDAB0",
"k 	c #FEFEFE",
"l 	c #FEFDFC",
"m 	c #F8B156",
"n 	c #9E5E0C",
"o 	c #BF791E",
"p 	c #F7A63D",
"q 	c #F9C179",
"r 	c #FDF2E2",
"s 	c #FCE1BF",
"t 	c #FEFBF6",
"u 	c #FACB8F",
"v 	c #9E5E0B",
"w 	c #BE781C",
"x 	c #F7A439",
"y 	c #F6A439",
"z 	c #F6A53C",
"A 	c #FDEBD3",
"B 	c #FEFEFD",
"C 	c #FAD4A2",
"D 	c #F6A843",
"E 	c #F8B054",
"F 	c #FDF3E5",
"G 	c #FDEDD8",
"H 	c #9E5E0A",
"I 	c #BE771A",
"J 	c #F6A236",
"K 	c #F9C480",
"L 	c #FEFDFB",
"M 	c #FDEDD9",
"N 	c #F6A339",
"O 	c #F8B764",
"P 	c #FEFAF6",
"Q 	c #F7B157",
"R 	c #9D5D0A",
"S 	c #BE7618",
"T 	c #F5A032",
"U 	c #FACF98",
"V 	c #FAD29F",
"W 	c #F8C17B",
"X 	c #FCE4C6",
"Y 	c #FDF1E2",
"Z 	c #F7B867",
"` 	c #9D5D09",
" .	c #BD7516",
"..	c #F49E2E",
"+.	c #F9CE96",
"@.	c #F5AE51",
"#.	c #F5AF52",
"$.	c #F6B662",
"%.	c #F8C37F",
"&.	c #FBDCB3",
"*.	c #F8C584",
"=.	c #9D5C08",
"-.	c #BD7414",
";.	c #F39C2A",
">.	c #F9CD94",
",.	c #F9D3A1",
"'.	c #F39D2E",
").	c #9D5C07",
"!.	c #BC7313",
"~.	c #F29A27",
"{.	c #F3A744",
"].	c #F4AA49",
"^.	c #F29A26",
"/.	c #F29B28",
"(.	c #9D5B07",
"_.	c #BC7211",
":.	c #F19823",
"<.	c #F19825",
"[.	c #FBE3C5",
"}.	c #FDF2E4",
"|.	c #F7C27C",
"1.	c #F4A948",
"2.	c #F9D29F",
"3.	c #FDF7EE",
"4.	c #F4B056",
"5.	c #F29823",
"6.	c #BC7111",
"7.	c #9D5B06",
"8.	c #BC700F",
"9.	c #F1961F",
"0.	c #F1951F",
"a.	c #F3B057",
"b.	c #FEF8F0",
"c.	c #F4AB4F",
"d.	c #BB700F",
"e.	c #9C5B06",
"f.	c #9C5B05",
"g.	c #BB6F0D",
"h.	c #F0931C",
"i.	c #F0931D",
"j.	c #F5B86A",
"k.	c #FDF4E9",
"l.	c #FEF7EF",
"m.	c #F3AA4C",
"n.	c #F0931B",
"o.	c #F0941C",
"p.	c #9C5A04",
"q.	c #BB6E0B",
"r.	c #EF9118",
"s.	c #F09C30",
"t.	c #F7CD97",
"u.	c #FEF8F2",
"v.	c #FBE5C9",
"w.	c #F2AA4E",
"x.	c #BA6D09",
"y.	c #EE8F14",
"z.	c #EF9828",
"A.	c #F2AB4E",
"B.	c #EF9A2B",
"C.	c #EE9017",
"D.	c #9C5903",
"E.	c #BA6C07",
"F.	c #ED8D10",
"G.	c #9C5902",
"H.	c #B96B05",
"I.	c #EC8B0D",
"J.	c #ED8B0D",
"K.	c #EC8B0C",
"L.	c #B96B06",
"M.	c #9B5901",
"N.	c #B96A04",
"O.	c #EB8909",
"P.	c #EC8909",
"Q.	c #9C5901",
"R.	c #9B5801",
"S.	c #A05B01",
"T.	c #B96902",
"U.	c #A55E00",
"V.	c #9B5800",
"                                                                ",
"                                                                ",
"                                                                ",
"      . + + + + + + + + + + + + + + + + + + + + + + + + .       ",
"      + @ # # # # # # # # # # # # # # # # # # # # # # @ +       ",
"      $ % & & & & & & & & & & & & & & & & & & & & & & % $       ",
"      * = - ; - - - ; - - - - - - - - - - - ; - - - - = *       ",
"      * > , , , ' , , , , , ' ' , , , , , ' , , ) , ! > *       ",
"      ~ { ] ^ ] ] ] ] ] ] ] ] ] ] ] ] ] ] ^ ] ] ^ ] ] { ~       ",
"      / ( _ : _ _ _ _ : < [ } | | 1 2 : 3 4 : _ : _ : ( /       ",
"      5 6 7 7 8 7 7 9 0 a | | | | | b c d e f 7 8 7 7 6 5       ",
"      5 g h h h h i j k | | | | | | | | | l m h h h h g 5       ",
"      n o p p p p q | | | | r s t | | | | | u p p p p o n       ",
"      v w x y y z A | | B C D y E F | | | | G y x y y w v       ",
"      H I J J J K L | | M N J J O | | | | | P Q J J J I H       ",
"      R S T T T U | | | V T T T W X Y t | | | Z T T T S R       ",
"      `  .......+.| | | @.............#.$.%.&.*....... .`       ",
"      =.-.;.;.;.>.| | | ,.;.;.;.;.;.;.;.;.;.;.'.;.;.;.-.=.      ",
"      ).!.~.~.~.{.a | | F ].~.~.^./.].~.~.^.~.^.~.~.^.!.).      ",
"      (._.:.:.:.<.[.| | | }.|.1.1.2.3.4.:.:.:.:.5.:.5.6.).      ",
"      7.8.9.9.0.9.a.B | | | | | | | | b.c.9.0.9.0.0.9.d.e.      ",
"      f.g.h.h.h.h.i.j.k.| | | | | | | l.m.h.n.h.o.h.h.g.f.      ",
"      p.q.r.r.r.r.r.r.s.t.u.| | | a v.w.r.r.r.r.r.r.r.q.p.      ",
"      p.x.y.y.y.y.y.y.y.y.z.A.A.A.B.C.y.y.y.y.y.y.y.y.x.p.      ",
"      D.E.F.F.F.F.F.F.F.F.F.F.F.F.F.F.F.F.F.F.F.F.F.F.E.D.      ",
"      G.H.I.I.J.I.I.I.I.I.I.K.I.I.I.I.K.I.J.I.I.I.K.K.L.G.      ",
"      M.N.O.P.P.P.O.O.P.P.P.P.P.P.P.P.O.O.O.P.P.P.P.P.N.Q.      ",
"      R.S.T.T.T.T.T.T.T.T.T.T.T.T.T.T.T.T.T.T.T.T.T.T.S.R.      ",
"      U.V.V.V.V.V.V.V.V.V.V.V.V.V.V.V.V.V.V.V.V.V.V.V.V.U.      ",
"                                                                ",
"                                                                ",
"                                                                "};
