/* XPM */
static char * tool_proxy_dis_xpm[] = {
"32 32 126 2",
"  	g None",
". 	g #C1C1C1",
"+ 	g #C4C4C4",
"@ 	g #C7C7C7",
"# 	g #A8A8A8",
"$ 	g #7D7D7D",
"% 	g #7C7C7C",
"& 	g #7A7A7A",
"* 	g #787878",
"= 	g #777777",
"- 	g #747474",
"; 	g #727272",
"> 	g #979797",
", 	g #C2C2C2",
"' 	g #B9B9B9",
") 	g #BCBCBC",
"! 	g #BFBFBF",
"~ 	g #BEBEBE",
"{ 	g #B0B0B0",
"] 	g #A2A2A2",
"^ 	g #606060",
"/ 	g #666666",
"( 	g #696969",
"_ 	g #676767",
": 	g #656565",
"< 	g #626262",
"[ 	g #5F5F5F",
"} 	g #8D8D8D",
"| 	g #C0C0C0",
"1 	g #BABABA",
"2 	g #D6D6D6",
"3 	g #F6F6F6",
"4 	g #F3F3F3",
"5 	g #F5F5F5",
"6 	g #DFDFDF",
"7 	g #616161",
"8 	g #646464",
"9 	g #686868",
"0 	g #5E5E5E",
"a 	g #8C8C8C",
"b 	g #D4D4D4",
"c 	g #F0F0F0",
"d 	g #F4F4F4",
"e 	g #DCDCDC",
"f 	g #B2B2B2",
"g 	g #A4A4A4",
"h 	g #636363",
"i 	g #6B6B6B",
"j 	g #6C6C6C",
"k 	g #919191",
"l 	g #DBDBDB",
"m 	g #C6C6C6",
"n 	g #EFEFEF",
"o 	g #EAEAEA",
"p 	g #EDEDED",
"q 	g #CECECE",
"r 	g #CACACA",
"s 	g #A5A5A5",
"t 	g #6D6D6D",
"u 	g #707070",
"v 	g #737373",
"w 	g #757575",
"x 	g #989898",
"y 	g #D3D3D3",
"z 	g #D0D0D0",
"A 	g #DDDDDD",
"B 	g #B8B8B8",
"C 	g #999999",
"D 	g #9C9C9C",
"E 	g #9D9D9D",
"F 	g #9E9E9E",
"G 	g #CDCDCD",
"H 	g #D7D7D7",
"I 	g #CBCBCB",
"J 	g #AAAAAA",
"K 	g #CFCFCF",
"L 	g #A7A7A7",
"M 	g #A0A0A0",
"N 	g #A1A1A1",
"O 	g #E0E0E0",
"P 	g #AFAFAF",
"Q 	g #B1B1B1",
"R 	g #C9C9C9",
"S 	g #B3B3B3",
"T 	g #B4B4B4",
"U 	g #AEAEAE",
"V 	g #B6B6B6",
"W 	g #E6E6E6",
"X 	g #E4E4E4",
"Y 	g #C3C3C3",
"Z 	g #BBBBBB",
"` 	g #A9A9A9",
" .	g #ADADAD",
"..	g #D8D8D8",
"+.	g #D2D2D2",
"@.	g #A6A6A6",
"#.	g #767676",
"$.	g #717171",
"%.	g #6E6E6E",
"&.	g #939393",
"*.	g #D1D1D1",
"=.	g #C8C8C8",
"-.	g #909090",
";.	g #A3A3A3",
">.	g #5D5D5D",
",.	g #8F8F8F",
"'.	g #D5D5D5",
").	g #9B9B9B",
"!.	g #CCCCCC",
"~.	g #B5B5B5",
"{.	g #EBEBEB",
"].	g #E9E9E9",
"^.	g #E5E5E5",
"/.	g #ECECEC",
"(.	g #9A9A9A",
"_.	g #B7B7B7",
":.	g #969696",
"<.	g #878787",
"[.	g #8E8E8E",
"}.	g #868686",
"|.	g #8A8A8A",
"1.	g #6A6A6A",
"2.	g #949494",
"3.	g #9F9F9F",
"4.	g #929292",
"5.	g #C5C5C5",
"                                                                ",
"                                                                ",
"                                                                ",
"                                      . + + + + + + + +         ",
"                                    @ # $ % & * = - ; > ,       ",
"              ' ) ! ! ! ! ~ {       @ ] ^ / ( _ : < [ } |       ",
"            1 2 3 4 4 4 4 5 6 {     @ ] 7 8 _ 9 8 7 0 a |       ",
"          ) b 5 c c c c c c d e f   @ g h / 9 i j ( 9 k !       ",
"        l m n o o o o o o o o p q r @ s : 9 i t u v w x |       ",
"        y b z m @ @ @ @ @ @ m q A | @ B x C x C D E F { .       ",
"        y b G y H H H H H H q I A |   , @ , J # J @ @ m         ",
"        y b K m m m m m m m m q A |       L ] M N ] O G         ",
"        y b K m @ @ @ @ @ @ m q A | . P g N N ] ] ] J J J       ",
"        y b G y H H H H H H q I A | @ P # # # # # J Q J R       ",
"        y b K m @ @ @ @ @ @ m q A | ' S T { P J U { 1 S V       ",
"        y b K m @ @ @ @ @ @ m q A |         W D 9               ",
"        y b G y H H H H H H q I A |         X E 9               ",
"        y b K m @ @ @ @ @ @ m q A |   Y Z Z B `  .Z Z .         ",
"        y b ..H H H +.q q q q +.A | @ @.w #.v $.%.j ( &..       ",
"        y b ..H H H @ *.*.*.*.=.A | @ ] [ h _ _ 8 7 [ -.|       ",
"        y b ..H H H @ I I I I =.A | @ ;.7 8 _ 9 8 ^ >.,.|       ",
"        y b ..H H H b y y y y '.A | @ g h / 9 i %.%.%.> !       ",
"        y b ..2 2 H H H H H H H A | @ @.: 9 i t u v w )..       ",
"        y b q B U !.H H H H H H A | r Y T S  .U Q ~.V . +       ",
"        y b p {.].^.^.^.W o {./.A |   @ + ! E x (._.q Z         ",
"          _.{ ;.:.<.C [.}.&.M J f     ` ] :.&.k &.&.B S         ",
"      m +  .x 7 $.} D x |.w 1.k ;.Z T ~ U U U U U P ' ~.{       ",
"      !.# 2.<.t |.|.|.|.|.|.1.}.} M ~.L ] 3.3.3.M g  .] Y       ",
"              ).N x 4.4.:.M m O     Y @ @ 5.5.5.m 5.R r .       ",
"                                                                ",
"                                                                ",
"                                                                "};
