/* XPM */
static char * tool_run_xpm[] = {
"32 32 111 2",
"  	c None",
". 	c #1E8300",
"+ 	c #1C7A00",
"@ 	c #1C7900",
"# 	c #1D7D00",
"$ 	c #229100",
"% 	c #219100",
"& 	c #219000",
"* 	c #2BB700",
"= 	c #2BB600",
"- 	c #1C7800",
"; 	c #218E00",
"> 	c #2AB400",
", 	c #2BB400",
"' 	c #218D00",
") 	c #2AB100",
"! 	c #29B100",
"~ 	c #1C7700",
"{ 	c #208B00",
"] 	c #29AE00",
"^ 	c #208A00",
"/ 	c #28AB00",
"( 	c #1C7600",
"_ 	c #1F8800",
": 	c #28A800",
"< 	c #5DBD40",
"[ 	c #FFFFFF",
"} 	c #C9E9BF",
"| 	c #27A800",
"1 	c #1B7500",
"2 	c #1F8700",
"3 	c #27A500",
"4 	c #5DBC40",
"5 	c #C8E8BF",
"6 	c #6AC150",
"7 	c #27A600",
"8 	c #1F8600",
"9 	c #26A200",
"0 	c #26A300",
"a 	c #5CB940",
"b 	c #E3F3DF",
"c 	c #77C560",
"d 	c #1B7400",
"e 	c #1E8400",
"f 	c #25A000",
"g 	c #26A000",
"h 	c #5CB740",
"i 	c #92CF80",
"j 	c #33A510",
"k 	c #1F8400",
"l 	c #259D00",
"m 	c #259C00",
"n 	c #5BB540",
"o 	c #F1F8EF",
"p 	c #92CE80",
"q 	c #32A310",
"r 	c #1B7300",
"s 	c #1E8100",
"t 	c #249A00",
"u 	c #5AB340",
"v 	c #C8E5BF",
"w 	c #1D8000",
"x 	c #249700",
"y 	c #5AB140",
"z 	c #E3F1DF",
"A 	c #68B750",
"B 	c #1B7200",
"C 	c #1D7E00",
"D 	c #239400",
"E 	c #5AAE40",
"F 	c #91C980",
"G 	c #309A10",
"H 	c #1A7100",
"I 	c #229200",
"J 	c #59AC40",
"K 	c #C7E3BF",
"L 	c #3D9F20",
"M 	c #1D7B00",
"N 	c #228F00",
"O 	c #58AA40",
"P 	c #F1F7EF",
"Q 	c #67B150",
"R 	c #218F00",
"S 	c #228E00",
"T 	c #1A7000",
"U 	c #218C00",
"V 	c #58A840",
"W 	c #9DCC8F",
"X 	c #2E9310",
"Y 	c #218B00",
"Z 	c #208900",
"` 	c #57A640",
" .	c #C7E1BF",
"..	c #499F30",
"+.	c #1A6F00",
"@.	c #1B7700",
"#.	c #208600",
"$.	c #499C30",
"%.	c #C7E0BF",
"&.	c #73B360",
"*.	c #1B7600",
"=.	c #1F8300",
"-.	c #1A6E00",
";.	c #1E8000",
">.	c #1A6D00",
",.	c #1A7300",
"'.	c #1E7D00",
").	c #1E7E00",
"!.	c #196D00",
"~.	c #1D7A00",
"{.	c #196C00",
"                                                                ",
"                                                                ",
"                                                                ",
"      . + + + + + + + + + + + + + + + + + + + + + + + + .       ",
"      @ # $ $ $ $ $ $ $ $ $ $ $ $ $ $ $ $ $ % $ $ $ % # @       ",
"      @ & * * * * * * * * = * * * * * * * * = * * * * & @       ",
"      - ; > > > , > > > > > > > > > > > > > > > > > > ; -       ",
"      - ' ) ) ) ) ) ) ) ) ) ) ) ) ! ) ) ) ) ) ) ) ) ) ' -       ",
"      ~ { ] ] ] ] ] ] ] ] ] ] ] ] ] ] ] ] ] ] ] ] ] ] { ~       ",
"      ~ ^ / / / / / / / / / / / / / / / / / / / / / / ^ ~       ",
"      ( _ : : : : < [ } < : : : : : : : | | : : : : | _ (       ",
"      1 2 3 3 3 3 4 [ [ [ 5 6 3 3 7 3 3 3 3 3 3 3 3 3 2 1       ",
"      1 8 9 9 0 9 a [ [ [ [ [ b c 9 0 9 9 9 9 0 0 9 9 8 1       ",
"      d e f g f g h [ [ [ [ [ [ [ b i j f g g f g g f k d       ",
"      d . l l m l n [ [ [ [ [ [ [ [ [ o p q l l l l l . d       ",
"      r s t t t t u [ [ [ [ [ [ [ [ [ [ [ v t t t t t s r       ",
"      r w x x x x y [ [ [ [ [ [ [ [ [ [ z A x x x x x w r       ",
"      B C D D D D E [ [ [ [ [ [ [ [ [ F G D D D D D D C B       ",
"      H # I $ $ $ J [ [ [ [ [ [ [ K L $ I $ $ $ $ I $ # H       ",
"      H M ; N ; N O [ [ [ [ [ P Q R S ; S S S S ; ; S M H       ",
"      T + U U U U V [ [ [ [ W X U U U Y U U U U U U Y + T       ",
"      T @ Z Z Z Z ` [ [  ...Z Z Z Z Z Z Z Z Z Z Z Z Z @ T       ",
"      +.@.8 #.#.#.$.%.&.8 8 #.#.8 8 8 #.#.8 8 #.8 #.8 ~ +.      ",
"      +.*.=.=.=.=.=.=.=.=.=.=.=.=.=.=.=.=.=.=.=.=.=.=.*.+.      ",
"      -.d ;.;.;.;.;.;.;.;.;.;.;.;.;.;.;.;.;.;.;.;.;.;.d -.      ",
"      >.,.'.'.# '.# ).# '.# # '.# # # # '.'.# # # '.'.r !.      ",
"      !.H ~.~.~.~.~.~.~.~.~.~.~.~.~.~.~.~.~.~.~.~.~.~.H !.      ",
"      {.!.T T T T T T T T T T T T T T T T T T T T T T !.{.      ",
"      !.{.{.{.{.{.{.{.{.{.{.{.{.{.{.{.{.{.{.{.{.{.{.{.{.!.      ",
"                                                                ",
"                                                                ",
"                                                                "};
