/* XPM */
static char * tool_delete_xpm[] = {
"32 32 148 2",
"  	c None",
". 	c #9E2C3F",
"+ 	c #A1272E",
"@ 	c #A0272E",
"# 	c #A0272D",
"$ 	c #AE2A2A",
"% 	c #C83434",
"& 	c #A0262D",
"* 	c #C63434",
"= 	c #FA4A4A",
"- 	c #FA4B4A",
"; 	c #FA4B4B",
"> 	c #FA4A4B",
", 	c #9F262D",
"' 	c #C53434",
") 	c #F84A4A",
"! 	c #C43333",
"~ 	c #F64949",
"{ 	c #F54949",
"] 	c #9E262D",
"^ 	c #C33333",
"/ 	c #F34848",
"( 	c #F34B4B",
"_ 	c #F9B1B1",
": 	c #F78C8C",
"< 	c #F67F7F",
"[ 	c #F35454",
"} 	c #9E262C",
"| 	c #C23332",
"1 	c #F14747",
"2 	c #F14748",
"3 	c #F14C4C",
"4 	c #FAC3C3",
"5 	c #FFFFFF",
"6 	c #F68C8C",
"7 	c #FCE0E0",
"8 	c #F25757",
"9 	c #F14847",
"0 	c #C23232",
"a 	c #9D252D",
"b 	c #9D252C",
"c 	c #C03232",
"d 	c #EE4747",
"e 	c #FBD5D5",
"f 	c #F38080",
"g 	c #EE4746",
"h 	c #FCE8E8",
"i 	c #F06666",
"j 	c #EE4647",
"k 	c #9C252C",
"l 	c #BF3232",
"m 	c #EC4646",
"n 	c #F38B8B",
"o 	c #F28989",
"p 	c #BE3131",
"q 	c #EA4545",
"r 	c #F18B8B",
"s 	c #E94545",
"t 	c #9B252C",
"u 	c #BD3131",
"v 	c #E74444",
"w 	c #EE7E7E",
"x 	c #9B252B",
"y 	c #BC3031",
"z 	c #E54444",
"A 	c #E54344",
"B 	c #E54343",
"C 	c #EE8A8A",
"D 	c #EE898A",
"E 	c #E54443",
"F 	c #9B242C",
"G 	c #9A242B",
"H 	c #BA3030",
"I 	c #E34343",
"J 	c #E24343",
"K 	c #ED8989",
"L 	c #EC8989",
"M 	c #B93030",
"N 	c #E04242",
"O 	c #EB8989",
"P 	c #99242B",
"Q 	c #B82F2F",
"R 	c #DE4141",
"S 	c #EA8888",
"T 	c #DD4141",
"U 	c #B72F2F",
"V 	c #DC4040",
"W 	c #DB4040",
"X 	c #DB4041",
"Y 	c #E67B7B",
"Z 	c #98232B",
"` 	c #B62F2F",
" .	c #D94040",
"..	c #E78787",
"+.	c #98232A",
"@.	c #B52E2E",
"#.	c #D63F3F",
"$.	c #D73F3F",
"%.	c #E58787",
"&.	c #B42E2E",
"*.	c #97232A",
"=.	c #B32E2E",
"-.	c #D43E3E",
";.	c #F8E3E3",
">.	c #E17A7A",
",.	c #F8E0E0",
"'.	c #D54343",
").	c #B22D2D",
"!.	c #D23D3E",
"~.	c #D23D3D",
"{.	c #D44847",
"].	c #F6DBDB",
"^.	c #E28686",
"/.	c #D23E3D",
"(.	c #D64F50",
"_.	c #96232A",
":.	c #B12D2D",
"<.	c #CF3D3D",
"[.	c #D03D3D",
"}.	c #CF3C3C",
"|.	c #CF3D3C",
"1.	c #D24C4C",
"2.	c #F5D6D6",
"3.	c #E18686",
"4.	c #CF3C3D",
"5.	c #E18586",
"6.	c #F5D7D7",
"7.	c #D24849",
"8.	c #96222A",
"9.	c #B02D2D",
"0.	c #CD3C3C",
"a.	c #CD3E3E",
"b.	c #CD3D3D",
"c.	c #952229",
"d.	c #AE2C2C",
"e.	c #CA3B3B",
"f.	c #CB3B3B",
"g.	c #AD2C2C",
"h.	c #C83A3A",
"i.	c #942229",
"j.	c #A02525",
"k.	c #AC2B2C",
"l.	c #AC2C2C",
"m.	c #AC2C2B",
"n.	c #AC2B2B",
"o.	c #882135",
"p.	c #942129",
"q.	c #882035",
"                                                                ",
"                                                                ",
"                                                                ",
"      . + @ + + + + + + + + + + @ @ + + + + + + + @ + @ .       ",
"      # $ % % % % % % % % % % % % % % % % % % % % % % $ #       ",
"      & * = - ; > > = - = = > > > - = > = > - = > - ; * &       ",
"      , ' ) ) ) ) ) ) ) ) ) ) ) ) ) ) ) ) ) ) ) ) ) ) ' ,       ",
"      , ! ~ ~ ~ ~ ~ ~ ~ { ~ { { { ~ { { ~ { { ~ ~ ~ ~ ! ]       ",
"      ] ^ / / / / ( _ : / / / / / / / / < [ / / / / / ^ ]       ",
"      } | 1 2 1 3 4 5 5 6 1 1 1 1 1 2 6 5 7 8 1 1 9 1 0 a       ",
"      b c d d d e 5 5 5 5 f g d d d f 5 5 5 h i g j d c b       ",
"      k l m m m n 5 5 5 5 5 n m m n 5 5 5 5 5 o m m m l k       ",
"      k p q q q q r 5 5 5 5 5 r r 5 5 5 5 5 r q s q s p k       ",
"      t u v v v v v w 5 5 5 5 5 5 5 5 5 5 w v v v v v u t       ",
"      x y z z A A A B C 5 5 5 5 5 5 5 5 D z A A A B E y F       ",
"      G H I J J J J J J K 5 5 5 5 5 5 L J J I J J J J H G       ",
"      G M N N N N N N N O 5 5 5 5 5 5 O N N N N N N N M G       ",
"      P Q R R R R R R S 5 5 5 5 5 5 5 5 S R R R T R R Q P       ",
"      P U V W W X W Y 5 5 5 5 5 5 5 5 5 5 Y W W W X W U P       ",
"      Z `  . . . ...5 5 5 5 5 ....5 5 5 5 5 .. . . . .` Z       ",
"      +.@.#.$.#.%.5 5 5 5 5 %.#.#.%.5 5 5 5 5 %.#.#.#.&.+.      ",
"      *.=.-.-.-.;.5 5 5 5 >.-.-.-.-.>.5 5 5 5 ,.'.-.-.=.*.      ",
"      *.).!.~.~.{.].5 5 ^.~.~.~.~./.!.^.5 5 ].(.~.!.~.).*.      ",
"      _.:.<.[.}.|.1.2.3.<.}.<.}.4.|.<.|.5.6.7.4.4.|.<.:.8.      ",
"      8.9.0.0.0.0.0.a.0.0.0.0.0.0.0.0.0.0.b.0.0.0.0.0.9.8.      ",
"      c.d.e.e.e.f.f.f.f.e.e.f.f.e.e.e.e.e.e.f.f.e.e.e.d.c.      ",
"      c.g.h.h.h.h.h.h.h.h.h.h.h.h.h.h.h.h.h.h.h.h.h.h.g.c.      ",
"      i.j.k.l.k.k.m.m.m.n.l.n.n.n.m.k.m.m.n.n.n.n.m.k.j.i.      ",
"      o.i.i.i.i.i.i.i.i.i.i.i.i.i.i.i.i.i.i.i.p.i.i.i.i.q.      ",
"                                                                ",
"                                                                ",
"                                                                "};
