/* XPM */
static char * tool_sub_dis_xpm[] = {
"32 32 96 2",
"  	g None",
". 	g #E7E7E7",
"+ 	g #CCCCCC",
"@ 	g #BCBCBC",
"# 	g #B4B4B4",
"$ 	g #D2D2D2",
"% 	g #A0A0A0",
"& 	g #828282",
"* 	g #717171",
"= 	g #777777",
"- 	g #7B7B7B",
"; 	g #7E7E7E",
"> 	g #757575",
", 	g #E6E6E6",
"' 	g #A4A4A4",
") 	g #797979",
"! 	g #7C7C7C",
"~ 	g #A5A5A5",
"{ 	g #BFBFBF",
"] 	g #C2C2C2",
"^ 	g #C1C1C1",
"/ 	g #A9A9A9",
"( 	g #D6D6D6",
"_ 	g #919191",
": 	g #6F6F6F",
"< 	g #A8A8A8",
"[ 	g #C3C3C3",
"} 	g #A7A7A7",
"| 	g #DADADA",
"1 	g #898989",
"2 	g #767676",
"3 	g #B8B8B8",
"4 	g #B6B6B6",
"5 	g #737373",
"6 	g #EAEAEA",
"7 	g #909090",
"8 	g #B5B5B5",
"9 	g #BDBDBD",
"0 	g #C5C5C5",
"a 	g #D3D3D3",
"b 	g #CDCDCD",
"c 	g #C6C6C6",
"d 	g #B2B2B2",
"e 	g #AAAAAA",
"f 	g #707070",
"g 	g #B9B9B9",
"h 	g #D1D1D1",
"i 	g #D5D5D5",
"j 	g #C4C4C4",
"k 	g #DCDCDC",
"l 	g #818181",
"m 	g #8E8E8E",
"n 	g #CBCBCB",
"o 	g #D4D4D4",
"p 	g #8A8A8A",
"q 	g #AFAFAF",
"r 	g #AEAEAE",
"s 	g #CECECE",
"t 	g #888888",
"u 	g #C8C8C8",
"v 	g #DFDFDF",
"w 	g #7F7F7F",
"x 	g #BEBEBE",
"y 	g #BABABA",
"z 	g #A3A3A3",
"A 	g #A1A1A1",
"B 	g #ACACAC",
"C 	g #FFFFFF",
"D 	g #858585",
"E 	g #D0D0D0",
"F 	g #9F9F9F",
"G 	g #CFCFCF",
"H 	g #878787",
"I 	g #9E9E9E",
"J 	g #8B8B8B",
"K 	g #838383",
"L 	g #F1F1F1",
"M 	g #787878",
"N 	g #9D9D9D",
"O 	g #CACACA",
"P 	g #848484",
"Q 	g #C7C7C7",
"R 	g #ABABAB",
"S 	g #D8D8D8",
"T 	g #B1B1B1",
"U 	g #A2A2A2",
"V 	g #9C9C9C",
"W 	g #B3B3B3",
"X 	g #DBDBDB",
"Y 	g #6D6D6D",
"Z 	g #929292",
"` 	g #A6A6A6",
" .	g #808080",
"..	g #727272",
"+.	g #686868",
"@.	g #6C6C6C",
"                                                                ",
"                                                                ",
"                        . + @ # # @ + .                         ",
"                    $ % & * = - ; - > & % $                     ",
"                , ' ) ! ~ { ] ] ] ] ^ / ; ) ' ,                 ",
"              ( _ : < [ [ [ [ [ [ [ [ [ [ } : _ (               ",
"            | 1 2 3 ] ] ] ] ] [ [ ] ] ] ] ] 4 5 1 |             ",
"          6 7 5 8 9 9 0 + a a a a a a b c 9 9 d * 7 6           ",
"          e f / g [ h i i a a a a a a i i $ j g ~ f e           ",
"        k l m 4 n o o o o a a a a a a o o o o b 3 p l k         ",
"        q 2 r + a a a a a a a a a a a a a a a a s q 2 q         ",
"        t p 0 $ $ $ $ $ $ a a a a a a $ $ $ $ $ $ u p t         ",
"      v w / h h { x @ y 3 # < < < < ~ < ~ z A z h h B w v       ",
"      b ; ] h h 0 C C C C C C C C C C C C C C z h h c ; b       ",
"      c D b E E 0 C C C C C C C C C C C C C C F n E G D c       ",
"      u H E E E j C C C C C C C C C C C C C C I { b E J u       ",
"      i ; n h h j C C C C C C C C C C C C C C I ] c b K i       ",
"      L M @ b h { x @ g # d d d d d ' ' A F N I c c ] M L       ",
"        m } O O + + n O O b b b b b b O O O O O O O r m         ",
"        x P u b b b b b b b b b b b b b b b b b b O H x         ",
"          - z E h h h h h b b b b b b h h h h h h / -           ",
"          Q 2 R a o o o o S S S S S S o o o o a T 2 Q           ",
"            U ; ~ b S S S S S S S S S S S S E / ; U             ",
"              7 - V W G X X X X X X X X h 4 N - 7               ",
"                < Y Z N ' # 9 ] [ 9 8 ` N Z Y <                 ",
"                  |  ...J I % % % % I J .. .|                   ",
"                      h I 5 +.@.@.+.5 I h                       ",
"                                                                ",
"                                                                ",
"                                                                ",
"                                                                ",
"                                                                "};
