/* XPM */
static char * tool_reloadtest_xpm[] = {
"32 32 183 2",
"  	c None",
". 	c #FDF44E",
"+ 	c #F6E521",
"@ 	c #EBDD14",
"# 	c #E2D710",
"$ 	c #F8E827",
"% 	c #C6C208",
"& 	c #9D9903",
"* 	c #8E7C04",
"= 	c #A97A0B",
"- 	c #B47A0E",
"; 	c #B97C0F",
"> 	c #AE7D0C",
", 	c #977F06",
"' 	c #FCF24C",
") 	c #CCC70A",
"! 	c #958A03",
"~ 	c #B47D0D",
"{ 	c #EBA11F",
"] 	c #F8BB30",
"^ 	c #F8BE33",
"/ 	c #F8BD32",
"( 	c #EEA522",
"_ 	c #B77E0E",
": 	c #FAE82E",
"< 	c #B1AF04",
"[ 	c #957707",
"} 	c #ECA520",
"| 	c #F8BF33",
"1 	c #ECA41F",
"2 	c #937706",
"3 	c #FBE936",
"4 	c #A4A403",
"5 	c #A17B09",
"6 	c #F4B629",
"7 	c #F8BF30",
"8 	c #F8C230",
"9 	c #F4B428",
"0 	c #9C7A08",
"a 	c #FDF264",
"b 	c #B2AC05",
"c 	c #9A7B07",
"d 	c #F3B426",
"e 	c #F6BD2B",
"f 	c #F7CA2C",
"g 	c #F9D72C",
"h 	c #F9EA24",
"i 	c #F9D92C",
"j 	c #F8CB2C",
"k 	c #F1B124",
"l 	c #957A06",
"m 	c #DCC310",
"n 	c #8C7D03",
"o 	c #EBAA1D",
"p 	c #F4B928",
"q 	c #F7CB28",
"r 	c #F9E429",
"s 	c #FAEA2A",
"t 	c #F9E529",
"u 	c #F7CC28",
"v 	c #F4B927",
"w 	c #E7A61B",
"x 	c #8A7D03",
"y 	c #FCE63E",
"z 	c #9C9603",
"A 	c #C89310",
"B 	c #F2B924",
"C 	c #F8DA26",
"D 	c #F9EA27",
"E 	c #F8DE26",
"F 	c #F2BB24",
"G 	c #C1900E",
"H 	c #E6C215",
"I 	c #938504",
"J 	c #EDB21E",
"K 	c #F7DF24",
"L 	c #F9EA25",
"M 	c #F8E224",
"N 	c #EDB41D",
"O 	c #A99F05",
"P 	c #BD940C",
"Q 	c #F5D721",
"R 	c #F8EA22",
"S 	c #F6DB21",
"T 	c #FCE54C",
"U 	c #9A9303",
"V 	c #E5B615",
"W 	c #F8EA21",
"X 	c #E7BA15",
"Y 	c #F9D530",
"Z 	c #9C9104",
"` 	c #F4D71C",
" .	c #F8EC1F",
"..	c #F5DD1C",
"+.	c #F7CC2B",
"@.	c #A99607",
"#.	c #F7E81D",
"$.	c #F8EC1D",
"%.	c #F6E919",
"&.	c #F8EA1D",
"*.	c #A99806",
"=.	c #F8CE2E",
"-.	c #AC9A07",
";.	c #F8ED1C",
">.	c #F7EC18",
",.	c #B29F07",
"'.	c #FBD940",
").	c #9A9103",
"!.	c #F6EA16",
"~.	c #F8EE1B",
"{.	c #F3EA11",
"].	c #F7ED17",
"^.	c #A49604",
"/.	c #FDF2A3",
"(.	c #938903",
"_.	c #EEDF0E",
":.	c #F7EE16",
"<.	c #F8F01A",
"[.	c #F3EC10",
"}.	c #F1E60F",
"|.	c #958903",
"1.	c #C7950F",
"2.	c #DBC40A",
"3.	c #F5EE11",
"4.	c #F6EE12",
"5.	c #F6F013",
"6.	c #F7F112",
"7.	c #E3CC0B",
"8.	c #F6BF2A",
"9.	c #A69804",
"0.	c #F5EC11",
"a.	c #F6EE11",
"b.	c #AE9B05",
"c.	c #A78409",
"d.	c #D3C209",
"e.	c #F8F413",
"f.	c #F8F513",
"g.	c #DCC80A",
"h.	c #F9C635",
"i.	c #8F8603",
"j.	c #DCCC0A",
"k.	c #F9F714",
"l.	c #FAF814",
"m.	c #FBFA16",
"n.	c #E4D30B",
"o.	c #E7A01C",
"p.	c #9A9203",
"q.	c #D3C808",
"r.	c #F8F013",
"s.	c #F9F213",
"t.	c #D8CC09",
"u.	c #D58E15",
"v.	c #978D03",
"w.	c #BAC204",
"x.	c #E4D70B",
"y.	c #F8F113",
"z.	c #FBFD17",
"A.	c #F9F414",
"B.	c #E7DA0C",
"C.	c #BDC305",
"D.	c #EDA422",
"E.	c #877A03",
"F.	c #AEB204",
"G.	c #B9C604",
"H.	c #CACC06",
"I.	c #E4DA0B",
"J.	c #EDE20D",
"K.	c #F2E80F",
"L.	c #EEE20D",
"M.	c #E6DB0B",
"N.	c #CECE07",
"O.	c #FCD759",
"P.	c #BD7E10",
"Q.	c #8C8003",
"R.	c #A7A603",
"S.	c #BAC704",
"T.	c #BDCB04",
"U.	c #FCCB4D",
"V.	c #E7961E",
"W.	c #A7740C",
"X.	c #857204",
"Y.	c #857803",
"Z.	c #FCCB4C",
"                                                                ",
"                                                                ",
"                        . + @ # # @ + .                         ",
"                    $ % & * = - ; > , & % $                     ",
"                ' ) ! ~ { ] ^ ^ ^ ^ / ( _ ! ) '                 ",
"              : < [ } | | | | | | | | | | 1 2 < :               ",
"            3 4 5 6 7 7 7 7 7 8 8 7 7 7 7 7 9 0 4 3             ",
"          a b c d e e f g h h h h h h i j e e k l b a           ",
"          m n o p q r s s h h h h h h s s t u v w x m           ",
"        y z A B C D D D D h h h h h h D D D D E F G z y         ",
"        H I J K L L L L L h h h h h h h h h h h M N I H         ",
"        O P Q R R R R R R h h h h h h R R R R R R S P O         ",
"      T U V W W W W W W W W W W W W W W W W W W W W X U T       ",
"      Y Z `  . .W W W W W W W W W W W W W W W W  . ...Z Y       ",
"      +.@.#.$.$.W W W W W W W W W W W W W W W W %.$.&.*.+.      ",
"      =.-.;.;.;.W W W W W W W W W W W W W W W W W >.;.,.=.      ",
"      '.).!.~.~.W W W W W W W W W W W W W W W W W {.].^.'.      ",
"      /.(._.:.<.W W W W W W W W W W W W W W W W [.[.}.|./.      ",
"        1.2.3.4.5.5.4.3.3.6.6.6.6.6.6.3.3.3.3.3.3.3.7.1.        ",
"        8.9.0.6.6.6.6.6.6.6.6.6.6.6.6.6.6.6.6.6.6.a.b.8.        ",
"          c.d.e.f.f.f.f.f.6.6.6.6.6.6.f.f.f.f.f.f.g.c.          ",
"          h.i.j.k.l.l.l.l.m.m.m.m.m.m.l.l.l.l.k.n.i.h.          ",
"            o.p.q.r.m.m.m.m.m.m.m.m.m.m.m.m.s.t.p.o.            ",
"              u.v.w.x.y.z.z.z.z.z.z.z.z.A.B.C.v.u.              ",
"                D.E.F.G.H.I.J.}.K.L.M.N.G.F.E.D.                ",
"                  O.P.Q.R.S.T.T.T.T.S.R.Q.P.O.                  ",
"                      U.V.W.X.Y.Y.X.W.V.Z.                      ",
"                                                                ",
"                                                                ",
"                                                                ",
"                                                                ",
"                                                                "};
