/* XPM */
static char * tool_up_xpm[] = {
"32 32 128 2",
"  	c None",
". 	c #C67C1C",
"+ 	c #BE7312",
"@ 	c #C27716",
"# 	c #D58C2D",
"$ 	c #BD7211",
"% 	c #D58B2B",
"& 	c #FDB557",
"* 	c #BD7210",
"= 	c #D48A29",
"- 	c #FCB353",
"; 	c #FDB353",
"> 	c #BD7110",
", 	c #D48927",
"' 	c #FCB150",
") 	c #FBB150",
"! 	c #FCB050",
"~ 	c #FBB050",
"{ 	c #BD710F",
"] 	c #D48825",
"^ 	c #FBAF4C",
"/ 	c #FBAE4C",
"( 	c #BD710E",
"_ 	c #D38723",
": 	c #FAAD48",
"< 	c #FAAC48",
"[ 	c #D38623",
"} 	c #BD700E",
"| 	c #BD700D",
"1 	c #D38521",
"2 	c #F9AA44",
"3 	c #F9AB44",
"4 	c #F9AA45",
"5 	c #BC700D",
"6 	c #D28420",
"7 	c #F8A841",
"8 	c #F8AD4C",
"9 	c #FBD3A0",
"0 	c #F8A941",
"a 	c #BC6F0C",
"b 	c #D2831E",
"c 	c #F7A63D",
"d 	c #F8AB49",
"e 	c #FDEEDA",
"f 	c #FFFFFF",
"g 	c #FBDDB5",
"h 	c #BC6F0B",
"i 	c #D1821C",
"j 	c #F7A439",
"k 	c #F6A439",
"l 	c #F6A945",
"m 	c #FDEDD9",
"n 	c #FBDCB4",
"o 	c #BC6E0A",
"p 	c #D1811A",
"q 	c #F6A236",
"r 	c #F6A235",
"s 	c #F6A742",
"t 	c #FBDBB3",
"u 	c #D18018",
"v 	c #F5A032",
"w 	c #F6B158",
"x 	c #FEF9F2",
"y 	c #FDEDD8",
"z 	c #F5A53E",
"A 	c #BC6E09",
"B 	c #D07F16",
"C 	c #F49E2E",
"D 	c #F6B055",
"E 	c #FEF8F1",
"F 	c #FCECD7",
"G 	c #F4A43B",
"H 	c #BB6D08",
"I 	c #D07E14",
"J 	c #F39C2A",
"K 	c #F5AE52",
"L 	c #FCECD6",
"M 	c #F3A237",
"N 	c #BB6D07",
"O 	c #CF7D13",
"P 	c #F29A27",
"Q 	c #F4AD4F",
"R 	c #FCEBD6",
"S 	c #F2A034",
"T 	c #F29A26",
"U 	c #BB6C07",
"V 	c #CF7C11",
"W 	c #F19823",
"X 	c #F19723",
"Y 	c #F29823",
"Z 	c #BB6C06",
"` 	c #CF7B0F",
" .	c #F1961F",
"..	c #F1951F",
"+.	c #F0961F",
"@.	c #F0951F",
"#.	c #CE7B0F",
"$.	c #BB6C05",
"%.	c #CE7A0D",
"&.	c #F0931C",
"*.	c #F0941B",
"=.	c #F0931B",
"-.	c #F0941C",
";.	c #BB6B05",
">.	c #BB6B04",
",.	c #CE790B",
"'.	c #EF9118",
").	c #BA6B04",
"!.	c #CD7809",
"~.	c #EE8F14",
"{.	c #BA6A03",
"].	c #CD7707",
"^.	c #ED8D10",
"/.	c #BA6A02",
"(.	c #CC7605",
"_.	c #EC8B0D",
":.	c #ED8B0D",
"<.	c #EC8B0C",
"[.	c #CC7606",
"}.	c #BA6901",
"|.	c #CC7504",
"1.	c #EB8909",
"2.	c #EC8909",
"3.	c #BD6B01",
"4.	c #CC7402",
"5.	c #C06C00",
"6.	c #B96900",
"7.	c #BA6900",
"                                                                ",
"                                                                ",
"                                                                ",
"      . + + + + + + + + + + + + + + + + + + + + + + + + .       ",
"      + @ # # # # # # # # # # # # # # # # # # # # # # @ +       ",
"      $ % & & & & & & & & & & & & & & & & & & & & & & % $       ",
"      * = - ; - - - ; - - - - - - - - - - - ; - - - - = *       ",
"      > , ' ' ' ) ' ' ' ' ' ) ) ' ' ' ' ' ) ' ' ! ' ~ , >       ",
"      { ] ^ / ^ ^ ^ ^ ^ ^ ^ ^ ^ ^ ^ ^ ^ ^ / ^ ^ / ^ ^ ] {       ",
"      ( _ : < : : : : < < < < < < : < < < < < : < : < [ }       ",
"      | 1 2 2 3 2 2 2 3 4 3 2 2 2 2 2 2 2 3 3 2 3 2 2 1 |       ",
"      5 6 7 7 7 7 7 7 7 7 7 7 8 9 7 7 7 0 7 7 7 7 7 7 6 5       ",
"      a b c c c c c c c c c d e f g c c c c c c c c c b a       ",
"      h i j k k k k k j j l m f f f n j j k k k j k k i h       ",
"      o p q q q q q r q s m f f f f f t q q q q q q q p o       ",
"      o u v v v v v v w x f f f f f f f y z v v v v v u o       ",
"      A B C C C C C D E f f f f f f f f f F G C C C C B A       ",
"      H I J J J J K E f f f f f f f f f f f L M J J J I H       ",
"      N O P P P Q E f f f f f f f f f f f f f R S P T O N       ",
"      U V W W W X Y W W W W Y Y Y Y X W W W W W Y W Y V U       ",
"      Z `  . ... .+. ....... .....@. . ... ... ..... .#.Z       ",
"      $.%.&.&.&.&.&.&.*.&.&.&.&.=.&.-.&.=.&.=.&.-.&.&.%.;.      ",
"      >.,.'.'.'.'.'.'.'.'.'.'.'.'.'.'.'.'.'.'.'.'.'.'.,.>.      ",
"      ).!.~.~.~.~.~.~.~.~.~.~.~.~.~.~.~.~.~.~.~.~.~.~.!.).      ",
"      {.].^.^.^.^.^.^.^.^.^.^.^.^.^.^.^.^.^.^.^.^.^.^.].{.      ",
"      /.(._._.:._._._._._._.<._._._._.<._.:._._._.<.<.[./.      ",
"      }.|.1.2.2.2.1.1.2.2.2.2.2.2.2.2.1.1.1.2.2.2.2.2.|.}.      ",
"      }.3.4.4.4.4.4.4.4.4.4.4.4.4.4.4.4.4.4.4.4.4.4.4.3.}.      ",
"      5.6.6.6.7.6.6.6.6.7.6.7.6.7.6.7.6.6.6.7.6.6.6.6.7.5.      ",
"                                                                ",
"                                                                ",
"                                                                "};
