/* XPM */
static char * tool_down_dis_xpm[] = {
"32 32 113 2",
"  	g None",
". 	g #E7E7E7",
"+ 	g #CCCCCC",
"@ 	g #BCBCBC",
"# 	g #B4B4B4",
"$ 	g #D2D2D2",
"% 	g #A0A0A0",
"& 	g #828282",
"* 	g #717171",
"= 	g #777777",
"- 	g #7B7B7B",
"; 	g #7E7E7E",
"> 	g #757575",
", 	g #E6E6E6",
"' 	g #A4A4A4",
") 	g #797979",
"! 	g #7C7C7C",
"~ 	g #A5A5A5",
"{ 	g #BFBFBF",
"] 	g #C2C2C2",
"^ 	g #C1C1C1",
"/ 	g #A9A9A9",
"( 	g #D6D6D6",
"_ 	g #919191",
": 	g #6F6F6F",
"< 	g #A8A8A8",
"[ 	g #C3C3C3",
"} 	g #A7A7A7",
"| 	g #DADADA",
"1 	g #898989",
"2 	g #767676",
"3 	g #B8B8B8",
"4 	g #B6B6B6",
"5 	g #737373",
"6 	g #EAEAEA",
"7 	g #909090",
"8 	g #B5B5B5",
"9 	g #BDBDBD",
"0 	g #C5C5C5",
"a 	g #D3D3D3",
"b 	g #D7D7D7",
"c 	g #CDCDCD",
"d 	g #C6C6C6",
"e 	g #B2B2B2",
"f 	g #AAAAAA",
"g 	g #707070",
"h 	g #B9B9B9",
"i 	g #D1D1D1",
"j 	g #BBBBBB",
"k 	g #C4C4C4",
"l 	g #DCDCDC",
"m 	g #818181",
"n 	g #8E8E8E",
"o 	g #CBCBCB",
"p 	g #D4D4D4",
"q 	g #D8D8D8",
"r 	g #FFFFFF",
"s 	g #CECECE",
"t 	g #8A8A8A",
"u 	g #AFAFAF",
"v 	g #AEAEAE",
"w 	g #CFCFCF",
"x 	g #888888",
"y 	g #C8C8C8",
"z 	g #DFDFDF",
"A 	g #7F7F7F",
"B 	g #ACACAC",
"C 	g #858585",
"D 	g #D0D0D0",
"E 	g #B7B7B7",
"F 	g #C9C9C9",
"G 	g #EBEBEB",
"H 	g #E3E3E3",
"I 	g #8B8B8B",
"J 	g #878787",
"K 	g #C0C0C0",
"L 	g #ECECEC",
"M 	g #DEDEDE",
"N 	g #9D9D9D",
"O 	g #D5D5D5",
"P 	g #D9D9D9",
"Q 	g #FEFEFE",
"R 	g #838383",
"S 	g #F1F1F1",
"T 	g #787878",
"U 	g #FCFCFC",
"V 	g #F8F8F8",
"W 	g #B0B0B0",
"X 	g #CACACA",
"Y 	g #F0F0F0",
"Z 	g #BEBEBE",
"` 	g #848484",
" .	g #DDDDDD",
"..	g #A3A3A3",
"+.	g #C7C7C7",
"@.	g #ABABAB",
"#.	g #B1B1B1",
"$.	g #A2A2A2",
"%.	g #E5E5E5",
"&.	g #E4E4E4",
"*.	g #E2E2E2",
"=.	g #E1E1E1",
"-.	g #E0E0E0",
";.	g #9C9C9C",
">.	g #B3B3B3",
",.	g #6D6D6D",
"'.	g #929292",
").	g #A6A6A6",
"!.	g #808080",
"~.	g #727272",
"{.	g #9E9E9E",
"].	g #686868",
"^.	g #6C6C6C",
"                                                                ",
"                                                                ",
"                        . + @ # # @ + .                         ",
"                    $ % & * = - ; - > & % $                     ",
"                , ' ) ! ~ { ] ] ] ] ^ / ; ) ' ,                 ",
"              ( _ : < [ [ [ [ [ [ [ [ [ [ } : _ (               ",
"            | 1 2 3 ] ] ] ] ] [ [ ] ] ] ] ] 4 5 1 |             ",
"          6 7 5 8 9 9 0 + a ( b b ( a c d 9 9 e * 7 6           ",
"          f g / h [ i a @ 0 [ ^ { 9 j f $ $ k h ~ g f           ",
"        l m n 4 o p p i q r r r r r r o s p p c 3 t m l         ",
"        u 2 v + a a a w q r r r r r r o c a a a s u 2 u         ",
"        x t 0 $ $ $ $ s q r r r r r r o + $ $ $ $ y t x         ",
"      z A / i i i i i s q r r r r r r o o i i i i i B A z       ",
"      c ; ] i i i i i s q r r r r r r o o i i i i i d ; c       ",
"      d C c D D E F s o G r r r r r r H h E / I o D w C d       ",
"      y J D D D w K L r r r r r r r r r r M N @ { c D I y       ",
"      O ; o i i i i K P r r r r r r r Q k } ] ] ] d c R O       ",
"      S T @ c i i i i 0 k U r r r r V W h d d d d d ] T S       ",
"        n } X X + + o X d 4 Y r r . f d X X X X X X v n         ",
"        Z ` y c c c c c c + 8  .$ e c c c c c c c X J Z         ",
"          - ..D i i i w w w w @ { s s s s i i i i / -           ",
"          +.2 @.a p p ^ | q q ( O p $ i v p p a #.2 +.          ",
"            $.; ~ c q F , %.&.&.H *.=.-.E q D / ; $.            ",
"              7 - ;.>.+.D w w s s c c + 0 4 N - 7               ",
"                < ,.'.N ' # 9 ] [ 9 8 ).N '.,.<                 ",
"                  | !.~.I {.% % % % {.I ~.!.|                   ",
"                      i {.5 ].^.^.].5 {.i                       ",
"                                                                ",
"                                                                ",
"                                                                ",
"                                                                ",
"                                                                "};
