/* XPM */
static char * tool_new_xpm[] = {
"32 32 144 2",
"  	c None",
". 	c #2B802B",
"+ 	c #7CB27C",
"@ 	c #5E9F5E",
"# 	c #4E864E",
"$ 	c #40993C",
"% 	c #C2FFB6",
"& 	c #ACD9A8",
"* 	c #82A482",
"= 	c #949494",
"- 	c #3D9935",
"; 	c #B6FF9F",
"> 	c #A8D9A1",
", 	c #99B999",
"' 	c #DEDEDE",
") 	c #DCDCDC",
"! 	c #DADADA",
"~ 	c #D7D7D7",
"{ 	c #D5D5D5",
"] 	c #D2D2D2",
"^ 	c #D0D0D0",
"/ 	c #CDCDCD",
"( 	c #CCCCCC",
"_ 	c #C9C9C9",
": 	c #39992D",
"< 	c #ABFE88",
"[ 	c #A5D89A",
"} 	c #9DBD9D",
"| 	c #E3E3E3",
"1 	c #E1E1E1",
"2 	c #DFDFDF",
"3 	c #D4D4D4",
"4 	c #CFCFCF",
"5 	c #CACACA",
"6 	c #359926",
"7 	c #A0FE72",
"8 	c #A1D893",
"9 	c #9FBE9F",
"0 	c #E6E6E6",
"a 	c #E5E5E5",
"b 	c #E4E4E4",
"c 	c #D9D9D9",
"d 	c #D6D6D6",
"e 	c #D3D3D3",
"f 	c #319720",
"g 	c #94F860",
"h 	c #9ED68E",
"i 	c #9FBF9F",
"j 	c #E7E7E7",
"k 	c #DBDBDB",
"l 	c #D8D8D8",
"m 	c #EDEDED",
"n 	c #CECECE",
"o 	c #107509",
"p 	c #359A20",
"q 	c #4DB22F",
"r 	c #88EC54",
"s 	c #B2E1A2",
"t 	c #69A569",
"u 	c #6EA76E",
"v 	c #529652",
"w 	c #BCCEBC",
"x 	c #E2E2E2",
"y 	c #FBFBFB",
"z 	c #E8E8E8",
"A 	c #248915",
"B 	c #7DE149",
"C 	c #88E358",
"D 	c #8DE460",
"E 	c #9ACA91",
"F 	c #ADC6AD",
"G 	c #E0E0E0",
"H 	c #DDDDDD",
"I 	c #B5B5B5",
"J 	c #B6B6B6",
"K 	c #BEBEBE",
"L 	c #BDBDBD",
"M 	c #218612",
"N 	c #72D63E",
"O 	c #95C78B",
"P 	c #AEC7AE",
"Q 	c #1D830E",
"R 	c #65CA32",
"S 	c #92C589",
"T 	c #AEC8AE",
"U 	c #C4C4C4",
"V 	c #B4B4B4",
"W 	c #17800B",
"X 	c #50C027",
"Y 	c #8EC387",
"Z 	c #AFC8AF",
"` 	c #E9E9E9",
" .	c #CBCBCB",
"..	c #138009",
"+.	c #38B41C",
"@.	c #8AC184",
"#.	c #B0C9B0",
"$.	c #EAEAEA",
"%.	c #046E02",
"&.	c #0D7C06",
"*.	c #128709",
"=.	c #21A910",
"-.	c #6BBC63",
";.	c #298924",
">.	c #379132",
",.	c #4F964E",
"'.	c #C6D6C6",
").	c #037902",
"!.	c #0A9E05",
"~.	c #73BA71",
"{.	c #A5C4A5",
"].	c #EFEFEF",
"^.	c #EEEEEE",
"/.	c #ECECEC",
"(.	c #EBEBEB",
"_.	c #047902",
":.	c #0C9E06",
"<.	c #A5C5A5",
"[.	c #F0F0F0",
"}.	c #0C7D06",
"|.	c #23AA11",
"1.	c #7ABE75",
"2.	c #A6C6A6",
"3.	c #F1F1F1",
"4.	c #3AB51C",
"5.	c #82C278",
"6.	c #F2F2F2",
"7.	c #1B840D",
"8.	c #51C028",
"9.	c #89C57C",
"0.	c #A7C7A7",
"a.	c #0F7507",
"b.	c #2B9115",
"c.	c #3F9138",
"d.	c #B6D0B6",
"e.	c #F3F3F3",
"f.	c #F5F5F5",
"g.	c #F4F4F4",
"h.	c #F6F6F6",
"i.	c #F7F7F7",
"j.	c #F8F8F8",
"k.	c #FAFAFA",
"l.	c #F9F9F9",
"m.	c #A3A3A3",
"                                                                ",
"                                                                ",
"            . + + + + + @ #                                     ",
"            $ % % % % % & * = = = = = = = = = =                 ",
"            - ; ; ; ; ; > , ' ) ! ~ { ] ^ / ( _ =               ",
"            : < < < < < [ } | 1 2 ) ! ~ 3 ] 4 5 = =             ",
"            6 7 7 7 7 7 8 9 0 a b 1 2 ) c d e / = e =           ",
"            f g g g g g h i j j 0 0 | 1 ' k l e = m n =         ",
"o p p p p p q r r r r r s t u u u u v w x 2 ) l = y z 5 =       ",
"A B B B B B B B B B B B C D D D D D E F 0 b G H = I J K L =     ",
"M N N N N N N N N N N N N N N N N N O P j 0 a 1 = = = = = = =   ",
"Q R R R R R R R R R R R R R R R R R S T z j j a 2 l e / U V =   ",
"W X X X X X X X X X X X X X X X X X Y Z ` z j j a x ' c 3  .=   ",
"..+.+.+.+.+.+.+.+.+.+.+.+.+.+.+.+.+.@.#.$.` z j j a 1 H c 3 =   ",
"%.&.&.&.&.&.*.=.=.=.=.=.-.;.>.>.>.>.,.'.$.$.` z j j a 1 ) l =   ",
"            ).!.!.!.!.!.~.{.].].^.m m /.(.$.$.` z j 0 b G k =   ",
"            _.:.:.:.:.:.~.<.[.].].^.m m /.(.$.$.` z j 0 | ' =   ",
"            }.|.|.|.|.|.1.2.3.[.[.].^.^.m /.(.$.` ` z j a 1 =   ",
"            ..4.4.4.4.4.5.2.6.3.[.[.].^.m m /.(.$.` z j 0 b =   ",
"            7.8.8.8.8.8.9.0.6.6.3.3.[.].^.m /./.(.$.` z j 0 =   ",
"            a.b.b.b.b.b.c.d.e.e.6.3.3.[.].^.m /.(.$.$.z z j =   ",
"                = f.f.f.g.g.e.e.e.6.3.[.[.].^.m /.(.$.` z j =   ",
"                = h.h.f.f.g.g.e.e.6.6.3.[.].^.m /./.$.$.z z =   ",
"                = i.h.h.f.f.g.g.e.e.6.6.3.[.].^.m /.(.$.` z =   ",
"                = i.i.h.h.f.f.g.g.e.e.6.3.[.].^.m /.(.$.` z =   ",
"                = j.i.i.h.h.f.f.g.g.e.6.6.3.[.].^.m /.(.$.` =   ",
"                = j.j.i.i.h.h.f.f.g.e.e.6.3.[.].^.m /.(.$.` =   ",
"                = k.l.l.j.i.i.h.f.f.g.g.e.6.3.[.].^.m /.(.$.= m.",
"                = k.l.l.j.j.i.h.h.f.g.g.e.6.3.[.].^.m /.(.$.=   ",
"                = = = = = = = = = = = = = = = = = = = = = = =   ",
"                                                                ",
"                                                                "};
