/* XPM */
static char * tool_delete_dis_xpm[] = {
"32 32 79 1",
" 	c None",
".	c #EAEAEA",
"+	c #CDCDCD",
"@	c #BBBBBB",
"#	c #B3B3B3",
"$	c #D4D4D4",
"%	c #A5A5A5",
"&	c #A0A0A0",
"*	c #A4A4A4",
"=	c #B2B2B2",
"-	c #B9B9B9",
";	c #B5B5B5",
">	c #A7A7A7",
",	c #E9E9E9",
"'	c #A8A8A8",
")	c #D0D0D0",
"!	c #E0E0E0",
"~	c #E1E1E1",
"{	c #A1A1A1",
"]	c #DADADA",
"^	c #A9A9A9",
"/	c #D2D2D2",
"(	c #AAAAAA",
"_	c #9F9F9F",
":	c #ADADAD",
"<	c #D9D9D9",
"[	c #AEAEAE",
"}	c #EFEFEF",
"|	c #D6D6D6",
"1	c #DBDBDB",
"2	c #DFDFDF",
"3	c #DEDEDE",
"4	c #E6E6E6",
"5	c #E8E8E8",
"6	c #A2A2A2",
"7	c #CCCCCC",
"8	c #D8D8D8",
"9	c #DDDDDD",
"0	c #E3E3E3",
"a	c #E5E5E5",
"b	c #CECECE",
"c	c #CFCFCF",
"d	c #A3A3A3",
"e	c #B8B8B8",
"f	c #D5D5D5",
"g	c #E2E2E2",
"h	c #FFFFFF",
"i	c #DCDCDC",
"j	c #BDBDBD",
"k	c #D1D1D1",
"l	c #B1B1B1",
"m	c #D7D7D7",
"n	c #B4B4B4",
"o	c #C3C3C3",
"p	c #CBCBCB",
"q	c #C4C4C4",
"r	c #C9C9C9",
"s	c #C8C8C8",
"t	c #C6C6C6",
"u	c #B6B6B6",
"v	c #BCBCBC",
"w	c #C0C0C0",
"x	c #A6A6A6",
"y	c #C2C2C2",
"z	c #B7B7B7",
"A	c #C7C7C7",
"B	c #BFBFBF",
"C	c #B0B0B0",
"D	c #F8F8F8",
"E	c #BEBEBE",
"F	c #AFAFAF",
"G	c #ACACAC",
"H	c #E7E7E7",
"I	c #ABABAB",
"J	c #C1C1C1",
"K	c #9D9D9D",
"L	c #9E9E9E",
"M	c #EEEEEE",
"N	c #9C9C9C",
"                                ",
"                                ",
"            .+@##@+.            ",
"          $%&*=-@;>&%$          ",
"        ,'&;)!~~~~~$-{',        ",
"       ]&^)~~~~~~~~~~/(&]       ",
"      !_:<!!!!!!!!!!!!<[_!      ",
"     }{(|11234555543211|({}     ",
"     ;67890)+|aaaa|bc0987d;     ",
"    a_ef3gb5h1$gg$ih,+g3fe_a    ",
"    j6+i275hhh1kkihhh,72ibdj    ",
"    {lm1m7hhhhh]ihhhhh+|1mn{    ",
"   ._o8887]hhhhhhhhhh1pmmmq_.   ",
"   9&c$$$$r]hhhhhhhh1s$$$$c{9   ",
"   <%))))))t<hhhhhh]uvvwp))x<   ",
"   1x777777y]hhhhhh8=zzzzA7x1   ",
"   4&yssssB]hhhhhhhhmC;;;-q&4   ",
"   D&=Eqq@]hhhhhhhhhh|[###=&D   ",
"    u^=#nrhhhhh8|hhhhhtC==^u    ",
"    <{FCCGHhhhmGI|hhh4ICCF{<    ",
"     I*FFFIHh|(FF(|h4(FFF*I     ",
"     ~_*G::(t'::::'t(::G*_~     ",
"      p_{(GG(GGGGGG(GG({_p      ",
"       J_K6'(((((((('6K_J       ",
"        k&KKL{dddd{LKK&k        ",
"         M-_KNNNNNNK_-M         ",
"           .+l6&&6l+.           ",
"                                ",
"                                ",
"                                ",
"                                ",
"                                "};
