/* XPM */
static char * tool_pause_xpm[] = {
"32 32 182 2",
"  	c None",
". 	c #2E2E9F",
"+ 	c #1F1F91",
"@ 	c #1E1E90",
"# 	c #252597",
"$ 	c #4848B8",
"% 	c #1D1D90",
"& 	c #4545B6",
"* 	c #8A8BF8",
"= 	c #8B8AF8",
"- 	c #8A8AF8",
"; 	c #1C1C8F",
"> 	c #4343B4",
", 	c #8585F4",
"' 	c #8484F4",
") 	c #8485F4",
"! 	c #8584F4",
"~ 	c #4242B4",
"{ 	c #1B1B8E",
"] 	c #4040B2",
"^ 	c #7F7FF0",
"/ 	c #7F7EF0",
"( 	c #403FB2",
"_ 	c #1B1A8E",
": 	c #19198D",
"< 	c #3D3DB1",
"[ 	c #7979ED",
"} 	c #7979EC",
"| 	c #3D3DB0",
"1 	c #18188D",
"2 	c #3A3AAF",
"3 	c #7373E9",
"4 	c #7474E9",
"5 	c #7374E9",
"6 	c #7C7BEA",
"7 	c #9696EE",
"8 	c #8484EB",
"9 	c #7374E8",
"0 	c #9696ED",
"a 	c #8D8DEC",
"b 	c #7373E8",
"c 	c #3A3AAE",
"d 	c #18188C",
"e 	c #17178C",
"f 	c #3737AD",
"g 	c #6E6EE5",
"h 	c #9292EB",
"i 	c #FFFFFF",
"j 	c #B6B6F2",
"k 	c #6E6DE5",
"l 	c #6D6EE5",
"m 	c #DADAF8",
"n 	c #6D6DE5",
"o 	c #6D6DE4",
"p 	c #16168B",
"q 	c #3434AB",
"r 	c #6868E1",
"s 	c #8D8DE8",
"t 	c #B3B3F0",
"u 	c #D9D9F7",
"v 	c #15158A",
"w 	c #3131A9",
"x 	c #6262DE",
"y 	c #6262DD",
"z 	c #8989E5",
"A 	c #B0B0EE",
"B 	c #D7D7F6",
"C 	c #141489",
"D 	c #2F2FA7",
"E 	c #5C5CDA",
"F 	c #5C5CD9",
"G 	c #5D5CD9",
"H 	c #8485E3",
"I 	c #ADADEC",
"J 	c #D6D6F5",
"K 	c #2E2EA7",
"L 	c #131389",
"M 	c #2C2CA5",
"N 	c #5757D6",
"O 	c #8181E0",
"P 	c #ABABEA",
"Q 	c #5657D6",
"R 	c #5656D5",
"S 	c #D4D4F4",
"T 	c #2B2BA5",
"U 	c #121289",
"V 	c #111188",
"W 	c #2929A3",
"X 	c #5151D2",
"Y 	c #7C7CDD",
"Z 	c #A8A8E8",
"` 	c #D3D3F3",
" .	c #5051D2",
"..	c #101087",
"+.	c #2626A1",
"@.	c #4B4BCE",
"#.	c #7878DA",
"$.	c #A5A5E6",
"%.	c #D1D1F2",
"&.	c #0F0F86",
"*.	c #23239F",
"=.	c #4646CA",
"-.	c #4546CA",
";.	c #4645CA",
">.	c #4545CA",
",.	c #7473D7",
"'.	c #A2A2E4",
").	c #D0D0F1",
"!.	c #0E0E86",
"~.	c #20209D",
"{.	c #4040C6",
"].	c #6F6FD4",
"^.	c #9F9FE2",
"/.	c #3F40C6",
"(.	c #403FC6",
"_.	c #CECEF0",
":.	c #3F3FC6",
"<.	c #0D0D85",
"[.	c #1D1D9C",
"}.	c #3A3AC3",
"|.	c #6B6BD1",
"1.	c #9C9CE0",
"2.	c #3A3AC2",
"3.	c #CDCDEF",
"4.	c #1D1D9B",
"5.	c #0C0C84",
"6.	c #1A1A9A",
"7.	c #3434BF",
"8.	c #6666CF",
"9.	c #9999DF",
"0.	c #CCCCEE",
"a.	c #3434BE",
"b.	c #1A1A99",
"c.	c #0B0A83",
"d.	c #171898",
"e.	c #2F2FBB",
"f.	c #2E2EBB",
"g.	c #2E2FBB",
"h.	c #6262CC",
"i.	c #9696DD",
"j.	c #2F2EBB",
"k.	c #CACAED",
"l.	c #171798",
"m.	c #0A0A83",
"n.	c #090983",
"o.	c #151596",
"p.	c #2929B7",
"q.	c #5151C4",
"r.	c #C9C9EC",
"s.	c #7979D2",
"t.	c #2928B7",
"u.	c #A0A0DF",
"v.	c #2828B7",
"w.	c #141496",
"x.	c #080882",
"y.	c #121294",
"z.	c #2323B3",
"A.	c #2223B3",
"B.	c #121194",
"C.	c #070781",
"D.	c #0F0F92",
"E.	c #1D1DB0",
"F.	c #1D1DAF",
"G.	c #060680",
"H.	c #0C0C90",
"I.	c #1718AC",
"J.	c #1717AC",
"K.	c #1817AC",
"L.	c #1717AB",
"M.	c #050580",
"N.	c #09098E",
"O.	c #1212A8",
"P.	c #1112A8",
"Q.	c #1211A8",
"R.	c #1111A8",
"S.	c #04047F",
"T.	c #040481",
"U.	c #06068C",
"V.	c #030383",
"W.	c #03037E",
"X.	c #03027E",
"Y.	c #02037E",
"                                                                ",
"                                                                ",
"                                                                ",
"      . + + + + + + + + + + + + + + + + + + + + + + + + .       ",
"      @ # $ $ $ $ $ $ $ $ $ $ $ $ $ $ $ $ $ $ $ $ $ $ # @       ",
"      % & * = * - - * * - - - - - - - - - - - - - - - & %       ",
"      ; > , , , ' ) , ) , , , ! ) ' ! ) ' ) ' ' ' ' ' ~ ;       ",
"      { ] ^ ^ ^ ^ ^ ^ ^ ^ ^ ^ ^ ^ ^ ^ ^ ^ ^ ^ ^ ^ ^ / ( _       ",
"      : < [ [ [ } [ } } [ } } } } } } } } } } } } } } | :       ",
"      1 2 3 4 5 5 6 7 7 7 8 3 9 3 3 3 0 0 7 a b b 3 b c d       ",
"      e f g g g g h i i i j g k l g k i i i m n o g n f e       ",
"      p q r r r r s i i i t r r r r r i i i u r r r r q p       ",
"      v w x y y y z i i i A y y y y y i i i B y y y y w v       ",
"      C D E F E G H i i i I F F F F F i i i J F F F F K C       ",
"      L M N N N N O i i i P N N Q Q R i i i S R R R R T U       ",
"      V W X X X X Y i i i Z X X X X X i i i ` X  .X X W V       ",
"      ..+.@.@.@.@.#.i i i $.@.@.@.@.@.i i i %.@.@.@.@.+...      ",
"      &.*.=.-.;.>.,.i i i '.;.>.>.>.>.i i i ).>.>.>.>.*.&.      ",
"      !.~.{.{.{.{.].i i i ^.{./.{.{.(.i i i _./.:.:.:.~.!.      ",
"      <.[.}.}.}.}.|.i i i 1.}.}.2.2.2.i i i 3.2.2.2.2.4.<.      ",
"      5.6.7.7.7.7.8.i i i 9.7.7.7.7.7.i i i 0.7.a.7.7.b.5.      ",
"      c.d.e.f.f.g.h.i i i i.f.f.j.f.f.i i i k.f.f.f.f.l.m.      ",
"      n.o.p.p.p.p.q.r.r.r.s.t.p.p.t.p.r.r.r.u.v.v.v.v.w.n.      ",
"      x.y.z.z.z.z.z.z.z.z.z.z.z.z.z.z.z.z.z.z.z.A.z.z.B.x.      ",
"      C.D.E.E.E.F.F.E.E.F.F.E.F.F.F.F.E.F.F.F.F.F.F.F.D.C.      ",
"      G.H.I.I.J.J.K.K.K.I.J.J.J.J.J.J.J.J.J.L.L.J.J.L.H.G.      ",
"      M.N.O.O.O.O.O.O.O.O.O.O.O.O.P.O.P.P.P.P.Q.R.O.R.N.M.      ",
"      S.T.U.U.U.U.U.U.U.U.U.U.U.U.U.U.U.U.U.U.U.U.U.U.T.S.      ",
"      V.W.W.W.W.W.W.W.W.W.W.W.W.W.W.W.W.W.W.W.X.W.W.W.Y.V.      ",
"                                                                ",
"                                                                ",
"                                                                "};
