/* XPM */
static char * tool_plus_xpm[] = {
"32 32 194 2",
"  	c None",
". 	c #097A91",
"+ 	c #037884",
"@ 	c #037883",
"# 	c #097A90",
"$ 	c #028388",
"% 	c #049DA2",
"& 	c #049CA2",
"* 	c #028387",
"= 	c #037782",
"- 	c #049BA1",
"; 	c #09CFD6",
"> 	c #09CED6",
", 	c #09CED5",
"' 	c #049BA0",
") 	c #037682",
"! 	c #049A9F",
"~ 	c #09CCD3",
"{ 	c #09CBD3",
"] 	c #09CCD2",
"^ 	c #09CBD2",
"/ 	c #04999F",
"( 	c #037681",
"_ 	c #04989E",
": 	c #09C9D0",
"< 	c #09C8D0",
"[ 	c #09C8CF",
"} 	c #08C8CF",
"| 	c #04989D",
"1 	c #027580",
"2 	c #04979C",
"3 	c #09C6CD",
"4 	c #08C6CD",
"5 	c #09C6CC",
"6 	c #27CDD2",
"7 	c #83E2E6",
"8 	c #75DFE2",
"9 	c #17C9D0",
"0 	c #08C6CC",
"a 	c #09C5CC",
"b 	c #08C5CC",
"c 	c #03969C",
"d 	c #03959B",
"e 	c #08C3CA",
"f 	c #E0F7F8",
"g 	c #FFFFFF",
"h 	c #A2E8EA",
"i 	c #08C3C9",
"j 	c #08C2C9",
"k 	c #03959A",
"l 	c #027480",
"m 	c #02747F",
"n 	c #039499",
"o 	c #08C0C7",
"p 	c #08C0C6",
"q 	c #C1EFF0",
"r 	c #08BFC6",
"s 	c #039399",
"t 	c #02737F",
"u 	c #039298",
"v 	c #08BDC4",
"w 	c #08BDC3",
"x 	c #C1EEEF",
"y 	c #08BCC3",
"z 	c #039297",
"A 	c #02737E",
"B 	c #039196",
"C 	c #08BBC1",
"D 	c #08BAC1",
"E 	c #C1EDEF",
"F 	c #08BAC0",
"G 	c #08B9C0",
"H 	c #039096",
"I 	c #02727E",
"J 	c #02727D",
"K 	c #039095",
"L 	c #08B7BE",
"M 	c #08B8BE",
"N 	c #07B7BE",
"O 	c #C0ECEE",
"P 	c #07B7BD",
"Q 	c #08B7BD",
"R 	c #07B6BD",
"S 	c #08B6BD",
"T 	c #038F94",
"U 	c #02717D",
"V 	c #038E93",
"W 	c #07B4BB",
"X 	c #07B5BB",
"Y 	c #35C2C7",
"Z 	c #B1E7E9",
"` 	c #C0ECED",
" .	c #C1ECED",
"..	c #EFFAFA",
"+.	c #54CBCF",
"@.	c #07B4BA",
"#.	c #02717C",
"$.	c #038D92",
"%.	c #07B2B8",
"&.	c #B1E6E8",
"*.	c #07B1B7",
"=.	c #07B0B7",
"-.	c #038C91",
";.	c #02707C",
">.	c #038B90",
",.	c #07AFB5",
"'.	c #07AEB5",
").	c #C0EAEC",
"!.	c #07AEB4",
"~.	c #02707B",
"{.	c #01707B",
"].	c #038A8F",
"^.	c #07ACB2",
"/.	c #54C5CA",
"(.	c #EFF9FA",
"_.	c #83D5D8",
":.	c #07ABB1",
"<.	c #03898E",
"[.	c #016F7B",
"}.	c #016F7A",
"|.	c #03888D",
"1.	c #07A9AF",
"2.	c #06A9AF",
"3.	c #07A9AE",
"4.	c #06A9AE",
"5.	c #C0E9EA",
"6.	c #06A8AE",
"7.	c #07A8AE",
"8.	c #02888D",
"9.	c #016E7A",
"0.	c #02878C",
"a.	c #06A6AC",
"b.	c #C0E8E9",
"c.	c #06A5AB",
"d.	c #06A6AB",
"e.	c #02868B",
"f.	c #016E79",
"g.	c #02858A",
"h.	c #06A3A9",
"i.	c #06A3A8",
"j.	c #C0E7E9",
"k.	c #06A2A8",
"l.	c #016D78",
"m.	c #028489",
"n.	c #06A0A6",
"o.	c #06A0A5",
"p.	c #C0E7E8",
"q.	c #069FA5",
"r.	c #016C78",
"s.	c #069DA3",
"t.	c #069DA2",
"u.	c #C0E6E7",
"v.	c #069CA2",
"w.	c #028287",
"x.	c #016C77",
"y.	c #028186",
"z.	c #069AA0",
"A.	c #069A9F",
"B.	c #C0E5E6",
"C.	c #82CCCF",
"D.	c #059A9F",
"E.	c #05999F",
"F.	c #06999F",
"G.	c #028085",
"H.	c #016B77",
"I.	c #027F84",
"J.	c #05989D",
"K.	c #05979D",
"L.	c #05979C",
"M.	c #06979C",
"N.	c #43B1B4",
"O.	c #34AAAE",
"P.	c #06969C",
"Q.	c #05969C",
"R.	c #016B76",
"S.	c #027E83",
"T.	c #05949A",
"U.	c #059499",
"V.	c #059399",
"W.	c #027D82",
"X.	c #016A76",
"Y.	c #016A75",
"Z.	c #027D81",
"`.	c #059297",
" +	c #059196",
".+	c #059096",
"++	c #027C81",
"@+	c #006975",
"#+	c #017276",
"$+	c #027B80",
"%+	c #027B7F",
"&+	c #017B7F",
"*+	c #016179",
"=+	c #006974",
"                                                                ",
"                                                                ",
"                                                                ",
"      . + + + @ + @ @ + @ @ @ @ @ @ @ @ @ @ @ @ @ @ @ @ #       ",
"      @ $ % % % % % % % & & & & & & & & & & & & & & & * @       ",
"      = - ; ; ; ; ; ; ; ; ; > > > , > , > , , , , , , ' =       ",
"      ) ! ~ ~ ~ ~ ~ ~ ~ ~ ~ ~ ~ { ] { ^ ^ ^ ^ ^ ^ ^ ^ / (       ",
"      ( _ : : : : : : : : : : < : < [ [ [ } [ [ [ [ [ | (       ",
"      1 2 3 3 3 3 4 3 4 3 5 6 7 8 9 0 0 a b b b b a b c 1       ",
"      1 d e e e e e e e e e f g g h i i i j j j j j j k l       ",
"      m n o o o o o o o p o g g g q p p p p r p r r r s m       ",
"      t u v v v v v v w v v g g g x w w y w w y w y y z A       ",
"      A B C D D D D D D D D g g g E F F F F F F G G F H I       ",
"      J K L M L L L N L N L g g g O P Q P Q Q R S P S T J       ",
"      U V W W X Y Z ` `  .` g g g ..` ` ` ` ` +.@.@.@.V U       ",
"      #.$.%.%.%.&.g g g g g g g g g g g g g g ..*.=.*.-.;.      ",
"      ;.>.,.,.'.).g g g g g g g g g g g g g g g !.!.!.>.~.      ",
"      {.].^.^.^./.(.g g g g g g g g g g g g g _.:.:.:.<.[.      ",
"      }.|.1.2.2.2.1.3.3.2.4.g g g 5.6.6.7.6.6.6.7.6.6.8.}.      ",
"      9.0.a.a.a.a.a.a.a.a.a.g g g b.c.c.d.c.c.c.c.c.c.e.f.      ",
"      f.g.h.h.h.h.h.h.i.i.i.g g g j.k.k.k.k.k.k.k.k.k.g.f.      ",
"      l.m.n.n.n.n.n.o.n.o.o.g g g p.o.q.q.o.q.q.q.q.q.$ l.      ",
"      r.* s.s.s.s.s.s.t.s.s.g g g u.t.t.v.t.v.v.v.v.v.w.r.      ",
"      x.y.z.z.z.z.z.A.z.A.A.B.g g C.D.A.D.E.A.E.E.F.F.G.x.      ",
"      H.I.J.K.L.K.M.L.L.L.L.L.N.O.M.L.L.M.L.P.Q.M.Q.Q.I.R.      ",
"      R.S.T.T.T.T.U.T.U.U.U.U.U.U.U.U.U.U.U.U.V.U.U.V.W.X.      ",
"      Y.Z.`.`.`.`. + + + + + + + + + + + + + + + +.+ +++Y.      ",
"      @+#+$+$+$+$+$+%+%+%+%+%+%+%+&+%+%+%+%+%+%+%+%+%+#+@+      ",
"      *+=+=+=+=+=+=+=+=+=+=+=+=+=+=+=+=+=+=+=+=+=+=+=+=+*+      ",
"                                                                ",
"                                                                ",
"                                                                "};
