/* XPM */
static char * tool_option_xpm[] = {
"32 32 324 2",
"  	c None",
". 	c #BAC4CD",
"+ 	c #D8DDE3",
"@ 	c #B5C0CA",
"# 	c #6D8095",
"$ 	c #687D92",
"% 	c #CBD2DA",
"& 	c #8697A8",
"* 	c #9AA8B6",
"= 	c #677C91",
"- 	c #D4D9E0",
"; 	c #8394A5",
"> 	c #FCFDFD",
", 	c #E1E5E9",
"' 	c #718598",
") 	c #708498",
"! 	c #F6F7F9",
"~ 	c #FFFFFF",
"{ 	c #8B9BAB",
"] 	c #7A8D9F",
"^ 	c #FBFCFC",
"/ 	c #FDFEFE",
"( 	c #C7CED6",
"_ 	c #62788E",
": 	c #7A8C9E",
"< 	c #A1AEBB",
"[ 	c #7A8C9F",
"} 	c #72869A",
"| 	c #F4F6F8",
"1 	c #F8F9FA",
"2 	c #E8EBEE",
"3 	c #B0BBC6",
"4 	c #9AA7B6",
"5 	c #A6B2BF",
"6 	c #D7DCE2",
"7 	c #FEFEFE",
"8 	c #718497",
"9 	c #D9DEE3",
"0 	c #6A7F94",
"a 	c #DCE2E8",
"b 	c #8092A4",
"c 	c #758AA0",
"d 	c #ABBBCB",
"e 	c #BFCEDB",
"f 	c #B1C1D0",
"g 	c #8296AB",
"h 	c #6C8196",
"i 	c #BBC4CD",
"j 	c #697E93",
"k 	c #788A9D",
"l 	c #778A9D",
"m 	c #95A4B2",
"n 	c #8999AA",
"o 	c #6F8498",
"p 	c #6B8195",
"q 	c #718599",
"r 	c #667B91",
"s 	c #A0AEBC",
"t 	c #677D93",
"u 	c #C0CEDB",
"v 	c #E2ECF6",
"w 	c #DFEAF4",
"x 	c #DBE7F1",
"y 	c #D8E4EF",
"z 	c #D5E1EC",
"A 	c #C8D6E2",
"B 	c #637B92",
"C 	c #D0D6DD",
"D 	c #8394A6",
"E 	c #E5E9ED",
"F 	c #8294A5",
"G 	c #E0E4E9",
"H 	c #99A7B5",
"I 	c #96A4B3",
"J 	c #CAD1D8",
"K 	c #E5E9EC",
"L 	c #758A9F",
"M 	c #D0DAE4",
"N 	c #D4DDE6",
"O 	c #D8E0E8",
"P 	c #7B8FA2",
"Q 	c #C0CDDA",
"R 	c #E5EFF8",
"S 	c #D1DEEA",
"T 	c #C7D4E1",
"U 	c #637A90",
"V 	c #74879A",
"W 	c #9BA9B7",
"X 	c #F9FAFA",
"Y 	c #9EABB9",
"Z 	c #C4CCD5",
"` 	c #ACB8C3",
" .	c #8599AC",
"..	c #C9D5E0",
"+.	c #CDD7E2",
"@.	c #C8D2DD",
"#.	c #72889D",
"$.	c #E9F2FB",
"%.	c #CEDBE7",
"&.	c #94A7BA",
"*.	c #B6C0CA",
"=.	c #E4E8EC",
"-.	c #6B7F94",
";.	c #D4DAE0",
">.	c #99A8B6",
",.	c #76899D",
"'.	c #7D91A4",
").	c #A9B9C9",
"!.	c #AFBFCE",
"~.	c #7D91A5",
"{.	c #AAB5C1",
"].	c #677E94",
"^.	c #B6C3D1",
"/.	c #9AAABB",
"(.	c #A8B8C8",
"_.	c #C4D3E0",
":.	c #7C8EA0",
"<.	c #75879B",
"[.	c #EFF1F3",
"}.	c #8E9EAE",
"|.	c #C8D3DE",
"1.	c #899CAE",
"2.	c #D8E3EE",
"3.	c #E0EBF4",
"4.	c #D9E5EF",
"5.	c #D2DEEA",
"6.	c #8194A7",
"7.	c #B9C3CD",
"8.	c #B1BCC6",
"9.	c #E6EAED",
"0.	c #5E758D",
"a.	c #8699AC",
"b.	c #BDCBD8",
"c.	c #CBD8E5",
"d.	c #708599",
"e.	c #7B8DA0",
"f.	c #7D8FA2",
"g.	c #8296AA",
"h.	c #E7F1FA",
"i.	c #D2DFEA",
"j.	c #869BAE",
"k.	c #73879B",
"l.	c #8C9FB2",
"m.	c #ADBDCC",
"n.	c #C8D5E2",
"o.	c #73869A",
"p.	c #C4CED6",
"q.	c #C5CDD5",
"r.	c #7E91A3",
"s.	c #71879D",
"t.	c #E4EEF7",
"u.	c #7C91A5",
"v.	c #CED6DD",
"w.	c #8798A8",
"x.	c #B4BFC9",
"y.	c #627A91",
"z.	c #A8B9CA",
"A.	c #798FA4",
"B.	c #9EB0C1",
"C.	c #9BAAB9",
"D.	c #EAEEF2",
"E.	c #EBEFF2",
"F.	c #95A4B3",
"G.	c #A9B5C1",
"H.	c #8EA3B8",
"I.	c #8398AE",
"J.	c #7D92A7",
"K.	c #D7E3ED",
"L.	c #D7E3EE",
"M.	c #96A9BB",
"N.	c #687E94",
"O.	c #92A1B2",
"P.	c #8F9FAE",
"Q.	c #90A0AF",
"R.	c #6C839B",
"S.	c #AABBCD",
"T.	c #ADBFD0",
"U.	c #617991",
"V.	c #CFDBE6",
"W.	c #CCD9E6",
"X.	c #5E778E",
"Y.	c #D6DDE5",
"Z.	c #E3E9EE",
"`.	c #E9EDF1",
" +	c #D3DAE1",
".+	c #99A7B6",
"++	c #B7C1CB",
"@+	c #688098",
"#+	c #546E86",
"$+	c #9AACBE",
"%+	c #8598AA",
"&+	c #536D87",
"*+	c #9FB3C7",
"=+	c #A3B6C9",
"-+	c #A6B9CB",
";+	c #A0B2C5",
">+	c #5B748C",
",+	c #D1DEE9",
"'+	c #CFDCE8",
")+	c #6D839A",
"!+	c #A1B0BF",
"~+	c #8193A6",
"{+	c #8597AA",
"]+	c #9AA9B9",
"^+	c #607A94",
"/+	c #6F879E",
"(+	c #B8C2CC",
"_+	c #768CA1",
":+	c #677F95",
"<+	c #97A6B4",
"[+	c #7C94AB",
"}+	c #7F95AC",
"|+	c #647D95",
"1+	c #59728C",
"2+	c #90A5B9",
"3+	c #59728B",
"4+	c #8DA0B2",
"5+	c #C6D4E0",
"6+	c #CBD9E5",
"7+	c #9BADBF",
"8+	c #5C748C",
"9+	c #9CACBD",
"0+	c #73889D",
"a+	c #C0C9D2",
"b+	c #CBD3DA",
"c+	c #BDC6CF",
"d+	c #C3CCD4",
"e+	c #D7DDE2",
"f+	c #EBEEF1",
"g+	c #ABB7C3",
"h+	c #E1E6EA",
"i+	c #597088",
"j+	c #A2B5C8",
"k+	c #8A9FB4",
"l+	c #677F97",
"m+	c #5B748D",
"n+	c #627A92",
"o+	c #8398AD",
"p+	c #B3C2D2",
"q+	c #637A91",
"r+	c #9FACBA",
"s+	c #8596A7",
"t+	c #DAE0E5",
"u+	c #93A2B1",
"v+	c #A6B2BE",
"w+	c #9CB1C6",
"x+	c #A0B4C8",
"y+	c #A4B7CA",
"z+	c #6E859D",
"A+	c #5B758E",
"B+	c #8DA1B5",
"C+	c #B0C1D1",
"D+	c #B6C5D4",
"E+	c #7A8FA4",
"F+	c #D3D9DF",
"G+	c #97A5B3",
"H+	c #98A6B4",
"I+	c #CAD2D9",
"J+	c #697F95",
"K+	c #95ACC2",
"L+	c #99AEC4",
"M+	c #758CA4",
"N+	c #A4B0BD",
"O+	c #9AADC1",
"P+	c #AFC0D0",
"Q+	c #98ABBD",
"R+	c #9EACB9",
"S+	c #96A5B4",
"T+	c #B3C3D2",
"U+	c #B9C8D6",
"V+	c #8397AB",
"W+	c #B1BCC7",
"X+	c #92A1B0",
"Y+	c #5A738A",
"Z+	c #7D95AD",
"`+	c #8DA4BB",
" @	c #62798F",
".@	c #5B728B",
"+@	c #7E93A9",
"@@	c #5F778D",
"#@	c #D0D7DD",
"$@	c #CBD5E0",
"%@	c #DEE9F2",
"&@	c #E0EBF5",
"*@	c #D9E5F0",
"=@	c #D2DFEB",
"-@	c #7E92A5",
";@	c #C0C8D1",
">@	c #A7B3BF",
",@	c #E3E7EB",
"'@	c #DFE4E8",
")@	c #B3BDC8",
"!@	c #EAEDF0",
"~@	c #798C9F",
"{@	c #889BAE",
"]@	c #8FA2B5",
"^@	c #778B9E",
"/@	c #788DA3",
"(@	c #E6F0F9",
"_@	c #CED6DE",
":@	c #7E90A2",
"<@	c #98ACC0",
"[@	c #8499AE",
"}@	c #879BAE",
"|@	c #DDE8F2",
"1@	c #A1B3C4",
"2@	c #657B91",
"3@	c #8D9DAE",
"4@	c #7C8FA1",
"5@	c #8FA0AF",
"6@	c #667F97",
"7@	c #6C849B",
"8@	c #5C758E",
"9@	c #90A3B6",
"0@	c #69829B",
"a@	c #70889F",
"b@	c #A6B3BF",
"c@	c #7990A6",
"d@	c #647C93",
"e@	c #8E9BA8",
"f@	c #9DA8B2",
"g@	c #DCDCDC",
"h@	c #AAB2B9",
"i@	c #B3B8BE",
"                                                                ",
"                                                                ",
"                                            . +                 ",
"                              @ # $       % & * =               ",
"                            - ; > , '     ) ! ~ {               ",
"                              ] ^ / ( _ : < ~ ~ [               ",
"                              } | 1 2 3 4 5 6 7 8       9       ",
"                              0 a b c d e f g h i j k l m n     ",
"                      o p q r s t u v w x y z A B C       D E   ",
"      3 F G H I J   K L M N O P Q R v w x y z S T U       V 9   ",
"      W X k Y J Z   `  ...+.@.#.$.R v w x y z S %.&.*.=.-.9     ",
"  ;.>.,.'.).!.~.l {.m >.].^./.(.$.R v w x y z S %._.:.<.[.      ",
"  }.|.1.2.3.4.5.6.7.8.  9.0.a.b.$.R v w x y z S %.c.d.e.!       ",
"    f.g.h.3.4.i.j.&       k.l.m.$.R v w x y z S %.n.o.p.-.q.    ",
"    r.s.t.3.4.i.u.v.w.  x.y.z.A.$.R v w x y z S %.B.C.D.E.F.I   ",
"  G.H.I.J.K.L.M.N.O.P.Q.R.S.T.U.V.R v w x y z S W.X.Y.Z.`. +Q.  ",
"    .+++@+R.#+$+%+    &+*+=+-+;+>+,+v w x y z '+)+!+~+{+]+l ;.  ",
"        ^+/+(+_+:+    <+[+}+|+1+2+3+4+5+4.6+7+8+9+0+a+, b+q.    ",
"        c+d+  e+f+      j g+h+9.i+j+k+l+m+n+o+p+b.q+            ",
"                r+s+t+u+v+7.    k.w+x+y+z+A+B+C+D+E+F+          ",
"                G+1 ' H+I+(+E   J+K+L+M+N+  $ O+P+Q+R+          ",
"            q.S+q ~.T+U+V+} W+X+Y+Z+`+ @      .@+@@@#@          ",
"            D $@{+%@&@*@=@-@;@>@,@H $ +       '@)@              ",
"            !@~@{@h.&@*@=@]@[                                   ",
"              ^@/@(@&@*@=@J._@:@                                ",
"            I <@[@}@|@4.1@2@3@4@                                ",
"              5@G.6@7@8@9@'.                                    ",
"                  0@a@b@c@d@                                    ",
"                  e@f@g@h@i@                                    ",
"                                                                ",
"                                                                ",
"                                                                "};
