/* XPM */
static char * tool_plus_dis_xpm[] = {
"32 32 99 2",
"  	g None",
". 	g #E7E7E7",
"+ 	g #CCCCCC",
"@ 	g #BCBCBC",
"# 	g #B4B4B4",
"$ 	g #D2D2D2",
"% 	g #A0A0A0",
"& 	g #828282",
"* 	g #717171",
"= 	g #777777",
"- 	g #7B7B7B",
"; 	g #7E7E7E",
"> 	g #757575",
", 	g #E6E6E6",
"' 	g #A4A4A4",
") 	g #797979",
"! 	g #7C7C7C",
"~ 	g #A5A5A5",
"{ 	g #BFBFBF",
"] 	g #C2C2C2",
"^ 	g #C1C1C1",
"/ 	g #A9A9A9",
"( 	g #D6D6D6",
"_ 	g #919191",
": 	g #6F6F6F",
"< 	g #A8A8A8",
"[ 	g #C3C3C3",
"} 	g #A7A7A7",
"| 	g #DADADA",
"1 	g #898989",
"2 	g #767676",
"3 	g #B8B8B8",
"4 	g #B6B6B6",
"5 	g #737373",
"6 	g #EAEAEA",
"7 	g #909090",
"8 	g #B5B5B5",
"9 	g #BDBDBD",
"0 	g #C5C5C5",
"a 	g #BABABA",
"b 	g #B7B7B7",
"c 	g #B3B3B3",
"d 	g #ACACAC",
"e 	g #CDCDCD",
"f 	g #C6C6C6",
"g 	g #B2B2B2",
"h 	g #AAAAAA",
"i 	g #707070",
"j 	g #B9B9B9",
"k 	g #D1D1D1",
"l 	g #D5D5D5",
"m 	g #FFFFFF",
"n 	g #ADADAD",
"o 	g #C4C4C4",
"p 	g #DCDCDC",
"q 	g #818181",
"r 	g #8E8E8E",
"s 	g #CBCBCB",
"t 	g #D4D4D4",
"u 	g #8A8A8A",
"v 	g #AFAFAF",
"w 	g #AEAEAE",
"x 	g #D3D3D3",
"y 	g #CECECE",
"z 	g #888888",
"A 	g #ABABAB",
"B 	g #C8C8C8",
"C 	g #DFDFDF",
"D 	g #7F7F7F",
"E 	g #BEBEBE",
"F 	g #A3A3A3",
"G 	g #A1A1A1",
"H 	g #858585",
"I 	g #D0D0D0",
"J 	g #9F9F9F",
"K 	g #CFCFCF",
"L 	g #878787",
"M 	g #9E9E9E",
"N 	g #8B8B8B",
"O 	g #838383",
"P 	g #F1F1F1",
"Q 	g #787878",
"R 	g #9D9D9D",
"S 	g #CACACA",
"T 	g #848484",
"U 	g #C7C7C7",
"V 	g #B1B1B1",
"W 	g #A2A2A2",
"X 	g #D8D8D8",
"Y 	g #B0B0B0",
"Z 	g #9C9C9C",
"` 	g #DBDBDB",
" .	g #6D6D6D",
"..	g #929292",
"+.	g #A6A6A6",
"@.	g #808080",
"#.	g #727272",
"$.	g #686868",
"%.	g #6C6C6C",
"                                                                ",
"                                                                ",
"                        . + @ # # @ + .                         ",
"                    $ % & * = - ; - > & % $                     ",
"                , ' ) ! ~ { ] ] ] ] ^ / ; ) ' ,                 ",
"              ( _ : < [ [ [ [ [ [ [ [ [ [ } : _ (               ",
"            | 1 2 3 ] ] ] ] ] [ [ ] ] ] ] ] 4 5 1 |             ",
"          6 7 5 8 9 9 0 + 8 a b 8 c d e f 9 9 g * 7 6           ",
"          h i / j [ k l l 3 m m m m n l l $ o j ~ i h           ",
"        p q r 4 s t t t t b m m m m d t t t t e 3 u q p         ",
"        v 2 w + x x x x x b m m m m d x x x x x y v 2 v         ",
"        z u 0 $ $ $ $ $ $ 4 m m m m A $ $ $ $ $ $ B u z         ",
"      C D / k k { E @ a 3 # m m m m ~ < ~ F G F k k d D C       ",
"      e ; ] k k 0 m m m m m m m m m m m m m m F k k f ; e       ",
"      f H e I I 0 m m m m m m m m m m m m m m J s I K H f       ",
"      B L I I I o m m m m m m m m m m m m m m M { e I N B       ",
"      l ; s k k o m m m m m m m m m m m m m m M ] f e O l       ",
"      P Q @ e k { E @ j # g m m m m ' ' G J R M f f ] Q P       ",
"        r } S S + + s S S c m m m m < S S S S S S S w r         ",
"        E T B e e e e e e 8 m m m m h e e e e e e S L E         ",
"          - F I k k k k k 4 m m m m A k k k k k k / -           ",
"          U 2 A x t t t t b m m m m d t t t t x V 2 U           ",
"            W ; ~ e X X X j a 3 4 c Y X X X I / ; W             ",
"              7 - Z c K ` ` ` ` ` ` ` ` k 4 R - 7               ",
"                <  ...R ' # 9 ] [ 9 8 +.R .. .<                 ",
"                  | @.#.N M % % % % M N #.@.|                   ",
"                      k M 5 $.%.%.$.5 M k                       ",
"                                                                ",
"                                                                ",
"                                                                ",
"                                                                ",
"                                                                "};
