/* XPM */
static char * tool_proxy_xpm[] = {
"32 32 294 2",
"  	c None",
". 	c #C0C2BC",
"+ 	c #C4C5BF",
"@ 	c #C4C5BE",
"# 	c #C6C8C4",
"$ 	c #8BB0CA",
"% 	c #3094D4",
"& 	c #3192D2",
"* 	c #318FCF",
"= 	c #318CCC",
"- 	c #328AC9",
"; 	c #3287C6",
"> 	c #3284C3",
", 	c #6FA2C6",
"' 	c #C1C4BE",
") 	c #B9BAB7",
"! 	c #BCBDBA",
"~ 	c #BEC0BC",
"{ 	c #BEBFBC",
"] 	c #AFB1AF",
"^ 	c #C7C8C3",
"/ 	c #8AA8C2",
"( 	c #1874BA",
"_ 	c #147EC6",
": 	c #1183CC",
"< 	c #1280C9",
"[ 	c #147CC4",
"} 	c #1678BE",
"| 	c #1873B9",
"1 	c #6398C2",
"2 	c #C0C1BE",
"3 	c #BABBB9",
"4 	c #D6D6D4",
"5 	c #F6F6F4",
"6 	c #F3F3F2",
"7 	c #F5F5F4",
"8 	c #DEDFDE",
"9 	c #B0B1AE",
"0 	c #89A9C4",
"a 	c #1776BC",
"b 	c #157BC2",
"c 	c #137FC7",
"d 	c #1281C9",
"e 	c #157AC1",
"f 	c #1775BC",
"g 	c #1970B6",
"h 	c #6298C1",
"i 	c #BFC1BC",
"j 	c #D4D5D3",
"k 	c #F0F0EE",
"l 	c #F4F4F2",
"m 	c #DCDDDB",
"n 	c #B2B3B0",
"o 	c #89ABC5",
"p 	c #1679C0",
"q 	c #1282CB",
"r 	c #1087D0",
"s 	c #0F89D2",
"t 	c #1184CC",
"u 	c #5FA0CB",
"v 	c #DBDCDA",
"w 	c #C6C7C4",
"x 	c #EEF0ED",
"y 	c #EAEAE8",
"z 	c #EDEEEC",
"A 	c #CECFCD",
"B 	c #CACAC8",
"C 	c #89ADC7",
"D 	c #1086CE",
"E 	c #0E8AD4",
"F 	c #0C8FD9",
"G 	c #0A94DE",
"H 	c #0998E4",
"I 	c #5AACD8",
"J 	c #BFC1BD",
"K 	c #D3D4D1",
"L 	c #D4D4D3",
"M 	c #CED2CB",
"N 	c #C4C8C1",
"O 	c #C4C9C2",
"P 	c #CCD0CA",
"Q 	c #DCDDDC",
"R 	c #C0C1BD",
"S 	c #A6BDCA",
"T 	c #6EA4CA",
"U 	c #6DA6CC",
"V 	c #6BA6CC",
"W 	c #69A8CE",
"X 	c #6AACCF",
"Y 	c #66AED5",
"Z 	c #64B0D8",
"` 	c #8CBCD2",
" .	c #C0C2BE",
"..	c #CCCEC8",
"+.	c #D1D5CE",
"@.	c #D5D9D2",
"#.	c #CCD0C8",
"$.	c #CACDC6",
"%.	c #C0C3BE",
"&.	c #C6C8C2",
"*.	c #C1C3BE",
"=.	c #A9ACA6",
"-.	c #A6A9A4",
";.	c #AAACA1",
">.	c #C6C8C5",
",.	c #C5C7C3",
"'.	c #CED1CA",
").	c #C5C8C2",
"!.	c #C4C8C0",
"~.	c #A6A8A4",
"{.	c #A0A39F",
"].	c #9FA19D",
"^.	c #9FA29E",
"/.	c #A0A39E",
"(.	c #E0E0E0",
"_.	c #CCCDCC",
":.	c #CCD0C9",
"<.	c #C0C2C0",
"[.	c #ADB0AB",
"}.	c #A3A5A2",
"|.	c #A0A29E",
"1.	c #A0A29F",
"2.	c #A1A39F",
"3.	c #A2A39F",
"4.	c #A9ABA6",
"5.	c #A9ABA7",
"6.	c #A8ACA6",
"7.	c #C7C8C4",
"8.	c #AEB0AE",
"9.	c #A8A8A8",
"0.	c #A7A8A7",
"a.	c #AAAAAA",
"b.	c #B1B2B0",
"c.	c #A9AAA9",
"d.	c #C7CAC5",
"e.	c #CED1CB",
"f.	c #C5C8C1",
"g.	c #B8BAB5",
"h.	c #B2B5AF",
"i.	c #B2B5B0",
"j.	c #AEB2AC",
"k.	c #AEB0AC",
"l.	c #A8ABA6",
"m.	c #ADB0AA",
"n.	c #B8BCB6",
"o.	c #B1B4AF",
"p.	c #B5B8B2",
"q.	c #E6E6E6",
"r.	c #9C9C9C",
"s.	c #686868",
"t.	c #E4E4E4",
"u.	c #9D9D9D",
"v.	c #BFC5C4",
"w.	c #B4BEBF",
"x.	c #B3BEC0",
"y.	c #B0BBBD",
"z.	c #A0ACAE",
"A.	c #A5B0B2",
"B.	c #B3BEC1",
"C.	c #BBC4C4",
"D.	c #D7DAD4",
"E.	c #D0D4CC",
"F.	c #D0D4CD",
"G.	c #88AEC9",
"H.	c #248DD4",
"I.	c #228FD6",
"J.	c #228BD2",
"K.	c #2387CD",
"L.	c #2483C8",
"M.	c #257FC4",
"N.	c #257BBF",
"O.	c #6B9EC5",
"P.	c #CED3CC",
"Q.	c #C6CAC2",
"R.	c #8AA9C2",
"S.	c #1579C0",
"T.	c #1280C8",
"U.	c #1380C7",
"V.	c #147BC2",
"W.	c #1676BD",
"X.	c #1872B8",
"Y.	c #679BC2",
"Z.	c #C0C1BC",
"`.	c #8AAAC3",
" +	c #1282CA",
".+	c #1970B5",
"++	c #679AC2",
"@+	c #D2D6D0",
"#+	c #D3D7D0",
"$+	c #89ACC4",
"%+	c #0E8CD5",
"&+	c #0E8BD4",
"*+	c #0E8BD5",
"=+	c #61A7D1",
"-+	c #D4D8D2",
";+	c #D4D8D1",
">+	c #8AAEC7",
",+	c #5EAED9",
"'+	c #DDCF9E",
")+	c #CEB978",
"!+	c #D8AE38",
"~+	c #CBCEC6",
"{+	c #CACAC6",
"]+	c #B9C7CC",
"^+	c #9EBBCD",
"/+	c #9CBACC",
"(+	c #94B5C8",
"_+	c #95B6C9",
":+	c #98BAC4",
"<+	c #98BED0",
"[+	c #99C0D3",
"}+	c #AEC8D1",
"|+	c #C2C5C0",
"1+	c #ECEEE9",
"2+	c #ECECE4",
"3+	c #ECEADA",
"4+	c #E4E6E2",
"5+	c #E5E7E3",
"6+	c #E9EBE8",
"7+	c #EAECE9",
"8+	c #EBEDEA",
"9+	c #DDDDDC",
"0+	c #C7C8C6",
"a+	c #C3C5C2",
"b+	c #BEC0BD",
"c+	c #9C9E99",
"d+	c #979994",
"e+	c #999C96",
"f+	c #B6B8B4",
"g+	c #CECFCB",
"h+	c #BBBCB9",
"i+	c #B7B8B5",
"j+	c #A3A4A1",
"k+	c #969794",
"l+	c #878885",
"m+	c #999997",
"n+	c #8E8E8C",
"o+	c #868684",
"p+	c #939391",
"q+	c #A0A09E",
"r+	c #AAABA8",
"s+	c #A8AAA7",
"t+	c #A2A3A0",
"u+	c #949793",
"v+	c #92948F",
"w+	c #90928E",
"x+	c #929490",
"y+	c #B8B8B7",
"z+	c #B2B4B1",
"A+	c #C6C6C6",
"B+	c #C4C4C4",
"C+	c #ADADAD",
"D+	c #989898",
"E+	c #616161",
"F+	c #717171",
"G+	c #8D8D8D",
"H+	c #8A8A8A",
"I+	c #757575",
"J+	c #6A6A6A",
"K+	c #919191",
"L+	c #A3A3A3",
"M+	c #BBBBBB",
"N+	c #B4B5B3",
"O+	c #BDC0BA",
"P+	c #AEAFAC",
"Q+	c #AFB0AE",
"R+	c #B4B6B2",
"S+	c #AFB2AC",
"T+	c #CCCCCC",
"U+	c #949494",
"V+	c #878787",
"W+	c #6D6D6D",
"X+	c #868686",
"Y+	c #A0A0A0",
"Z+	c #A6A8A5",
"`+	c #A2A2A1",
" @	c #9EA09E",
".@	c #9FA09E",
"+@	c #A0A09F",
"@@	c #A4A4A4",
"#@	c #ACAEAB",
"$@	c #A1A2A1",
"%@	c #C2C4BF",
"&@	c #9B9B9B",
"*@	c #A1A1A1",
"=@	c #929292",
"-@	c #969696",
";@	c #C2C4C0",
">@	c #C5C6C2",
",@	c #C6C7C2",
"'@	c #C4C6C0",
")@	c #C8CAC4",
"!@	c #C9CBC6",
"~@	c #C1C2BE",
"                                                                ",
"                                                                ",
"                                                                ",
"                                      . + + + + + + + @         ",
"                                    # $ % & * = - ; > , '       ",
"              ) ! ~ ~ ~ ~ { ]       ^ / ( _ : < [ } | 1 2       ",
"            3 4 5 6 6 6 6 7 8 9     ^ 0 a b c d e f g h i       ",
"          ! j 7 k k k k k k l m n   ^ o p _ q r s t q u ~       ",
"        v w x y y y y y y y y z A B ^ C [ d D E F G H I J       ",
"        K L M N O O O O O O N P Q R # S T U V W X Y Z `  .      ",
"        K L ..+.@.@.@.@.@.@.#.$.Q R   %.&.*.=.-.;.>.>.,.        ",
"        K L '.N ).).).).).).!.#.Q R       ~.{.].^./.(._.        ",
"        K L '.N &.&.&.&.&.&.N :.Q R <.[.}.|.1.2.2.3.4.5.6.      ",
"        K L ..+.@.@.@.@.@.@.:.$.Q R 7.8.9.9.9.9.0.a.b.c.d.      ",
"        K L e.f.&.&.&.&.&.&.f.:.Q R g.h.i.j.k.l.m.j.n.o.p.      ",
"        K L e.f.&.&.&.&.&.&.f.:.Q R         q.r.s.              ",
"        K L ..+.@.@.@.@.@.@.:.$.Q R         t.u.s.              ",
"        K L '.N &.&.&.&.&.&.N :.Q R   v.w.x.y.z.A.x.B.C.        ",
"        K L D.@.@.@.E.#.#.#.#.F.Q R ^ G.H.I.J.K.L.M.N.O. .      ",
"        K L D.@.@.@.&.P.P.P.P.Q.Q R ^ R.| S.T.U.V.W.X.Y.Z.      ",
"        K L D.@.@.@.&.$.$.$.$.Q.Q R ^ `.a b c  +e ( .+++i       ",
"        K L D.@.@.@.@++.+.+.+.#+Q R ^ $+p _ q r %+&+*+=+~       ",
"        K L D.-+;+@.@.@.@.@.@.@.Q R ^ >+[ d D E F G H ,+ .      ",
"        K L '+)+!+~+@.@.@.@.@.@.Q R {+]+^+/+(+_+:+<+[+}+|+      ",
"        K L 1+2+3+4+4+4+5+6+7+8+9+R   0+a+b+c+d+e+f+g+h+        ",
"          i+9 j+k+l+m+n+o+p+q+r+n     s+t+u+v+w+x+x+y+z+        ",
"      A+B+C+D+E+F+G+r.D+H+I+J+K+L+M+N+O+P+P+P+P+P+Q+g.R+S+      ",
"      T+9.U+V+W+H+H+H+H+H+H+J+X+G+Y+R+Z+`+ @ @.@+@@@#@$@%@      ",
"              &@*@D+=@=@-@Y+A+(.    ;@&.&.>@>@>@,@'@)@!@~@      ",
"                                                                ",
"                                                                ",
"                                                                "};
