/* XPM */
static char * float_xpm[] = {
"48 48 37 1",
" 	c None",
".	c #BA8137",
"+	c #939393",
"@	c #EAEAEA",
"#	c #3F28EC",
"$	c #4832E1",
"%	c #543ED3",
"&	c #C6B14B",
"*	c #FFEB07",
"=	c #6A53B9",
"-	c #AC976A",
";	c #7F69A0",
">	c #9B867E",
",	c #8B7592",
"'	c #867097",
")	c #AA946D",
"!	c #F6E112",
"~	c #7862A8",
"{	c #BFAA53",
"]	c #EAD520",
"^	c #604AC4",
"/	c #D4C03A",
"(	c #E7D323",
"_	c #523BD5",
":	c #EEDA1B",
"<	c #4D36DB",
"[	c #ECD81E",
"}	c #5740D0",
"|	c #CDB842",
"1	c #947F86",
"2	c #B8A35C",
"3	c #9E887B",
"4	c #B39E61",
"5	c #A38D75",
"6	c #F8E40F",
"7	c #927C89",
"8	c #6751BC",
"................................................",
"................................................",
"..+++++++++++++++++++++++++++++++++++++++++++@..",
"..++++++++++++++++++++++++++++++++++++++++++@@..",
"..++########################################@@..",
"..++########################################@@..",
"..++########################################@@..",
"..++########################################@@..",
"..++###############################$%&**####@@..",
"..++#############################$=-****####@@..",
"..++############################;>*****&####@@..",
"..++###########################,*******%####@@..",
"..++#########################')!******-$####@@..",
"..++#######################~{]********=#####@@..",
"..++#####################^/(*********>$#####@@..",
"..++####################_:***********;######@@..",
"..++#################<%[***********!,#######@@..",
"..++################}|*************)########@@..",
"..++##############%;&*************]'########@@..",
"..++############$12***************{#########@@..",
"..++###########34****************(~#########@@..",
"..++##########56*****************/##########@@..",
"..++########7/!*****************:^##########@@..",
"..++######~]!*******************_###########@@..",
"..++####8**********************[############@@..",
"..++####***********************%############@@..",
"..++####**********************|<############@@..",
"..++####*********************&}#############@@..",
"..++####*********************;##############@@..",
"..++####;;;;;;;;;;)*********2%##############@@..",
"..++##############;*********1###############@@..",
"..++##############;********4$###############@@..",
"..++##############;*******63################@@..",
"..++##############;******!5#################@@..",
"..++##############;******/##################@@..",
"..++##############;*****!7##################@@..",
"..++##############;*****]###################@@..",
"..++##############;*****~###################@@..",
"..++##############;*****####################@@..",
"..++##############;****8####################@@..",
"..++########################################@@..",
"..++########################################@@..",
"..++########################################@@..",
"..++########################################@@..",
"..+@@@@@@@@@@@@@@@@@@@@@@@@@@@@@@@@@@@@@@@@@@@..",
"..@@@@@@@@@@@@@@@@@@@@@@@@@@@@@@@@@@@@@@@@@@@@..",
"................................................",
"................................................"};
