/* XPM */
static char * logo_48_xpm[] = {
"48 48 588 2",
"  	c None",
". 	c #000099",
"+ 	c #00009A",
"@ 	c #00009B",
"# 	c #1C1CA6",
"$ 	c #4D4DB8",
"% 	c #5050BA",
"& 	c #4F4FBA",
"* 	c #4A4AB8",
"= 	c #4848B7",
"- 	c #4545B6",
"; 	c #4242B5",
"> 	c #4040B4",
", 	c #3D3DB3",
"' 	c #3A3AB2",
") 	c #3737B1",
"! 	c #3535AF",
"~ 	c #3333AF",
"{ 	c #2F2FAE",
"] 	c #2D2DAD",
"^ 	c #2B2BAC",
"/ 	c #2828AA",
"( 	c #2525A9",
"_ 	c #2222A8",
": 	c #1F1FA7",
"< 	c #1C1CA7",
"[ 	c #1A1AA5",
"} 	c #1717A4",
"| 	c #1414A3",
"1 	c #0F0FA1",
"2 	c #05059D",
"3 	c #5555BC",
"4 	c #5B5BBF",
"5 	c #5A5ABE",
"6 	c #5A5ABF",
"7 	c #5B5BBE",
"8 	c #5959BE",
"9 	c #5757BD",
"0 	c #5454BB",
"a 	c #5151BA",
"b 	c #4E4EBA",
"c 	c #4B4BB8",
"d 	c #4242B4",
"e 	c #3E3EB4",
"f 	c #3B3BB3",
"g 	c #3838B1",
"h 	c #3535B0",
"i 	c #3232AF",
"j 	c #2F2FAD",
"k 	c #2C2CAC",
"l 	c #2929AB",
"m 	c #2626AA",
"n 	c #2323A9",
"o 	c #1E1EA8",
"p 	c #1D1DA5",
"q 	c #2323A0",
"r 	c #1D1DA1",
"s 	c #1313A3",
"t 	c #1010A2",
"u 	c #0D0DA0",
"v 	c #0B0B9F",
"w 	c #04049D",
"x 	c #0C0C9F",
"y 	c #5454BC",
"z 	c #4E4EB9",
"A 	c #4747B7",
"B 	c #4444B6",
"C 	c #4141B4",
"D 	c #3E3EB3",
"E 	c #2E2EAD",
"F 	c #2525AA",
"G 	c #1B1BA8",
"H 	c #1010A5",
"I 	c #393991",
"J 	c #8888A0",
"K 	c #C7C7B8",
"L 	c #A8A8A2",
"M 	c #12129D",
"N 	c #06069D",
"O 	c #03039C",
"P 	c #01019C",
"Q 	c #00009C",
"R 	c #5959BF",
"S 	c #5858BE",
"T 	c #5656BC",
"U 	c #5353BB",
"V 	c #5050BB",
"W 	c #4646B7",
"X 	c #3A3AB1",
"Y 	c #3434B0",
"Z 	c #3131AF",
"` 	c #2424A9",
" .	c #2121A8",
"..	c #1B1BA6",
"+.	c #1818A5",
"@.	c #0D0DA7",
"#.	c #1A1A94",
"$.	c #9D9D85",
"%.	c #EEEECB",
"&.	c #FEFEE7",
"*.	c #FFFFF3",
"=.	c #EAEAC5",
"-.	c #16169A",
";.	c #5656BD",
">.	c #4C4CB8",
",.	c #4949B7",
"'.	c #4646B6",
").	c #4343B6",
"!.	c #3939B2",
"~.	c #3737B0",
"{.	c #3434AF",
"].	c #3030AF",
"^.	c #2A2AAC",
"/.	c #2727AB",
"(.	c #1E1EA7",
"_.	c #1414A4",
":.	c #0F0FA3",
"<.	c #18189D",
"[.	c #656587",
"}.	c #F0F0A6",
"|.	c #FFFFE7",
"1.	c #FEFEE5",
"2.	c #FFFFED",
"3.	c #D5D5BB",
"4.	c #11119A",
"5.	c #5757BE",
"6.	c #5252BB",
"7.	c #4C4CB9",
"8.	c #4343B5",
"9.	c #3F3FB4",
"0.	c #3C3CB3",
"a.	c #3636B0",
"b.	c #3030AE",
"c.	c #2727AA",
"d.	c #1D1DA6",
"e.	c #1A1AA6",
"f.	c #1111A2",
"g.	c #0D0DA2",
"h.	c #4A4A83",
"i.	c #BBBB94",
"j.	c #FFFFC1",
"k.	c #FFFFDA",
"l.	c #FEFEDA",
"m.	c #FFFFDE",
"n.	c #FFFFE3",
"o.	c #FFFFE5",
"p.	c #B4B4AE",
"q.	c #090999",
"r.	c #5353BC",
"s.	c #5151BB",
"t.	c #4B4BB9",
"u.	c #2C2CAD",
"v.	c #2929AC",
"w.	c #2020A8",
"x.	c #1D1DA7",
"y.	c #1616A4",
"z.	c #0E0EA1",
"A.	c #0404A0",
"B.	c #090995",
"C.	c #9E9E76",
"D.	c #F4F4B0",
"E.	c #FFFFC8",
"F.	c #FFFFCE",
"G.	c #FEFED1",
"H.	c #FFFFD5",
"I.	c #FFFFD9",
"J.	c #FFFFDD",
"K.	c #8D8D9F",
"L.	c #020298",
"M.	c #0A0A9F",
"N.	c #3F3FB3",
"O.	c #3C3CB2",
"P.	c #3838B2",
"Q.	c #08089E",
"R.	c #03039E",
"S.	c #05059A",
"T.	c #3F3F7F",
"U.	c #E6E679",
"V.	c #FFFFBB",
"W.	c #FFFFC0",
"X.	c #FFFFC3",
"Y.	c #FFFFCC",
"Z.	c #FFFFCF",
"`.	c #FFFFD3",
" +	c #FEFED7",
".+	c #FAFAD4",
"++	c #61618F",
"@+	c #09099E",
"#+	c #4141B5",
"$+	c #3B3BB2",
"%+	c #2E2EAE",
"&+	c #2828AB",
"*+	c #2222A9",
"=+	c #1F1FA8",
"-+	c #1919A5",
";+	c #1313A2",
">+	c #0A0AA0",
",+	c #07079E",
"'+	c #00009D",
")+	c #0000A0",
"!+	c #35357E",
"~+	c #AAAA79",
"{+	c #FFFF97",
"]+	c #FFFFB7",
"^+	c #FEFEB6",
"/+	c #FEFEB9",
"(+	c #FFFFBE",
"_+	c #FFFFC2",
":+	c #FFFFC7",
"<+	c #FFFFCB",
"[+	c #FEFED3",
"}+	c #EFEFC3",
"|+	c #2F2F88",
"1+	c #3939B1",
"2+	c #1B1BA7",
"3+	c #1212A3",
"4+	c #1010A1",
"5+	c #0C0CA0",
"6+	c #06069E",
"7+	c #03039D",
"8+	c #060691",
"9+	c #9D9D5F",
"0+	c #F3F38D",
"a+	c #FFFFA2",
"b+	c #FFFFA9",
"c+	c #FEFEAD",
"d+	c #FFFFB1",
"e+	c #FFFFB5",
"f+	c #FFFFB9",
"g+	c #FFFFBD",
"h+	c #FFFFC5",
"i+	c #FFFFCA",
"j+	c #FFFFD0",
"k+	c #D6D6A5",
"l+	c #06068D",
"m+	c #2D2DAC",
"n+	c #2424AA",
"o+	c #1515A3",
"p+	c #0F0FA0",
"q+	c #07079D",
"r+	c #090996",
"s+	c #48487C",
"t+	c #EAEA64",
"u+	c #FFFF98",
"v+	c #FEFE9D",
"w+	c #FFFF9F",
"x+	c #FFFFA3",
"y+	c #FFFFA7",
"z+	c #FFFFAB",
"A+	c #FFFFAF",
"B+	c #FFFFB3",
"C+	c #FFFFBF",
"D+	c #FEFEC4",
"E+	c #FFFFCD",
"F+	c #9E9E79",
"G+	c #00009F",
"H+	c #1111A1",
"I+	c #0E0EA0",
"J+	c #454578",
"K+	c #B8B868",
"L+	c #FFFF74",
"M+	c #FFFF93",
"N+	c #FEFE93",
"O+	c #FFFF9B",
"P+	c #FFFFAA",
"Q+	c #FFFFAE",
"R+	c #FFFFB2",
"S+	c #FFFFB6",
"T+	c #FFFFBA",
"U+	c #FFFFB8",
"V+	c #3F3F7A",
"W+	c #00009E",
"X+	c #0B0BA0",
"Y+	c #02029C",
"Z+	c #0E0E8E",
"`+	c #ADAD50",
" @	c #F8F86F",
".@	c #FFFF80",
"+@	c #FFFF86",
"@@	c #FEFE8A",
"#@	c #FFFF8E",
"$@	c #FFFF92",
"%@	c #FFFF96",
"&@	c #FFFF9A",
"*@	c #FFFF9E",
"=@	c #FFFFA6",
"-@	c #FFFFAD",
";@	c #F1F186",
">@	c #000098",
",@	c #08089F",
"'@	c #05059C",
")@	c #0D0D94",
"!@	c #63636B",
"~@	c #F9F94B",
"{@	c #FFFF78",
"]@	c #FEFE79",
"^@	c #FFFF7C",
"/@	c #FFFF84",
"(@	c #FFFF88",
"_@	c #FFFF8C",
":@	c #FFFF90",
"<@	c #FFFF94",
"[@	c #FFFF9C",
"}@	c #FFFFA0",
"|@	c #FFFFA4",
"1@	c #FFFFA8",
"2@	c #FFFFAC",
"3@	c #959575",
"4@	c #4F4F70",
"5@	c #C2C253",
"6@	c #FFFF59",
"7@	c #FFFF6E",
"8@	c #FEFE6F",
"9@	c #FFFF7B",
"0@	c #FFFF7F",
"a@	c #FFFF83",
"b@	c #FFFF87",
"c@	c #FFFF8B",
"d@	c #FFFF8F",
"e@	c #FFFF9D",
"f@	c #404085",
"g@	c #13138E",
"h@	c #AEAE48",
"i@	c #F6F652",
"j@	c #FFFF5D",
"k@	c #FFFF63",
"l@	c #FEFE66",
"m@	c #FFFF6A",
"n@	c #FFFF73",
"o@	c #FFFF77",
"p@	c #FFFF7A",
"q@	c #FFFF7E",
"r@	c #FFFF82",
"s@	c #FFFF8A",
"t@	c #E9E986",
"u@	c #161697",
"v@	c #060698",
"w@	c #5C5C69",
"x@	c #F5F531",
"y@	c #FFFF4F",
"z@	c #FFFF56",
"A@	c #FFFF61",
"B@	c #FFFF65",
"C@	c #FFFF68",
"D@	c #FFFF6C",
"E@	c #FFFF71",
"F@	c #FFFF75",
"G@	c #FFFF79",
"H@	c #FFFF7D",
"I@	c #FFFF81",
"J@	c #FFFF89",
"K@	c #B5B581",
"L@	c #0000A3",
"M@	c #3A3A79",
"N@	c #B7B743",
"O@	c #FFFF38",
"P@	c #FFFF4A",
"Q@	c #FEFE4C",
"R@	c #FFFF50",
"S@	c #FFFF54",
"T@	c #FFFF58",
"U@	c #FFFF5C",
"V@	c #FFFF60",
"W@	c #FFFF64",
"X@	c #FFFF6B",
"Y@	c #FFFF6F",
"Z@	c #FFFF95",
"`@	c #82827C",
" #	c #8C8C49",
".#	c #F3F330",
"+#	c #FFFF39",
"@#	c #FFFF3F",
"##	c #FEFE43",
"$#	c #FFFF47",
"%#	c #FFFF4B",
"&#	c #FFFF53",
"*#	c #FFFF57",
"=#	c #FFFF5B",
"-#	c #FFFF5F",
";#	c #FFFF67",
">#	c #FFFF72",
",#	c #F6F68E",
"'#	c #50507B",
")#	c #212188",
"!#	c #C6C631",
"~#	c #FFFF29",
"{#	c #FEFE33",
"]#	c #FEFE36",
"^#	c #FFFF3D",
"/#	c #FFFF41",
"(#	c #FFFF45",
"_#	c #FFFF49",
":#	c #FFFF4E",
"<#	c #FFFF51",
"[#	c #FFFF55",
"}#	c #FFFF69",
"|#	c #FFFF6D",
"1#	c #FFFF85",
"2#	c #EAEA80",
"3#	c #1F1F84",
"4#	c #6C6C5E",
"5#	c #ECEC1E",
"6#	c #FFFF21",
"7#	c #FFFF2D",
"8#	c #FFFF31",
"9#	c #FFFF35",
"0#	c #FFFF48",
"a#	c #FFFF4C",
"b#	c #FFFF70",
"c#	c #D2D261",
"d#	c #02029A",
"e#	c #A1A13C",
"f#	c #FBFB15",
"g#	c #FFFF1B",
"h#	c #FEFE20",
"i#	c #FEFE24",
"j#	c #FFFF28",
"k#	c #FFFF2C",
"l#	c #FFFF30",
"m#	c #FFFF34",
"n#	c #FFFF3C",
"o#	c #FFFF40",
"p#	c #FFFF44",
"q#	c #FEFE7F",
"r#	c #85855E",
"s#	c #0C0C94",
"t#	c #BCBC29",
"u#	c #FFFF08",
"v#	c #FEFE13",
"w#	c #FFFF16",
"x#	c #FFFF1A",
"y#	c #FFFF1E",
"z#	c #FFFF22",
"A#	c #FFFF26",
"B#	c #FFFF2A",
"C#	c #FFFF2E",
"D#	c #FFFF32",
"E#	c #FFFF36",
"F#	c #FFFF3A",
"G#	c #FFFF3E",
"H#	c #FFFF42",
"I#	c #FFFF46",
"J#	c #FFFF4D",
"K#	c #FFFF5A",
"L#	c #FFFF5E",
"M#	c #313179",
"N#	c #13138F",
"O#	c #C2C224",
"P#	c #FFFF01",
"Q#	c #FEFE0A",
"R#	c #FFFF0E",
"S#	c #FFFF12",
"T#	c #FFFF15",
"U#	c #FFFF19",
"V#	c #FFFF1D",
"W#	c #FFFF25",
"X#	c #F2F24D",
"Y#	c #80804D",
"Z#	c #FFFF00",
"`#	c #FEFE01",
" $	c #FFFF05",
".$	c #FFFF09",
"+$	c #FFFF11",
"@$	c #FFFF14",
"#$	c #FFFF18",
"$$	c #FFFF1C",
"%$	c #FFFF20",
"&$	c #FFFF24",
"*$	c #9F9F56",
"=$	c #01019B",
"-$	c #787852",
";$	c #EDED0A",
">$	c #F1F107",
",$	c #F4F406",
"'$	c #F8F807",
")$	c #FCFC09",
"!$	c #FFFF0C",
"~$	c #FFFF13",
"{$	c #FEFE1A",
"]$	c #FFFF3B",
"^$	c #FFFF52",
"/$	c #FFFF62",
"($	c #484878",
"_$	c #252585",
":$	c #393978",
"<$	c #454572",
"[$	c #555569",
"}$	c #69695B",
"|$	c #8A8A49",
"1$	c #B5B531",
"2$	c #EEEE13",
"3$	c #FFFF0B",
"4$	c #FEFE19",
"5$	c #F4F44E",
"6$	c #171791",
"7$	c #01019A",
"8$	c #1B1B8D",
"9$	c #7B7B52",
"0$	c #F8F80D",
"a$	c #BEBE57",
"b$	c #0B0B94",
"c$	c #04049C",
"d$	c #0000A2",
"e$	c #232384",
"f$	c #DFDF18",
"g$	c #FFFF17",
"h$	c #FFFF1F",
"i$	c #FFFF23",
"j$	c #FFFF27",
"k$	c #FFFF2B",
"l$	c #FFFF2F",
"m$	c #FFFF37",
"n$	c #FFFF43",
"o$	c #878762",
"p$	c #232385",
"q$	c #E3E318",
"r$	c #F6F650",
"s$	c #50506E",
"t$	c #85854C",
"u$	c #FEFE0D",
"v$	c #FEFE4A",
"w$	c #EAEA3F",
"x$	c #15158B",
"y$	c #02029B",
"z$	c #09099F",
"A$	c #4C4C6C",
"B$	c #F6F60C",
"C$	c #FFFF0F",
"D$	c #FEFE17",
"E$	c #FFFF33",
"F$	c #BFBF3D",
"G$	c #35357B",
"H$	c #DADA1C",
"I$	c #FAFA0D",
"J$	c #FEFE1B",
"K$	c #FEFE3A",
"L$	c #606060",
"M$	c #0D0DA1",
"N$	c #070797",
"O$	c #202086",
"P$	c #121290",
"Q$	c #16168D",
"R$	c #727258",
"S$	c #FBFB0E",
"T$	c #080895",
"U$	c #383878",
"V$	c #E8E819",
"W$	c #FEFE18",
"X$	c #FEFE2C",
"Y$	c #AFAF3A",
"Z$	c #1212A2",
"`$	c #3C3C75",
" %	c #FCFC0C",
".%	c #4D4D70",
"+%	c #636360",
"@%	c #FEFE12",
"#%	c #E3E326",
"$%	c #17178D",
"%%	c #05059E",
"&%	c #CBCB23",
"*%	c #FFFF10",
"=%	c #9E9E43",
"-%	c #040498",
";%	c #0C0CA1",
">%	c #1515A4",
",%	c #6D6D58",
"'%	c #FEFE14",
")%	c #F8F816",
"!%	c #565668",
"~%	c #02029D",
"{%	c #1818A4",
"]%	c #1C1C89",
"^%	c #ECEC0D",
"/%	c #FEFE07",
"(%	c #E0E019",
"_%	c #1717A5",
":%	c #B8B82A",
"<%	c #FFFF07",
"[%	c #7B7B4F",
"}%	c #0909A0",
"|%	c #4D4D6B",
"1%	c #DDDD15",
"2%	c #050599",
"3%	c #E2E210",
"4%	c #383879",
"5%	c #2323AA",
"6%	c #0F0F91",
"7%	c #262684",
"                                                                                                ",
"      . + + + + + + + + + + + + + + + + + + + + + + + + + + + + + + + + + + @ @ @ @ @ @ +       ",
"    # $ % % % % % % % % % % % % % % % % % & $ * = - ; > , ' ) ! ~ { ] ^ / ( _ : < [ } | 1 @     ",
"  2 3 4 5 4 4 4 4 4 4 4 6 7 4 4 5 5 8 9 0 a b c = - d e f g h i j k l m n o p q r s t u v w +   ",
"  x y 6 4 4 4 4 4 4 6 7 4 4 5 8 9 0 a z * A B C D ' ) h i E k / F _ : G H I J K L M N O P @ Q   ",
"  v y 6 4 4 4 4 6 4 4 R S T U V $ * W B > , X ) Y Z E ^ / `  .: ..+.@.#.$.%.&.*.=.-.@ @ @ Q @   ",
"  v y 5 4 4 6 5 5 S ;.U % >.,.'.).> , !.~.{.].E ^./.`  .(...+._.:.<.[.}.|.1.&.2.3.4.@ Q Q Q @   ",
"  v y 4 5 8 5.3 6.& 7.= '.8.9.0.!.a.~ b.] ^.c.n  .d.e.} _.f.g.2 h.i.j.k.l.m.n.o.p.q.@ Q Q Q @   ",
"  v r.5.y s.b t.= - d 9.0.!.a.i j u.v.m n w.x.[ y.| f.z.x A.B.C.D.E.F.G.H.I.J.m.K.L.Q Q Q Q @   ",
"  M.c b t.= - C N.O.P.h i { k l F n w.< [ } s t z.M.Q.R.S.T.U.V.W.X.E.Y.Z.`. +.+++@ Q Q Q Q @   ",
"  @+; - #+D $+) Y i %+^ &+F *+=+< -+y.;+t u >+,+w '+)+!+~+{+]+^+/+(+_+:+<+Z.[+}+|+Q Q Q Q Q @   ",
"  Q.1+' ) {.Z %+^ /.( *+o 2++._.3+4+5+M.6+7+P @ '+8+9+0+a+b+c+d+e+f+g+j.h+i+j+k+l+Q Q Q Q Q @   ",
"  ,+b.b.m+^ /.n+ .(...+.o+f.p+5+@+q+O P @ Q Q r+s+t+u+v+w+x+y+z+A+B+]+V.C+D+E+F+G+@ Q Q Q Q @   ",
"  N c.c.` w.(...} | H+I+x @+2 O P @ @ @ '+'+J+K+L+M+N+{+O+w+x+y+P+Q+R+S+T+C+U+V+W+@ Q Q Q Q @   ",
"  w d.x.[ y.s H+I+X+Q.2 Y+Q @ @ @ Q Q G+Z+`+ @.@+@@@#@$@%@&@*@a+=@P+-@d+e+g+;@>@Q Q Q Q Q Q @   ",
"  O o+s 4+I+v ,@'@Y+@ @ Q Q Q @ Q Q )@!@~@{@]@^@.@/@(@_@:@<@u+[@}@|@1@2@A+e+3@)+@ Q Q Q Q Q @   ",
"  Y+5+M.,+w Y+Q @ @ Q Q Q Q @ '+@ 4@5@6@7@8@L+{@9@0@a@b@c@d@M+{+O+w+x+y+2@e@f@'+Q Q Q Q Q Q @   ",
"  @ 7+P Q @ @ @ Q Q Q Q Q @ G+g@h@i@j@k@l@m@7@n@o@p@q@r@+@s@#@$@%@&@*@x+=@t@u@@ Q Q Q Q Q Q @   ",
"  Q @ Q Q Q Q Q Q Q @ @ Q v@w@x@y@z@6@j@A@B@C@D@E@F@G@H@I@/@J@_@:@<@u+[@}@K@r+Q Q Q Q Q Q Q @   ",
"  @ Q Q Q Q Q Q Q @ Q L@M@N@O@P@Q@R@S@T@U@V@W@C@X@Y@L+{@^@.@a@(@_@d@M+{+Z@`@+ Q Q Q Q Q Q Q @   ",
"  @ Q Q Q Q Q Q Q Q @  #.#+#@###$#%#y@&#*#=#-#k@;#X@7@>#o@9@q@a@b@c@d@N+,#'#Q Q Q Q Q Q Q Q @   ",
"  @ Q Q Q Q @ Q Q )#!#~#{#]#+#^#/#(#_#:#<#[#6@j@A@B@}#|#E@F@G@H@I@1#J@#@2#3#Q Q Q Q Q Q Q Q @   ",
"  @ Q Q Q @ Q Q 4#5#6#~#7#8#9#O@^#/#(#0#a#<#[#6@U@V@W@C@D@b#L+{@^@.@/@c@c#@ Q Q Q Q Q Q Q Q @   ",
"  @ Q Q @ @ d#e#f#g#h#i#j#k#l#m#O@n#o#p#0#%#y@&#T@U@-#k@;#X@Y@n@o@9@q#+@r#)+@ Q Q Q Q Q Q Q @   ",
"  @ Q @ '+s#t#u#v#w#x#y#z#A#B#C#D#E#F#G#H#I#P@J#<#z@K#L#A@B@}#|#E@F@p@7@M#W+Q Q Q Q Q Q Q Q @   ",
"  @ Q Q N#O#P#Q#R#S#T#U#V#6#W#~#7#8#9#+#^#/#(#_#J#<#S@6@j@A@W@C@|#b#o@X#W+Q Q Q Q Q Q Q Q Q @   ",
"  @ Q @ Y#Z#`# $.$R#+$@$#$$$%$&$j#k#l#m#O@n#o#p#0#a#R@S@T@U@V@W@C@D@E@*$)+@ Q Q Q Q Q Q Q Q @   ",
"  @ Q =$-$;$>$,$'$)$!$R#~$w#{$y#z#A#B#C#D#E#]$G#H#I#P@:#^$z@K#L#/$;#K#($'+Q Q Q Q Q Q Q Q @ Q   ",
"  @ Q Q P _$:$<$[$}$|$1$2$3$T#4$V#6#W#~#7#8#E#F#^#/#(#_#J#<#[#6@j@/$5$6$@ Q Q Q Q Q Q Q @ Y+@   ",
"  @ Q @ Q Q '+'+'+'+7$r+8$9$0$T#4$V#6#W#~#k#l#m#+#^#/#(#0#a#<#S@T@=#a$b$@ Q Q Q Q Q Q @ Y+c$@   ",
"  @ Q Q Q Q Q Q Q Q Q @ Q d$e$f$S#g$g#h$i$j$k$l$D#m$]$@#n$$#P@y@^$^$o$@ Q Q Q Q Q Q Q Y+w N @   ",
"  @ Q Q Q Q Q Q Q Q Q Q Q @ G+p$q$+$w#x#y#z#A#B#C#D#9#F#G#H#I#P@:#r$s$'+Q Q Q Q Q Q Y+w N ,+@   ",
"  @ Q Q Q Q Q Q Q Q Q Q Q Q @ =$t$u$+$T#U#V#6#W#~#7#8#9#+#^#/#(#v$w$x$Q Q Q Q Q Q y$c$N z$z$@   ",
"  @ Q Q Q Q Q Q Q Q Q Q Q Q Q '+A$B$!$C$~$D$g#h$i$j$k$l$E$m$]$@#I#F$)+Q Q Q Q Q Y+c$6+z$X+>+@   ",
"  @ Q Q Q Q Q Q Q Q Q Q Q Q Q '+G$,$f$H$I$3$w#J$h$i$A#B#C#D#E#K$m$L$)+Q Q Q @ P w 6+,@X+M$u @   ",
"  @ Q Q Q Q Q Q Q Q Q Q Q Q Q Q N$O$N#P$Q$R$S$@${$y#z#W#~#7#D#E#z#T$Q @ Q @ P 7+6+,@>+M$1 z.@   ",
"  @ Q Q Q Q Q Q Q Q Q Q Q Q Q @ Q Q Q @ @ G+U$V$~$W$$$%$&$j#X$l$Y$)+Q Q @ P w 6+,@v M$1 Z$t @   ",
"  @ Q Q Q Q Q Q Q Q Q Q Q Q Q Q Q Q Q Q Q @ d$`$ %~$D$g#h$i$j$y#.%'+@ @ P w 6+,@M.u 1 f.s f.@   ",
"  @ Q Q Q Q Q Q Q Q Q Q Q Q Q Q Q Q Q Q Q @ @ W++% $@%w#x#y#6##%$%Q @ P 7+%%Q.M.5+1 f.s o+;+@   ",
"  @ Q Q Q Q Q Q Q Q Q Q Q Q Q Q Q Q Q Q Q Q Q @ s#&%!$*%@$#$x#=%-%Q P 7+%%,@M.;%1 f.s >%+.>%@   ",
"  @ Q Q Q Q Q Q Q Q Q Q Q Q Q Q Q Q Q Q Q Q Q Q Q ,%)$!$*%'%)%!%Q Q ~%%%,@>+5+z.f.s >%{%[ y.@   ",
"  @ Q Q Q Q Q Q Q Q Q Q Q Q Q Q Q Q Q Q Q Q Q Q Q ]%^%/%3$C$(%s#Q O 2 q+M.5+z.f.s o+_%-+# +.@   ",
"  @ Q Q Q Q Q Q Q Q Q Q Q Q Q Q Q Q Q Q Q Q Q Q Q d$:%Z#<% $[%d$O 2 ,+}%5+z.t s _.} -+# (.-+@   ",
"  @ Q Q Q Q Q Q Q Q Q Q Q Q Q Q Q Q Q Q Q Q Q Q @ )+|%Z#Z#1%2%P 2 ,+z$X+z.t 3+_.} -+..(.w.# +   ",
"  @ @ @ Q Q Q Q Q Q Q Q Q Q Q Q Q Q Q Q Q Q Q Q Q Q Q 3%Z#4%W+w ,+z$X+z.t 3+| } -+..d.w.5%[ +   ",
"    @ @ Q Q Q Q Q Q Q Q Q Q Q Q Q Q Q Q Q Q Q Q Q @ Q 6%7%'+7+6+,@v 5+z.f.3+o+} +...x.=+< O     ",
"      @ @ @ @ @ @ @ @ @ @ @ @ @ @ @ @ @ @ @ @ @ @ @ @ Q '+@ @ @ @ @ @ @ @ + + + + + + + .       ",
"                                                                                                "};
