/* XPM */
static char * logo_48_xpm[] = {
"48 48 3 1",
" 	c None",
".	c #3F28EC",
"+	c #FFEB07",
"                                                ",
"                                                ",
"                                                ",
"                                                ",
"    ........................................    ",
"    ........................................    ",
"    ...................................+++..    ",
"    .................................+++++..    ",
"    ...............................+++++++..    ",
"    .............................++++++++...    ",
"    ............................+++++++++...    ",
"    ..........................++++++++++....    ",
"    ........................++++++++++++....    ",
"    ......................+++++++++++++.....    ",
"    .....................++++++++++++++.....    ",
"    ...................+++++++++++++++......    ",
"    .................++++++++++++++++.......    ",
"    ................+++++++++++++++++.......    ",
"    ..............++++++++++++++++++........    ",
"    ............++++++++++++++++++++........    ",
"    ..........+++++++++++++++++++++.........    ",
"    .........++++++++++++++++++++++.........    ",
"    .......+++++++++++++++++++++++..........    ",
"    .....++++++++++++++++++++++++...........    ",
"    ...++++++++++++++++++++++++++...........    ",
"    ..++++++++++++++++++++++++++............    ",
"    ..++++++++++++++++++++++++++............    ",
"    ..+++++++++++++++++++++++++.............    ",
"    ..++++++++++++++++++++++++..............    ",
"    ..++++++++++++++++++++++++..............    ",
"    ..............+++++++++++...............    ",
"    ..............+++++++++++...............    ",
"    ..............++++++++++................    ",
"    ..............++++++++++................    ",
"    ..............+++++++++.................    ",
"    ..............++++++++..................    ",
"    ..............++++++++..................    ",
"    ..............+++++++...................    ",
"    ..............+++++++...................    ",
"    ..............++++++....................    ",
"    ..............++++++....................    ",
"    ..............+++++.....................    ",
"    ........................................    ",
"    ........................................    ",
"                                                ",
"                                                ",
"                                                ",
"                                                "};
