/* XPM */
static char * config_xpm[] = {
"22 22 165 2",
"  	c None",
". 	c #738699",
"+ 	c #8697A8",
"@ 	c #8696A7",
"# 	c #6C8195",
"$ 	c #EFF2F3",
"% 	c #ADB8C3",
"& 	c #899AAA",
"* 	c #E7EAED",
"= 	c #BCC5CE",
"- 	c #8092A4",
"; 	c #D9DFE4",
"> 	c #CFD6DC",
", 	c #99A8B7",
"' 	c #9CABBA",
") 	c #CAD2DA",
"! 	c #AAB5C1",
"~ 	c #6D8197",
"{ 	c #9CACBB",
"] 	c #AABAC9",
"^ 	c #C5D3DF",
"/ 	c #C7D5E2",
"( 	c #ADBCCC",
"_ 	c #95A6B6",
": 	c #8E9EAE",
"< 	c #A9B5C0",
"[ 	c #B2BDC7",
"} 	c #74879A",
"| 	c #61768C",
"1 	c #667C92",
"2 	c #9FAFBF",
"3 	c #B3C0CD",
"4 	c #95A5B5",
"5 	c #BAC8D5",
"6 	c #E2ECF6",
"7 	c #DFEAF4",
"8 	c #DAE6F0",
"9 	c #D6E2ED",
"0 	c #BECDDB",
"a 	c #A1AFBE",
"b 	c #F6F7F8",
"c 	c #D8DDE3",
"d 	c #5F758B",
"e 	c #73879B",
"f 	c #9BAAB9",
"g 	c #9FADBC",
"h 	c #788B9E",
"i 	c #48627C",
"j 	c #90A2B4",
"k 	c #BEC9D6",
"l 	c #A1B1C1",
"m 	c #DEE8F2",
"n 	c #E3EDF7",
"o 	c #DEE9F3",
"p 	c #D9E5EF",
"q 	c #D4E0EC",
"r 	c #CFDCE8",
"s 	c #ADBDCC",
"t 	c #A5B2BE",
"u 	c #6C8095",
"v 	c #667D93",
"w 	c #8EA0B3",
"x 	c #C9D6E2",
"y 	c #CBD9E4",
"z 	c #9EAEBF",
"A 	c #8999AA",
"B 	c #6D8399",
"C 	c #E4EDF7",
"D 	c #E3EDF6",
"E 	c #D0DDE9",
"F 	c #BBCAD7",
"G 	c #95A7B9",
"H 	c #E4EEF7",
"I 	c #DCE7F1",
"J 	c #ACBCCB",
"K 	c #7D8FA2",
"L 	c #667D94",
"M 	c #A1B2C3",
"N 	c #E1EBF4",
"O 	c #D0DDE8",
"P 	c #B1C1CF",
"Q 	c #A5B3C0",
"R 	c #97A5B4",
"S 	c #4E6983",
"T 	c #7E93A8",
"U 	c #B9C8D6",
"V 	c #C8D6E2",
"W 	c #8EA1B3",
"X 	c #899AAB",
"Y 	c #647A8F",
"Z 	c #677E95",
"` 	c #97ABBE",
" .	c #8BA0B3",
"..	c #CAD7E3",
"+.	c #E5EEF8",
"@.	c #C9D6E3",
"#.	c #94A6B7",
"$.	c #C9D2DB",
"%.	c #E3E8ED",
"&.	c #4A647F",
"*.	c #698199",
"=.	c #637B93",
"-.	c #768CA1",
";.	c #788FA7",
">.	c #98ACC0",
",.	c #8499AF",
"'.	c #889CB0",
").	c #BCCAD8",
"!.	c #D7E3ED",
"~.	c #D8E4EE",
"{.	c #C0CEDC",
"].	c #96A8BA",
"^.	c #8295A8",
"/.	c #6E8398",
"(.	c #6A7F93",
"_.	c #506A84",
":.	c #405D78",
"<.	c #4E6882",
"[.	c #677E97",
"}.	c #899EB2",
"|.	c #8FA2B6",
"1.	c #8CA0B3",
"2.	c #8DA1B4",
"3.	c #9FB0C1",
"4.	c #6A8197",
"5.	c #75889B",
"6.	c #5E758B",
"7.	c #7A8D9F",
"8.	c #607992",
"9.	c #9CB1C6",
"0.	c #8096AC",
"a.	c #788EA4",
"b.	c #B2C2D2",
"c.	c #788EA3",
"d.	c #97A7B6",
"e.	c #A1B1C0",
"f.	c #9BABBB",
"g.	c #667B91",
"h.	c #566E85",
"i.	c #4F6B86",
"j.	c #849CB3",
"k.	c #556F89",
"l.	c #778DA4",
"m.	c #617A91",
"n.	c #8597AA",
"o.	c #BCCAD7",
"p.	c #D8E4EF",
"q.	c #BECCDA",
"r.	c #94A4B4",
"s.	c #697D92",
"t.	c #677D93",
"u.	c #D0DCE8",
"v.	c #E1ECF6",
"w.	c #CAD8E4",
"x.	c #8FA1B3",
"y.	c #6C849B",
"z.	c #97A9BB",
"A.	c #C7D4E1",
"B.	c #A6B7C8",
"C.	c #8799AB",
"D.	c #93A3B2",
"E.	c #5A748E",
"F.	c #5F7891",
"G.	c #6C839B",
"H.	c #7D91A4",
"                                            ",
"                                            ",
"                      .       + @           ",
"                    # $ %   & * =           ",
"                    - ; > , ' ) !           ",
"                    ~ { ] ^ / ( _ : < [ }   ",
"        |     1 2 3 4 5 6 7 8 9 0 a b c d   ",
"    e f g h   i j k l m n o p q r s t u     ",
"  v w x y z A     B s C D o p q E F h       ",
"    G H I J K     L M N n o p q O P Q R     ",
"  S T U V W X Y Z `  ...+.o p 9 @.#.$.%.-   ",
"    &.*.=.-.    ;.>.,.'.).!.~.{.].^./.e (.  ",
"      _.        :.<.  [.}.|.1.2.3.4.        ",
"            5.6.7.    8.9.0.S a.b.c.        ",
"          h d.e.f.g.h.i.j.k.    l.m.        ",
"          n.o.p.q.r.s.  t.                  ",
"          L u.v.w.x.u                       ",
"          y.z.A.B.C.D.                      ",
"            E.F.G.H.                        ",
"                                            ",
"                                            ",
"                                            "};
