/* XPM */
static char * delete_xpm[] = {
"22 22 160 2",
"  	c None",
". 	c #CC2C2C",
"+ 	c #CF3434",
"@ 	c #CF3535",
"# 	c #CC2D2D",
"$ 	c #CD1616",
"% 	c #DD4141",
"& 	c #E86363",
"* 	c #ED7272",
"= 	c #ED7474",
"- 	c #E96767",
"; 	c #DD4545",
"> 	c #CD1818",
", 	c #C81F1F",
"' 	c #D93030",
") 	c #ED7C7C",
"! 	c #F29C9C",
"~ 	c #F3A5A5",
"{ 	c #F29D9D",
"] 	c #ED7E7E",
"^ 	c #D93232",
"/ 	c #C82020",
"( 	c #C81E1E",
"_ 	c #DB3232",
": 	c #EE8787",
"< 	c #F19E9E",
"[ 	c #F19F9F",
"} 	c #F2A8A8",
"| 	c #F3ABAB",
"1 	c #DB3333",
"2 	c #D31D1D",
"3 	c #EA7878",
"4 	c #F09B9B",
"5 	c #F09393",
"6 	c #F08F8F",
"7 	c #F19A9A",
"8 	c #F3AEAE",
"9 	c #F18F8F",
"0 	c #F09292",
"a 	c #D31E1E",
"b 	c #C90E0E",
"c 	c #E25454",
"d 	c #F09494",
"e 	c #F5B0B0",
"f 	c #FCEAEA",
"g 	c #F6B1B1",
"h 	c #FCEBEB",
"i 	c #F5B1B1",
"j 	c #E25555",
"k 	c #C90F0F",
"l 	c #D01E1E",
"m 	c #EC7979",
"n 	c #F39090",
"o 	c #F18585",
"p 	c #FCE8E8",
"q 	c #FFFFFF",
"r 	c #FDF4F4",
"s 	c #F5AFAF",
"t 	c #F6B0B0",
"u 	c #F08787",
"v 	c #F28F8F",
"w 	c #EC7B7B",
"x 	c #D12121",
"y 	c #DA3A3A",
"z 	c #F28282",
"A 	c #F48686",
"B 	c #F17979",
"C 	c #F4A9A9",
"D 	c #FDF5F5",
"E 	c #FEFAFA",
"F 	c #FEFBFB",
"G 	c #F07979",
"H 	c #F48585",
"I 	c #DB3C3C",
"J 	c #CE2B2B",
"K 	c #E14747",
"L 	c #F57A7A",
"M 	c #F47878",
"N 	c #F47777",
"O 	c #F06D6D",
"P 	c #F2A9A9",
"Q 	c #FEFCFC",
"R 	c #F1A2A2",
"S 	c #ED4D4D",
"T 	c #F15353",
"U 	c #F26363",
"V 	c #E24949",
"W 	c #CF2B2B",
"X 	c #E33E3E",
"Y 	c #F66969",
"Z 	c #F56868",
"` 	c #F56767",
" .	c #EF6363",
"..	c #F1A9A9",
"+.	c #F09F9F",
"@.	c #EB3939",
"#.	c #F13131",
"$.	c #F13535",
"%.	c #F45252",
"&.	c #E33F3F",
"*.	c #DF2222",
"=.	c #F54D4D",
"-.	c #F55555",
";.	c #EF5858",
">.	c #F1A4A4",
",.	c #FDFCFC",
"'.	c #FDFBFB",
").	c #FCF5F5",
"!.	c #EE9898",
"~.	c #EC3535",
"{.	c #F32B2B",
"].	c #F43131",
"^.	c #D61212",
"/.	c #F22626",
"(.	c #F42C2C",
"_.	c #E96262",
":.	c #F9EAEA",
"<.	c #FCF4F4",
"[.	c #ED9C9C",
"}.	c #ED9B9B",
"|.	c #F9E9E9",
"1.	c #E65A5A",
"2.	c #F42323",
"3.	c #F22222",
"4.	c #CE1111",
"5.	c #E31515",
"6.	c #F71D1D",
"7.	c #F02727",
"8.	c #EE9292",
"9.	c #F9ECEC",
"0.	c #ED9696",
"a.	c #EF2929",
"b.	c #EE2828",
"c.	c #EC9595",
"d.	c #F8ECEC",
"e.	c #EC9090",
"f.	c #EF2626",
"g.	c #D01111",
"h.	c #E51212",
"i.	c #F81616",
"j.	c #F12222",
"k.	c #E65555",
"l.	c #F02424",
"m.	c #F91616",
"n.	c #F12121",
"o.	c #CB0606",
"p.	c #D90D0D",
"q.	c #EE0F0F",
"r.	c #F71010",
"s.	c #FB1010",
"t.	c #FC1111",
"u.	c #FC1010",
"v.	c #D01414",
"w.	c #CB0909",
"x.	c #D00B0B",
"y.	c #DA0B0B",
"z.	c #DF0B0B",
"A.	c #9E0D0D",
"B.	c #C30A0A",
"C.	c #9D0D0D",
"                                            ",
"                                            ",
"                  . + @ #                   ",
"              $ % & * = - ; >               ",
"          , ' ) ! ~ ~ ~ ~ { ] ^ /           ",
"        ( _ : < [ } | | } < < : 1 (         ",
"        2 3 4 5 6 7 8 8 7 9 0 4 3 a         ",
"      b c d 9 e f g 9 9 g h i 9 d j k       ",
"      l m n o p q r s t r q f u v w x       ",
"      y z A B C D q E F q D | G H z I       ",
"    J K L M N O P Q q q Q R S T U N V J     ",
"    W X Y Z `  ...Q q q Q +.@.#.$.%.&.W     ",
"      *.=.-.;.>.D q ,.'.q ).!.~.{.].*.      ",
"      ^./.(._.:.q <.[.}.<.q |.1.2.3.^.      ",
"      4.5.6.7.8.9.0.a.b.c.d.e.f.6.5.4.      ",
"        g.h.i.j.k.l.m.m.l.k.n.i.h.g.        ",
"          o.p.q.r.s.t.t.u.r.q.p.o.          ",
"            v.w.x.y.z.z.y.x.w.v.            ",
"              A.B.B.B.B.B.B.C.              ",
"                                            ",
"                                            ",
"                                            "};
