/* XPM */
static char * down_xpm[] = {
"22 22 217 2",
"  	c None",
". 	c #ADBCC9",
"+ 	c #BDDAEA",
"@ 	c #B6E0F2",
"# 	c #B4E2F5",
"$ 	c #B9DEF0",
"% 	c #BBD1DF",
"& 	c #97A2AD",
"* 	c #A4B3C3",
"= 	c #B6D8F0",
"- 	c #99D5F4",
"; 	c #88D4F5",
"> 	c #81D9F8",
", 	c #7FDAF9",
"' 	c #83D7F6",
") 	c #8DD3F4",
"! 	c #A8D8F4",
"~ 	c #B7CCDF",
"{ 	c #A5B7CE",
"] 	c #97C0E7",
"^ 	c #74B3E2",
"/ 	c #72B9E6",
"( 	c #81C4E8",
"_ 	c #9ED3ED",
": 	c #A4D6EF",
"< 	c #93CDEA",
"[ 	c #74BEE8",
"} 	c #6FB5E4",
"| 	c #7FB6E3",
"1 	c #ABC6E3",
"2 	c #91A0B9",
"3 	c #81A5D8",
"4 	c #5A90CF",
"5 	c #5E9AD4",
"6 	c #62A3D8",
"7 	c #A3C6E4",
"8 	c #F3F6F9",
"9 	c #F5F6F9",
"0 	c #DDE6F1",
"a 	c #6FABDB",
"b 	c #5D9ED7",
"c 	c #5792D0",
"d 	c #6392D0",
"e 	c #99B0D4",
"f 	c #7C96CB",
"g 	c #3D68B9",
"h 	c #3F72BE",
"i 	c #467EC5",
"j 	c #4C87C9",
"k 	c #A2BEDF",
"l 	c #FFFFFE",
"m 	c #FDFDFE",
"n 	c #E6EBF3",
"o 	c #5D92CC",
"p 	c #4581C7",
"q 	c #3F75C0",
"r 	c #3667B8",
"s 	c #587CC3",
"t 	c #8090AF",
"u 	c #7787A8",
"v 	c #3B59AF",
"w 	c #2048A7",
"x 	c #2A56AF",
"y 	c #3163B6",
"z 	c #376CBA",
"A 	c #95AFD6",
"B 	c #FBFBFD",
"C 	c #F7F8FC",
"D 	c #DEE4EF",
"E 	c #4C7BBF",
"F 	c #3368B8",
"G 	c #2E5DB2",
"H 	c #2550AB",
"I 	c #274BA8",
"J 	c #7086BE",
"K 	c #6578B0",
"L 	c #1A359A",
"M 	c #15359A",
"N 	c #1D42A2",
"O 	c #234DA8",
"P 	c #2956AC",
"Q 	c #889FCD",
"R 	c #F2F4F9",
"S 	c #ECF0F7",
"T 	c #D2D9E9",
"U 	c #3F67B2",
"V 	c #2653AB",
"W 	c #214AA6",
"X 	c #1B3F9F",
"Y 	c #123097",
"Z 	c #495FAE",
"` 	c #4F61A6",
" .	c #0D238E",
"..	c #0C258F",
"+.	c #243F9A",
"@.	c #24449F",
"#.	c #1C409E",
"$.	c #798DC2",
"%.	c #E4E9F3",
"&.	c #DEE3F0",
"*.	c #BFC8E0",
"=.	c #2F51A5",
"-.	c #1F3E9B",
";.	c #112D92",
">.	c #09208C",
",.	c #3448A0",
"'.	c #7683A9",
").	c #44569E",
"!.	c #0A1D88",
"~.	c #041885",
"{.	c #515FA6",
"].	c #98A2CA",
"^.	c #5065AB",
"/.	c #7888BC",
"(.	c #D0D7EA",
"_.	c #C9D1E7",
":.	c #ACB6D6",
"<.	c #445BA4",
"[.	c #5C6EAE",
"}.	c #5C6BA9",
"|.	c #0E2288",
"1.	c #0B1F89",
"2.	c #34469D",
"3.	c #6D7BA4",
"4.	c #405297",
"5.	c #0B1F88",
"6.	c #011582",
"7.	c #1A2C8B",
"8.	c #98A1C9",
"9.	c #BAC2DC",
"0.	c #ABB6D6",
"a.	c #BAC5E0",
"b.	c #B4C0DD",
"c.	c #ABB8D8",
"d.	c #9CA8CE",
"e.	c #9BA6CC",
"f.	c #3A4B9A",
"g.	c #0D2087",
"h.	c #16288B",
"i.	c #3C4E9E",
"j.	c #3E4D83",
"k.	c #14278A",
"l.	c #071B83",
"m.	c #0D288A",
"n.	c #4058A1",
"o.	c #9EADD0",
"p.	c #B0BFDD",
"q.	c #ABBCDB",
"r.	c #AABCDB",
"s.	c #AABBDB",
"t.	c #A3B3D5",
"u.	c #5C73AF",
"v.	c #1F3C94",
"w.	c #1E3491",
"x.	c #273993",
"y.	c #46569D",
"z.	c #344695",
"A.	c #253C94",
"B.	c #2E4C9E",
"C.	c #385CA6",
"D.	c #6783B8",
"E.	c #A5BAD9",
"F.	c #ADC3DF",
"G.	c #AEC4E0",
"H.	c #ABC0DD",
"I.	c #7D97C3",
"J.	c #476CAE",
"K.	c #3F62AB",
"L.	c #3E59A4",
"M.	c #475BA4",
"N.	c #435388",
"O.	c #39497E",
"P.	c #556CAD",
"Q.	c #5977B5",
"R.	c #6185BE",
"S.	c #688FC2",
"T.	c #8AA7CC",
"U.	c #B5CDE5",
"V.	c #B8D0E7",
"W.	c #98B4D4",
"X.	c #729AC7",
"Y.	c #6D95C7",
"Z.	c #6B8DC2",
"`.	c #6C87BE",
" +	c #5F73A9",
".+	c #526597",
"++	c #7D98C7",
"@+	c #87A8D1",
"#+	c #8CB3D8",
"$+	c #8EB5D7",
"%+	c #9FBDD9",
"&+	c #A6C3DC",
"*+	c #93BBDA",
"=+	c #93BEDE",
"-+	c #92B7DA",
";+	c #91B0D5",
">+	c #7C94BF",
",+	c #37466E",
"'+	c #546893",
")+	c #95B1D2",
"!+	c #ACCDE6",
"~+	c #B3D8ED",
"{+	c #B2D7EB",
"]+	c #B3D9EC",
"^+	c #B7DEF1",
"/+	c #B6D9EE",
"(+	c #ACCAE4",
"_+	c #829ABD",
":+	c #39486D",
"<+	c #3E4D70",
"[+	c #748AAB",
"}+	c #9FB8D2",
"|+	c #B4D1E4",
"1+	c #BBD9E9",
"2+	c #ADC8DE",
"3+	c #90A8C3",
"4+	c #5B6D8E",
"                                            ",
"                                            ",
"                                            ",
"                . + @ # $ % &               ",
"            * = - ; > , ' ) ! ~             ",
"          { ] ^ / ( _ : < [ } | 1           ",
"        2 3 4 5 6 7 8 9 0 a b c d e         ",
"        f g h i j k l m n o p q r s t       ",
"      u v w x y z A B C D E F G H I J       ",
"      K L M N O P Q R S T U V W X Y Z       ",
"      `  ...+.@.#.$.%.&.*.=.#.-.;.>.,.'.    ",
"      ).!.~.{.].^./.(._.:.<.[.}.|.1.2.3.    ",
"      4.5.6.7.8.9.0.a.b.c.d.e.f.g.h.i.      ",
"      j.k.l.m.n.o.p.q.r.s.t.u.v.w.x.y.      ",
"        z.A.B.C.D.E.F.G.H.I.J.K.L.M.N.      ",
"        O.P.Q.R.S.T.U.V.W.X.Y.Z.`. +        ",
"          .+++@+#+$+%+&+*+=+-+;+>+,+        ",
"            '+)+!+~+{+]+^+/+(+_+:+          ",
"              <+[+}+|+1+2+3+4+              ",
"                                            ",
"                                            ",
"                                            "};
