/* XPM */
static char * find_xpm[] = {
"22 22 89 1",
" 	c None",
".	c #949495",
"+	c #AEAEAE",
"@	c #D1D1D1",
"#	c #C1C1C2",
"$	c #A0A0A1",
"%	c #B1B1B1",
"&	c #F2F2F3",
"*	c #FAFAFA",
"=	c #FAFAFB",
"-	c #F8F8F9",
";	c #F5F5F7",
">	c #CACACB",
",	c #A2A2A3",
"'	c #B0B0B1",
")	c #F7F7F8",
"!	c #F9F9FA",
"~	c #F6F6F8",
"{	c #CECFD1",
"]	c #9F9FA0",
"^	c #939394",
"/	c #E6E7E8",
"(	c #F8F9F9",
"_	c #F3F3F5",
":	c #A8A8AA",
"<	c #959596",
"[	c #EEEEF1",
"}	c #F1F1F3",
"|	c #F4F5F7",
"1	c #F4F5F6",
"2	c #C6C6C8",
"3	c #8C8C8F",
"4	c #ECECEF",
"5	c #E9EAED",
"6	c #EDEDF0",
"7	c #F0F1F3",
"8	c #F1F2F4",
"9	c #C8C9CB",
"0	c #7D7D7F",
"a	c #E2E3E6",
"b	c #EAEAED",
"c	c #E6E7EB",
"d	c #EBEBEE",
"e	c #EBECEF",
"f	c #E8E9EC",
"g	c #A1A2A4",
"h	c #A8A9AC",
"i	c #E5E6EA",
"j	c #E3E4E9",
"k	c #E2E3E7",
"l	c #E1E2E6",
"m	c #E1E1E6",
"n	c #E1E2E7",
"o	c #CBCCD0",
"p	c #626364",
"q	c #4C4C4E",
"r	c #AEAEB3",
"s	c #D9DAE0",
"t	c #DDDEE4",
"u	c #DCDDE3",
"v	c #C5C6CB",
"w	c #7A7B7D",
"x	c #3D3D3F",
"y	c #75767A",
"z	c #A3A3A8",
"A	c #B0B0B7",
"B	c #AAAAB0",
"C	c #8E8E93",
"D	c #59595B",
"E	c #464646",
"F	c #464645",
"G	c #515152",
"H	c #525354",
"I	c #2E2E2E",
"J	c #494949",
"K	c #313131",
"L	c #545454",
"M	c #343434",
"N	c #626262",
"O	c #3B3B3B",
"P	c #737373",
"Q	c #414141",
"R	c #858585",
"S	c #9B9B9B",
"T	c #535353",
"U	c #969696",
"V	c #8C8C8C",
"W	c #444444",
"X	c #4A4A4A",
"                      ",
"                      ",
"     .+@#.$           ",
"    %&*=-;>,          ",
"   ')==*!)~{]         ",
"  ^/)-(---)_:         ",
"  <[};;||1;;2         ",
"  3456}7}7789         ",
"  0abcc5dedfg         ",
"   hcijklmnop         ",
"   qrsttusvw          ",
"    xyzABCDEF         ",
"       GH   IJ        ",
"             KL       ",
"              MN      ",
"               OP     ",
"                QRS   ",
"                 TUV  ",
"                  WX  ",
"                      ",
"                      ",
"                      "};
