/* XPM */
static char * logo_22_xpm[] = {
"22 22 18 1",
" 	c None",
".	c #3F28EC",
"+	c #6F59B3",
"@	c #4B34DE",
"#	c #9F897A",
"$	c #FFEB07",
"%	c #CFBA40",
"&	c #E7D324",
"*	c #DBC632",
"=	c #634DC1",
"-	c #877196",
";	c #B7A25D",
">	c #9F8A79",
",	c #F3DF15",
"'	c #5740CF",
")	c #AB966B",
"!	c #937D88",
"~	c #9F8A7A",
"                      ",
" .................... ",
" ................++@. ",
" ..............+#$$+. ",
" .............%&$$$+. ",
" ..........@+*$$$$&=. ",
" .........-;$$$$$$>.. ",
" ........-,$$$$$$*'.. ",
" .....'+$$$$$$$$$)... ",
" ....'%$$$$$$$$$$.... ",
" ...)*$$$$$$$$$$!.... ",
" .!$$$$$$$$$$$$&=.... ",
" .$$$$$$$$$$$$$~..... ",
" .$$$$$$$$$$$$*'..... ",
" .$$$$$$$$$$$$)...... ",
" .>>>>>>$$$$$$....... ",
" .......$$$$$!....... ",
" .......$$$$&=....... ",
" .......$$$$#........ ",
" .......$$$*'........ ",
" .................... ",
"                      "};
