/* XPM */
static char * logo_24_xpm[] = {
"24 24 297 2",
"  	c None",
". 	c #3F3FB3",
"+ 	c #4D4DB9",
"@ 	c #4D4DB8",
"# 	c #4C4CB8",
"$ 	c #4949B6",
"% 	c #4444B4",
"& 	c #3939B1",
"* 	c #3434AF",
"= 	c #2F2FAD",
"- 	c #2A2AAA",
"; 	c #2727A9",
"> 	c #1515A7",
", 	c #1D1D9F",
"' 	c #1616A1",
") 	c #0F0FA1",
"! 	c #06069D",
"~ 	c #5050BA",
"{ 	c #5B5BBF",
"] 	c #5959BE",
"^ 	c #5555BC",
"/ 	c #5050B9",
"( 	c #4A4AB7",
"_ 	c #4343B5",
": 	c #3D3DB2",
"< 	c #3737B0",
"[ 	c #3131AE",
"} 	c #2A2AAB",
"| 	c #2525A8",
"1 	c #1C1CA9",
"2 	c #00009E",
"3 	c #8C8C92",
"4 	c #E5E5DA",
"5 	c #5252A7",
"6 	c #00009B",
"7 	c #4F4FB9",
"8 	c #5959BD",
"9 	c #5757BD",
"0 	c #5454BC",
"a 	c #4848B6",
"b 	c #4242B4",
"c 	c #3C3CB2",
"d 	c #3535AF",
"e 	c #3030AD",
"f 	c #2929AB",
"g 	c #2222A8",
"h 	c #1D1DA6",
"i 	c #1515A4",
"j 	c #1010A0",
"k 	c #393998",
"l 	c #E8E8A6",
"m 	c #FFFFF3",
"n 	c #FFFFE5",
"o 	c #4C4CA5",
"p 	c #4A4AB8",
"q 	c #4E4EB9",
"r 	c #4747B6",
"s 	c #4141B4",
"t 	c #3B3BB1",
"u 	c #2E2EAC",
"v 	c #2828AA",
"w 	c #1C1CA5",
"x 	c #1616A3",
"y 	c #0E0EA1",
"z 	c #0000A0",
"A 	c #151592",
"B 	c #989890",
"C 	c #FFFFBA",
"D 	c #FFFFD0",
"E 	c #FEFED2",
"F 	c #FEFED5",
"G 	c #2F2F9C",
"H 	c #00009C",
"I 	c #3838B0",
"J 	c #3A3AB1",
"K 	c #3333AF",
"L 	c #2D2DAC",
"M 	c #2020A8",
"N 	c #1A1AA5",
"O 	c #1414A3",
"P 	c #0E0EA0",
"Q 	c #08089E",
"R 	c #01019C",
"S 	c #81817B",
"T 	c #E5E59C",
"U 	c #FFFFAF",
"V 	c #FEFEBA",
"W 	c #FEFEC1",
"X 	c #FFFFCA",
"Y 	c #E8E8BF",
"Z 	c #161698",
"` 	c #2727AA",
" .	c #1F1FA7",
"..	c #1A1AA4",
"+.	c #0D0D9F",
"@.	c #08089D",
"#.	c #04049B",
"$.	c #040498",
"%.	c #2F2F8C",
"&.	c #BABA74",
"*.	c #FFFF99",
"=.	c #FEFE9E",
"-.	c #FFFFA5",
";.	c #FEFEAD",
">.	c #FFFFB5",
",.	c #FFFFBF",
"'.	c #AFAF9E",
").	c #080897",
"!.	c #1515A3",
"~.	c #1313A2",
"{.	c #0C0C9F",
"].	c #07079D",
"^.	c #02029B",
"/.	c #00009D",
"(.	c #22228B",
"_.	c #ABAB6B",
":.	c #FFFF74",
"<.	c #FFFF85",
"[.	c #FEFE8C",
"}.	c #FEFE94",
"|.	c #FFFF9C",
"1.	c #FFFFA4",
"2.	c #FEFEAB",
"3.	c #FCFCAF",
"4.	c #64648F",
"5.	c #04049D",
"6.	c #01019B",
"7.	c #00009A",
"8.	c #939362",
"9.	c #EBEB5F",
"0.	c #FFFF69",
"a.	c #FFFF73",
"b.	c #FEFE7A",
"c.	c #FFFF82",
"d.	c #FFFF8A",
"e.	c #FEFE92",
"f.	c #FFFF9A",
"g.	c #FEFEA3",
"h.	c #ECECA0",
"i.	c #202093",
"j.	c #03039A",
"k.	c #303082",
"l.	c #CCCC41",
"m.	c #FFFF4D",
"n.	c #FEFE57",
"o.	c #FEFE5F",
"p.	c #FEFE66",
"q.	c #FFFF6F",
"r.	c #FFFF77",
"s.	c #FFFF7F",
"t.	c #FFFF87",
"u.	c #FEFE8E",
"v.	c #FFFF97",
"w.	c #D4D494",
"x.	c #030396",
"y.	c #0A0A95",
"z.	c #95954E",
"A.	c #FFFF30",
"B.	c #FFFF3C",
"C.	c #FDFD45",
"D.	c #FFFF55",
"E.	c #FFFF5D",
"F.	c #FFFF65",
"G.	c #FFFF6C",
"H.	c #FFFF75",
"I.	c #FEFE7C",
"J.	c #FFFF8F",
"K.	c #B2B283",
"L.	c #000099",
"M.	c #121290",
"N.	c #DADA27",
"O.	c #FEFE22",
"P.	c #FFFF2C",
"Q.	c #FEFE34",
"R.	c #FEFE3C",
"S.	c #FFFF44",
"T.	c #FFFF4B",
"U.	c #FFFF53",
"V.	c #FFFF5C",
"W.	c #FFFF63",
"X.	c #FFFF6B",
"Y.	c #FFFF8C",
"Z.	c #6A6A6A",
"`.	c #00009F",
" +	c #222285",
".+	c #FFFF00",
"++	c #FFFF0F",
"@+	c #FFFF18",
"#+	c #FDFD20",
"$+	c #FEFE28",
"%+	c #FEFE30",
"&+	c #FFFF38",
"*+	c #FFFF40",
"=+	c #FFFF48",
"-+	c #FFFF4F",
";+	c #FFFF58",
">+	c #FFFF5F",
",+	c #FEFE67",
"'+	c #FFFF71",
")+	c #FFFF61",
"!+	c #000092",
"~+	c #C4C422",
"{+	c #F5F505",
"]+	c #FAFA0A",
"^+	c #FFFF0B",
"/+	c #FFFF10",
"(+	c #FEFE1E",
"_+	c #FEFE26",
":+	c #FEFE2E",
"<+	c #FFFF36",
"[+	c #FFFF3F",
"}+	c #FFFF46",
"|+	c #FFFF4E",
"1+	c #FFFF56",
"2+	c #FEFE5E",
"3+	c #FFFF66",
"4+	c #AFAF5D",
"5+	c #0000A6",
"6+	c #12128F",
"7+	c #202087",
"8+	c #272783",
"9+	c #3A3A77",
"0+	c #85854E",
"a+	c #FFFF09",
"b+	c #FEFE1D",
"c+	c #FFFF25",
"d+	c #FEFE2C",
"e+	c #FFFF34",
"f+	c #FFFF3D",
"g+	c #FEFE4C",
"h+	c #FFFF57",
"i+	c #53537C",
"j+	c #0000A3",
"k+	c #50506A",
"l+	c #F7F713",
"m+	c #FEFE19",
"n+	c #FEFE21",
"o+	c #FEFE29",
"p+	c #FFFF39",
"q+	c #FFFF41",
"r+	c #FEFE48",
"s+	c #FCFC4C",
"t+	c #29298A",
"u+	c #04049C",
"v+	c #CDCD22",
"w+	c #FFFF08",
"x+	c #FFFF11",
"y+	c #FEFE1F",
"z+	c #FFFF27",
"A+	c #FEFE2F",
"B+	c #FFFF37",
"C+	c #DEDE46",
"D+	c #121292",
"E+	c #05059D",
"F+	c #08089F",
"G+	c #4D4D6A",
"H+	c #545468",
"I+	c #8B8B49",
"J+	c #FEFE10",
"K+	c #FDFD1E",
"L+	c #FEFE2D",
"M+	c #FFFF32",
"N+	c #8B8B55",
"O+	c #0A0A9F",
"P+	c #0B0B9F",
"Q+	c #6E6E5B",
"R+	c #FDFD0E",
"S+	c #FFFF1A",
"T+	c #F6F62A",
"U+	c #4D4D75",
"V+	c #09099E",
"W+	c #0000A5",
"X+	c #7D7D50",
"Y+	c #FFFF0A",
"Z+	c #FEFE18",
"`+	c #DFDF2A",
" @	c #0A0A93",
".@	c #1212A2",
"+@	c #1F1F87",
"@@	c #F6F60A",
"#@	c #FFFF0E",
"$@	c #B1B135",
"%@	c #0000A1",
"&@	c #03039B",
"*@	c #09099F",
"=@	c #0D0DA0",
"-@	c #1212A1",
";@	c #1717A4",
">@	c #0A0A98",
",@	c #BABA29",
"'@	c #1D1D89",
")@	c #1111A2",
"!@	c #1616A4",
"~@	c #1B1BA5",
"{@	c #1919A4",
"]@	c #3C3C76",
"^@	c #454570",
"                                                ",
"  . + + + + + + @ # $ % . & * = - ; > , ' ) !   ",
"  ~ { { { { ] ^ / ( _ : < [ } | 1 2 3 4 5 6 6   ",
"  7 8 9 0 7 a b c d e f g h i j k l m n o 6 6   ",
"  p q r s t * u v g w x y z A B C D E F G H 6   ",
"  I J K L v M N O P Q R 6 S T U V W X Y Z 6 6   ",
"  ; `  ...O +.@.#.6 $.%.&.*.=.-.;.>.,.'.).H 6   ",
"  !.~.{.].^.6 6 /.(._.:.<.[.}.|.1.2.3.4.6 H 6   ",
"  5.6.6 7.6 H 2 8.9.0.a.b.c.d.e.f.g.h.i.H H 6   ",
"  6 6 H H j.k.l.m.n.o.p.q.r.s.t.u.v.w.x.6 H 6   ",
"  6 7./.y.z.A.B.C.m.D.E.F.G.H.I.<.J.K.L.H H 6   ",
"  6 6 M.N.O.P.Q.R.S.T.U.V.W.X.a.b.Y.Z.`.6 H 6   ",
"  H  +.+++@+#+$+%+&+*+=+-+;+>+,+'+)+!+H 6 6 6   ",
"  H ~+{+]+^+/+(+_+:+<+[+}+|+1+2+3+4+5+6 H 6 7.  ",
"  6 6+7+8+9+0+a+b+c+d+e+f+S.g+D.h+i+H H H 7.7.  ",
"  6 H 6 6 H j+k+l+m+n+o+A.p+q+r+s+t+H 7.6 H u+  ",
"  6 H H 6 H 7.z v+w+x+y+z+A+B+[+C+D+6 6 6.E+F+  ",
"  6 H 6 H H 6 /.G+H+I+J+K+c+L+M+N+6 6 6 5.O+P+  ",
"  6 H H H H 6 6 2 /.5+Q+R+S+O.T+U+/.6 E+V+) )   ",
"  6 H H H H 6 6 6 6 7.W+X+Y+Z+`+ @H 5.V+P ~..@  ",
"  6 H 6 H H H H H 6 6 H +@@@#@$@%@&@*@=@-@;@x   ",
"  6 6 H H H H H H H H 6 >@,@.+'@`.Q P )@!@~@{@  ",
"  7.6 6 6 6 6 6 6 6 6 6 H ]@^@j+].O+) ~.!@~@!.  ",
"                                                "};
