/* XPM */
static char * logo_24_xpm[] = {
"24 24 6 1",
" 	c None",
".	c #3F28EC",
"+	c #6F59B3",
"@	c #CFBA40",
"#	c #FFEB07",
"$	c #9F8A7A",
"                        ",
"                        ",
"  ....................  ",
"  ................+@#.  ",
"  ..............+@##@.  ",
"  .............$####+.  ",
"  ...........$#####@..  ",
"  .........+@######+..  ",
"  ........@#######$...  ",
"  ......$#########....  ",
"  ....+##########$....  ",
"  ..+@##########@.....  ",
"  .@############+.....  ",
"  .############@......  ",
"  .############.......  ",
"  .......#####$.......  ",
"  .......#####........  ",
"  .......####+........  ",
"  .......###@.........  ",
"  .......###+.........  ",
"  .......##@..........  ",
"  ....................  ",
"                        ",
"                        "};
