/* XPM */
static char * logo_22_xpm[] = {
"22 22 271 2",
"  	c None",
". 	c #4242B4",
"+ 	c #5050BA",
"@ 	c #4F4FB9",
"# 	c #4E4EB9",
"$ 	c #4E4EB8",
"% 	c #4D4DB8",
"& 	c #4A4AB6",
"* 	c #4444B4",
"= 	c #3E3EB3",
"- 	c #3838B0",
"; 	c #3232AE",
"> 	c #2D2DAC",
", 	c #2626A9",
"' 	c #1F1FA6",
") 	c #2A2AA4",
"! 	c #2222A2",
"~ 	c #1010A0",
"{ 	c #06069D",
"] 	c #5353BB",
"^ 	c #5C5CBF",
"/ 	c #5B5BBF",
"( 	c #5A5ABE",
"_ 	c #5858BD",
": 	c #5454BB",
"< 	c #4848B6",
"[ 	c #4040B3",
"} 	c #3939B0",
"| 	c #2C2CAC",
"1 	c #2323A9",
"2 	c #1C1CA6",
"3 	c #1919A2",
"4 	c #63639B",
"5 	c #EAEACC",
"6 	c #8B8BBA",
"7 	c #0B0B9B",
"8 	c #00009A",
"9 	c #5656BC",
"0 	c #5151BA",
"a 	c #4C4CB8",
"b 	c #4545B5",
"c 	c #3E3EB2",
"d 	c #3737B0",
"e 	c #3030AD",
"f 	c #2A2AAA",
"g 	c #2323A8",
"h 	c #1A1AA5",
"i 	c #0D0DA4",
"j 	c #11119C",
"k 	c #40409A",
"l 	c #ADADA4",
"m 	c #FFFFD4",
"n 	c #FFFFEF",
"o 	c #7D7DB4",
"p 	c #08089B",
"q 	c #4444B5",
"r 	c #3D3DB2",
"s 	c #3636AF",
"t 	c #2F2FAD",
"u 	c #2828AA",
"v 	c #2121A7",
"w 	c #1414A2",
"x 	c #0A0AA0",
"y 	c #00009F",
"z 	c #30308F",
"A 	c #797995",
"B 	c #E4E4A4",
"C 	c #FFFFC5",
"D 	c #FEFECE",
"E 	c #FFFFD0",
"F 	c #6161A7",
"G 	c #02029A",
"H 	c #00009B",
"I 	c #3030AC",
"J 	c #2727AA",
"K 	c #1212A1",
"L 	c #0C0C9F",
"M 	c #05059E",
"N 	c #00009D",
"O 	c #070795",
"P 	c #5C5C85",
"Q 	c #D2D28A",
"R 	c #FFFFA2",
"S 	c #FFFFAF",
"T 	c #FDFDB6",
"U 	c #FFFFC1",
"V 	c #EFEFB9",
"W 	c #43439C",
"X 	c #1C1CA5",
"Y 	c #1919A4",
"Z 	c #1111A1",
"` 	c #0B0B9E",
" .	c #05059C",
"..	c #03039B",
"+.	c #000097",
"@.	c #57577E",
"#.	c #ADAD7C",
"$.	c #EFEF7D",
"%.	c #FFFF94",
"&.	c #FEFE9A",
"*.	c #FEFEA2",
"=.	c #FEFEAA",
"-.	c #FFFFB4",
";.	c #BBBBA0",
">.	c #222296",
",.	c #08089E",
"'.	c #04049C",
").	c #02029B",
"!.	c #0000A5",
"~.	c #3B3B82",
"{.	c #A2A26C",
"].	c #E7E768",
"^.	c #FFFF72",
"/.	c #FFFF7E",
"(.	c #FEFE86",
"_.	c #FEFE8F",
":.	c #FEFE97",
"<.	c #FFFFA1",
"[.	c #FFFFA6",
"}.	c #7F7F97",
"|.	c #070798",
"1.	c #00009C",
"2.	c #00009E",
"3.	c #000099",
"4.	c #6A6A67",
"5.	c #DDDD4E",
"6.	c #FDFD56",
"7.	c #FFFF60",
"8.	c #FEFE68",
"9.	c #FEFE71",
"0.	c #FFFF7A",
"a.	c #FFFF83",
"b.	c #FEFE8B",
"c.	c #F9F998",
"d.	c #575795",
"e.	c #2C2C82",
"f.	c #BEBE42",
"g.	c #FAFA38",
"h.	c #FDFD42",
"i.	c #FEFE4C",
"j.	c #FEFE55",
"k.	c #FEFE5D",
"l.	c #FFFF66",
"m.	c #FFFF6E",
"n.	c #FEFE78",
"o.	c #FEFE80",
"p.	c #FFFF8B",
"q.	c #E7E78A",
"r.	c #444490",
"s.	c #434375",
"t.	c #F1F11F",
"u.	c #FFFF26",
"v.	c #FEFE31",
"w.	c #FDFD39",
"x.	c #FEFE42",
"y.	c #FFFF4A",
"z.	c #FFFF53",
"A.	c #FEFE5C",
"B.	c #FFFF64",
"C.	c #FFFF6D",
"D.	c #FEFE75",
"E.	c #BDBD79",
"F.	c #232388",
"G.	c #01019A",
"H.	c #515167",
"I.	c #FFFF00",
"J.	c #FFFF12",
"K.	c #FEFE1B",
"L.	c #FDFD24",
"M.	c #FDFD2C",
"N.	c #FEFE35",
"O.	c #FFFF3E",
"P.	c #FFFF47",
"Q.	c #FEFE4E",
"R.	c #FFFF58",
"S.	c #FEFE60",
"T.	c #FEFE6A",
"U.	c #FFFF68",
"V.	c #7D7D78",
"W.	c #101091",
"X.	c #CFCF1B",
"Y.	c #E4E410",
"Z.	c #E8E814",
"`.	c #F0F013",
" +	c #FBFB17",
".+	c #FEFE21",
"++	c #FDFD2A",
"@+	c #FEFE33",
"#+	c #FFFF3D",
"$+	c #FEFE45",
"%+	c #FEFE4D",
"&+	c #FEFE56",
"*+	c #FFFF5F",
"=+	c #E3E35F",
"-+	c #4B4B83",
";+	c #0000A2",
">+	c #040497",
",+	c #0D0D92",
"'+	c #15158C",
")+	c #3C3C77",
"!+	c #B2B232",
"~+	c #F9F916",
"{+	c #FFFF20",
"]+	c #FDFD28",
"^+	c #FFFF3A",
"/+	c #FEFE4B",
"(+	c #FFFF51",
"_+	c #BABA64",
":+	c #171790",
"<+	c #090997",
"[+	c #B9B931",
"}+	c #FFFF0D",
"|+	c #FFFF18",
"1+	c #FEFE25",
"2+	c #FFFF2D",
"3+	c #FEFE36",
"4+	c #FFFF3F",
"5+	c #FFFF44",
"6+	c #A4A462",
"7+	c #020298",
"8+	c #0000A6",
"9+	c #6C6C5A",
"0+	c #BCBC2B",
"a+	c #D4D422",
"b+	c #FFFF14",
"c+	c #FEFE24",
"d+	c #FEFE2C",
"e+	c #FFFF34",
"f+	c #F3F33C",
"g+	c #747468",
"h+	c #09099F",
"i+	c #15158E",
"j+	c #1D1D89",
"k+	c #343480",
"l+	c #B8B832",
"m+	c #FFFF11",
"n+	c #FFFF27",
"o+	c #D7D73A",
"p+	c #36367D",
"q+	c #01019B",
"r+	c #0B0B9F",
"s+	c #0D0DA0",
"t+	c #0000A3",
"u+	c #1F1F8F",
"v+	c #BABA2E",
"w+	c #FFFF0E",
"x+	c #FEFE1D",
"y+	c #B2B243",
"z+	c #060696",
"A+	c #0A0A9E",
"B+	c #1010A1",
"C+	c #0000A1",
"D+	c #3C3C74",
"E+	c #FFFF02",
"F+	c #F9F914",
"G+	c #8C8C4D",
"H+	c #0F0FA0",
"I+	c #1515A2",
"J+	c #111192",
"K+	c #DEDE13",
"L+	c #EBEB0E",
"M+	c #18188C",
"N+	c #0E0EA0",
"O+	c #1313A2",
"P+	c #4D4D6A",
"Q+	c #48486F",
"R+	c #0000A4",
"S+	c #07079D",
"T+	c #0C0CA0",
"U+	c #1515A3",
"V+	c #1616A3",
"                                            ",
"  . + @ @ @ # $ % & * = - ; > , ' ) ! ~ {   ",
"  ] ^ / ( _ : $ < [ } ; | 1 2 3 4 5 6 7 8   ",
"  @ 9 0 a b c d e f g h i j k l m n o p 8   ",
"  q b r s t u v h w x y z A B C D E F G H   ",
"  I t J v h K L M N O P Q R S T U V W 8 H   ",
"  X Y Z `  ...y +.@.#.$.%.&.*.=.-.;.>.H H   ",
"  ,.'.).8 H !.~.{.].^./.(._.:.<.[.}.|.1.H   ",
"  H H H 2.3.4.5.6.7.8.9.0.a.b.%.c.d.3.1.H   ",
"  8 8 y e.f.g.h.i.j.k.l.m.n.o.p.q.r.H 1.H   ",
"  H 1.s.t.u.v.w.x.y.z.A.B.C.D.a.E.F.N H H   ",
"  G.H.I.J.K.L.M.N.O.P.Q.R.S.T.U.V.H H 8 8   ",
"  W.X.Y.Z.`. +.+++@+#+$+%+&+*+=+-+;+H H 8   ",
"  8 >+,+'+)+!+~+{+]+v.^+x./+(+_+:+1.H 8 8   ",
"  H N 1.N !.<+[+}+|+1+2+3+4+5+6+7+H 8 1. .  ",
"  H 1.H H 8 8+9+0+a+b+c+d+e+f+g+N H H { h+  ",
"  H H H 1.H 1.i+j+k+l+m+.+n+o+p+y q+'.r+s+  ",
"  H 1.1.1.H 8 N 2.t+u+v+w+x+y+z+N  .A+B+Z   ",
"  H H H 1.H H H H 3.C+D+E+F+G+!.'.h+H+I+I+  ",
"  H H H 1.1.1.1.H H H J+K+L+M+C+A+N+O+Y Y   ",
"  8 H H H H H H H H 8 G P+Q+R+S+T+Z U+h V+  ",
"                                            "};
