/* XPM */
static char * new_xpm[] = {
"24 24 144 2",
"  	c None",
". 	c #338533",
"+ 	c #368636",
"@ 	c #247B24",
"# 	c #C5F8BC",
"$ 	c #CEFFC5",
"% 	c #8CC08A",
"& 	c #B5B9B5",
"* 	c #BBBBBB",
"= 	c #B9B9B9",
"- 	c #B7B7B7",
"; 	c #B5B5B5",
"> 	c #B3B3B3",
", 	c #B0B0B0",
"' 	c #ACF794",
") 	c #B4FF9B",
"! 	c #88C282",
"~ 	c #D9DCD9",
"{ 	c #DDDDDD",
"] 	c #DADADA",
"^ 	c #D7D7D7",
"/ 	c #D4D4D4",
"( 	c #D0D0D0",
"_ 	c #CDCDCD",
": 	c #CACACA",
"< 	c #9DF777",
"[ 	c #A5FE7D",
"} 	c #85C27C",
"| 	c #DEE1DE",
"1 	c #E4E4E4",
"2 	c #E1E1E1",
"3 	c #DEDEDE",
"4 	c #D6D6D6",
"5 	c #D2D2D2",
"6 	c #CCCCCC",
"7 	c #D5D5D5",
"8 	c #8FF35E",
"9 	c #96F963",
"0 	c #82C176",
"a 	c #E0E3E0",
"b 	c #E7E7E7",
"c 	c #E6E6E6",
"d 	c #E0E0E0",
"e 	c #DCDCDC",
"f 	c #D8D8D8",
"g 	c #D3D3D3",
"h 	c #E2E2E2",
"i 	c #D9D9D9",
"j 	c #B1B1B1",
"k 	c #248915",
"l 	c #49AE2C",
"m 	c #83E751",
"n 	c #87EB53",
"o 	c #87EA53",
"p 	c #A0D88D",
"q 	c #7EB976",
"r 	c #81B87C",
"s 	c #94B994",
"t 	c #E3E3E3",
"u 	c #DFDFDF",
"v 	c #E8E8E8",
"w 	c #D1D1D1",
"x 	c #ABABAB",
"y 	c #3A9F21",
"z 	c #78DC44",
"A 	c #A0E37F",
"B 	c #8EB68E",
"C 	c #B2B2B2",
"D 	c #9E9E9E",
"E 	c #329819",
"F 	c #68CD35",
"G 	c #96DA75",
"H 	c #8FB68F",
"I 	c #E5E5E5",
"J 	c #DBDBDB",
"K 	c #BDBDBD",
"L 	c #A4A4A4",
"M 	c #259112",
"N 	c #4CBE25",
"O 	c #84D06B",
"P 	c #8FB78F",
"Q 	c #E9E9E9",
"R 	c #C3C3C3",
"S 	c #138209",
"T 	c #229A11",
"U 	c #239A11",
"V 	c #2CAE16",
"W 	c #2DAF16",
"X 	c #42AF30",
"Y 	c #4FA944",
"Z 	c #EAEAEA",
"` 	c #016900",
" .	c #0E9D07",
"..	c #0EA007",
"+.	c #61AB5F",
"@.	c #CEDCCE",
"#.	c #D4E0D4",
"$.	c #D4DFD4",
"%.	c #D3DED3",
"&.	c #E4E8E4",
"*.	c #EBEBEB",
"=.	c #0F9E07",
"-.	c #10A008",
";.	c #63AC61",
">.	c #E9ECE9",
",.	c #F0F0F0",
"'.	c #EFEFEF",
").	c #EEEEEE",
"!.	c #EDEDED",
"~.	c #ECECEC",
"{.	c #2CAC16",
"].	c #2EAF17",
"^.	c #6AB064",
"/.	c #EAEDEA",
"(.	c #F1F1F1",
"_.	c #49BA24",
":.	c #4DBE26",
"<.	c #71B368",
"[.	c #EBEEEB",
"}.	c #F2F2F2",
"|.	c #2D9119",
"1.	c #4F9F3E",
"2.	c #5DAA4D",
"3.	c #6FAA6C",
"4.	c #F0F1F0",
"5.	c #F3F3F3",
"6.	c #CFCFCF",
"7.	c #F6F6F6",
"8.	c #F5F5F5",
"9.	c #F4F4F4",
"0.	c #F7F7F7",
"a.	c #F8F8F8",
"b.	c #A5A5A5",
"c.	c #CBCBCB",
"d.	c #F9F9F9",
"e.	c #A3A3A3",
"f.	c #FAFAFA",
"g.	c #A2A2A2",
"h.	c #A1A1A1",
"i.	c #A0A0A0",
"j.	c #9F9F9F",
"k.	c #9D9D9D",
"l.	c #9C9C9C",
"m.	c #9B9B9B",
"                                                ",
"          . + + + @                             ",
"          # $ $ $ % & * = - ; > ; ,             ",
"          ' ) ) ) ! ~ { ] ^ / ( _ : >           ",
"          < [ [ [ } | 1 2 3 ] 4 5 6 7 >         ",
"          8 9 9 9 0 a b c 1 d e f g h i j       ",
"k l l l l m n o n p q q q r s t 3 ] u v w x     ",
"y z z z z z z z z z z z z A B c 1 d : > C C D   ",
"E F F F F F F F F F F F F G H v b I J 5 : K L   ",
"M N N N N N N N N N N N N O P Q v b I d J / R   ",
"S T T T U V W W W X T T T Y P Z Q v b I d ] g   ",
"        `  .......+.@.#.$.%.&.*.Z Q v b 1 3 f   ",
"          =.-.-.-.;.>.,.'.).!.~.*.Z Q v c h e   ",
"          {.].].].^./.(.,.'.).!.~.*.Z v b I d   ",
"          _.:.:.:.<.[.}.(.,.'.).!.~.Z Q v b 1   ",
"          |.1.2.2.3.4.5.}.(.,.'.).~.*.Z Q v c   ",
"            6.7.8.8.9.5.5.}.(.,.).!.~.*.Q v b   ",
"            ( 7.7.8.8.9.5.5.}.,.'.).!.*.Z Q b   ",
"            ( 0.7.7.8.8.9.5.}.(.,.'.!.~.*.Q v   ",
"            w a.0.7.7.8.9.9.5.}.(.'.).~.*.Z v b.",
"            c.d.a.a.0.7.8.9.5.5.(.,.'.!.~.Z Q e.",
"            w f.d.a.0.7.8.8.9.5.}.,.'.).~.*.Q   ",
"              g.h.h.h.i.i.i.j.j.D D k.l.l.m.g.  ",
"                                                "};
