/* XPM */
static char * pause_xpm[] = {
"22 22 200 2",
"  	c None",
". 	c #73CB2D",
"+ 	c #77CA35",
"@ 	c #78CA37",
"# 	c #75CC2F",
"$ 	c #5FB718",
"% 	c #73B340",
"& 	c #86B461",
"* 	c #8EB470",
"= 	c #8FB571",
"- 	c #89B565",
"; 	c #76B443",
"> 	c #6BC821",
", 	c #68AD30",
"' 	c #98BD7B",
") 	c #AFC99A",
"! 	c #B7CFA3",
"~ 	c #B7CFA4",
"{ 	c #B0C99B",
"] 	c #98BC7A",
"^ 	c #67AC2E",
"/ 	c #6BC720",
"( 	c #69C420",
"_ 	c #68AB32",
": 	c #A1C385",
"< 	c #B3D19A",
"[ 	c #B6D79A",
"} 	c #B8DD9A",
"| 	c #B9DF9A",
"1 	c #B6D89A",
"2 	c #9FC284",
"3 	c #65A92F",
"4 	c #69C41F",
"5 	c #5CAA1D",
"6 	c #97C175",
"7 	c #B1D98F",
"8 	c #B8E690",
"9 	c #BBEC91",
"0 	c #BCEF91",
"a 	c #B8E791",
"b 	c #B1DA8F",
"c 	c #95C072",
"d 	c #5AA91B",
"e 	c #58B20F",
"f 	c #80B952",
"g 	c #AFDF85",
"h 	c #B6EC85",
"i 	c #AEE978",
"j 	c #ABE875",
"k 	c #ADE978",
"l 	c #B6ED84",
"m 	c #B7EE85",
"n 	c #AEE979",
"o 	c #ACE877",
"p 	c #B5EC84",
"q 	c #B0E085",
"r 	c #7EB94F",
"s 	c #57B20F",
"t 	c #5FB01D",
"u 	c #9FD66D",
"v 	c #B6EE80",
"w 	c #B0EB78",
"x 	c #B3E489",
"y 	c #D3F0BA",
"z 	c #BAE794",
"A 	c #ACE874",
"B 	c #AAE870",
"C 	c #B8E790",
"D 	c #B8E591",
"E 	c #AFEA78",
"F 	c #B6EF80",
"G 	c #A0D86E",
"H 	c #5FB01E",
"I 	c #76BF37",
"J 	c #B1EA75",
"K 	c #B6F078",
"L 	c #AFEA72",
"M 	c #C9E9AE",
"N 	c #FFFFFF",
"O 	c #D6EFC1",
"P 	c #AAE76F",
"Q 	c #A5E665",
"R 	c #D0EDB7",
"S 	c #D4EDBF",
"T 	c #AFE975",
"U 	c #B5EF78",
"V 	c #B1EB75",
"W 	c #77C137",
"X 	c #68B52B",
"Y 	c #87CE44",
"Z 	c #B5F073",
"` 	c #B5F071",
" .	c #AEEA6D",
"..	c #C9E8AE",
"+.	c #D6EDC1",
"@.	c #AAE66A",
"#.	c #A4E55F",
"$.	c #D0ECB5",
"%.	c #D3EBBF",
"&.	c #A0E654",
"*.	c #A9EE5B",
"=.	c #B4F070",
"-.	c #89D044",
";.	c #68B52A",
">.	c #66B12B",
",.	c #89D240",
"'.	c #B6F26C",
").	c #B5F16B",
"!.	c #ADEA67",
"~.	c #C8E6AD",
"{.	c #D5ECC0",
"].	c #A5E55C",
"^.	c #9BE348",
"/.	c #CDEAAF",
"(.	c #D2E9BE",
"_.	c #99E541",
":.	c #9BEC38",
"<.	c #ACF056",
"[.	c #8CD441",
"}.	c #67B22B",
"|.	c #7BCA29",
"1.	c #B1F25C",
"2.	c #B5F364",
"3.	c #ADEA62",
"4.	c #C7E4AC",
"5.	c #D3EABD",
"6.	c #9CE345",
"7.	c #94E234",
"8.	c #CCE9AD",
"9.	c #D1E8BE",
"0.	c #9FE646",
"a.	c #A2EF3C",
"b.	c #A6F143",
"c.	c #7ECD2B",
"d.	c #64B517",
"e.	c #A4EC41",
"f.	c #AFF34C",
"g.	c #A8EA4F",
"h.	c #C5E2AA",
"i.	c #D3E9BD",
"j.	c #A1E447",
"k.	c #9BE33A",
"l.	c #CCE8AE",
"m.	c #D1E6BF",
"n.	c #A6E84C",
"o.	c #ABF243",
"p.	c #A5EE3F",
"q.	c #68B81A",
"r.	c #4F9B10",
"s.	c #89D72D",
"t.	c #B3F64A",
"u.	c #ABEC49",
"v.	c #A4D271",
"w.	c #C2E1A2",
"x.	c #ABD67B",
"y.	c #A5E747",
"z.	c #A5E842",
"A.	c #AAD775",
"B.	c #C2E0A2",
"C.	c #A8D27B",
"D.	c #AAEA4B",
"E.	c #B4F64A",
"F.	c #8DDA30",
"G.	c #519C11",
"H.	c #5BAA15",
"I.	c #95E235",
"J.	c #B7F64E",
"K.	c #B3F04E",
"L.	c #B2EE4E",
"M.	c #B2EF4E",
"N.	c #B9F650",
"O.	c #BAF751",
"P.	c #B7F54F",
"Q.	c #98E437",
"R.	c #5DAB17",
"S.	c #52A709",
"T.	c #87DC2A",
"U.	c #AFF347",
"V.	c #C2FB56",
"W.	c #C5FC58",
"X.	c #C5FC59",
"Y.	c #B1F449",
"Z.	c #8ADD2C",
"`.	c #54A70B",
" +	c #53A212",
".+	c #67C613",
"++	c #7FDC22",
"@+	c #95E932",
"#+	c #9EED39",
"$+	c #9FEE39",
"%+	c #96EA33",
"&+	c #81DC23",
"*+	c #68C614",
"=+	c #53A213",
"-+	c #34670A",
";+	c #479608",
">+	c #54AE0A",
",+	c #59B70C",
"'+	c #489608",
")+	c #33670A",
"                                            ",
"                                            ",
"                  . + @ #                   ",
"              $ % & * = - ; $               ",
"          > , ' ) ! ! ! ~ { ] ^ /           ",
"        ( _ : < [ } | | } 1 < 2 3 4         ",
"        5 6 7 8 9 0 0 0 0 9 a b c d         ",
"      e f g h i j k l m n j o p q r s       ",
"      t u v w x y z A B C y D E F G H       ",
"      I J K L M N O P Q R N S T U V W       ",
"    X Y Z `  ...N +.@.#.$.N %.&.*.=.-.;.    ",
"    >.,.'.).!.~.N {.].^./.N (._.:.<.[.}.    ",
"      |.1.2.3.4.N 5.6.7.8.N 9.0.a.b.c.      ",
"      d.e.f.g.h.N i.j.k.l.N m.n.o.p.q.      ",
"      r.s.t.u.v.w.x.y.z.A.B.C.D.E.F.G.      ",
"        H.I.J.K.L.M.N.O.K.L.M.P.Q.R.        ",
"          S.T.U.V.W.X.X.W.V.Y.Z.`.          ",
"             +.+++@+#+$+%+&+*+=+            ",
"              -+;+>+,+,+>+'+)+              ",
"                                            ",
"                                            ",
"                                            "};
