/* XPM */
static char * property_xpm[] = {
"24 24 277 2",
"  	c None",
". 	c #D3D3D3",
"+ 	c #DBDBDB",
"@ 	c #DFDFDF",
"# 	c #E3E3E3",
"$ 	c #CDC9C8",
"% 	c #CCCCCD",
"& 	c #929499",
"* 	c #B0B0B2",
"= 	c #9D9DA0",
"- 	c #B3B4B6",
"; 	c #9D9EA1",
"> 	c #B4B5B7",
", 	c #B5B6B8",
"' 	c #9E9FA2",
") 	c #B6B6B9",
"! 	c #9F9FA2",
"~ 	c #B2B4B6",
"{ 	c #BFAAA3",
"] 	c #F7CEBF",
"^ 	c #B8A4A0",
"/ 	c #87888D",
"( 	c #898B90",
"_ 	c #AAA9AA",
": 	c #B3A9AB",
"< 	c #B0B0B1",
"[ 	c #A9A9AB",
"} 	c #B2B3B4",
"| 	c #A6A6A7",
"1 	c #B5B6B7",
"2 	c #A4A5A6",
"3 	c #B8B9BA",
"4 	c #A3A3A4",
"5 	c #BFBFC0",
"6 	c #CABAB4",
"7 	c #F4D1C3",
"8 	c #C59D8F",
"9 	c #696B70",
"0 	c #87888C",
"a 	c #94969B",
"b 	c #D5D4D6",
"c 	c #DFD4D6",
"d 	c #D6D6D8",
"e 	c #D9D9DB",
"f 	c #D5D5D7",
"g 	c #D7D8DA",
"h 	c #D1D2D3",
"i 	c #C1C3C4",
"j 	c #C7BEBB",
"k 	c #AA9F9D",
"l 	c #7B7E84",
"m 	c #636468",
"n 	c #92939D",
"o 	c #DBDAE8",
"p 	c #DDD2DF",
"q 	c #DADAE8",
"r 	c #D8D9E7",
"s 	c #D7D8E6",
"t 	c #D6D7E5",
"u 	c #D7D8E7",
"v 	c #D9D7DC",
"w 	c #DFC790",
"x 	c #CEBF9E",
"y 	c #ACACAC",
"z 	c #B9BAC4",
"A 	c #84868E",
"B 	c #9597A0",
"C 	c #DDDCE8",
"D 	c #DFD4DF",
"E 	c #DBDCE8",
"F 	c #DADBE7",
"G 	c #D9DAE6",
"H 	c #D8D9E5",
"I 	c #D7D8E4",
"J 	c #D8DAE8",
"K 	c #E5D4AE",
"L 	c #F3B52A",
"M 	c #CC922D",
"N 	c #A7A5A7",
"O 	c #86878F",
"P 	c #646568",
"Q 	c #9C9EA3",
"R 	c #E9E8EC",
"S 	c #EADFE3",
"T 	c #E7E7EB",
"U 	c #E6E6EA",
"V 	c #E4E5E9",
"W 	c #E3E3E8",
"X 	c #E3E3E7",
"Y 	c #E3E4E9",
"Z 	c #E5E1DB",
"` 	c #F1C866",
" .	c #E69B09",
"..	c #B3915C",
"+.	c #D7D9DD",
"@.	c #E9E9ED",
"#.	c #9A9CA4",
"$.	c #DED4DF",
"%.	c #DBDBE8",
"&.	c #D8D9E6",
"*.	c #E6D2A7",
"=.	c #F3B223",
"-.	c #C78920",
";.	c #B6B1B2",
">.	c #DDDEEB",
",.	c #DCDCE8",
"'.	c #878990",
").	c #656569",
"!.	c #A1A2A7",
"~.	c #EBEAED",
"{.	c #EBE0E3",
"].	c #E7E8EC",
"^.	c #E6E6EB",
"/.	c #E8E3D9",
"(.	c #F3C75C",
"_.	c #E29608",
":.	c #B49870",
"<.	c #E0E1E7",
"[.	c #EBECF0",
"}.	c #E9EAED",
"|.	c #8C8D92",
"1.	c #656669",
"2.	c #9EA0A7",
"3.	c #E0DFEA",
"4.	c #E0D5E0",
"5.	c #DDDEEA",
"6.	c #DCDDE9",
"7.	c #DBDCE9",
"8.	c #E7D1A0",
"9.	c #F1AD1C",
"0.	c #C48A2B",
"a.	c #C2BFC3",
"b.	c #DEE0EC",
"c.	c #DFDFEB",
"d.	c #DEDFEA",
"e.	c #8C8D94",
"f.	c #666669",
"g.	c #A3A4AA",
"h.	c #EAE9EE",
"i.	c #EADFE4",
"j.	c #E8E8ED",
"k.	c #E7E7ED",
"l.	c #E6E7EC",
"m.	c #E6E6ED",
"n.	c #EAE4D7",
"o.	c #F5C553",
"p.	c #DD9209",
"q.	c #B8A182",
"r.	c #E2E4EC",
"s.	c #E9E9EF",
"t.	c #EAEAEF",
"u.	c #E9E9EE",
"v.	c #919297",
"w.	c #666769",
"x.	c #A2A4AA",
"y.	c #E4E3EC",
"z.	c #E5DAE3",
"A.	c #E2E3EC",
"B.	c #E1E2EC",
"C.	c #E1E2EB",
"D.	c #E0E1EB",
"E.	c #EAD298",
"F.	c #EFA814",
"G.	c #C38E39",
"H.	c #CFCDD2",
"I.	c #E3E4EE",
"J.	c #E3E3ED",
"K.	c #E3E4ED",
"L.	c #93949A",
"M.	c #66676A",
"N.	c #A5A5AB",
"O.	c #E7E6EE",
"P.	c #E8DDE4",
"Q.	c #E6E6EE",
"R.	c #E5E6EE",
"S.	c #E4E5EF",
"T.	c #EAE3D4",
"U.	c #F5C248",
"V.	c #D98F0C",
"W.	c #BDAB96",
"X.	c #E3E5EF",
"Y.	c #E6E7EF",
"Z.	c #97989D",
"`.	c #67676A",
" +	c #A7A7AD",
".+	c #EAE8EF",
"++	c #EADEE5",
"@+	c #E8E8EF",
"#+	c #E7E8EF",
"$+	c #EED290",
"%+	c #EDA30F",
"&+	c #C5954A",
"*+	c #DBDBE0",
"=+	c #E8E9F0",
"-+	c #E8E8F0",
";+	c #999A9F",
">+	c #67686A",
",+	c #A5A6AD",
"'+	c #E4E3EE",
")+	c #E5DAE4",
"!+	c #E2E3ED",
"~+	c #E2E3EF",
"{+	c #E8E0CF",
"]+	c #F5BD3D",
"^+	c #D58E11",
"/+	c #C3B6AA",
"(+	c #E1E3EF",
"_+	c #E2E3EE",
":+	c #DFE0EC",
"<+	c #98999E",
"[+	c #ABACB0",
"}+	c #F0EFF3",
"|+	c #F0E5E9",
"1+	c #EEEFF3",
"2+	c #EEEDF0",
"3+	c #F2D386",
"4+	c #EA9F0A",
"5+	c #C99F5E",
"6+	c #EEEEF3",
"7+	c #E9EAEF",
"8+	c #E2E2E8",
"9+	c #949598",
"0+	c #A9AAB0",
"a+	c #E5DAE5",
"b+	c #E2E3F0",
"c+	c #E9DFCA",
"d+	c #F5BB37",
"e+	c #D38F1B",
"f+	c #CCC2BD",
"g+	c #E3E5F1",
"h+	c #DFE0EB",
"i+	c #D4D5E0",
"j+	c #CECFDB",
"k+	c #D5D6E3",
"l+	c #85868C",
"m+	c #B0B0B4",
"n+	c #F3F2F5",
"o+	c #F3E8EB",
"p+	c #F0F0F5",
"q+	c #EDD5AC",
"r+	c #E8A023",
"s+	c #D1AC77",
"t+	c #ECEDF1",
"u+	c #E2E2E6",
"v+	c #D2D3D7",
"w+	c #D8D9DE",
"x+	c #EDEDF1",
"y+	c #ECEDF0",
"z+	c #BDBEC2",
"A+	c #717277",
"B+	c #6C6C6F",
"C+	c #8B8C8F",
"D+	c #A8A8AA",
"E+	c #ACAAAB",
"F+	c #DBB69B",
"G+	c #B1875D",
"H+	c #95918C",
"I+	c #97989A",
"J+	c #8F9092",
"K+	c #98999C",
"L+	c #A0A0A2",
"M+	c #939396",
"N+	c #797A7E",
"O+	c #7B7C81",
"P+	c #6B6B6D",
"Q+	c #5F5F61",
"R+	c #575759",
"S+	c #635F5E",
"T+	c #8E7563",
"U+	c #504B49",
"V+	c #515254",
"W+	c #545557",
"X+	c #59595B",
"Y+	c #5A5A5C",
"Z+	c #5B5B5D",
"`+	c #5D5E60",
" @	c #5F6062",
"                                                ",
"                                                ",
"          .   +   @   #         $   %           ",
"        & * = - ; > ; , ' ) ! ~ { ] ^ /         ",
"        ( _ : < [ } | 1 2 3 4 5 6 7 8 9 0       ",
"        a b c d e f d f f g d h i j k l m       ",
"        n o p q r s t t t u v w x y z A m       ",
"        B C D E F G H I H J K L M N I O P       ",
"        Q R S T U V W X Y Z `  ...+.@.( P       ",
"        #.C $.%.F G &.&.r *.=.-.;.>.,.'.).      ",
"        !.~.{.@.].T U ^./.(._.:.<.[.}.|.1.      ",
"        2.3.4.5.6.,.E 7.8.9.0.a.b.c.d.e.f.      ",
"        g.h.i.j.k.l.m.n.o.p.q.r.s.t.u.v.w.      ",
"        x.y.z.A.B.C.D.E.F.G.H.I.J.I.K.L.M.      ",
"        N.O.P.Q.R.S.T.U.V.W.X.Q.Q.Y.Y.Z.`.      ",
"         +.+++@+#+k.$+%+&+*+=+@+@+-+Y.;+>+      ",
"        ,+'+)+!+~+{+]+^+/+(+!+_+_+:+d.<+>+      ",
"        [+}+|+1+2+3+4+5+T 6+6+7+8+8+@.9+>+      ",
"        0+'+a+b+c+d+e+f+g+h+i+j+k+:+d.l+>+      ",
"        m+n+o+p+q+r+s+t+u+v+w+V x+y+z+A+B+      ",
"        C+D+N E+F+G+H+I+J+K+' ! L+M+N+O+P+      ",
"          Q+R+S+T+U+V+W+X+Y+Y+Y+Y+Z+`+ @        ",
"                                                ",
"                                                "};
