/* XPM */
static char * run_xpm[] = {
"22 22 200 2",
"  	c None",
". 	c #73CB2D",
"+ 	c #77CA35",
"@ 	c #78CA37",
"# 	c #75CC2F",
"$ 	c #5FB718",
"% 	c #73B340",
"& 	c #86B461",
"* 	c #8EB470",
"= 	c #8FB571",
"- 	c #89B565",
"; 	c #76B443",
"> 	c #6BC821",
", 	c #68AD30",
"' 	c #98BD7B",
") 	c #AFC99A",
"! 	c #B7CFA3",
"~ 	c #B7CFA4",
"{ 	c #B0C99B",
"] 	c #98BC7A",
"^ 	c #67AC2E",
"/ 	c #6BC720",
"( 	c #69C420",
"_ 	c #68AB32",
": 	c #A1C385",
"< 	c #B3D19A",
"[ 	c #B5D799",
"} 	c #B8DD9A",
"| 	c #B9DF9B",
"1 	c #B9DF9A",
"2 	c #B6D89A",
"3 	c #9FC284",
"4 	c #65A92F",
"5 	c #69C41F",
"6 	c #5CAA1D",
"7 	c #97C175",
"8 	c #B1D98F",
"9 	c #B0E484",
"0 	c #B2E985",
"a 	c #B8ED8C",
"b 	c #BBEF8F",
"c 	c #BCEF91",
"d 	c #BCEE91",
"e 	c #BAEC90",
"f 	c #B8E790",
"g 	c #B1DA8E",
"h 	c #95C072",
"i 	c #5AA91B",
"j 	c #58B20F",
"k 	c #80B952",
"l 	c #AFDF85",
"m 	c #B8ED88",
"n 	c #AEEB78",
"o 	c #D7F4BF",
"p 	c #D2F3B8",
"q 	c #B6EC88",
"r 	c #B5ED83",
"s 	c #B8EF87",
"t 	c #B9EF87",
"u 	c #B8ED87",
"v 	c #B0E084",
"w 	c #7EB94F",
"x 	c #57B20F",
"y 	c #5FB01D",
"z 	c #9FD66D",
"A 	c #B6EE80",
"B 	c #B7EF80",
"C 	c #AAE970",
"D 	c #DFF5CC",
"E 	c #FEFEFD",
"F 	c #E8F8DC",
"G 	c #C1EC9B",
"H 	c #B1EA7C",
"I 	c #B4EE7C",
"J 	c #B6EF7F",
"K 	c #A0D86E",
"L 	c #5FB01E",
"M 	c #76BF37",
"N 	c #B1EA75",
"O 	c #B6EF78",
"P 	c #B6EF79",
"Q 	c #A9E86A",
"R 	c #DEF4CA",
"S 	c #FFFFFF",
"T 	c #FFFEFF",
"U 	c #F8FCF5",
"V 	c #D8F2C2",
"W 	c #B6E986",
"X 	c #AFEB73",
"Y 	c #B4EF78",
"Z 	c #B5EF79",
"` 	c #B1EB75",
" .	c #77C137",
"..	c #68B52B",
"+.	c #87CE44",
"@.	c #B5F073",
"#.	c #B5F071",
"$.	c #B5F072",
"%.	c #A7E764",
"&.	c #DDF3C9",
"*.	c #FEFEFE",
"=.	c #EDF8E4",
"-.	c #C7EBA4",
";.	c #A5E660",
">.	c #A7EC5B",
",.	c #B4F070",
"'.	c #89D044",
").	c #68B52A",
"!.	c #66B12B",
"~.	c #89D240",
"{.	c #B6F26C",
"].	c #B5F16B",
"^.	c #A7E75E",
"/.	c #DDF2C7",
"(.	c #F3F9EF",
"_.	c #B8E48B",
":.	c #94E337",
"<.	c #ACF157",
"[.	c #8CD441",
"}.	c #67B22B",
"|.	c #7BCA29",
"1.	c #B1F25C",
"2.	c #B5F264",
"3.	c #B5F365",
"4.	c #A6E757",
"5.	c #DCF1C6",
"6.	c #FDFDFD",
"7.	c #E8F4DC",
"8.	c #B9E687",
"9.	c #A0E747",
"0.	c #A1EE3C",
"a.	c #A6F143",
"b.	c #7ECD2B",
"c.	c #64B517",
"d.	c #A4EC41",
"e.	c #AFF34D",
"f.	c #B0F34E",
"g.	c #A0E642",
"h.	c #DAF0C1",
"i.	c #F4F8F0",
"j.	c #CEE9AE",
"k.	c #AAE45C",
"l.	c #A7EE42",
"m.	c #ABF243",
"n.	c #ACF244",
"o.	c #A5EE3F",
"p.	c #68B81A",
"q.	c #4F9B10",
"r.	c #89D72D",
"s.	c #B3F54A",
"t.	c #B4F64B",
"u.	c #A4E741",
"v.	c #DCF0C2",
"w.	c #FEFEFF",
"x.	c #E0EED1",
"y.	c #B9E47E",
"z.	c #ACEC4D",
"A.	c #B2F548",
"B.	c #B3F54B",
"C.	c #8DDA30",
"D.	c #519C11",
"E.	c #5BAA15",
"F.	c #95E235",
"G.	c #BAF850",
"H.	c #ACE949",
"I.	c #CDE5AD",
"J.	c #CAE5A6",
"K.	c #B3E860",
"L.	c #B7F44E",
"M.	c #BCF952",
"N.	c #BDF953",
"O.	c #B9F850",
"P.	c #98E437",
"Q.	c #5DAB17",
"R.	c #52A709",
"S.	c #88DC2A",
"T.	c #A4E841",
"U.	c #AFE15E",
"V.	c #BBF156",
"W.	c #C4FB57",
"X.	c #C5FC59",
"Y.	c #C4FB58",
"Z.	c #C2FB56",
"`.	c #B0F349",
" +	c #8ADD2C",
".+	c #54A70B",
"++	c #53A213",
"@+	c #66C613",
"#+	c #7FDC21",
"$+	c #95EA32",
"%+	c #9EED39",
"&+	c #9FEE39",
"*+	c #96EA33",
"=+	c #81DC23",
"-+	c #68C614",
";+	c #34680A",
">+	c #489608",
",+	c #54AE0A",
"'+	c #59B70C",
")+	c #33670A",
"                                            ",
"                                            ",
"                  . + @ #                   ",
"              $ % & * = - ; $               ",
"          > , ' ) ! ! ! ~ { ] ^ /           ",
"        ( _ : < [ } | 1 } 2 < 3 4 5         ",
"        6 7 8 9 0 a b c d e f g h i         ",
"      j k l m n o p q r s t t u v w x       ",
"      y z A B C D E F G H I J J A K L       ",
"      M N O P Q R S T U V W X Y Z `  .      ",
"    ..+.@.#.$.%.&.S S S *.=.-.;.>.,.'.).    ",
"    !.~.{.].].^./.S S S S S (._.:.<.[.}.    ",
"      |.1.2.3.4.5.S S S 6.7.8.9.0.a.b.      ",
"      c.d.e.f.g.h.S T i.j.k.l.m.n.o.p.      ",
"      q.r.s.t.u.v.w.x.y.z.A.s.B.t.C.D.      ",
"        E.F.G.H.I.J.K.L.M.M.N.O.P.Q.        ",
"          R.S.T.U.V.W.X.Y.Z.`. +.+          ",
"            ++@+#+$+%+&+*+=+-+++            ",
"              ;+>+,+'+'+,+>+)+              ",
"                                            ",
"                                            ",
"                                            "};
