/* XPM */
static char * tool_start_xpm[] = {
"24 24 193 2",
"  	c None",
". 	c #00C10E",
"+ 	c #00C20E",
"@ 	c #00C10D",
"# 	c #00BF0E",
"$ 	c #00C00E",
"% 	c #00C00D",
"& 	c #00BF0D",
"* 	c #01BE0E",
"= 	c #00BC0E",
"- 	c #01BC0D",
"; 	c #00BC0D",
"> 	c #00BB0E",
", 	c #01BC0E",
"' 	c #00B80D",
") 	c #00B90E",
"! 	c #00B80E",
"~ 	c #00B90D",
"{ 	c #01B90D",
"] 	c #01B90E",
"^ 	c #00B50D",
"/ 	c #00B60D",
"( 	c #00B20D",
"_ 	c #069C11",
": 	c #03A70F",
"< 	c #00B40D",
"[ 	c #01B60D",
"} 	c #00B60E",
"| 	c #00B30D",
"1 	c #01B20D",
"2 	c #00B20E",
"3 	c #069911",
"4 	c #146B1A",
"5 	c #127119",
"6 	c #0A8C14",
"7 	c #03A30F",
"8 	c #00B00D",
"9 	c #01AF0D",
"0 	c #00AF0D",
"a 	c #0B8914",
"b 	c #16641C",
"c 	c #15661B",
"d 	c #136C1A",
"e 	c #0F7B17",
"f 	c #079811",
"g 	c #02A90E",
"h 	c #01AE0D",
"i 	c #01AC0D",
"j 	c #00AC0D",
"k 	c #01AC0C",
"l 	c #0B8714",
"m 	c #8FB492",
"n 	c #699E6D",
"o 	c #117318",
"p 	c #0B8814",
"q 	c #059D0F",
"r 	c #00AA0D",
"s 	c #00A70D",
"t 	c #01A90C",
"u 	c #00A90C",
"v 	c #01A80D",
"w 	c #00A90D",
"x 	c #00A80C",
"y 	c #0B8614",
"z 	c #B9D0BC",
"A 	c #FEFEFE",
"B 	c #F0F4F0",
"C 	c #4C8850",
"D 	c #2D7332",
"E 	c #136C19",
"F 	c #059810",
"G 	c #01A40C",
"H 	c #01A70D",
"I 	c #00A80D",
"J 	c #01A80C",
"K 	c #01A70C",
"L 	c #01A60C",
"M 	c #01A50C",
"N 	c #01A50D",
"O 	c #0B8414",
"P 	c #FFFFFF",
"Q 	c #F6F9F6",
"R 	c #B6CFB8",
"S 	c #73A277",
"T 	c #14681A",
"U 	c #0A8812",
"V 	c #039B0F",
"W 	c #01A20C",
"X 	c #01A30C",
"Y 	c #01A30D",
"Z 	c #01A20D",
"` 	c #0B8214",
" .	c #F2F6F2",
"..	c #ADC9AF",
"+.	c #558F5B",
"@.	c #0F7816",
"#.	c #069110",
"$.	c #01A00D",
"%.	c #00A20C",
"&.	c #019F0C",
"*.	c #019E0C",
"=.	c #009E0C",
"-.	c #0B8113",
";.	c #B9D1BC",
">.	c #FBFCFB",
",.	c #DFEAE0",
"'.	c #9EBEA0",
").	c #327737",
"!.	c #126E19",
"~.	c #078C10",
"{.	c #019C0C",
"].	c #0B8013",
"^.	c #EEF4EE",
"/.	c #98BB9B",
"(.	c #107317",
"_.	c #098412",
":.	c #02970D",
"<.	c #019A0C",
"[.	c #019B0C",
"}.	c #01990B",
"|.	c #02990C",
"1.	c #01990C",
"2.	c #0B7E14",
"3.	c #FAFCFA",
"4.	c #B7CFB9",
"5.	c #48854D",
"6.	c #1F6E25",
"7.	c #107117",
"8.	c #0A8113",
"9.	c #048F0E",
"0.	c #01950C",
"a.	c #01980C",
"b.	c #02960C",
"c.	c #01960C",
"d.	c #01950B",
"e.	c #0B7C14",
"f.	c #A4C2A7",
"g.	c #AFCAB1",
"h.	c #397B3E",
"i.	c #14671A",
"j.	c #107017",
"k.	c #098112",
"l.	c #038E0D",
"m.	c #01930C",
"n.	c #01940C",
"o.	c #01940B",
"p.	c #02950C",
"q.	c #01920C",
"r.	c #02920C",
"s.	c #02910C",
"t.	c #0C7A14",
"u.	c #408045",
"v.	c #14661B",
"w.	c #116E18",
"x.	c #0A7E12",
"y.	c #04890E",
"z.	c #01900C",
"A.	c #01920B",
"B.	c #018F0B",
"C.	c #028F0C",
"D.	c #018E0B",
"E.	c #0C7714",
"F.	c #126C18",
"G.	c #0B7A13",
"H.	c #05860F",
"I.	c #028D0C",
"J.	c #028F0B",
"K.	c #028E0B",
"L.	c #028C0C",
"M.	c #028B0B",
"N.	c #018B0B",
"O.	c #018A0B",
"P.	c #02880C",
"Q.	c #077E10",
"R.	c #04860E",
"S.	c #028A0B",
"T.	c #018B0C",
"U.	c #02890B",
"V.	c #01880B",
"W.	c #02880B",
"X.	c #01860B",
"Y.	c #02850B",
"Z.	c #02860B",
"`.	c #01850B",
" +	c #02840B",
".+	c #02820B",
"++	c #02810B",
"@+	c #01820B",
"#+	c #01800A",
"$+	c #027F0A",
"%+	c #027E0B",
"&+	c #027F0B",
"*+	c #01800B",
"                                                ",
"                . + + + + + + @                 ",
"            # # $ % % % $ $ $ # & *             ",
"          = - = ; - = ; > = ; , ; ; =           ",
"        ' ) ! ) ~ ~ ! ) ' ) { ' ) ~ ] '         ",
"      ^ / / / ( _ : < [ / / / } / } / / ^       ",
"    | ( ( 1 2 3 4 5 6 7 8 1 1 ( ( ( 1 ( ( 1     ",
"    9 0 0 9 8 a b c d e f g h 0 0 9 9 9 9 h     ",
"  i i i j j k l b m n c o p q r i j j i i j k   ",
"  s t u v w x y b z A B C D E y F G H I J v K   ",
"  G L M M L N O b z P P Q R S T o U V W M N X   ",
"  W W W Y Z W ` b z P P P A  ...+.T @.#.$.%.W   ",
"  &.&.*.*.=.*.-.b ;.P P P P >.,.'.).!.~.{.*.&.  ",
"  &.{.{.{.{.{.].b z P P A ^./.+.T (._.:.<.{.&.  ",
"  [.}.|.1.|.|.2.b z P 3.4.5.6.7.8.9.0.a.|.|.<.  ",
"  b.c.d.d.d.d.e.b f.g.h.i.j.k.l.m.n.0.n.o.0.p.  ",
"    m.q.r.r.s.t.b u.v.w.x.y.z.A.A.r.r.r.r.q.    ",
"    B.B.C.C.D.E.b F.G.H.I.D.J.B.B.K.J.D.J.K.    ",
"      L.M.N.O.P.Q.R.S.T.M.N.M.M.M.M.T.N.N.      ",
"        U.V.V.W.W.W.W.W.W.V.V.V.W.W.W.U.        ",
"          X.X.Y.Y.Y.Y.Z.`.Y. +Y.Y.Y.`.          ",
"            .+.+++++++++++++++++.+@+            ",
"                #+$+%+%+&+%+&+*+                ",
"                                                "};
