/* XPM */
static char * tool_delete_xpm[] = {
"24 24 230 2",
"  	c None",
". 	c #F36A6A",
"+ 	c #F46B6A",
"@ 	c #F46B6B",
"# 	c #F46A6B",
"$ 	c #F46A6A",
"% 	c #F36A69",
"& 	c #F26767",
"* 	c #F26868",
"= 	c #F26667",
"- 	c #F26565",
"; 	c #F06262",
"> 	c #F06261",
", 	c #F06162",
"' 	c #F06161",
") 	c #EF6161",
"! 	c #EF6060",
"~ 	c #EE5D5D",
"{ 	c #EE5E5E",
"] 	c #EE5D5C",
"^ 	c #EE5C5C",
"/ 	c #EE5B5B",
"( 	c #EC5959",
"_ 	c #EC595A",
": 	c #EB5958",
"< 	c #EB5858",
"[ 	c #EC5859",
"} 	c #EC5858",
"| 	c #EB5757",
"1 	c #E95454",
"2 	c #EB5758",
"3 	c #EB5656",
"4 	c #EA5454",
"5 	c #EA5353",
"6 	c #EA5453",
"7 	c #E54C4D",
"8 	c #D75050",
"9 	c #E64E4E",
"0 	c #E95353",
"a 	c #EA5252",
"b 	c #E95352",
"c 	c #E24848",
"d 	c #D54D4D",
"e 	c #E95252",
"f 	c #E95251",
"g 	c #E95151",
"h 	c #E74F4F",
"i 	c #E84F4F",
"j 	c #E74E4F",
"k 	c #E84E4E",
"l 	c #E34748",
"m 	c #E46C6C",
"n 	c #F7DEDE",
"o 	c #E47B7B",
"p 	c #E24646",
"q 	c #E74E4E",
"r 	c #E58080",
"s 	c #F9E5E5",
"t 	c #E26A6A",
"u 	c #E44949",
"v 	c #E74D4D",
"w 	c #E74C4D",
"x 	c #E74C4C",
"y 	c #E64A4B",
"z 	c #E64A4A",
"A 	c #D74E4E",
"B 	c #F7DDDE",
"C 	c #FFFFFF",
"D 	c #FBEEEE",
"E 	c #E47E7E",
"F 	c #E14443",
"G 	c #E14344",
"H 	c #FCF2F2",
"I 	c #F9E5E4",
"J 	c #D64E4E",
"K 	c #E54948",
"L 	c #E54848",
"M 	c #E54849",
"N 	c #E34544",
"O 	c #E44545",
"P 	c #E44544",
"Q 	c #E44444",
"R 	c #E04040",
"S 	c #E37676",
"T 	c #FAEAEA",
"U 	c #DD7C7C",
"V 	c #FBEDED",
"W 	c #E37B7B",
"X 	c #DF3E3E",
"Y 	c #E34343",
"Z 	c #E34243",
"` 	c #E24243",
" .	c #E24242",
"..	c #E24040",
"+.	c #E14040",
"@.	c #E23F40",
"#.	c #DD3A3A",
"$.	c #E17474",
"%.	c #FCF7F7",
"&.	c #E17373",
"*.	c #DC3737",
"=.	c #E13E3E",
"-.	c #E03E3E",
";.	c #DF3C3C",
">.	c #E03B3C",
",.	c #DF3B3B",
"'.	c #DF3C3B",
").	c #DC3736",
"!.	c #DB7474",
"~.	c #DC7676",
"{.	c #DC3536",
"].	c #DF3A3A",
"^.	c #DF3A39",
"/.	c #DF3939",
"(.	c #DE3939",
"_.	c #DE3A39",
":.	c #DE3636",
"<.	c #DD3635",
"[.	c #DD3636",
"}.	c #DD3536",
"|.	c #DC3535",
"1.	c #D62C2C",
"2.	c #DD7B7B",
"3.	c #DB7777",
"4.	c #D93130",
"5.	c #DC3434",
"6.	c #DC3433",
"7.	c #DC3334",
"8.	c #DB3232",
"9.	c #DB3131",
"0.	c #DA3130",
"a.	c #D52B2A",
"b.	c #E17575",
"c.	c #E07374",
"d.	c #D62B2B",
"e.	c #DA2F2F",
"f.	c #DA2F30",
"g.	c #D92F2F",
"h.	c #DA2D2D",
"i.	c #D92D2C",
"j.	c #D92C2D",
"k.	c #D92C2C",
"l.	c #D42727",
"m.	c #E07373",
"n.	c #FCF1F1",
"o.	c #DB7575",
"p.	c #DF7271",
"q.	c #D52727",
"r.	c #D82A2B",
"s.	c #D82A2A",
"t.	c #D82B2B",
"u.	c #D62727",
"v.	c #D72727",
"w.	c #D72627",
"x.	c #D04040",
"y.	c #F8E2E2",
"z.	c #F9E9E9",
"A.	c #DD6869",
"B.	c #D42324",
"C.	c #D32322",
"D.	c #DE6F6F",
"E.	c #FBF0F0",
"F.	c #FFFEFE",
"G.	c #F5D7D7",
"H.	c #CF3C3C",
"I.	c #D62525",
"J.	c #D52424",
"K.	c #D52525",
"L.	c #D42222",
"M.	c #D52222",
"N.	c #D32020",
"O.	c #D85151",
"P.	c #F5DADA",
"Q.	c #DC6667",
"R.	c #D11E1E",
"S.	c #D42121",
"T.	c #D42120",
"U.	c #D01D1D",
"V.	c #DD6D6D",
"W.	c #D74D4D",
"X.	c #D31F1F",
"Y.	c #D42020",
"Z.	c #D21D1E",
"`.	c #D31E1D",
" +	c #D21E1E",
".+	c #D31D1D",
"++	c #D11B1B",
"@+	c #CD3837",
"#+	c #D01B1B",
"$+	c #D21C1D",
"%+	c #D21D1D",
"&+	c #D21C1C",
"*+	c #CD1818",
"=+	c #CD3838",
"-+	c #D01A1B",
";+	c #D21B1B",
">+	c #D21C1B",
",+	c #D11919",
"'+	c #D01818",
")+	c #D01718",
"!+	c #D01717",
"~+	c #D01716",
"{+	c #D01616",
"]+	c #CF1616",
"^+	c #D01617",
"/+	c #CE1414",
"(+	c #CE1313",
"_+	c #CE1312",
":+	c #CE1212",
"<+	c #CD1212",
"[+	c #CE1211",
"}+	c #CC0E0F",
"|+	c #CC0E0E",
"1+	c #CC0D0E",
"2+	c #CC0D0D",
"3+	c #CB0D0D",
"4+	c #CA0A09",
"5+	c #CA0909",
"6+	c #CA0908",
"7+	c #CA0808",
"8+	c #C90808",
"9+	c #C90807",
"0+	c #CA0707",
"a+	c #CA0708",
"b+	c #C90605",
"c+	c #C70404",
"d+	c #C70403",
"e+	c #C70304",
"f+	c #C70303",
"g+	c #C80504",
"                                                ",
"                . + @ # # $ $ %                 ",
"            & & * & & & & & & = = -             ",
"          ; ; ; > ; ; , ' ' ' ' ) ' !           ",
"        ~ { { ~ ~ ~ ~ ~ ] ] ] ^ ^ ^ ^ /         ",
"      ( _ ( ( : < [ } } < < | 1 2 < 2 | 3       ",
"    4 5 6 5 5 7 8 9 5 0 a b c d 9 e f e f g     ",
"    h i j k l m n o p q k p r s t u v v w x     ",
"  y y y z z A B C D E F G E H C I J K L M L L   ",
"  N O P Q Q R S T C C U U C C V W X Y Z `  . .  ",
"  ......+.@.@.#.$.%.C C C C %.&.*.=.-.-.-.-.-.  ",
"  ;.>.;.,.'.,.,.).!.%.C C %.~.{.].^./.(.(._.(.  ",
"  :.<.[.[.[.}.|.1.2.C C C %.3.4.5.5.5.6.5.5.7.  ",
"  8.9.9.9.9.0.a.b.C C C C C C c.d.e.f.e.e.e.g.  ",
"  h.i.j.k.i.l.m.n.C %.o.3.C C n.p.q.r.r.s.s.t.  ",
"  u.u.u.v.w.x.y.C z.A.B.C.D.E.F.G.H.I.I.I.J.K.  ",
"    L.M.M.M.N.O.P.Q.R.S.T.U.V.G.W.X.Y.Y.Y.Y.    ",
"    Z.`. +`..+++@+#+$+%+%+&+*+=+-+&+;+>+;+>+    ",
"      ,+'+'+)+'+)+)+!+~+!+!+{+]+{+^+{+{+^+      ",
"        /+(+(+(+(+_+:+:+:+:+:+<+:+[+[+:+        ",
"          }+|+|+|+|+|+|+1+|+1+2+2+3+2+          ",
"            4+5+6+7+8+7+7+9+0+9+a+8+            ",
"                b+c+c+d+e+f+f+g+                ",
"                                                "};
