/* XPM */
static char * tool_pause_xpm[] = {
"24 24 188 2",
"  	c None",
". 	c #8E8FEF",
"+ 	c #8F8FEE",
"@ 	c #8F8FEF",
"# 	c #8E8FEE",
"$ 	c #898CEC",
"% 	c #8A8DEC",
"& 	c #8A8DED",
"* 	c #8B8DEC",
"= 	c #8A8CED",
"- 	c #8289E9",
"; 	c #8389E9",
"> 	c #8388E9",
", 	c #8489E9",
"' 	c #8389EA",
") 	c #7C85E6",
"! 	c #7C86E6",
"~ 	c #7D86E6",
"{ 	c #7A84E5",
"] 	c #7B86E6",
"^ 	c #7D86E7",
"/ 	c #7C86E7",
"( 	c #7681E3",
"_ 	c #7782E4",
": 	c #7683E4",
"< 	c #647ADB",
"[ 	c #4B6CD0",
"} 	c #516FD2",
"| 	c #506ED2",
"1 	c #3F66CA",
"2 	c #667ADC",
"3 	c #6379DB",
"4 	c #496BCF",
"5 	c #4368CC",
"6 	c #5C75D7",
"7 	c #7683E3",
"8 	c #7582E3",
"9 	c #6F7FE0",
"0 	c #5D75D8",
"a 	c #6C84DA",
"b 	c #B2BBEE",
"c 	c #AFB8ED",
"d 	c #6881D9",
"e 	c #5F76D8",
"f 	c #6E85DB",
"g 	c #B3BAEE",
"h 	c #6F7EE0",
"i 	c #697BDD",
"j 	c #5973D6",
"k 	c #8A9FE0",
"l 	c #F1F3FC",
"m 	c #EDF0FA",
"n 	c #8199DD",
"o 	c #6077D9",
"p 	c #8A9EE0",
"q 	c #697CDD",
"r 	c #687CDD",
"s 	c #6378DB",
"t 	c #6278DA",
"u 	c #5470D4",
"v 	c #8FA4E1",
"w 	c #F7F8FD",
"x 	c #F5F7FD",
"y 	c #89A1DE",
"z 	c #8FA4E0",
"A 	c #F6F8FD",
"B 	c #8CA2E0",
"C 	c #5772D5",
"D 	c #6379DA",
"E 	c #6378DA",
"F 	c #6279DA",
"G 	c #5B74D6",
"H 	c #5B75D7",
"I 	c #5C74D7",
"J 	c #5B74D7",
"K 	c #4E6DD1",
"L 	c #89A0DF",
"M 	c #F5F6FC",
"N 	c #859EDD",
"O 	c #4D6DD0",
"P 	c #88A0DF",
"Q 	c #869EDD",
"R 	c #516FD3",
"S 	c #5B75D8",
"T 	c #5A75D7",
"U 	c #5572D4",
"V 	c #5571D4",
"W 	c #5471D4",
"X 	c #486ACE",
"Y 	c #F4F6FC",
"Z 	c #829DDB",
"` 	c #4C6DD0",
" .	c #486BCE",
"..	c #4E6ED2",
"+.	c #4E6ED1",
"@.	c #4F6ED1",
"#.	c #4368CB",
"$.	c #839DDC",
"%.	c #809CDB",
"&.	c #466ACE",
"*.	c #4267CB",
"=.	c #809BDA",
"-.	c #4769CD",
";.	c #476ACE",
">.	c #476BCE",
",.	c #3C64C9",
"'.	c #7F9BDA",
").	c #F3F6FC",
"!.	c #7C9AD9",
"~.	c #4067CB",
"{.	c #4167CB",
"].	c #3762C6",
"^.	c #7D9AD9",
"/.	c #F3F5FC",
"(.	c #7A98D8",
"_.	c #3B63C8",
":.	c #7A99D8",
"<.	c #3A64C8",
"[.	c #3B64C8",
"}.	c #325FC4",
"|.	c #7A99D7",
"1.	c #F3F5FB",
"2.	c #7797D7",
"3.	c #3460C5",
"4.	c #3560C5",
"5.	c #3B64C9",
"6.	c #3360C5",
"7.	c #3360C4",
"8.	c #2B5CC1",
"9.	c #7697D6",
"0.	c #F2F5FB",
"a.	c #7496D5",
"b.	c #2D5DC2",
"c.	c #2B5CC2",
"d.	c #7797D6",
"e.	c #2E5DC2",
"f.	c #2D5CC2",
"g.	c #2659BF",
"h.	c #7495D5",
"i.	c #7294D4",
"j.	c #285AC0",
"k.	c #7295D4",
"l.	c #275ABF",
"m.	c #2156BC",
"n.	c #698DD2",
"o.	c #EDF1FA",
"p.	c #678CD0",
"q.	c #2357BD",
"r.	c #2056BC",
"s.	c #688DD2",
"t.	c #2257BD",
"u.	c #265AC0",
"v.	c #2057BC",
"w.	c #1F55BC",
"x.	c #1F56BC",
"y.	c #1A53B9",
"z.	c #3165BF",
"A.	c #8CA8DC",
"B.	c #8BA8DB",
"C.	c #2F63BF",
"D.	c #1B54BA",
"E.	c #3064BF",
"F.	c #8CA9DC",
"G.	c #2F64BF",
"H.	c #1952B8",
"I.	c #1651B7",
"J.	c #124FB5",
"K.	c #1350B6",
"L.	c #134FB6",
"M.	c #114EB5",
"N.	c #1751B8",
"O.	c #1650B8",
"P.	c #124EB5",
"Q.	c #114FB5",
"R.	c #1953B9",
"S.	c #124FB6",
"T.	c #1250B6",
"U.	c #0C4DB3",
"V.	c #0C4CB3",
"W.	c #0B4CB2",
"X.	c #0B4BB2",
"Y.	c #0B4CB3",
"Z.	c #0C4CB2",
"`.	c #0D4DB3",
" +	c #074AB1",
".+	c #0548B0",
"++	c #0549B0",
"@+	c #084AB1",
"                                                ",
"                . . + @ @ # # #                 ",
"            $ % & & & & & * % & = $             ",
"          - ; ; > ; , ; ; ; ' ; ; ' -           ",
"        ) ! ~ ! ! ~ { ] ~ ^ / / ! / ~ )         ",
"      ( _ : < [ } | 1 2 3 4 } } 5 6 7 7 8       ",
"    9 9 9 9 0 a b c d 2 e f b g f e h 9 9 h     ",
"    i i i i j k l m n o j k l l p j q r q q     ",
"  s s t t t u v w x y j u z w A B C D D E F F   ",
"  G H I J J K L M M N } O P M M Q R S S J 6 T   ",
"  U V V W V X Q Y Y Z `  .Q Y Y Z ` U V V U V   ",
"  ..+.+.@.@.#.$.Y Y %.&.*.$.Y Y =.-.+.+.+.+.@.  ",
"  ;.>.;.;.;.,.'.).).!.~.,.=.).).!.1 X X ;.;.;.  ",
"  {.{.{.{.{.].^././.(._.].^././.:.<.{.{.~.{.{.  ",
"  ,.[.[.[.[.}.|.1./.2.3.}.(././.2.4.<.[.<.5.,.  ",
"  6.6.7.6.3.8.9.0.0.a.b.c.d.0.0.a.e.3.6.6.6.6.  ",
"    b.b.b.f.g.h.0.0.i.j.g.h.0.0.k.j.b.e.b.b.    ",
"    l.l.l.l.m.n.o.o.p.q.r.s.o.o.p.t.l.l.l.u.    ",
"      v.w.x.y.z.A.B.C.D.y.E.F.F.G.D.x.x.r.      ",
"        y.H.I.J.K.L.M.N.O.P.K.K.Q.N.R.y.        ",
"          L.S.J.S.T.K.K.S.J.S.L.T.S.K.          ",
"            U.V.W.W.X.Y.Z.Z.W.V.V.`.            ",
"                 +.+.+.+++++++@+                ",
"                                                "};
