/* XPM */
static char * up_xpm[] = {
"22 22 217 2",
"  	c None",
". 	c #ADBCC9",
"+ 	c #BDDAEA",
"@ 	c #B6E0F2",
"# 	c #B4E2F5",
"$ 	c #B9DEF0",
"% 	c #BBD1DF",
"& 	c #97A2AD",
"* 	c #A4B3C3",
"= 	c #B6D8F0",
"- 	c #99D4F4",
"; 	c #88D4F5",
"> 	c #83D9F8",
", 	c #80DBF9",
"' 	c #84D7F6",
") 	c #8DD3F4",
"! 	c #A8D8F4",
"~ 	c #B7CCDF",
"{ 	c #A5B7CE",
"] 	c #97C0E7",
"^ 	c #74B3E2",
"/ 	c #72BAE6",
"( 	c #74C3EB",
"_ 	c #7EC8EB",
": 	c #90CEEC",
"< 	c #77C5EB",
"[ 	c #72BEE9",
"} 	c #70B5E4",
"| 	c #7FB6E3",
"1 	c #ABC6E3",
"2 	c #91A0B9",
"3 	c #81A5D8",
"4 	c #5A90CF",
"5 	c #5E9AD4",
"6 	c #61A4DA",
"7 	c #71B0DE",
"8 	c #C0DAEC",
"9 	c #EAF0F6",
"0 	c #A3CAE6",
"a 	c #64A8DB",
"b 	c #5E9FD8",
"c 	c #5792D0",
"d 	c #6392D0",
"e 	c #99B0D4",
"f 	c #7C96CB",
"g 	c #3D68B9",
"h 	c #3F72BE",
"i 	c #457DC4",
"j 	c #548CCB",
"k 	c #B3CBE4",
"l 	c #F9FAFB",
"m 	c #FEFEFE",
"n 	c #E9EEF5",
"o 	c #7FA7D4",
"p 	c #4680C6",
"q 	c #3F75C0",
"r 	c #3667B8",
"s 	c #587CC3",
"t 	c #8090AF",
"u 	c #7787A8",
"v 	c #3B59AF",
"w 	c #2048A7",
"x 	c #2956AF",
"y 	c #3464B5",
"z 	c #91ACD4",
"A 	c #F3F5F9",
"B 	c #F9FAFC",
"C 	c #F6F8FB",
"D 	c #F5F7FB",
"E 	c #C9D4E7",
"F 	c #527BBE",
"G 	c #2C5CB2",
"H 	c #2550AB",
"I 	c #274BA8",
"J 	c #7086BE",
"K 	c #6578B0",
"L 	c #1A359A",
"M 	c #15359A",
"N 	c #1E43A2",
"O 	c #6681BE",
"P 	c #E2E7F1",
"Q 	c #F5F7FA",
"R 	c #EFF2F8",
"S 	c #ECF0F7",
"T 	c #E9EEF6",
"U 	c #E5EAF4",
"V 	c #97A8CF",
"W 	c #2A50A6",
"X 	c #1A3E9F",
"Y 	c #123097",
"Z 	c #495FAE",
"` 	c #4F61A6",
" .	c #0D238E",
"..	c #0A248E",
"+.	c #334CA1",
"@.	c #BFC7DF",
"#.	c #DBDFEC",
"$.	c #D3D9E9",
"%.	c #E2E7F2",
"&.	c #DDE3F0",
"*.	c #CCD3E6",
"=.	c #B2BCD9",
"-.	c #BBC4DE",
";.	c #546AAD",
">.	c #102C93",
",.	c #09208C",
"'.	c #3448A0",
").	c #7683A9",
"!.	c #44569E",
"~.	c #0A1D88",
"{.	c #041985",
"].	c #4958A2",
"^.	c #7D88BC",
"/.	c #4055A1",
"(.	c #7D8DBF",
"_.	c #D1D7EA",
":.	c #CAD1E7",
"<.	c #9DA9CE",
"[.	c #314A9D",
"}.	c #4E60A6",
"|.	c #5A69A9",
"1.	c #0E2288",
"2.	c #0B1F89",
"3.	c #34469D",
"4.	c #6D7BA4",
"5.	c #405297",
"6.	c #0B1F88",
"7.	c #031682",
"8.	c #0A1E85",
"9.	c #0A2288",
"0.	c #112E8F",
"a.	c #6B7EB6",
"b.	c #BCC6E1",
"c.	c #B5C1DE",
"d.	c #8C9BC5",
"e.	c #203E98",
"f.	c #0D298D",
"g.	c #102688",
"h.	c #0F2287",
"i.	c #16288B",
"j.	c #3C4E9E",
"k.	c #3E4D83",
"l.	c #14278A",
"m.	c #071B83",
"n.	c #0E288B",
"o.	c #183895",
"p.	c #20449B",
"q.	c #667EB6",
"r.	c #ACBDDC",
"s.	c #AABCDC",
"t.	c #889BC6",
"u.	c #2D52A2",
"v.	c #1E429A",
"w.	c #1D3B95",
"x.	c #1E3491",
"y.	c #273993",
"z.	c #46569D",
"A.	c #344695",
"B.	c #253C94",
"C.	c #2E4C9E",
"D.	c #385DA8",
"E.	c #3E67AD",
"F.	c #6F8DBE",
"G.	c #AEC4E0",
"H.	c #8EA5CB",
"I.	c #4A74B4",
"J.	c #416AB0",
"K.	c #4062AB",
"L.	c #3E59A4",
"M.	c #475BA4",
"N.	c #435388",
"O.	c #39497E",
"P.	c #556CAD",
"Q.	c #5977B5",
"R.	c #6186BE",
"S.	c #658EC3",
"T.	c #84A3CB",
"U.	c #BAD2E9",
"V.	c #BAD3E9",
"W.	c #9CB6D5",
"X.	c #729CCB",
"Y.	c #6E96C8",
"Z.	c #6B8DC2",
"`.	c #6C87BE",
" +	c #5F73A9",
".+	c #526597",
"++	c #7D98C7",
"@+	c #87A8D1",
"#+	c #89AED4",
"$+	c #90B0D1",
"%+	c #B4CDE3",
"&+	c #B6D0E5",
"*+	c #9BB7D4",
"=+	c #92BADB",
"-+	c #92B7DA",
";+	c #91B0D5",
">+	c #7C94BF",
",+	c #37466E",
"'+	c #546893",
")+	c #95B1D2",
"!+	c #ACCCE5",
"~+	c #AFD1E8",
"{+	c #B1D4E9",
"]+	c #B3D7EA",
"^+	c #B2D6EA",
"/+	c #B5D8ED",
"(+	c #ACCAE4",
"_+	c #829ABD",
":+	c #39486D",
"<+	c #3E4D70",
"[+	c #748AAB",
"}+	c #9FB9D2",
"|+	c #B4D1E4",
"1+	c #BAD8E9",
"2+	c #ADC9DE",
"3+	c #90A8C3",
"4+	c #5B6D8E",
"                                            ",
"                                            ",
"                                            ",
"                . + @ # $ % &               ",
"            * = - ; > , ' ) ! ~             ",
"          { ] ^ / ( _ : < [ } | 1           ",
"        2 3 4 5 6 7 8 9 0 a b c d e         ",
"        f g h i j k l m n o p q r s t       ",
"      u v w x y z A B C D E F G H I J       ",
"      K L M N O P Q R S T U V W X Y Z       ",
"      `  ...+.@.#.$.%.&.*.=.-.;.>.,.'.).    ",
"      !.~.{.].^./.(._.:.<.[.}.|.1.2.3.4.    ",
"      5.6.7.8.9.0.a.b.c.d.e.f.g.h.i.j.      ",
"      k.l.m.n.o.p.q.r.s.t.u.v.w.x.y.z.      ",
"        A.B.C.D.E.F.G.G.H.I.J.K.L.M.N.      ",
"        O.P.Q.R.S.T.U.V.W.X.Y.Z.`. +        ",
"          .+++@+#+$+%+&+*+=+-+;+>+,+        ",
"            '+)+!+~+{+]+^+/+(+_+:+          ",
"              <+[+}+|+1+2+3+4+              ",
"                                            ",
"                                            ",
"                                            "};
