/* XPM */
static char * about_xpm[] = {
"16 16 82 1",
" 	c None",
".	c #FFC639",
"+	c #FFC534",
"@	c #FFBB10",
"#	c #FFB806",
"$	c #FFDD89",
"%	c #FFE6A1",
"&	c #FFDE87",
"*	c #FFD360",
"=	c #FFC124",
"-	c #FFB909",
";	c #FFB603",
">	c #FFD877",
",	c #FFE193",
"'	c #FFDD81",
")	c #FFD767",
"!	c #FFCD47",
"~	c #FFC326",
"{	c #FFBD13",
"]	c #FFB807",
"^	c #FFBB15",
"/	c #FFDB7F",
"(	c #FFD76E",
"_	c #FFD35A",
":	c #FFCB3E",
"<	c #FFC528",
"[	c #FFC21F",
"}	c #FFBE16",
"|	c #FFBA0C",
"1	c #FFBC16",
"2	c #FFCF57",
"3	c #FFCC45",
"4	c #FFC730",
"5	c #FFC426",
"6	c #FFC323",
"7	c #FFC11D",
"8	c #FFBE15",
"9	c #FFBB0D",
"0	c #FFB704",
"a	c #FFC32C",
"b	c #FEC11F",
"c	c #F9BD1D",
"d	c #F3B91D",
"e	c #FABD1C",
"f	c #F7B917",
"g	c #FFBC15",
"h	c #FFB90D",
"i	c #FFB602",
"j	c #FFBA0B",
"k	c #FEBC12",
"l	c #EFB315",
"m	c #FCBD17",
"n	c #FCBC16",
"o	c #F3B618",
"p	c #FFC22A",
"q	c #FFC842",
"r	c #FFB90B",
"s	c #F2B20D",
"t	c #FFBD14",
"u	c #FFC125",
"v	c #F6C23F",
"w	c #FFCF59",
"x	c #FFC844",
"y	c #FFB601",
"z	c #EDAD0C",
"A	c #EAB633",
"B	c #EEC152",
"C	c #F7CC63",
"D	c #FFB808",
"E	c #736640",
"F	c #6A5D38",
"G	c #6C603F",
"H	c #7B6D43",
"I	c #6E7C90",
"J	c #728093",
"K	c #8692A2",
"L	c #6E7B8F",
"M	c #7C889A",
"N	c #96A0AE",
"O	c #A9B1BC",
"P	c #798390",
"Q	c #9098A4",
"                ",
"      .+@#      ",
"     $%&*=-;    ",
"    >,')!~{]    ",
"   ^/(_:<[}|;   ",
"   1234567890   ",
"   ]abcdef{gh   ",
"   ijklmnopqh   ",
"    0rstuvwx    ",
"    y;zABCqD    ",
"      EFGH      ",
"      IIII      ",
"      IIJK      ",
"      LMNO      ",
"       PQ       ",
"                "};
