/* XPM */
static char * ant_xpm[] = {
"16 16 124 2",
"  	c None",
". 	c #A9B36A",
"+ 	c #CCD172",
"@ 	c #BAC881",
"# 	c #C0CB7F",
"$ 	c #C6CA6E",
"% 	c #A5A05B",
"& 	c #F0E565",
"* 	c #FFFF77",
"= 	c #FFFF89",
"- 	c #FFFF98",
"; 	c #FFFF96",
"> 	c #FFFF85",
", 	c #FEFC72",
"' 	c #DCCF61",
") 	c #AF9442",
"! 	c #FFE15D",
"~ 	c #FFF469",
"{ 	c #FFF673",
"] 	c #FFFC8E",
"^ 	c #FFFFA7",
"/ 	c #FFFFA3",
"( 	c #FFFF8C",
"_ 	c #FFF067",
": 	c #DFC656",
"< 	c #AC873B",
"[ 	c #FFD150",
"} 	c #FFE15C",
"| 	c #CAAF59",
"1 	c #5C6486",
"2 	c #747072",
"3 	c #FFF691",
"4 	c #FFFF86",
"5 	c #FFFE73",
"6 	c #F0E162",
"7 	c #ECB041",
"8 	c #FFCD4E",
"9 	c #FFDB58",
"0 	c #668B99",
"a 	c #60ADFF",
"b 	c #2F7EF6",
"c 	c #F0E176",
"d 	c #FFFF82",
"e 	c #FFFF79",
"f 	c #F0E868",
"g 	c #A7752F",
"h 	c #FFB73F",
"i 	c #FFC649",
"j 	c #FFD253",
"k 	c #CCD28E",
"l 	c #82C3F8",
"m 	c #89C1DC",
"n 	c #FFF873",
"o 	c #FFFA6F",
"p 	c #DDD864",
"q 	c #C17E2C",
"r 	c #FFAF3A",
"s 	c #FFBE43",
"t 	c #FFCA4C",
"u 	c #FFD655",
"v 	c #FFE36C",
"w 	c #FFE767",
"x 	c #FFE862",
"y 	c #DDCF5D",
"z 	c #61EE6F",
"A 	c #00B705",
"B 	c #BA7427",
"C 	c #FFA333",
"D 	c #FFB23C",
"E 	c #FFBE44",
"F 	c #FFC84B",
"G 	c #F6D155",
"H 	c #B96C21",
"I 	c #FF992B",
"J 	c #FFA534",
"K 	c #FFB03B",
"L 	c #FFBA41",
"M 	c #FFC146",
"N 	c #FFC64A",
"O 	c #C5A850",
"P 	c #AC5E1D",
"Q 	c #FF8D24",
"R 	c #FF972B",
"S 	c #FFA031",
"T 	c #FFAA36",
"U 	c #FFB840",
"V 	c #C39A47",
"W 	c #FC7E1D",
"X 	c #FF8A23",
"Y 	c #FF9328",
"Z 	c #FF9A2D",
"` 	c #FFA030",
" .	c #FFA332",
"..	c #CA8B38",
"+.	c #BE5B16",
"@.	c #FF7C1B",
"#.	c #FF841F",
"$.	c #FF8E26",
"%.	c #FF9429",
"&.	c #FF9128",
"*.	c #C57A2F",
"=.	c #DF6315",
"-.	c #FF7518",
";.	c #FF7A1A",
">.	c #FF801D",
",.	c #FF831E",
"'.	c #FF811E",
").	c #FF7E1C",
"!.	c #C36A26",
"~.	c #943A0D",
"{.	c #C85615",
"].	c #F26715",
"^.	c #F86D16",
"/.	c #FC7116",
"(.	c #FE7417",
"_.	c #F86C15",
":.	c #EE6515",
"<.	c #B95418",
"[.	c #773310",
"}.	c #C55015",
"|.	c #DC5815",
"1.	c #E15B15",
"2.	c #D85715",
"3.	c #AD4914",
"            . + @ # $           ",
"        % & * = - ; > , '       ",
"      ) ! ~ { ] ^ / ( * _ :     ",
"    < [ } | 1 2 3 - 4 5 6       ",
"    7 8 9 0 a b c d e f         ",
"  g h i j k l m n o p           ",
"  q r s t u v w x y     z A z   ",
"  B C D E F [ u G       A A A   ",
"  H I J K L M N F O     z A z   ",
"  P Q R S T D h U U V           ",
"    W X Y Z ` C J J  ...        ",
"    +.@.#.X $.Y %.%.&.$.*.      ",
"      =.-.;.>.,.#.#.'.).;.!.    ",
"      ~.{.].^./.(.(./._.:.<.    ",
"          [.}.|.1.1.2.3.~.      ",
"              ~.~.~.            "};
