/* XPM */
static char * diag_xpm[] = {
"16 16 134 2",
"  	c None",
". 	c #A84A12",
"+ 	c #EA935D",
"@ 	c #EEA06F",
"# 	c #ED9C69",
"$ 	c #C16934",
"% 	c #6EC234",
"& 	c #9CEA67",
"* 	c #A2EC6F",
"= 	c #98E960",
"- 	c #6EC135",
"; 	c #D26A3A",
"> 	c #FFD9CC",
", 	c #FFE0D6",
"' 	c #FFDFD5",
") 	c #D2825E",
"! 	c #93DF58",
"~ 	c #E5F9D4",
"{ 	c #E7F9D6",
"] 	c #E2F8CF",
"^ 	c #87CC52",
"/ 	c #D35B32",
"( 	c #FFB29C",
"_ 	c #FFB6A1",
": 	c #D16F4E",
"< 	c #8BD64A",
"[ 	c #C6EEA1",
"} 	c #C7EEA1",
"| 	c #C4EE9E",
"1 	c #82C448",
"2 	c #D34723",
"3 	c #FF8B6E",
"4 	c #FF8E72",
"5 	c #FF8E71",
"6 	c #D15637",
"7 	c #7ECA34",
"8 	c #AAE371",
"9 	c #AAE372",
"0 	c #A9E26F",
"a 	c #79BA39",
"b 	c #D33416",
"c 	c #FF6645",
"d 	c #FF6948",
"e 	c #FF6847",
"f 	c #D03F22",
"g 	c #73BD21",
"h 	c #91D747",
"i 	c #91D748",
"j 	c #90D646",
"k 	c #71AF2C",
"l 	c #D1210A",
"m 	c #FF4422",
"n 	c #FF4624",
"o 	c #FF4623",
"p 	c #D02810",
"q 	c #67AD0F",
"r 	c #7BC923",
"s 	c #7BC924",
"t 	c #7BC822",
"u 	c #6AA221",
"v 	c #9E0A01",
"w 	c #CD1405",
"x 	c #CE1605",
"y 	c #B1231A",
"z 	c #5C8320",
"A 	c #558E05",
"B 	c #568F05",
"C 	c #558D05",
"D 	c #5F8524",
"E 	c #3784A3",
"F 	c #7ECCE9",
"G 	c #89D3EE",
"H 	c #7ECEEC",
"I 	c #4A9AB9",
"J 	c #BDB93A",
"K 	c #ECEA66",
"L 	c #EEEC6F",
"M 	c #EAE85E",
"N 	c #BDBA37",
"O 	c #6BAED4",
"P 	c #DBF0FF",
"Q 	c #DFF1FF",
"R 	c #5FA8D0",
"S 	c #EBDF58",
"T 	c #FFF9D4",
"U 	c #FFF9D7",
"V 	c #FFF8CF",
"W 	c #D7CB51",
"X 	c #60A2D5",
"Y 	c #B3DBFF",
"Z 	c #B5DCFF",
"` 	c #B3DCFF",
" .	c #569BCF",
"..	c #EED64A",
"+.	c #FFEEA1",
"@.	c #FFEEA2",
"#.	c #FFEE9F",
"$.	c #D8C348",
"%.	c #5093D5",
"&.	c #8DC6FF",
"*.	c #8EC7FF",
"=.	c #498DCF",
"-.	c #EECA34",
";.	c #FFE371",
">.	c #FFE372",
",.	c #FFE270",
"'.	c #D8B939",
").	c #4285D4",
"!.	c #6CB2FF",
"~.	c #6DB3FF",
"{.	c #3D7FCF",
"].	c #EDBD21",
"^.	c #FFD748",
"/.	c #FFD647",
"(.	c #D7AE2C",
"_.	c #3572CE",
":.	c #4F9DFF",
"<.	c #509EFF",
"[.	c #4F9EFF",
"}.	c #3371CF",
"|.	c #EBAD10",
"1.	c #FFCA24",
"2.	c #FFC923",
"3.	c #D29F1E",
"4.	c #274992",
"5.	c #3374EC",
"6.	c #3578F0",
"7.	c #3475EE",
"8.	c #2751AE",
"9.	c #AE7507",
"0.	c #EEA406",
"a.	c #F0A706",
"b.	c #EDA205",
"c.	c #98680F",
"                                ",
"  . + @ @ @ # $ % & * * * = -   ",
"  ; > , , , ' ) ! ~ { { { ] ^   ",
"  / ( _ _ _ _ : < [ } } } | 1   ",
"  2 3 4 4 4 5 6 7 8 9 9 9 0 a   ",
"  b c d d d e f g h i i i j k   ",
"  l m n n n o p q r s s s t u   ",
"  v w x x x x y z A B B B C D   ",
"  E F G G G H I J K L L L M N   ",
"  O P Q Q Q P R S T U U U V W   ",
"  X Y Z Z Z `  ...+.@.@.@.#.$.  ",
"  %.&.*.*.*.&.=.-.;.>.>.>.,.'.  ",
"  ).!.~.~.~.!.{.].^.^.^.^./.(.  ",
"  _.:.<.<.<.[.}.|.1.1.1.1.2.3.  ",
"  4.5.6.6.6.7.8.9.0.a.a.a.b.c.  ",
"                                "};
