/* XPM */
static char * down_info_xpm[] = {
"16 16 9 1",
" 	c None",
".	c #E3FAE3",
"+	c #BEF3BE",
"@	c #A4EEA4",
"#	c #F0FCF0",
"$	c #A5EEA5",
"%	c #9EED9E",
"&	c #02278F",
"*	c #072D90",
"                ",
"     .+@@+.     ",
"   #$%&&&&%$#   ",
"  #%%%&&&&%%%#  ",
"  $%%%&&&&%%%$  ",
" .%%%%&&&&%%%%. ",
" +%%%%&&&&%%%%+ ",
" @%%%%&&&&%%%%@ ",
" @%%%%&&&&%%%%@ ",
" +%&&&&&&&&&&%+ ",
" .%%&&&&&&&&%%. ",
"  $%%&&&&&&%%$  ",
"  #%%&&&&&&%%#  ",
"   #$%&&&&%$#   ",
"     .+**+.     ",
"                "};
