/* XPM */
static char * down_arrow_xpm[] = {
"16 16 3 1",
" 	c None",
".	c #8F001B",
"+	c #E1002A",
"                ",
"     ......     ",
"     .++++.     ",
"     .++++.     ",
"     .++++.     ",
"     .++++.     ",
"     .++++.     ",
"     .++++.     ",
"     .++++.     ",
" .....++++..... ",
"  .++++++++++.  ",
"   ..++++++..   ",
"    ..++++..    ",
"      .++.      ",
"       ..       ",
"                "};
