/* XPM */
static char * driver_xpm[] = {
"16 16 120 2",
"  	c None",
". 	c #3768A7",
"+ 	c #3465A4",
"@ 	c #3667A6",
"# 	c #B1C8E7",
"$ 	c #E88879",
"% 	c #E88677",
"& 	c #E78475",
"* 	c #E78273",
"= 	c #E68171",
"- 	c #E67F6F",
"; 	c #E67D6D",
"> 	c #E57B6B",
", 	c #E57968",
"' 	c #E57766",
") 	c #E47564",
"! 	c #E47463",
"~ 	c #A0BADE",
"{ 	c #AEC6E6",
"] 	c #D41F03",
"^ 	c #D31C00",
"/ 	c #9EB8DD",
"( 	c #ABC3E3",
"_ 	c #EDA398",
": 	c #EDA297",
"< 	c #99B4DA",
"[ 	c #A7C0E2",
"} 	c #FFFFFF",
"| 	c #96B1D8",
"1 	c #A3BDE0",
"2 	c #FCFCFC",
"3 	c #DEDEDE",
"4 	c #91ADD5",
"5 	c #8EA9D3",
"6 	c #9DB7DB",
"7 	c #89A5D0",
"8 	c #98B3D9",
"9 	c #84A1CD",
"0 	c #95AFD7",
"a 	c #628AC3",
"b 	c #6A788D",
"c 	c #6D6E70",
"d 	c #6D6F70",
"e 	c #6D6F71",
"f 	c #677790",
"g 	c #5C82BC",
"h 	c #809DCA",
"i 	c #91ACD4",
"j 	c #6284B9",
"k 	c #AAAAAA",
"l 	c #B1B1B1",
"m 	c #B6B6B6",
"n 	c #BBBBBB",
"o 	c #C0C0C0",
"p 	c #C2C2C2",
"q 	c #B0B0B0",
"r 	c #6D6D6E",
"s 	c #5C7DB4",
"t 	c #7C99C7",
"u 	c #8CA8D1",
"v 	c #6082B7",
"w 	c #6F7073",
"x 	c #BEBEBE",
"y 	c #6C6C6C",
"z 	c #C5C5C5",
"A 	c #BDBDBD",
"B 	c #AEAEAE",
"C 	c #A6A6A6",
"D 	c #5A7BB2",
"E 	c #7895C4",
"F 	c #8AA5D0",
"G 	c #5E80B5",
"H 	c #707173",
"I 	c #C9C9C9",
"J 	c #B2B2B2",
"K 	c #ABABAB",
"L 	c #A3A3A3",
"M 	c #9B9B9B",
"N 	c #949494",
"O 	c #6C6D6F",
"P 	c #5979AF",
"Q 	c #7390C1",
"R 	c #84A0CC",
"S 	c #6282B5",
"T 	c #6F7173",
"U 	c #B7B7B7",
"V 	c #A0A0A0",
"W 	c #989898",
"X 	c #909090",
"Y 	c #898989",
"Z 	c #818181",
"` 	c #6B6D6F",
" .	c #5777AD",
"..	c #6E8CBD",
"+.	c #3666A5",
"@.	c #547BB3",
"#.	c #7B95BF",
"$.	c #6F7072",
"%.	c #A4A4A4",
"&.	c #868686",
"*.	c #828282",
"=.	c #8D8D8D",
"-.	c #858585",
";.	c #7E7E7E",
">.	c #767676",
",.	c #6E6E6E",
"'.	c #6B6C6E",
").	c #6884B3",
"!.	c #6987BA",
"~.	c #3566A4",
"{.	c #3C68A0",
"].	c #6B6C6C",
"^.	c #6C6D70",
"/.	c #6B6C6F",
"(.	c #6A6C6E",
"_.	c #6A6B6D",
":.	c #6B6B6C",
"<.	c #3B679E",
"[.	c #3868A5",
"}.	c #3565A4",
". + + + + + + + + + + + + + + @ ",
"+ # $ % & * = - ; > , ' ) ! ~ + ",
"+ { ] ^ ^ ^ ^ ^ ^ ^ ^ ^ ^ ^ / + ",
"+ ( _ : : : : : : : : : : : < + ",
"+ [ } } } } } } } } } } } } | + ",
"+ 1 2 3 3 3 3 3 3 3 3 3 3 } 4 + ",
"+ ~ } } } } } } } } } } } } 5 + ",
"+ 6 } 3 3 3 3 3 3 3 3 3 3 2 7 + ",
"+ 8 } } } } } } } } } } } } 9 + ",
"+ 0 a b c c c c c c d e f g h + ",
"+ i j c k l m n o p n q r s t + ",
"+ u v w x y y z A m B C c D E + ",
"+ F G H I y y J K L M N O P Q + ",
"+ R S T U y y V W X Y Z `  ...+ ",
"+.@.#.$.%.&.*.=.-.;.>.,.'.).!.+ ",
"  ~.{.].^.` /.(.(._._._.:.<.[.}."};
