/* XPM */
static char * gray_block_xpm[] = {
"10 10 42 1",
" 	g None",
".	g #ADADAD",
"+	g #8E8E8E",
"@	g #A9A9A9",
"#	g #ACACAC",
"$	g #949494",
"%	g #979797",
"&	g #D2D2D2",
"*	g #EFEFEF",
"=	g #F1F1F1",
"-	g #D3D3D3",
";	g #989898",
">	g #D7D7D7",
",	g #E7E7E7",
"'	g #D8D8D8",
")	g #939393",
"!	g #C7C7C7",
"~	g #D5D5D5",
"{	g #C8C8C8",
"]	g #B8B8B8",
"^	g #C4C4C4",
"/	g #B9B9B9",
"(	g #898989",
"_	g #AAAAAA",
":	g #B4B4B4",
"<	g #ABABAB",
"[	g #848484",
"}	g #9D9D9D",
"|	g #A5A5A5",
"1	g #7C7C7C",
"2	g #8F8F8F",
"3	g #969696",
"4	g #909090",
"5	g #696969",
"6	g #7D7D7D",
"7	g #878787",
"8	g #808080",
"9	g #636363",
"0	g #5C5C5C",
"a	g #686868",
"b	g #6A6A6A",
"c	g #606060",
".+@#####@$",
"%&*=====*-",
";>,,,,,,,'",
")!~~~~~~~{",
"+]^^^^^^^/",
"(_:::::::<",
"[}|||||||}",
"1233333334",
"5677777778",
"90a5bbbbac"};
