/* XPM */
static char * green_block_xpm[] = {
"10 10 54 1",
" 	c #74AA4F",
".	c #6FD928",
"+	c #82E440",
"@	c #84E542",
"#	c #83E441",
"$	c #72DB2B",
"%	c #75B44A",
"&	c #6CCD25",
"*	c #CEF8AE",
"=	c #E9FCDB",
"-	c #EAFCDC",
";	c #EAFCDB",
">	c #D4F9B8",
",	c #74D72C",
"'	c #7CD535",
")	c #D5F5BA",
"!	c #E1F7CD",
"~	c #D9F6BF",
"{	c #85DA41",
"]	c #78CE2E",
"^	c #C2EE9A",
"/	c #CBF0A8",
"(	c #C4EE9E",
"_	c #7FD337",
":	c #72C625",
"<	c #B0E67B",
"[	c #B7E886",
"}	c #B2E77E",
"|	c #79CB2C",
"1	c #6DBD1C",
"2	c #9FDE5F",
"3	c #A4E067",
"4	c #A1DF61",
"5	c #72C222",
"6	c #68B415",
"7	c #8FD645",
"8	c #93D84B",
"9	c #90D646",
"0	c #6DB919",
"a	c #64AB0E",
"b	c #81CC2E",
"c	c #84CF32",
"d	c #82CD2F",
"e	c #67B010",
"f	c #5D9C07",
"g	c #74C117",
"h	c #76C61B",
"i	c #74C218",
"j	c #60A207",
"k	c #597E1E",
"l	c #5B9603",
"m	c #5D9C05",
"n	c #5B9704",
"o	c #5B8518",
" .+@@@@#$%",
"&*=----;>,",
"')!!!!!!~{",
"]^//////(_",
":<[[[[[[}|",
"1233333345",
"6788888890",
"abccccccde",
"fghhhhhhij",
"klmmmmmmno"};
