/* XPM */
static char * Image_xpm[] = {
"16 16 178 2",
"  	c None",
". 	c #6CADBD",
"+ 	c #7AB7C4",
"@ 	c #79B6C3",
"# 	c #6AACBC",
"$ 	c #8CC0CC",
"% 	c #E4F1F4",
"& 	c #C9E1E7",
"* 	c #C4DFE5",
"= 	c #C5DFE5",
"- 	c #C2DEE8",
"; 	c #C0DEE8",
"> 	c #CAE2E8",
", 	c #E3F0F3",
"' 	c #69ACBB",
") 	c #9FCBD5",
"! 	c #B2D3DC",
"~ 	c #0C6684",
"{ 	c #066180",
"] 	c #076180",
"^ 	c #0A6482",
"/ 	c #0C6482",
"( 	c #0E687A",
"_ 	c #136775",
": 	c #0F6885",
"< 	c #B5D6DF",
"[ 	c #7AB6C4",
"} 	c #9ECBD4",
"| 	c #A8CDD8",
"1 	c #00597A",
"2 	c #025B7C",
"3 	c #096685",
"4 	c #005778",
"5 	c #005A7B",
"6 	c #005A80",
"7 	c #1D6563",
"8 	c #A28717",
"9 	c #AC8812",
"0 	c #306B5A",
"a 	c #9DC9DA",
"b 	c #9DC8D4",
"c 	c #AFCFD9",
"d 	c #277C99",
"e 	c #89B8C9",
"f 	c #AFD0DC",
"g 	c #5699B0",
"h 	c #167291",
"i 	c #03688F",
"j 	c #537A59",
"k 	c #F49A00",
"l 	c #FF9C00",
"m 	c #72814A",
"n 	c #AACFDE",
"o 	c #77B4C4",
"p 	c #9AC7D3",
"q 	c #B5D2DC",
"r 	c #78ACBF",
"s 	c #D3E4ED",
"t 	c #CFE1EB",
"u 	c #CCDFEA",
"v 	c #629EB4",
"w 	c #297D9E",
"x 	c #538685",
"y 	c #B59333",
"z 	c #BE9326",
"A 	c #60897D",
"B 	c #B5D6E5",
"C 	c #76B3C2",
"D 	c #97C6D1",
"E 	c #C8DEE7",
"F 	c #639DB8",
"G 	c #81B1C7",
"H 	c #8EB8CD",
"I 	c #7BABC2",
"J 	c #5B98B2",
"K 	c #5D97AD",
"L 	c #6197A7",
"M 	c #5D9AB5",
"N 	c #C5DDE6",
"O 	c #74B2C1",
"P 	c #96C3D0",
"Q 	c #D3E4EC",
"R 	c #80AEBE",
"S 	c #76A7B7",
"T 	c #79AABE",
"U 	c #83B2CD",
"V 	c #87B4D0",
"W 	c #84B1C7",
"X 	c #82B0C6",
"Y 	c #80B0C7",
"Z 	c #7EAFC7",
"` 	c #85B2C7",
" .	c #D1E2EA",
"..	c #72AFBF",
"+.	c #97C5D6",
"@.	c #C4D5C0",
"#.	c #46761C",
"$.	c #3E7013",
"%.	c #4B7B29",
"&.	c #628E56",
"*.	c #89AE9C",
"=.	c #ACCAD7",
"-.	c #B5D1E7",
";.	c #B1CEE1",
">.	c #AECBDC",
",.	c #B1CEDD",
"'.	c #DCEAEF",
").	c #6FAEBD",
"!.	c #97C6D7",
"~.	c #C2D3B6",
"{.	c #49760D",
"].	c #46730B",
"^.	c #437105",
"/.	c #49750F",
"(.	c #658B3E",
"_.	c #97B38C",
":.	c #C6D9D1",
"<.	c #DBE9EE",
"[.	c #E6F1FA",
"}.	c #EBF4F8",
"|.	c #6DABBB",
"1.	c #95C4D4",
"2.	c #C9D8C1",
"3.	c #658B34",
"4.	c #618831",
"5.	c #638933",
"6.	c #628931",
"7.	c #5E852A",
"8.	c #5C8428",
"9.	c #698D39",
"0.	c #81A05A",
"a.	c #A1B881",
"b.	c #D9E5D9",
"c.	c #6EADC0",
"d.	c #93C1D1",
"e.	c #D1DECA",
"f.	c #7E9E51",
"g.	c #799A4D",
"h.	c #7A9B4F",
"i.	c #799B4F",
"j.	c #789A4D",
"k.	c #739646",
"l.	c #779948",
"m.	c #CDDCC9",
"n.	c #6FAEC3",
"o.	c #8CBCCA",
"p.	c #E8EFEC",
"q.	c #D7E1C9",
"r.	c #D1DCC3",
"s.	c #D2DDC4",
"t.	c #D1DCC4",
"u.	c #D0DBC2",
"v.	c #DAE2CC",
"w.	c #E7EFEF",
"x.	c #68A8B9",
"y.	c #89BAC7",
"z.	c #E9EFF2",
"A.	c #F9F9FE",
"B.	c #F7F8FE",
"C.	c #F7F7FD",
"D.	c #F7F7FC",
"E.	c #FAF8FD",
"F.	c #E5ECEF",
"G.	c #63A5B5",
"H.	c #8FBDC8",
"I.	c #F1F1F2",
"J.	c #FBF7F7",
"K.	c #F9F6F6",
"L.	c #F9F6F5",
"M.	c #FCF8F6",
"N.	c #EFF1F1",
"O.	c #81B5C2",
"P.	c #5DA3B2",
"Q.	c #A5C8D1",
"R.	c #ACCCD4",
"S.	c #AACBD3",
"T.	c #A4C8D0",
"U.	c #61A3B4",
"    . + @ @ @ @ @ @ @ @ + #     ",
"  $ % & * = = = = * - ; > , '   ",
"  ) ! ~ { ] ^ ^ ^ / ( _ : < [   ",
"  } | 1 2 3 4 5 6 7 8 9 0 a @   ",
"  b c d e f g h i j k l m n o   ",
"  p q r s t u v w x y z A B C   ",
"  D E F G H I J J J K L M N O   ",
"  P Q R S T U V W X Y Z `  ...  ",
"  +.@.#.$.%.&.*.=.-.;.>.,.'.).  ",
"  !.~.{.].].^./.(._.:.<.[.}.|.  ",
"  1.2.3.4.5.5.6.7.8.9.0.a.b.c.  ",
"  d.e.f.g.h.h.h.h.i.j.k.l.m.n.  ",
"  o.p.q.r.s.t.t.t.t.t.u.v.w.x.  ",
"  y.z.A.B.B.C.C.C.C.C.D.E.F.G.  ",
"  H.I.J.K.K.K.K.K.L.L.L.M.N.O.  ",
"  P.Q.R.S.S.S.S.S.S.S.S.R.T.U.  "};
