/* XPM */
static char * info_xpm[] = {
"16 16 120 2",
"  	c None",
". 	c #4A6EA2",
"+ 	c #849EC3",
"@ 	c #4A6CA0",
"# 	c #7793BB",
"$ 	c #C2D0E2",
"% 	c #F1F5FA",
"& 	c #F3F7FA",
"* 	c #7691B8",
"= 	c #96ADCC",
"- 	c #DAE6F2",
"; 	c #DCE8F4",
"> 	c #DCE9F5",
", 	c #DCEAF5",
"' 	c #DFEBF6",
") 	c #95ACCA",
"! 	c #819EC4",
"~ 	c #BCD2E8",
"{ 	c #BED6EC",
"] 	c #BFD8ED",
"^ 	c #BFD8EE",
"/ 	c #DDEAF6",
"( 	c #FFFFFF",
"_ 	c #E1ECF7",
": 	c #809CC2",
"< 	c #4F74A9",
"[ 	c #99B9DA",
"} 	c #9AC0E2",
"| 	c #7FB0DB",
"1 	c #65A0D4",
"2 	c #5697D0",
"3 	c #5295CF",
"4 	c #B9D4EC",
"5 	c #C0D8EE",
"6 	c #A0C4E4",
"7 	c #9EC2E3",
"8 	c #4D71A4",
"9 	c #5F88BA",
"0 	c #689DD0",
"a 	c #498FCC",
"b 	c #448CCB",
"c 	c #4A90CC",
"d 	c #6FA6D7",
"e 	c #6DA5D6",
"f 	c #5496D0",
"g 	c #78ACD9",
"h 	c #7CAAD6",
"i 	c #265392",
"j 	c #457BB8",
"k 	c #4288C7",
"l 	c #79ACDA",
"m 	c #C6DCEF",
"n 	c #468ECC",
"o 	c #5B98CF",
"p 	c #5587BE",
"q 	c #244E88",
"r 	c #255699",
"s 	c #3675B6",
"t 	c #438AC9",
"u 	c #72A8D8",
"v 	c #87B5DE",
"w 	c #B5D2EA",
"x 	c #448AC9",
"y 	c #407BB9",
"z 	c #295899",
"A 	c #265699",
"B 	c #3B78B7",
"C 	c #478CCA",
"D 	c #488ECC",
"E 	c #5093CE",
"F 	c #FAFCFE",
"G 	c #76ABD9",
"H 	c #265698",
"I 	c #24508F",
"J 	c #467CB8",
"K 	c #5393CC",
"L 	c #A0C5E4",
"M 	c #EAF2F9",
"N 	c #224A85",
"O 	c #4978B1",
"P 	c #6199CD",
"Q 	c #66A0D4",
"R 	c #66A1D4",
"S 	c #E5EFF8",
"T 	c #B4D1EA",
"U 	c #84B3DD",
"V 	c #69A3D6",
"W 	c #4977B0",
"X 	c #3C669F",
"Y 	c #709CCB",
"Z 	c #77AAD7",
"` 	c #8CB8DF",
" .	c #B7D3EB",
"..	c #BCD6EC",
"+.	c #3B6299",
"@.	c #5B81B2",
"#.	c #86ADD6",
"$.	c #8AB6DD",
"%.	c #A2C6E5",
"&.	c #FEFEFF",
"*.	c #F6FAFC",
"=.	c #BFD7ED",
"-.	c #8BB8DF",
";.	c #5A7FB0",
">.	c #688AB7",
",.	c #96B7D9",
"'.	c #9ABEE0",
").	c #A3C5E4",
"!.	c #9EC3E3",
"~.	c #9DC2E2",
"{.	c #9CC1E2",
"].	c #6889B5",
"^.	c #5476A6",
"/.	c #85A3C9",
"(.	c #A4BEDC",
"_.	c #A6C2DE",
":.	c #5375A4",
"<.	c #365A90",
"[.	c #5D7FB0",
"}.	c #365A8E",
"            . + + @             ",
"        # $ % & & % $ *         ",
"      = - ; > , , ' ; - )       ",
"    ! ~ { ] ^ ^ / ( _ { ~ :     ",
"  < [ } | 1 2 3 4 ( 5 6 7 [ 8   ",
"  9 0 a b b b c d e b f g h 9   ",
"i j k b b b l ' ( m b b n o p q ",
"r s t b b u v ] ( w b b b x y z ",
"A B C D D E 2 F ( G D D D C B H ",
"I J K f f f L ( M 2 f f f K J N ",
"  O P Q R R S ( T U V R Q P W   ",
"  X Y Z l ` ( (  ...l l Z Y +.  ",
"    @.#.$.%.&.*.=.` -.$.#.;.    ",
"      >.,.'.).!.~.{.'.,.].      ",
"        ^./.(._._.(./.:.        ",
"            <.[.[.}.            "};
