/* XPM */
static char * mg_16_xpm[] = {
"16 16 6 1",
" 	c None",
".	c #3F28EC",
"+	c #9F8A7A",
"@	c #6F59B3",
"#	c #FFEB07",
"$	c #CFBA40",
"                ",
"  ............  ",
" ...........+@. ",
" .........+##+. ",
" .......@$###@. ",
" ......$####$.. ",
" ....+######@.. ",
" ..@$######$... ",
" .$########@... ",
" .########$.... ",
" .########@.... ",
" .....###$..... ",
" .....###@..... ",
" .....##$...... ",
"  ............  ",
"                "};
