/* XPM */
static char * logo_16_xpm[] = {
"16 16 153 2",
"  	c None",
". 	c #5353BB",
"+ 	c #5757BD",
"@ 	c #5656BC",
"# 	c #5454BB",
"$ 	c #5050B8",
"% 	c #4A4AB6",
"& 	c #4141B3",
"* 	c #3838B0",
"= 	c #2F2FAD",
"- 	c #2222A9",
"; 	c #1B1BA1",
"> 	c #8181B0",
", 	c #5959AE",
"' 	c #03039B",
") 	c #5252BA",
"! 	c #4B4BB7",
"~ 	c #2E2EAC",
"{ 	c #2525A8",
"] 	c #1818A5",
"^ 	c #0A0AA0",
"/ 	c #353599",
"( 	c #C3C3AF",
"_ 	c #FFFFEC",
": 	c #7676B2",
"< 	c #000098",
"[ 	c #3F3FB3",
"} 	c #3636AF",
"| 	c #2D2DAB",
"1 	c #2323A8",
"2 	c #1919A4",
"3 	c #0F0FA2",
"4 	c #01019E",
"5 	c #1C1C95",
"6 	c #858591",
"7 	c #F4F4A6",
"8 	c #FFFFC7",
"9 	c #FFFFCB",
"0 	c #5050A1",
"a 	c #000099",
"b 	c #2121A7",
"c 	c #1717A3",
"d 	c #0E0E9F",
"e 	c #07079B",
"f 	c #0000A0",
"g 	c #0B0B93",
"h 	c #6B6B83",
"i 	c #D4D480",
"j 	c #FFFF99",
"k 	c #FFFFA6",
"l 	c #FFFFB1",
"m 	c #E6E6AC",
"n 	c #252596",
"o 	c #00009B",
"p 	c #05059C",
"q 	c #01019A",
"r 	c #00009A",
"s 	c #0000A3",
"t 	c #47477D",
"u 	c #CBCB66",
"v 	c #FFFF6F",
"w 	c #FFFF7F",
"x 	c #FDFD8A",
"y 	c #FDFD95",
"z 	c #FFFFA2",
"A 	c #A8A89A",
"B 	c #020298",
"C 	c #00009E",
"D 	c #18188F",
"E 	c #909059",
"F 	c #F8F845",
"G 	c #FFFF55",
"H 	c #FEFE61",
"I 	c #FEFE6D",
"J 	c #FEFE7A",
"K 	c #FDFD85",
"L 	c #FFFF91",
"M 	c #808092",
"N 	c #00009F",
"O 	c #272785",
"P 	c #EAEA25",
"Q 	c #FFFF2E",
"R 	c #FDFD3B",
"S 	c #FEFE47",
"T 	c #FEFE53",
"U 	c #FEFE5F",
"V 	c #FFFF6B",
"W 	c #FEFE76",
"X 	c #F4F483",
"Y 	c #555582",
"Z 	c #00009D",
"` 	c #32327A",
" .	c #FFFF00",
"..	c #FEFE13",
"+.	c #FDFD1E",
"@.	c #FDFD2A",
"#.	c #FEFE36",
"$.	c #FFFF43",
"%.	c #FEFE4D",
"&.	c #FEFE5A",
"*.	c #FEFE67",
"=.	c #DADA69",
"-.	c #181894",
";.	c #393976",
">.	c #66665B",
",.	c #747455",
"'.	c #C4C42A",
").	c #FFFF18",
"!.	c #FDFD28",
"~.	c #FEFE34",
"{.	c #FEFE40",
"].	c #FDFD4C",
"^.	c #FFFF56",
"/.	c #9D9D6C",
"(.	c #06069B",
"_.	c #00009C",
":.	c #FFFF0E",
"<.	c #FEFE23",
"[.	c #FEFE2F",
"}.	c #FEFE3C",
"|.	c #737372",
"1.	c #02029C",
"2.	c #0000A5",
"3.	c #535367",
"4.	c #989840",
"5.	c #E5E51C",
"6.	c #FFFF1F",
"7.	c #FFFF2C",
"8.	c #F0F038",
"9.	c #3C3C7E",
"0.	c #01019B",
"a.	c #09099E",
"b.	c #02029A",
"c.	c #363680",
"d.	c #E4E419",
"e.	c #FFFF17",
"f.	c #C5C53C",
"g.	c #01019C",
"h.	c #08089D",
"i.	c #0F0FA0",
"j.	c #0000A2",
"k.	c #565663",
"l.	c #FFFF01",
"m.	c #8E8E4B",
"n.	c #0000A8",
"o.	c #07079D",
"p.	c #1515A2",
"q.	c #1C1C8A",
"r.	c #B3B32C",
"s.	c #0B0B97",
"t.	c #05059F",
"u.	c #0E0EA0",
"v.	c #1414A2",
"                                ",
"  . + @ # $ % & * = - ; > , '   ",
"  # ) ! & * ~ { ] ^ / ( _ : <   ",
"  [ } | 1 2 3 4 5 6 7 8 9 0 a   ",
"  b c d e f g h i j k l m n o   ",
"  p q r s t u v w x y z A B o   ",
"  r C D E F G H I J K L M r o   ",
"  N O P Q R S T U V W X Y Z o   ",
"  `  ...+.@.#.$.%.&.*.=.-.r a   ",
"  ;.>.,.'.).!.~.{.].^./.(.r r   ",
"  _.o N N '.:.<.[.}.$.|.o r 1.  ",
"  o r r 2.3.4.5.6.7.8.9.Z 0.a.  ",
"  o o o r b.4 c.d.e.f.< g.h.i.  ",
"  o r o o r a j.k.l.m.n.o.i.p.  ",
"  r o o o o o r q.r.s.t.u.v.2   ",
"                                "};
