/* XPM */
static char * logo_32_xpm[] = {
"32 32 425 2",
"  	c None",
". 	c #0E0EA0",
"+ 	c #4141B3",
"@ 	c #3F3FB3",
"# 	c #3E3EB3",
"$ 	c #3B3BB1",
"% 	c #3838B0",
"& 	c #3535AF",
"* 	c #3232AE",
"= 	c #2F2FAD",
"- 	c #2B2BAC",
"; 	c #2929AA",
"> 	c #2525A9",
", 	c #2323A8",
"' 	c #1F1FA6",
") 	c #1C1CA5",
"! 	c #1717A5",
"~ 	c #1515A3",
"{ 	c #1212A2",
"] 	c #00009A",
"^ 	c #4949B7",
"/ 	c #5B5BBF",
"( 	c #5959BD",
"_ 	c #5757BD",
": 	c #5353BA",
"< 	c #4E4EB9",
"[ 	c #4A4AB7",
"} 	c #4545B6",
"| 	c #4040B3",
"1 	c #3B3BB3",
"2 	c #3636B0",
"3 	c #2D2DAC",
"4 	c #2424A9",
"5 	c #1B1BA7",
"6 	c #2A2AA1",
"7 	c #4343A2",
"8 	c #1919A1",
"9 	c #0C0CA0",
"0 	c #09099E",
"a 	c #02029C",
"b 	c #4444B5",
"c 	c #5A5ABF",
"d 	c #5858BE",
"e 	c #5555BC",
"f 	c #5151BB",
"g 	c #4D4DB8",
"h 	c #4848B7",
"i 	c #4343B5",
"j 	c #3A3AB1",
"k 	c #3535B0",
"l 	c #3131AE",
"m 	c #2C2CAC",
"n 	c #2727AA",
"o 	c #1E1EA7",
"p 	c #1616A7",
"q 	c #02029B",
"r 	c #90908E",
"s 	c #E2E2D3",
"t 	c #F8F8E1",
"u 	c #3F3FA0",
"v 	c #00009B",
"w 	c #5A5ABE",
"x 	c #5959BE",
"y 	c #5858BD",
"z 	c #5555BD",
"A 	c #5151BA",
"B 	c #4C4CB8",
"C 	c #4747B6",
"D 	c #4242B5",
"E 	c #3939B1",
"F 	c #3030AE",
"G 	c #2626AA",
"H 	c #2222A8",
"I 	c #1D1DA6",
"J 	c #1919A5",
"K 	c #1313A4",
"L 	c #11119C",
"M 	c #474796",
"N 	c #EBEBA6",
"O 	c #FFFFEE",
"P 	c #FEFEE5",
"Q 	c #F9F9E1",
"R 	c #35359E",
"S 	c #00009C",
"T 	c #4444B6",
"U 	c #5353BC",
"V 	c #4F4FBA",
"W 	c #4B4BB8",
"X 	c #4646B6",
"Y 	c #4242B4",
"Z 	c #3D3DB3",
"` 	c #3333AF",
" .	c #2A2AAC",
"..	c #2121A8",
"+.	c #1717A4",
"@.	c #1313A3",
"#.	c #0F0FA1",
"$.	c #0505A2",
"%.	c #101091",
"&.	c #C0C099",
"*.	c #FAFAC2",
"=.	c #FFFFD3",
"-.	c #FEFED6",
";.	c #FFFFDD",
">.	c #EDEDD3",
",.	c #1F1F98",
"'.	c #3B3BB2",
").	c #4141B4",
"!.	c #3C3CB2",
"~.	c #3838B1",
"{.	c #2E2EAD",
"].	c #2A2AAB",
"^.	c #1C1CA6",
"/.	c #1818A4",
"(.	c #1313A2",
"_.	c #0E0EA1",
":.	c #0A0A9F",
"<.	c #0202A0",
"[.	c #0C0C95",
"}.	c #525284",
"|.	c #FFFF90",
"1.	c #FFFFC0",
"2.	c #FEFEC2",
"3.	c #FFFFC9",
"4.	c #FFFFCE",
"5.	c #FEFED5",
"6.	c #D8D8C1",
"7.	c #0D0D96",
"8.	c #3030AD",
"9.	c #3737B0",
"0.	c #3232AF",
"a.	c #2828AB",
"b.	c #1F1FA8",
"c.	c #1B1BA6",
"d.	c #1515A4",
"e.	c #0D0DA0",
"f.	c #09099F",
"g.	c #04049D",
"h.	c #01019B",
"i.	c #00009E",
"j.	c #55556F",
"k.	c #D9D98D",
"l.	c #FFFFA3",
"m.	c #FEFEB1",
"n.	c #FEFEB5",
"o.	c #FFFFBB",
"p.	c #FFFFC1",
"q.	c #FFFFC7",
"r.	c #FFFFD2",
"s.	c #B2B2A3",
"t.	c #000097",
"u.	c #2929AB",
"v.	c #2323A9",
"w.	c #1F1FA7",
"x.	c #1A1AA5",
"y.	c #1616A4",
"z.	c #1111A1",
"A.	c #0D0D9F",
"B.	c #08089E",
"C.	c #05059C",
"D.	c #20208E",
"E.	c #939372",
"F.	c #FEFE9D",
"G.	c #FEFEA0",
"H.	c #FFFFA6",
"I.	c #FEFEAC",
"J.	c #FFFFB2",
"K.	c #FFFFB8",
"L.	c #FEFEBE",
"M.	c #646478",
"N.	c #1919A4",
"O.	c #07079D",
"P.	c #03039C",
"Q.	c #00009D",
"R.	c #9D9D5C",
"S.	c #EFEF77",
"T.	c #FFFF85",
"U.	c #FEFE8E",
"V.	c #FFFF94",
"W.	c #FEFE9A",
"X.	c #FFFFA0",
"Y.	c #FFFFAB",
"Z.	c #FFFFB1",
"`.	c #FFFFB9",
" +	c #FFFF9A",
".+	c #000093",
"++	c #0F0FA0",
"@+	c #0C0C9F",
"#+	c #07079E",
"$+	c #060696",
"%+	c #42427E",
"&+	c #F3F34E",
"*+	c #FFFF7C",
"=+	c #FEFE7A",
"-+	c #FFFF7F",
";+	c #FFFF8B",
">+	c #FFFF91",
",+	c #FFFF97",
"'+	c #FFFF9D",
")+	c #FFFFA9",
"!+	c #FFFFB0",
"~+	c #A1A17F",
"{+	c #0000A1",
"]+	c #18188A",
"^+	c #C5C555",
"/+	c #FBFB5B",
"(+	c #FFFF67",
"_+	c #FEFE6C",
":+	c #FFFF73",
"<+	c #FFFF78",
"[+	c #FFFF7E",
"}+	c #FFFF84",
"|+	c #FFFF8A",
"1+	c #FFFF96",
"2+	c #FFFF9C",
"3+	c #FFFFA1",
"4+	c #4A4A90",
"5+	c #0C0C93",
"6+	c #686866",
"7+	c #FFFF32",
"8+	c #FFFF54",
"9+	c #FEFE58",
"0+	c #FFFF5E",
"a+	c #FEFE64",
"b+	c #FFFF69",
"c+	c #FFFF70",
"d+	c #FFFF76",
"e+	c #FFFF82",
"f+	c #FFFF88",
"g+	c #FFFF8D",
"h+	c #FEFE93",
"i+	c #FFFF99",
"j+	c #F1F197",
"k+	c #252590",
"l+	c #00009F",
"m+	c #48486E",
"n+	c #DCDC3A",
"o+	c #FFFF3B",
"p+	c #FEFE46",
"q+	c #FEFE4B",
"r+	c #FFFF51",
"s+	c #FFFF57",
"t+	c #FFFF5D",
"u+	c #FFFF63",
"v+	c #FFFF6E",
"w+	c #FFFF74",
"x+	c #FFFF7B",
"y+	c #FFFF80",
"z+	c #FFFF87",
"A+	c #DADA8A",
"B+	c #0E0E94",
"C+	c #090996",
"D+	c #6D6D5F",
"E+	c #FFFF24",
"F+	c #FEFE33",
"G+	c #FEFE37",
"H+	c #FFFF3C",
"I+	c #FEFE42",
"J+	c #FFFF49",
"K+	c #FFFF4E",
"L+	c #FFFF5A",
"M+	c #FFFF60",
"N+	c #FFFF66",
"O+	c #FFFF6C",
"P+	c #FFFF72",
"Q+	c #BABA7A",
"R+	c #000098",
"S+	c #CCCC2B",
"T+	c #FFFF1A",
"U+	c #FEFE24",
"V+	c #FFFF2A",
"W+	c #FFFF30",
"X+	c #FFFF36",
"Y+	c #FFFF42",
"Z+	c #FFFF48",
"`+	c #FFFF4D",
" @	c #FFFF53",
".@	c #FFFF5F",
"+@	c #FFFF65",
"@@	c #FFFF6B",
"#@	c #FFFF71",
"$@	c #FFFF77",
"%@	c #FEFE7D",
"&@	c #737366",
"*@	c #1B1B8A",
"=@	c #ECEC0D",
"-@	c #FFFF0E",
";@	c #FFFF15",
">@	c #FFFF1B",
",@	c #FEFE21",
"'@	c #FFFF27",
")@	c #FFFF2D",
"!@	c #FFFF33",
"~@	c #FFFF39",
"{@	c #FFFF3F",
"]@	c #FFFF45",
"^@	c #FFFF4B",
"/@	c #FFFF50",
"(@	c #FFFF62",
"_@	c #FFFF68",
":@	c #FFFF75",
"<@	c #0A0A89",
"[@	c #12128F",
"}@	c #DDDD14",
"|@	c #FFFF00",
"1@	c #FFFF09",
"2@	c #FFFF0F",
"3@	c #FEFE14",
"4@	c #FEFE1A",
"5@	c #FFFF20",
"6@	c #FEFE26",
"7@	c #FFFF2C",
"8@	c #FFFF38",
"9@	c #FFFF3E",
"0@	c #FFFF44",
"a@	c #FFFF4A",
"b@	c #FFFF56",
"c@	c #FFFF5C",
"d@	c #FFFF6F",
"e@	c #D1D152",
"f@	c #0000A5",
"g@	c #111190",
"h@	c #B1B12E",
"i@	c #CDCD1C",
"j@	c #D6D619",
"k@	c #E2E217",
"l@	c #F1F113",
"m@	c #FFFF17",
"n@	c #FEFE1D",
"o@	c #FFFF23",
"p@	c #FFFF29",
"q@	c #FFFF2F",
"r@	c #FFFF35",
"s@	c #FFFF41",
"t@	c #FFFF47",
"u@	c #FFFF59",
"v@	c #FFFF61",
"w@	c #646474",
"x@	c #080897",
"y@	c #131390",
"z@	c #252584",
"A@	c #585868",
"B@	c #F5F50F",
"C@	c #FFFF2E",
"D@	c #FFFF34",
"E@	c #FFFF46",
"F@	c #FFFF4C",
"G@	c #FFFF58",
"H@	c #F9F959",
"I@	c #333385",
"J@	c #D1D120",
"K@	c #FFFF13",
"L@	c #FFFF26",
"M@	c #FFFF31",
"N@	c #FEFE49",
"O@	c #E5E553",
"P@	c #141491",
"Q@	c #202087",
"R@	c #EEEE15",
"S@	c #FEFE19",
"T@	c #FFFF1F",
"U@	c #FEFE25",
"V@	c #FFFF2B",
"W@	c #FFFF37",
"X@	c #FFFF3D",
"Y@	c #FFFF43",
"Z@	c #C5C54E",
"`@	c #010198",
" #	c #06069E",
".#	c #D6D61B",
"+#	c #FDFD0C",
"@#	c #FFFF14",
"##	c #FEFE1C",
"$#	c #FFFF22",
"%#	c #FEFE28",
"&#	c #FEFE3A",
"*#	c #818156",
"=#	c #04049C",
"-#	c #0B0BA0",
";#	c #08089F",
">#	c #01019A",
",#	c #424271",
"'#	c #3B3B77",
")#	c #3D3D76",
"!#	c #B3B333",
"~#	c #FFFF10",
"{#	c #FEFE2D",
"]#	c #FEFE34",
"^#	c #020295",
"/#	c #0A0AA0",
"(#	c #0000A0",
"_#	c #9F9F3F",
":#	c #FFFF25",
"<#	c #B6B63A",
"[#	c #03039D",
"}#	c #1111A2",
"|#	c #AAAA37",
"1#	c #FFFF18",
"2#	c #FEFE1E",
"3#	c #4C4C71",
"4#	c #02029D",
"5#	c #06069D",
"6#	c #1414A2",
"7#	c #262684",
"8#	c #F4F40F",
"9#	c #FEFE16",
"0#	c #EAEA21",
"a#	c #0D0DA1",
"b#	c #1414A3",
"c#	c #1010A2",
"d#	c #040498",
"e#	c #CACA21",
"f#	c #FFFF08",
"g#	c #C0C02C",
"h#	c #1010A1",
"i#	c #1B1BA5",
"j#	c #787852",
"k#	c #3D3D75",
"l#	c #05059D",
"m#	c #0F0FA2",
"n#	c #878748",
"o#	c #0000A2",
"p#	c #2222A9",
"q#	c #1616A3",
"r#	c #1818A5",
"                                                                ",
"  . + @ @ @ @ @ @ @ @ @ @ @ # $ % & * = - ; > , ' ) ! ~ { . ]   ",
"  ^ / / / / / / / / / ( _ : < [ } | 1 2 * 3 ; 4 5 6 7 8 9 0 a   ",
"  b c / / c / c d e f g h i # j k l m n , o p q r s t u v v v   ",
"  b w w x y z A B C D # E & F - G H I J K L M N O P Q R v S v   ",
"  T d U V W X Y Z E ` =  .G ..I +.@.#.$.%.&.*.=.-.;.>.,.S S v   ",
"  '.W X ).!.~.` {.].> ..^./.(._.:.<.[.}.|.1.2.3.4.5.6.7.S S v   ",
"  8.!.9.0.{.a.> b.c.d.{ e.f.g.h.i.j.k.l.m.n.o.p.q.r.s.t.v S v   ",
"  > 3 u.v.w.x.y.z.A.B.C.h.v S D.E.|.F.G.H.I.J.K.L.4.M.S S S v   ",
"  N.w.J ~ z.9 O.P.v v v Q.S R.S.T.U.V.W.X.H.Y.Z.`. +.+S S S v   ",
"  ++#.@+#+P.v ] S v S $+%+&+*+=+-+T.;+>+,+'+l.)+!+~+{+v S S v   ",
"  g.a v v v v S v {+]+^+/+(+_+:+<+[+}+|+|.1+2+l.3+4+v S S S v   ",
"  v S S S S v i.5+6+7+8+9+0+a+b+c+d+*+e+f+g+h+i+j+k+S v S S v   ",
"  v v v S v l+m+n+o+p+q+r+s+t+u+b+v+w+x+y+z+g+h+A+B+S S S S v   ",
"  v S v S C+D+E+F+G+H+I+J+K+8+L+M+N+O+P+<+[+}+g+Q+R+v S S S v   ",
"  v v ] 5+S+T+U+V+W+X+H+Y+Z+`+ @L+.@+@@@#@$@%@|+&@Q.S S S S v   ",
"  v v *@=@-@;@>@,@'@)@!@~@{@]@^@/@s+t+(@_@v+:@(+<@S v S S S v   ",
"  v [@}@|@1@2@3@4@5@6@7@7+8@9@0@a@/@b@c@(@_@d@e@f@v S S S v v   ",
"  v g@h@i@j@k@l@2@m@n@o@p@q@r@H+s@t@`+ @u@.@v@w@i.S S S S v v   ",
"  v v h.x@[.y@z@A@B@m@n@o@p@C@D@o+s@E@F@ @G@H@I@v S S S v v q   ",
"  v S S v v v v l+Q.J@K@4@5@L@7@M@8@9@0@N@/@O@P@S v v S S P.C.  ",
"  v S S S S v S v S Q@R@K@S@T@U@V@M@W@X@Y@a@Z@`@v S S v P.#+ #  ",
"  v S S S S S S v v C+.#+#-@@###$#%#C@D@&#Y+*#l+S v S =##+-#;#  ",
"  v S S S S S S S v >#,#'#)#!#~###$#'@{#]#5@^#v v v P. #/#. :.  ",
"  v S S S S S S S S v Q.S v (#_#-@S@T@:#V+<#f@v v [##+:._.}#9   ",
"  v S S S S S S S v S v S S v i.|#-@1#2#5@3#Q.v 4#5#f.e.}#6#.   ",
"  v S S S S S S S S S S S v S v 7#8#2@9#0#*@S 4# #:.a#}#b#/.c#  ",
"  v S S S S S S S S S S S S v S d#e#f#2@g#v a C.:.9 h#6#+.i#{   ",
"  v S v S S S S S S S S S S S S l+j#|@|@k#i.l#;#e.m#@.y.x.o 6#  ",
"  v v S S S S S S S S S S S S S S l+|@n#o#l#;#9 c#(.+.x.I p#q#  ",
"  ] v v v v v v v v v v v v v v v v ] S P. #0 :.e.h#{ b#+.r#]   ",
"                                                                "};
