/* XPM */
static char * mg_32_xpm[] = {
"32 32 3 1",
" 	c None",
".	c #3F28EC",
"+	c #FFEB07",
"                                ",
"                                ",
"                                ",
"   ..........................   ",
"   ..........................   ",
"   .....................+++..   ",
"   ...................+++++..   ",
"   .................+++++++..   ",
"   ................++++++++..   ",
"   ..............+++++++++...   ",
"   ............+++++++++++...   ",
"   ...........+++++++++++....   ",
"   .........+++++++++++++....   ",
"   .......++++++++++++++.....   ",
"   ......+++++++++++++++.....   ",
"   ....++++++++++++++++......   ",
"   ..++++++++++++++++++......   ",
"   .++++++++++++++++++.......   ",
"   .++++++++++++++++++.......   ",
"   .+++++++++++++++++........   ",
"   .+++++++++++++++++........   ",
"   .++++++++++++++++.........   ",
"   .........++++++++.........   ",
"   .........+++++++..........   ",
"   .........+++++++..........   ",
"   .........++++++...........   ",
"   .........++++++...........   ",
"   .........+++++............   ",
"   ..........................   ",
"                                ",
"                                ",
"                                "};
