/* XPM */
static char * new_xpm[] = {
"16 16 93 2",
"  	c None",
". 	c #6DB468",
"+ 	c #9FD998",
"@ 	c #7CAE7B",
"# 	c #BCBCBC",
"$ 	c #BABABA",
"% 	c #B7B7B7",
"& 	c #B5B5B5",
"* 	c #78CD64",
"= 	c #B0FE94",
"- 	c #A1CA9C",
"; 	c #DFDFDF",
"> 	c #DBDBDB",
", 	c #D6D6D6",
"' 	c #D1D1D1",
") 	c #CBCBCB",
"! 	c #68CB47",
"~ 	c #9AFB69",
"{ 	c #9FCB98",
"] 	c #E6E6E6",
"^ 	c #E4E4E4",
"/ 	c #E0E0E0",
"( 	c #DADADA",
"_ 	c #D3D3D3",
": 	c #DEDEDE",
"< 	c #B9B9B9",
"[ 	c #3DA224",
"} 	c #5ABF35",
"| 	c #74D846",
"1 	c #83E74F",
"2 	c #8CD371",
"3 	c #7DC667",
"4 	c #95BD93",
"5 	c #E3E3E3",
"6 	c #DCDCDC",
"7 	c #D7D7D7",
"8 	c #C9C9C9",
"9 	c #AEAEAE",
"0 	c #48AD25",
"a 	c #6CD038",
"b 	c #A1C79C",
"c 	c #E7E7E7",
"d 	c #C5C5C5",
"e 	c #B3B3B3",
"f 	c #2FA017",
"g 	c #44BA21",
"h 	c #9EC59A",
"i 	c #E9E9E9",
"j 	c #E5E5E5",
"k 	c #DDDDDD",
"l 	c #ADADAD",
"m 	c #109208",
"n 	c #16A40B",
"o 	c #6BB167",
"p 	c #93C090",
"q 	c #92BF90",
"r 	c #BBD1BB",
"s 	c #EAEAEA",
"t 	c #109008",
"u 	c #18A40B",
"v 	c #8EC18C",
"w 	c #F0F0F0",
"x 	c #EFEFEF",
"y 	c #EEEEEE",
"z 	c #ECECEC",
"A 	c #E2E2E2",
"B 	c #BEBEBE",
"C 	c #2F9F17",
"D 	c #46BB22",
"E 	c #96C590",
"F 	c #F2F2F2",
"G 	c #F1F1F1",
"H 	c #EDEDED",
"I 	c #E8E8E8",
"J 	c #C1C1C1",
"K 	c #29881A",
"L 	c #7FB574",
"M 	c #90C385",
"N 	c #B7D2B6",
"O 	c #F3F3F3",
"P 	c #EBEBEB",
"Q 	c #C4C4C4",
"R 	c #F6F6F6",
"S 	c #F5F5F5",
"T 	c #F4F4F4",
"U 	c #F7F7F7",
"V 	c #C6C6C6",
"W 	c #F8F8F8",
"X 	c #C3C3C3",
"Y 	c #D2D2D2",
"Z 	c #E1E1E1",
"` 	c #D9D9D9",
" .	c #D5D5D5",
"                                ",
"      . + + @ # $ % & &         ",
"      * = = - ; > , ' ) $       ",
"      ! ~ ~ { ] ^ / ( _ : <     ",
"[ } } | 1 1 2 3 3 4 5 6 7 8 9   ",
"0 a a a a a a a a b c ^ _ d e   ",
"f g g g g g g g g h i c j k _ l ",
"      m n n o p q r s i c ^ 6 $ ",
"      t u u v w x y z s i c A B ",
"      C D D E F G x H z s I ] J ",
"      K L M N O F w x H P i c Q ",
"        : R S T O F w y z s I d ",
"        ; U R S T O G x H P i V ",
"        6 W U R S O F w y z s X ",
"        Y A Z ; : k 6 > ` 7  .B ",
"                                "};
