/* XPM */
static char * picture_xpm[] = {
"16 16 87 1",
" 	c None",
".	c #888A85",
"+	c #FEFEFE",
"@	c #FDFDFD",
"#	c #7A8698",
"$	c #374762",
"%	c #F6F6F6",
"&	c #3F516F",
"*	c #617FAB",
"=	c #6381AD",
"-	c #6884AA",
";	c #718DA7",
">	c #5F7EAA",
",	c #5B7BA8",
"'	c #5778A6",
")	c #5475A4",
"!	c #5072A3",
"~	c #435470",
"{	c #738EB6",
"]	c #8FA6AF",
"^	c #DCE5B9",
"/	c #EEF3CB",
"(	c #A4B8A9",
"_	c #6D89B3",
":	c #6986B1",
"<	c #6583AF",
"[	c #6180AD",
"}	c #455672",
"|	c #8099BD",
"1	c #C4D1AF",
"2	c #FEFEF9",
"3	c #FFFFFE",
"4	c #E2EBBE",
"5	c #819AB8",
"6	c #7892B9",
"7	c #7590B7",
"8	c #728DB6",
"9	c #475773",
"0	c #8EA3C4",
"a	c #B6C5B2",
"b	c #F7FADF",
"c	c #FCFDEE",
"d	c #D1DCB1",
"e	c #8CA1C1",
"f	c #889EC1",
"g	c #869CBF",
"h	c #839ABE",
"i	c #485773",
"j	c #9AACCA",
"k	c #9DAFC7",
"l	c #B3C2B7",
"m	c #C5D1B1",
"n	c #A1B3C3",
"o	c #98ABC9",
"p	c #96A9C8",
"q	c #7D899D",
"r	c #95A8C7",
"s	c #93A6C6",
"t	c #495973",
"u	c #A8B7D1",
"v	c #A8B8D2",
"w	c #A7B7D1",
"x	c #A6B6D1",
"y	c #A5B5D0",
"z	c #515151",
"A	c #8691A3",
"B	c #A2B3CE",
"C	c #45546E",
"D	c #9FA9BB",
"E	c #9EA9BA",
"F	c #9EA8BA",
"G	c #9CA7B9",
"H	c #818A9A",
"I	c #3D4E6D",
"J	c #3D4F6D",
"K	c #3B4C6B",
"L	c #2F4262",
"M	c #233659",
"N	c #384151",
"O	c #415474",
"P	c #405374",
"Q	c #3D5071",
"R	c #384C6E",
"S	c #34486A",
"T	c #33476A",
"U	c #818DA2",
"V	c #67758F",
"................",
".++++++++++++++.",
".@#$$$$$$$$$$#%.",
".+&*=-;>,'))!$%.",
".@~{]^/(_:<<[$%.",
".@}|123456778$%.",
".@90abcdefggh$%.",
".@ijklmnopqrs$%.",
".@tuvvuwxyzAB$%.",
".@CDDDDEFGzzH$%.",
".@$IJJIKLMzzN$%.",
".@$OPQRSTzzzz$%.",
".@$UVVVVVVVVV$%.",
".@#$$$$$$$$$$#%.",
".+%%%%%%%%%%%%@.",
"................"};
