/* XPM */
static char * plus_xpm[] = {
"16 16 9 1",
" 	c None",
".	c #99A4FB",
"+	c #7280EF",
"@	c #4A5CE3",
"#	c #2A3CBE",
"$	c #5E6EE9",
"%	c #3A4CD0",
"&	c #5260CA",
"*	c #0A1B98",
"                ",
"      ....      ",
"      +@@#      ",
"      +@@#      ",
"      +@@#      ",
"      +@@#      ",
" .++++$@@%++++& ",
" .@@@@@@@@@@@@* ",
" .@@@@@@@@@@@@* ",
" .####%@@%####* ",
"      +@@#      ",
"      +@@#      ",
"      +@@#      ",
"      +@@#      ",
"      &***      ",
"                "};
