/* XPM */
static char * publish_xpm[] = {
"16 16 141 2",
"  	c None",
". 	c #7888C3",
"+ 	c #177DE7",
"@ 	c #9FAAD7",
"# 	c #B5BFE1",
"$ 	c #2687E9",
"% 	c #658FD2",
"& 	c #7682BD",
"* 	c #E9EDF8",
"= 	c #E9ECF7",
"- 	c #1555C0",
"; 	c #6A9BDC",
"> 	c #7C87C2",
", 	c #B7C0E0",
"' 	c #FEFEFE",
") 	c #FBFCFE",
"! 	c #B0B9DD",
"~ 	c #B3BBDE",
"{ 	c #6B8FD1",
"] 	c #1B5BC4",
"^ 	c #519BE8",
"/ 	c #8D9BCF",
"( 	c #99A3D2",
"_ 	c #8897CB",
": 	c #F6F7FC",
"< 	c #C4CBE6",
"[ 	c #D6D7EE",
"} 	c #A3B0DA",
"| 	c #356CC8",
"1 	c #2A86E6",
"2 	c #7390CE",
"3 	c #AEB5DB",
"4 	c #A6B0DA",
"5 	c #C2CAE6",
"6 	c #F9F9FE",
"7 	c #E3E6F6",
"8 	c #C5CBE7",
"9 	c #B7BBDC",
"0 	c #638CD2",
"a 	c #053DB1",
"b 	c #6197DD",
"c 	c #96A0CF",
"d 	c #CFD7EE",
"e 	c #D1D8ED",
"f 	c #FCFCFE",
"g 	c #F2F2FC",
"h 	c #F0F0F9",
"i 	c #B9C0E1",
"j 	c #CED1E9",
"k 	c #879ED3",
"l 	c #1950B9",
"m 	c #3381DB",
"n 	c #7B8DC6",
"o 	c #CCD2E8",
"p 	c #BDC4E2",
"q 	c #F7F7FD",
"r 	c #EEEEF9",
"s 	c #E7E7F5",
"t 	c #CBD0EB",
"u 	c #C5CBE6",
"v 	c #9EA8D3",
"w 	c #4778CE",
"x 	c #186AD5",
"y 	c #7096D5",
"z 	c #A8AFD7",
"A 	c #D0D6EE",
"B 	c #D8DCF1",
"C 	c #F8F8FE",
"D 	c #E9E9F7",
"E 	c #E3E3F3",
"F 	c #D7DAEE",
"G 	c #C2C5E3",
"H 	c #678CCF",
"I 	c #042FA6",
"J 	c #4882D3",
"K 	c #8996CA",
"L 	c #D6DBED",
"M 	c #C0C6E4",
"N 	c #F3F5FC",
"O 	c #E6E6F3",
"P 	c #E2E2F2",
"Q 	c #C2C8E6",
"R 	c #BCC3E2",
"S 	c #DBDAEC",
"T 	c #8399D0",
"U 	c #2856BE",
"V 	c #2970D1",
"W 	c #7B95CF",
"X 	c #B8BFE0",
"Y 	c #D2D7ED",
"Z 	c #D8DAEE",
"` 	c #E4E3F3",
" .	c #DCDDF0",
"..	c #AFB7DD",
"+.	c #E3E1F2",
"@.	c #A9B2DA",
"#.	c #476FC5",
"$.	c #5987D2",
"%.	c #929CCE",
"&.	c #BCC3E1",
"*.	c #CED1E8",
"=.	c #E9E8F6",
"-.	c #BEC3E2",
";.	c #CED0E9",
">.	c #E8E7F5",
",.	c #CCD0E8",
"'.	c #99A1CE",
").	c #799BD7",
"!.	c #1338AA",
"~.	c #175AC4",
"{.	c #728FCF",
"].	c #98A0CC",
"^.	c #C0C6E1",
"/.	c #D2D5EC",
"(.	c #BCC2E1",
"_.	c #CFD2EB",
":.	c #9FA8D3",
"<.	c #808FC6",
"[.	c #748CC8",
"}.	c #6A92D8",
"|.	c #1340B0",
"1.	c #2C67C8",
"2.	c #8B9CCE",
"3.	c #99A0C9",
"4.	c #B8BFDD",
"5.	c #A1A9D0",
"6.	c #8895C6",
"7.	c #758FCB",
"8.	c #5177C6",
"9.	c #2B57BE",
"0.	c #01219B",
"a.	c #4A79CA",
"b.	c #A0AFD3",
"c.	c #A1AACB",
"d.	c #8FA4D2",
"e.	c #4B70C3",
"f.	c #1C3CAA",
"g.	c #0435AA",
"h.	c #285EBF",
"i.	c #3D70C9",
"j.	c #1239A8",
"                .               ",
"+             @ #               ",
"$ % &         * =     -         ",
"  ; >       , ' ) ! ~ { ]       ",
"  ^ / (   _ : ' ' < [ } |       ",
"  1 2 3 4 5 ' ' 6 7 8 9 0 a     ",
"    b c d e ' f g h i j k l     ",
"    m n o p f q r s t u v w     ",
"    x y z A B C D E F ~ G H I   ",
"      J K L M N O P Q R S T U   ",
"      V W X Y Z `  ... .+.@.#.  ",
"        $.%.&.*.=.-.;.>.,.'.).!.",
"        ~.{.].^./.(._.:.<.[.}.|.",
"          1.2.3.4.5.6.7.8.9.0.  ",
"            a.b.c.d.e.f.        ",
"            g.h.i.j.            "};
