/* XPM */
static char * search_xpm[] = {
"16 16 144 2",
"  	c None",
". 	c #E9E9EE",
"+ 	c #F1F1F8",
"@ 	c #D1D7E0",
"# 	c #7F9EBA",
"$ 	c #93B5D7",
"% 	c #A9C9EE",
"& 	c #A1C2EA",
"* 	c #C7D0DC",
"= 	c #D6DEEC",
"- 	c #76A1C5",
"; 	c #BCD3E9",
"> 	c #D9EAF8",
", 	c #E3F0FA",
"' 	c #D7EBF5",
") 	c #7DB2D8",
"! 	c #B6C7DA",
"~ 	c #95C4E6",
"{ 	c #AAD9F0",
"] 	c #D4F0FE",
"^ 	c #D6F0FF",
"/ 	c #D7F1FF",
"( 	c #DDF3FF",
"_ 	c #BCE6FA",
": 	c #6DADDC",
"< 	c #D8EEDB",
"[ 	c #E4F7E7",
"} 	c #80C5EF",
"| 	c #A3DFFB",
"1 	c #CAEDFF",
"2 	c #BCE7FE",
"3 	c #C0E9FE",
"4 	c #C7ECFE",
"5 	c #C3EAFE",
"6 	c #6BBFEB",
"7 	c #CBE0D0",
"8 	c #D4F4D3",
"9 	c #E4E4ED",
"0 	c #A9D4ED",
"a 	c #91D8FB",
"b 	c #BDE9FF",
"c 	c #B4E5FE",
"d 	c #B8E7FE",
"e 	c #BBE7FE",
"f 	c #C1EAFF",
"g 	c #9AD9F6",
"h 	c #D4D3D3",
"i 	c #F0E5DA",
"j 	c #EBEAF3",
"k 	c #B3B7C0",
"l 	c #B0E0FC",
"m 	c #ACE2FE",
"n 	c #AEE4FD",
"o 	c #99DBFC",
"p 	c #90D7FB",
"q 	c #B1E4FE",
"r 	c #CFE1F1",
"s 	c #CCBEB5",
"t 	c #F2D8BF",
"u 	c #F1EBED",
"v 	c #E4E2EB",
"w 	c #B3ACB4",
"x 	c #CBCCD3",
"y 	c #CAE4F9",
"z 	c #C2E8FD",
"A 	c #A2DCFB",
"B 	c #ABDBFA",
"C 	c #C2CCDA",
"D 	c #BBBBC4",
"E 	c #D8CCC7",
"F 	c #F1E3DC",
"G 	c #EFEBF4",
"H 	c #E8E8F5",
"I 	c #F1DBC7",
"J 	c #E1C9B6",
"K 	c #AAA6B8",
"L 	c #C2C5D0",
"M 	c #BBBCBE",
"N 	c #A3A3A8",
"O 	c #7C7C7F",
"P 	c #9A9A9C",
"Q 	c #C6BFC9",
"R 	c #E4E6FA",
"S 	c #D5D9F9",
"T 	c #D8DCF9",
"U 	c #E1E1F0",
"V 	c #ACACB6",
"W 	c #F0E3DD",
"X 	c #F1DECE",
"Y 	c #D0CDD7",
"Z 	c #CEC4D9",
"` 	c #BDA7C4",
" .	c #B6A7C4",
"..	c #B8B2C4",
"+.	c #8C9FB2",
"@.	c #77A8D7",
"#.	c #C1D1EE",
"$.	c #D2D7F8",
"%.	c #D3D7F8",
"&.	c #E6E7F7",
"*.	c #DBDBE8",
"=.	c #DFE2FB",
"-.	c #C6C9E4",
";.	c #EFE0EC",
">.	c #F2CBCE",
",.	c #F1CED2",
"'.	c #EBE7EF",
").	c #3B75AA",
"!.	c #4B95DC",
"~.	c #619CD7",
"{.	c #C5C5D5",
"].	c #A5A5B0",
"^.	c #E5E6FC",
"/.	c #C7CBE8",
"(.	c #E7E3F4",
"_.	c #ECDCE7",
":.	c #D5CEDC",
"<.	c #BDBED0",
"[.	c #667C9B",
"}.	c #2677C1",
"|.	c #5098DF",
"1.	c #21507C",
"2.	c #CACAD8",
"3.	c #DCE5F9",
"4.	c #A5B6CB",
"5.	c #A0B0C3",
"6.	c #CCCEDD",
"7.	c #D3D6EE",
"8.	c #BBBBC9",
"9.	c #15538D",
"0.	c #428FD8",
"a.	c #4590D6",
"b.	c #E0E5F7",
"c.	c #C2DCF8",
"d.	c #CCE0F9",
"e.	c #DADDEC",
"f.	c #8E8E98",
"g.	c #417FB9",
"h.	c #B4CAE7",
"i.	c #B6B6C4",
"j.	c #DDE3F6",
"k.	c #A8A8B5",
"l.	c #5A6D80",
"m.	c #A2A5A8",
"            . +                 ",
"        @ # $ % & *             ",
"      = - ; > , ' ) !           ",
"      ~ { ] ^ / ( _ : < [       ",
"      } | 1 2 3 4 5 6 7 8 9     ",
"      0 a b c d e f g h i j     ",
"      k l m n o p q r s t u     ",
"    v w x y z A B C D E F G     ",
"  H I J K L M N O P Q R S T U   ",
"  V W X Y Z `  ...+.@.#.$.%.&.  ",
"    *.=.-.;.>.,.'.).!.~.{.].    ",
"      ^./.(._.:.<.[.}.|.1.      ",
"      2.3.4.5.6.7.8.9.0.a.      ",
"        b.c.d.e.f.    g.h.      ",
"        i.j.k.        l.m.      ",
"                                "};
