/* XPM */
static char * Software_xpm[] = {
"16 16 154 2",
"  	c None",
". 	c #B9C9BA",
"+ 	c #B1C1B1",
"@ 	c #C5DABA",
"# 	c #CEDEC6",
"$ 	c #60BC4F",
"% 	c #78C964",
"& 	c #C0DBBB",
"* 	c #E3E5E7",
"= 	c #E1E1E9",
"- 	c #DCDCE5",
"; 	c #D3D5DD",
"> 	c #BEC9C3",
", 	c #A0B8A4",
"' 	c #629F53",
") 	c #CAD1D1",
"! 	c #CED3D4",
"~ 	c #45BD34",
"{ 	c #6AC060",
"] 	c #6FA56B",
"^ 	c #4D924A",
"/ 	c #297E23",
"( 	c #0D6E08",
"_ 	c #096D04",
": 	c #1C7915",
"< 	c #409537",
"[ 	c #6FAF63",
"} 	c #7B9572",
"| 	c #80D376",
"1 	c #6FC662",
"2 	c #5BA150",
"3 	c #84B67D",
"4 	c #A3C69D",
"5 	c #C0D4BC",
"6 	c #D4DAD7",
"7 	c #D8D8E3",
"8 	c #D2D2DF",
"9 	c #CCCCDC",
"0 	c #B9C1C3",
"a 	c #88D67E",
"b 	c #C0E6B3",
"c 	c #C8E4B8",
"d 	c #EFEFF1",
"e 	c #E3E7E4",
"f 	c #D5DACC",
"g 	c #CAD7C0",
"h 	c #C0D9B6",
"i 	c #BBD9AD",
"j 	c #B9DCA5",
"k 	c #528635",
"l 	c #7CD16F",
"m 	c #B3E1A2",
"n 	c #BAE3A2",
"o 	c #BCD99A",
"p 	c #EDCE97",
"q 	c #F7B797",
"r 	c #DABB9B",
"s 	c #B7D5AE",
"t 	c #81A5E0",
"u 	c #6ECC60",
"v 	c #A6DB91",
"w 	c #B4E19A",
"x 	c #CECF91",
"y 	c #FBC68C",
"z 	c #F2A181",
"A 	c #C4B5AA",
"B 	c #CBD8EA",
"C 	c #CDDAEE",
"D 	c #CEDCF0",
"E 	c #CFDCF0",
"F 	c #5BC549",
"G 	c #99D581",
"H 	c #ADDE91",
"I 	c #DCC07F",
"J 	c #F7B676",
"K 	c #DB7F63",
"L 	c #BCCDE6",
"M 	c #C2D4EE",
"N 	c #C5D8F4",
"O 	c #C6DAF6",
"P 	c #C8DCFA",
"Q 	c #C7DCFA",
"R 	c #39B922",
"S 	c #80CA60",
"T 	c #A2DA82",
"U 	c #B2BD8B",
"V 	c #7BB4AC",
"W 	c #A8BDDC",
"X 	c #B2C8EA",
"Y 	c #B5CEF1",
"Z 	c #86AEB0",
"` 	c #7DA8C9",
" .	c #88B3F2",
"..	c #8CC3FF",
"+.	c #9BCCFF",
"@.	c #3AB923",
"#.	c #71C44D",
"$.	c #83C972",
"%.	c #79B1DE",
"&.	c #599CD4",
"*.	c #96B3DC",
"=.	c #9ABCED",
"-.	c #8E9E99",
";.	c #91D16B",
">.	c #5D9149",
",.	c #7F9EEB",
"'.	c #B9D1FA",
").	c #B8D9FF",
"!.	c #3DB925",
"~.	c #74C44F",
"{.	c #74BB8E",
"].	c #86B8E3",
"^.	c #4A8DCB",
"/.	c #7DA2D9",
"(.	c #8CB4F0",
"_.	c #74A0BD",
":.	c #97D676",
"<.	c #619562",
"[.	c #78BEE6",
"}.	c #E0EEFA",
"|.	c #EFF5FF",
"1.	c #40BA27",
"2.	c #76C551",
"3.	c #6CAFA6",
"4.	c #89B9C1",
"5.	c #5C95AB",
"6.	c #92B2E1",
"7.	c #A2C6FA",
"8.	c #99BDF4",
"9.	c #65A7EA",
"0.	c #86E9F6",
"a.	c #C2FFFF",
"b.	c #E3FFFF",
"c.	c #44BB2A",
"d.	c #78C553",
"e.	c #96CF84",
"f.	c #A3DB87",
"g.	c #A3D18B",
"h.	c #B3D2FD",
"i.	c #BFE1FF",
"j.	c #CBE1FD",
"k.	c #BCECFD",
"l.	c #B2FFFF",
"m.	c #C3FFFF",
"n.	c #77BD52",
"o.	c #A2DA87",
"p.	c #A5DB8C",
"q.	c #94C47D",
"r.	c #80AB6C",
"s.	c #77958C",
"t.	c #CCE8FF",
"u.	c #DCF2FF",
"v.	c #D9FDFF",
"w.	c #CDFFFF",
"                                ",
"              . +   @ #         ",
"$ % & * = - ; > , ' ) !         ",
"  ~ { ] ^ / ( _ : < [ }         ",
"  | 1 2 3 4 5 6 7 8 9 0         ",
"  a b c d e f g h i j k         ",
"  l m n o p q r s t t t t       ",
"  u v w x y z A t B C D E t     ",
"  F G H I J K t L M N O P Q t   ",
"  R S T U V t W X Y Z `  ...+.t ",
"  @.#.$.%.&.t *.=.-.;.>.,.'.).t ",
"  !.~.{.].^.t /.(._.:.<.[.}.|.t ",
"  1.2.3.4.5.t 6.7.8.t 9.0.a.b.t ",
"  c.d.e.f.f.g.t h.i.j.k.l.m.t   ",
"    n.o.p.q.r.s.t t.u.v.w.t     ",
"                  t t t t       "};
