/* XPM */
static char * start_task_xpm[] = {
"16 16 90 1",
" 	c None",
".	c #018001",
"+	c #42AC43",
"@	c #43AC43",
"#	c #43AC42",
"$	c #3DA83E",
"%	c #40A940",
"&	c #69BB69",
"*	c #80C681",
"=	c #65BA66",
"-	c #3EA83F",
";	c #3EA93E",
">	c #3EA93F",
",	c #3FA83F",
"'	c #3FA93F",
")	c #38A439",
"!	c #50AF52",
"~	c #EDF7ED",
"{	c #FFFFFF",
"]	c #F1F9F1",
"^	c #8DCB8D",
"/	c #4EAF50",
"(	c #39A43A",
"_	c #38A53A",
":	c #39A53A",
"<	c #33A034",
"[	c #58B15A",
"}	c #FEFEFE",
"|	c #DCEEDC",
"1	c #6EBC6F",
"2	c #34A035",
"3	c #33A036",
"4	c #33A135",
"5	c #34A136",
"6	c #2D9C2F",
"7	c #42A645",
"8	c #E3F2E4",
"9	c #E8F4E9",
"0	c #96CD97",
"a	c #2E9D31",
"b	c #2E9C31",
"c	c #28982B",
"d	c #3DA140",
"e	c #EBF5EB",
"f	c #FAFCFA",
"g	c #F5FAF5",
"h	c #28982C",
"i	c #29982B",
"j	c #219326",
"k	c #4AA74D",
"l	c #F6FAF6",
"m	c #229427",
"n	c #239426",
"o	c #1C8F21",
"p	c #389D3D",
"q	c #D4E9D5",
"r	c #FCFDFC",
"s	c #ECF5EC",
"t	c #8EC790",
"u	c #1D9022",
"v	c #178B1C",
"w	c #198D1E",
"x	c #D5EAD6",
"y	c #F1F8F1",
"z	c #9BCD9E",
"A	c #319936",
"B	c #178C1D",
"C	c #118717",
"D	c #CDE6CE",
"E	c #99CB9C",
"F	c #2C9532",
"G	c #128718",
"H	c #128818",
"I	c #128819",
"J	c #0B8312",
"K	c #53A758",
"L	c #85C189",
"M	c #52A758",
"N	c #0C8313",
"O	c #0B8313",
"P	c #0C8413",
"Q	c #0B8413",
"R	c #067F0E",
"S	c #067F0D",
"T	c #057E0E",
"U	c #057F0E",
"V	c #067F0F",
"W	c #077F0F",
"X	c #07800E",
"Y	c #069D06",
"                ",
"  ............  ",
" .+@@#@+++@@@@. ",
" .$%&*=-;>>>,'. ",
" .)!~{]^/(_(::. ",
" .<[}{{{|12345. ",
" .678{{{{{90ab. ",
" .cde{{f{{{ghi. ",
" .jkl{ll{{{gmn. ",
" .opqr{{{{stuu. ",
" .vwx{{{yzABBB. ",
" .CCD{lEFGHIIH. ",
" .JJKLMNOPQPNP. ",
" .RSTURRRRVWXR. ",
"  YYYYYYYYYYYY  ",
"                "};
