/* XPM */
static char * stop_task_xpm[] = {
"16 16 133 2",
"  	c None",
". 	c #3C91A9",
"+ 	c #56A0B6",
"@ 	c #539EB5",
"# 	c #56A1B7",
"$ 	c #388EA6",
"% 	c #4093AA",
"& 	c #9CCBE0",
"* 	c #9ECCE1",
"= 	c #9DCBE0",
"- 	c #9FCCE2",
"; 	c #99C9DE",
"> 	c #368DA5",
", 	c #5AA4BC",
"' 	c #95C7DE",
") 	c #8DC2D9",
"! 	c #8DC3D9",
"~ 	c #8AC1D9",
"{ 	c #88C1D8",
"] 	c #8CC2D9",
"^ 	c #88C0D8",
"/ 	c #4F9CB4",
"( 	c #529FB8",
"_ 	c #8AC3DB",
": 	c #83BFD7",
"< 	c #7FBCD5",
"[ 	c #A6D1E2",
"} 	c #CEE6EF",
"| 	c #86C0D8",
"1 	c #8BC2D9",
"2 	c #D1E8F0",
"3 	c #9FCDE0",
"4 	c #80BDD6",
"5 	c #89C2DB",
"6 	c #4799B2",
"7 	c #4D9DB6",
"8 	c #81BED8",
"9 	c #7BBAD4",
"0 	c #73B6D1",
"a 	c #BDDDE9",
"b 	c #FFFFFF",
"c 	c #85BFD7",
"d 	c #8EC5DA",
"e 	c #B2D7E6",
"f 	c #74B7D2",
"g 	c #80BDD7",
"h 	c #4397B0",
"i 	c #479AB5",
"j 	c #76B9D4",
"k 	c #71B6D0",
"l 	c #68B2CD",
"m 	c #B5D9E6",
"n 	c #7BBBD4",
"o 	c #85C1D7",
"p 	c #A9D3E3",
"q 	c #69B2CE",
"r 	c #76B9D3",
"s 	c #3F95AF",
"t 	c #4197B3",
"u 	c #6CB5D0",
"v 	c #67B2CD",
"w 	c #5EADCA",
"x 	c #AFD6E5",
"y 	c #72B8D1",
"z 	c #7CBDD4",
"A 	c #A3D0E1",
"B 	c #5FAECA",
"C 	c #6BB5D0",
"D 	c #3A92AD",
"E 	c #3D96B0",
"F 	c #63B1CD",
"G 	c #5FAECB",
"H 	c #56A9C8",
"I 	c #ABD5E4",
"J 	c #6BB4CF",
"K 	c #76B9D2",
"L 	c #9ECEDF",
"M 	c #56AAC8",
"N 	c #63B1CE",
"O 	c #3691AC",
"P 	c #3994AF",
"Q 	c #5AADCB",
"R 	c #4CA5C5",
"S 	c #A6D3E1",
"T 	c #63B0CC",
"U 	c #6EB7D0",
"V 	c #99CCDE",
"W 	c #4DA6C5",
"X 	c #59ADCB",
"Y 	c #3290AB",
"Z 	c #3191AE",
"` 	c #4EA9C8",
" .	c #4BA6C5",
"..	c #40A1C2",
"+.	c #A5D3E2",
"@.	c #59ADCA",
"#.	c #66B5CD",
"$.	c #96CBDD",
"%.	c #41A1C2",
"&.	c #2C8DA9",
"*.	c #288FAC",
"=.	c #3BA4C4",
"-.	c #39A2C1",
";.	c #319FBF",
">.	c #75BFD4",
",.	c #BBDFEA",
"'.	c #3EA5C4",
").	c #46A9C6",
"!.	c #BFE2EC",
"~.	c #6ABAD1",
"{.	c #329FC0",
"].	c #248CA8",
"^.	c #1D8FAC",
"/.	c #26A2C3",
"(.	c #259FC0",
"_.	c #229EBF",
":.	c #239EBF",
"<.	c #239FBF",
"[.	c #229FBF",
"}.	c #25A0C0",
"|.	c #259FBF",
"1.	c #26A2C2",
"2.	c #1B8BA8",
"3.	c #1686A2",
"4.	c #1CA0C2",
"5.	c #1CA0C1",
"6.	c #1B9FC1",
"7.	c #1A9FC0",
"8.	c #15849F",
"9.	c #1786A2",
"0.	c #188EAB",
"a.	c #188DAA",
"b.	c #1685A0",
"                                ",
"    . + @ @ @ @ @ @ @ @ # $     ",
"  % & * = = & = = & = = - ; >   ",
"  , ' ) ! ~ { ] ] ^ ~ ) ) ' /   ",
"  ( _ : < [ } | 1 2 3 4 : 5 6   ",
"  7 8 9 0 a b c d b e f 9 g h   ",
"  i j k l m b n o b p q k r s   ",
"  t u v w x b y z b A B v C D   ",
"  E F G H I b J K b L M G N O   ",
"  P Q M R S b T U b V W M X Y   ",
"  Z `  ...+.b @.#.b $.%. .` &.  ",
"  *.=.-.;.>.,.'.).!.~.{.-.=.].  ",
"  ^./.(.(._.:.<.<.<.[.}.|.1.2.  ",
"  3.4.5.5.6.7.5.5.7.6.5.4.6.8.  ",
"    9.0.a.a.a.a.a.a.a.a.0.b.    ",
"                                "};
