/* XPM */
static char * sub_xpm[] = {
"16 16 7 1",
" 	c None",
".	c #99A4FB",
"+	c #7280EF",
"@	c #5260CA",
"#	c #4A5CE3",
"$	c #0A1B98",
"%	c #2A3CBE",
"                ",
"                ",
"                ",
"                ",
"                ",
"                ",
" .++++++++++++@ ",
" .############$ ",
" .############$ ",
" .%%%%%%%%%%%%$ ",
"                ",
"                ",
"                ",
"                ",
"                ",
"                "};
