/* XPM */
static char * sys_setting_xpm[] = {
"16 16 77 1",
" 	c None",
".	c #C3C3CD",
"+	c #FBFBFC",
"@	c #DEDEE4",
"#	c #BEBEC9",
"$	c #FAFAFB",
"%	c #FFFFFF",
"&	c #D4D4DC",
"*	c #D1D1DA",
"=	c #FDFDFD",
"-	c #F2F2F5",
";	c #DEDEE5",
">	c #BCBCCA",
",	c #F2F2F4",
"'	c #F3F3F6",
")	c #ECECF0",
"!	c #848494",
"~	c #DFDFE5",
"{	c #D2D2DB",
"]	c #B1B1C0",
"^	c #E7E7EC",
"/	c #E9E9ED",
"(	c #E8E8ED",
"_	c #D8D8E0",
":	c #A7A7B8",
"<	c #DDDDE4",
"[	c #D9D9E1",
"}	c #C4C4D0",
"|	c #A09FB0",
"1	c #D0932F",
"2	c #9797AB",
"3	c #C1C1CD",
"4	c #C8C8D3",
"5	c #CACAD5",
"6	c #CDCCD5",
"7	c #D6B26D",
"8	c #EDBB27",
"9	c #DFB230",
"0	c #595972",
"a	c #A1A0B2",
"b	c #D4B06F",
"c	c #ECAB1F",
"d	c #FA980E",
"e	c #F4AC1B",
"f	c #DAA92D",
"g	c #B07A2F",
"h	c #F1B824",
"i	c #FCAC1A",
"j	c #FFAE1A",
"k	c #F6B51F",
"l	c #D59F2A",
"m	c #CF9828",
"n	c #FEC225",
"o	c #FFC226",
"p	c #F9BE22",
"q	c #CF9627",
"r	c #CA8F25",
"s	c #FECC2C",
"t	c #FFD632",
"u	c #FFC126",
"v	c #FFB41D",
"w	c #FEB61E",
"x	c #C88A24",
"y	c #C48522",
"z	c #FED22F",
"A	c #FFAD19",
"B	c #FF980D",
"C	c #F5A71A",
"D	c #BE7B1F",
"E	c #FEA213",
"F	c #FFAF1B",
"G	c #FF9C0F",
"H	c #F19914",
"I	c #B66E1B",
"J	c #F38D0D",
"K	c #EF8C0E",
"L	c #A5641C",
"                ",
"   .++@         ",
"    #$%&        ",
"     *=-        ",
" ;  >,')!       ",
" ~{]^/(_        ",
" :<;;;[}|1      ",
"  234}56789     ",
"    0 abcdef    ",
"      ghijjkl   ",
"       mnooopq  ",
"        rstuvwx ",
"         yzABBC ",
"          DEFGH ",
"           IJKL ",
"                "};
