/* XPM */
static char * sysicon_win_xpm[] = {
"16 16 57 1",
" 	c None",
".	c #5B90E4",
"+	c #6698E7",
"@	c #74A0E7",
"#	c #6698E6",
"$	c #1B3C6E",
"%	c #1E4582",
"&	c #76ABFF",
"*	c #87B5FF",
"=	c #A8CAFF",
"-	c #9FC4FF",
";	c #B9D4FF",
">	c #95BEFF",
",	c #1B4482",
"'	c #5596FC",
")	c #74A8FA",
"!	c #5999FC",
"~	c #184382",
"{	c #90B8F8",
"]	c #ECECF1",
"^	c #9CBFF7",
"/	c #154282",
"(	c #8FB9F9",
"_	c #F0F0F4",
":	c #9BC0F8",
"<	c #144182",
"[	c #124082",
"}	c #8EB9FA",
"|	c #F3F3F6",
"1	c #9BC1FA",
"2	c #114082",
"3	c #0E3F82",
"4	c #8DBAFC",
"5	c #F6F6F9",
"6	c #9AC2FB",
"7	c #0F3F82",
"8	c #0B3E82",
"9	c #8CBAFD",
"0	c #FAFAFC",
"a	c #99C3FD",
"b	c #0B3D82",
"c	c #083C82",
"d	c #8ABBFF",
"e	c #FEFEFE",
"f	c #98C3FE",
"g	c #053B82",
"h	c #88BAFF",
"i	c #FFFFFF",
"j	c #97C2FF",
"k	c #023982",
"l	c #86B9FF",
"m	c #95C1FF",
"n	c #002C65",
"o	c #136ADE",
"p	c #2575E0",
"q	c #156CDF",
"r	c #002B64",
"                ",
"                ",
" .+++++++++++@#$",
"%&*********=-;>%",
",'))))))))))))!,",
"~{]]]]]]]]]]]]^~",
"/(____________:<",
"[}||||||||||||12",
"3455555555555567",
"89000000000000ab",
"cdeeeeeeeeeeeefc",
"ghiiiiiiiiiiiijg",
"kliiiiiiiiiiiimk",
"noppppppppppppqr",
"                ",
"                "};
