/* XPM */
static char * temp_xpm[] = {
"16 16 73 1",
" 	c None",
".	c #FFFE98",
"+	c #FFFD98",
"@	c #FFFE92",
"#	c #FFFE91",
"$	c #FEFE91",
"%	c #FFFD91",
"&	c #FFFD85",
"*	c #FFFE85",
"=	c #FEFE86",
"-	c #FFFE86",
";	c #FEFE85",
">	c #FFFE84",
",	c #FEFE84",
"'	c #FEFE7A",
")	c #FFFE79",
"!	c #FEFE79",
"~	c #FFFE7A",
"{	c #FEFE6E",
"]	c #FFFE6E",
"^	c #FEFE6D",
"/	c #FEFF6E",
"(	c #FEFE62",
"_	c #FEFF62",
":	c #FEFF61",
"<	c #FEFE61",
"[	c #FDFE61",
"}	c #FEFE56",
"|	c #FDFE57",
"1	c #FDFE56",
"2	c #FDFF55",
"3	c #FDFF56",
"4	c #FDFE55",
"5	c #FEFE55",
"6	c #FDFE4A",
"7	c #FDFE4B",
"8	c #FEFE4A",
"9	c #FDFF4A",
"0	c #FEFE49",
"a	c #FDFE3E",
"b	c #FDFF3F",
"c	c #FDFF3E",
"d	c #FEFF3E",
"e	c #FEFE3E",
"f	c #FDFE32",
"g	c #FDFF32",
"h	c #FDFE33",
"i	c #FDFF33",
"j	c #FDFE27",
"k	c #FCFF27",
"l	c #FCFE26",
"m	c #FDFE26",
"n	c #FDFF26",
"o	c #FCFF26",
"p	c #FDFF27",
"q	c #FDFF1B",
"r	c #FCFF1A",
"s	c #FDFF1A",
"t	c #FCFF1B",
"u	c #FCFE1A",
"v	c #FDFE1A",
"w	c #FCFF0F",
"x	c #FDFF10",
"y	c #FCFE0F",
"z	c #FDFF0F",
"A	c #FDFE0F",
"B	c #FDFE0E",
"C	c #FCFE0E",
"D	c #FCFF0E",
"E	c #FCFF04",
"F	c #FCFF03",
"G	c #FDFF03",
"H	c #FCFF02",
"                ",
"  .+..+.......  ",
" @#$%##%#$##### ",
" &**=-*=*;;>,;& ",
" ')'!~!!!)')!)! ",
" {]]^^/^{^^^^{^ ",
" ((_:((<:<((_[< ",
" }|1}2}13}}4455 ",
" 67688688866909 ",
" abaacccdadccea ",
" fghffffhigfggg ",
" jkklkmnonnjnpo ",
" qqqrqrsqtruqvs ",
" wxywzAzBCzywDw ",
"  EFFFFFFGFHFF  ",
"                "};
