/* XPM */
static char * tip_xpm[] = {
"16 16 98 2",
"  	c None",
". 	c #BAA801",
"+ 	c #D1C600",
"@ 	c #CDC300",
"# 	c #AC9204",
"$ 	c #DCD100",
"% 	c #FDFC00",
"& 	c #FEFC00",
"* 	c #FCF300",
"= 	c #EEDC00",
"- 	c #B69D02",
"; 	c #E5C500",
"> 	c #FCEC00",
", 	c #FCF500",
"' 	c #F7E600",
") 	c #F2DA00",
"! 	c #EED300",
"~ 	c #E3C400",
"{ 	c #9C7E01",
"] 	c #AF8D02",
"^ 	c #DEB601",
"/ 	c #E6C602",
"( 	c #EFD401",
"_ 	c #FEF700",
": 	c #FEF800",
"< 	c #E6C300",
"[ 	c #E2C000",
"} 	c #B18E00",
"| 	c #B89107",
"1 	c #CDA108",
"2 	c #D7B008",
"3 	c #E4C208",
"4 	c #F6DC06",
"5 	c #F5DB04",
"6 	c #DAB302",
"7 	c #CFA400",
"8 	c #B99200",
"9 	c #695200",
"0 	c #AE881A",
"a 	c #BB8B11",
"b 	c #CA9E11",
"c 	c #D4AC10",
"d 	c #D7B10E",
"e 	c #D1A70C",
"f 	c #C49508",
"g 	c #BC8A04",
"h 	c #B28A01",
"i 	c #624A00",
"j 	c #9C7C30",
"k 	c #BE9336",
"l 	c #BD8E21",
"m 	c #BD8E1B",
"n 	c #BD8F18",
"o 	c #BD8D16",
"p 	c #BC8B14",
"q 	c #BF8C0E",
"r 	c #947006",
"s 	c #95772A",
"t 	c #BB964C",
"u 	c #D2AC5D",
"v 	c #D8B260",
"w 	c #D4AF5C",
"x 	c #D0A957",
"y 	c #CD9F3F",
"z 	c #A67920",
"A 	c #453407",
"B 	c #948057",
"C 	c #C8A136",
"D 	c #B58E4B",
"E 	c #D4B178",
"F 	c #DFBF8F",
"G 	c #C8AB80",
"H 	c #987C53",
"I 	c #382B16",
"J 	c #87869C",
"K 	c #B0ADB0",
"L 	c #B69A62",
"M 	c #B18D4D",
"N 	c #AE884A",
"O 	c #796141",
"P 	c #4A3C2C",
"Q 	c #A9A7B2",
"R 	c #CBCAC7",
"S 	c #DCDBDB",
"T 	c #CCC3BA",
"U 	c #A99E96",
"V 	c #706E80",
"W 	c #BDBBC4",
"X 	c #E8E7E8",
"Y 	c #E4E4E7",
"Z 	c #C1C0CA",
"` 	c #6A697B",
" .	c #A2A0B5",
"..	c #DEDEEB",
"+.	c #DCDCED",
"@.	c #A4A2B8",
"#.	c #9F9DAE",
"$.	c #9D9CA5",
"                                ",
"              . + @             ",
"          # $ % & * = -         ",
"          ; > , ' ) ! ~ {       ",
"        ] ^ / ( _ : < [ }       ",
"        | 1 2 3 4 5 6 7 8 9     ",
"        0 a b c d e f g h i     ",
"        j k l m n o p q r       ",
"        s t u v w x y z A       ",
"        B C D E F G H I         ",
"      J K L M N O P             ",
"      Q R S T U V               ",
"      W X Y Z `                 ",
"       ...+.@.                  ",
"        #.$.                    ",
"                                "};
