/* XPM */
static char * tool_pause_xpm[] = {
"32 32 4 1",
" 	c None",
".	c #FDD082",
"+	c #E18F01",
"@	c #96630A",
"                                ",
"                                ",
"                                ",
"                                ",
"      .......      .......      ",
"      .+++++@      .+++++@      ",
"      .+++++@      .+++++@      ",
"      .+++++@      .+++++@      ",
"      .+++++@      .+++++@      ",
"      .+++++@      .+++++@      ",
"      .+++++@      .+++++@      ",
"      .+++++@      .+++++@      ",
"      .+++++@      .+++++@      ",
"      .+++++@      .+++++@      ",
"      .+++++@      .+++++@      ",
"      .+++++@      .+++++@      ",
"      .+++++@      .+++++@      ",
"      .+++++@      .+++++@      ",
"      .+++++@      .+++++@      ",
"      .+++++@      .+++++@      ",
"      .+++++@      .+++++@      ",
"      .+++++@      .+++++@      ",
"      .+++++@      .+++++@      ",
"      .+++++@      .+++++@      ",
"      .+++++@      .+++++@      ",
"      .+++++@      .+++++@      ",
"      .+++++@      .+++++@      ",
"      .@@@@@@      .@@@@@@      ",
"                                ",
"                                ",
"                                ",
"                                "};
