/* XPM */
static char * tool_delete_xpm[] = {
"32 32 4 1",
" 	c None",
".	c #FF9292",
"+	c #F91515",
"@	c #B30101",
"                                ",
"                                ",
"                                ",
"       .                .       ",
"      .+.              .+.      ",
"     .+++.            .+++.     ",
"    .+++++.          .+++++.    ",
"   .+++++++.        .+++++++.   ",
"    @+++++++.      .+++++++@    ",
"     @+++++++.    .+++++++@     ",
"      @+++++++.  .+++++++@      ",
"       @+++++++..+++++++@       ",
"        @++++++++++++++@        ",
"         @++++++++++++@         ",
"          @++++++++++@          ",
"           @++++++++@           ",
"           .++++++++.           ",
"          .++++++++++.          ",
"         .++++++++++++.         ",
"        .++++++++++++++.        ",
"       .+++++++@@+++++++.       ",
"      .+++++++@  @+++++++.      ",
"     .+++++++@    @+++++++.     ",
"    .+++++++@      @+++++++.    ",
"   .+++++++@        @+++++++.   ",
"    @+++++@          @+++++@    ",
"     @+++@            @+++@     ",
"      @+@              @+@      ",
"       @                @       ",
"                                ",
"                                ",
"                                "};
