/* XPM */
static char * tool_search_24_xpm[] = {
"24 24 231 2",
"  	c None",
". 	c #ABD0F7",
"+ 	c #BDD7F2",
"@ 	c #BBD3EF",
"# 	c #B8CFEB",
"$ 	c #B5C9E5",
"% 	c #B1C4E0",
"& 	c #AEBFDB",
"* 	c #AAB9D6",
"= 	c #A7B5D1",
"- 	c #A5B1CE",
"; 	c #8998C0",
"> 	c #CAE3FC",
", 	c #FEFEFF",
"' 	c #FCFEFE",
") 	c #FAFDFE",
"! 	c #F8FBFD",
"~ 	c #F6FAFD",
"{ 	c #F3F8FC",
"] 	c #F0F6FC",
"^ 	c #EEF4FB",
"/ 	c #ECF3FB",
"( 	c #A2B8DA",
"_ 	c #70A6DB",
": 	c #C9E0FA",
"< 	c #FCFEFF",
"[ 	c #FBFDFF",
"} 	c #F9FCFF",
"| 	c #F6FBFF",
"1 	c #F4FAFF",
"2 	c #F2F8FF",
"3 	c #EEF7FF",
"4 	c #ECF6FF",
"5 	c #E9F4FE",
"6 	c #9EBBE0",
"7 	c #62B7F7",
"8 	c #5392D2",
"9 	c #C6DBF5",
"0 	c #FAFDFF",
"a 	c #F8FBFF",
"b 	c #F3F9FF",
"c 	c #F0F8FF",
"d 	c #EAF5FF",
"e 	c #E7F3FF",
"f 	c #E5F2FF",
"g 	c #A0BAE0",
"h 	c #59A3E7",
"i 	c #509CE4",
"j 	c #627DB5",
"k 	c #C3D8F0",
"l 	c #F7FBFF",
"m 	c #EDF5FD",
"n 	c #ECF5FE",
"o 	c #E6F3FF",
"p 	c #E4F1FF",
"q 	c #E0F0FF",
"r 	c #D4E5F9",
"s 	c #C9D9F5",
"t 	c #C4D4F4",
"u 	c #A6B2E1",
"v 	c #C0D3EC",
"w 	c #F3FAFF",
"x 	c #E1E8F1",
"y 	c #BBC7DC",
"z 	c #AFC4DD",
"A 	c #B8C9E3",
"B 	c #CAD6E8",
"C 	c #E2F1FE",
"D 	c #DFF0FF",
"E 	c #DCEEFE",
"F 	c #D8ECFF",
"G 	c #D5EBFE",
"H 	c #D2E9FE",
"I 	c #AEBCEA",
"J 	c #BBCDE6",
"K 	c #DBE3EE",
"L 	c #CCD7E7",
"M 	c #D7F1FC",
"N 	c #BDECFE",
"O 	c #BAE9FE",
"P 	c #A9CFEF",
"Q 	c #B0BFDA",
"R 	c #D5E8FA",
"S 	c #D7ECFF",
"T 	c #D3E9FF",
"U 	c #D0E8FE",
"V 	c #CDE6FF",
"W 	c #ACBBE9",
"X 	c #B6C6E0",
"Y 	c #BECFE2",
"Z 	c #D3EFFB",
"` 	c #C5EAFE",
" .	c #B5E6FE",
"..	c #B9EBFE",
"+.	c #C0F1FE",
"@.	c #A6C6E2",
"#.	c #B9CAE1",
"$.	c #CEE8FE",
"%.	c #CBE6FE",
"&.	c #C8E4FE",
"*.	c #AAB9E8",
"=.	c #ACB9D3",
"-.	c #AECAE4",
";.	c #B9E8FE",
">.	c #B6E7FE",
",.	c #CAF9FE",
"'.	c #D4FDFF",
").	c #D2FDFF",
"!.	c #B9DFEC",
"~.	c #A7B9D3",
"{.	c #CBE4FC",
"].	c #CAE5FE",
"^.	c #C7E4FE",
"/.	c #C4E2FE",
"(.	c #A8B8E7",
"_.	c #A6B2CB",
":.	c #A8C4E1",
"<.	c #B6E6FE",
"[.	c #BFF0FE",
"}.	c #DCFFFF",
"|.	c #ECFFFF",
"1.	c #EAFFFF",
"2.	c #C2E1E8",
"3.	c #A0B3CC",
"4.	c #C6E2FA",
"5.	c #C5E3FE",
"6.	c #C2E1FE",
"7.	c #BFE0FE",
"8.	c #A5B7E7",
"9.	c #AAB4CE",
"0.	c #AABDD6",
"a.	c #B3DFF9",
"b.	c #C3F4FE",
"c.	c #DDFFFF",
"d.	c #F0FFFF",
"e.	c #F8FFFF",
"f.	c #AFC3D5",
"g.	c #A5BAD4",
"h.	c #C3E2FD",
"i.	c #C0E1FE",
"j.	c #BEDFFE",
"k.	c #BADEFE",
"l.	c #A3B6E6",
"m.	c #BAAA9C",
"n.	c #ABB0BA",
"o.	c #9AAECC",
"p.	c #BAE6F7",
"q.	c #D3FDFF",
"r.	c #DDFCFE",
"s.	c #C6D3E3",
"t.	c #94A3BC",
"u.	c #BAD7F2",
"v.	c #BCDFFE",
"w.	c #B9DDFE",
"x.	c #B6DCFE",
"y.	c #A1B4E4",
"z.	c #EBA64C",
"A.	c #EEA544",
"B.	c #A6855A",
"C.	c #96A1AF",
"D.	c #94A2BE",
"E.	c #93A5BF",
"F.	c #98A6C1",
"G.	c #9AADC6",
"H.	c #BCDCF8",
"I.	c #BEE0FE",
"J.	c #BBDEFE",
"K.	c #B8DCFE",
"L.	c #B4DBFE",
"M.	c #B2DAFE",
"N.	c #9FB4E3",
"O.	c #EBA64B",
"P.	c #EAA141",
"Q.	c #BC8641",
"R.	c #98979B",
"S.	c #BDD3E9",
"T.	c #C7E2FA",
"U.	c #BCD7F0",
"V.	c #BCD9F3",
"W.	c #BFDFFC",
"X.	c #BDDFFE",
"Y.	c #BADDFE",
"Z.	c #B7DCFE",
"`.	c #B4DAFE",
" +	c #B1D9FE",
".+	c #AED8FE",
"++	c #9DB3E2",
"@+	c #DB9F4B",
"#+	c #EEA543",
"$+	c #BB8641",
"%+	c #90827D",
"&+	c #B8CEE3",
"*+	c #C8E3FC",
"=+	c #C6E4FF",
"-+	c #C2E2FE",
";+	c #B3DAFE",
">+	c #B0D9FE",
",+	c #ABD6FE",
"'+	c #9BB1E1",
")+	c #877B6B",
"!+	c #A17845",
"~+	c #7D7172",
"{+	c #8C8DA3",
"]+	c #B8DDFE",
"^+	c #AFD8FE",
"/+	c #ACD6FE",
"(+	c #A9D5FE",
"_+	c #A7D5FE",
":+	c #9AB0E0",
"<+	c #6C696B",
"[+	c #9899B3",
"}+	c #C3E2FE",
"|+	c #C0E0FE",
"1+	c #ABD7FE",
"2+	c #A7D4FE",
"3+	c #A4D3FE",
"4+	c #98B0E0",
"5+	c #8084AD",
"6+	c #9DABD3",
"7+	c #9BAAD2",
"8+	c #9AA9D2",
"9+	c #98A8D2",
"0+	c #96A7D1",
"a+	c #94A6D1",
"b+	c #92A4D1",
"c+	c #91A3D0",
"d+	c #8FA2D0",
"e+	c #8DA1D0",
"f+	c #8CA0CF",
"g+	c #8B9FCF",
"h+	c #7D8ABC",
"                                                ",
"                                                ",
"                                                ",
"          . + @ # $ % & * = - ;                 ",
"          > , ' ) ! ~ { ] ^ / ( _               ",
"          : < [ } | 1 2 3 4 5 6 7 8             ",
"          9 0 a | b c 3 d e f g h i j           ",
"          k l 1 2 m n d o p q r s t u           ",
"          v w x y z A B C D E F G H I           ",
"          J K L M N O P Q R S T U V W           ",
"          X Y Z `  ...+.@.#.H $.%.&.*.          ",
"          =.-.;.>.,.'.).!.~.{.].^./.(.          ",
"          _.:.<.[.}.|.1.2.3.4.5.6.7.8.          ",
"          9.0.a.b.c.d.e.f.g.h.i.j.k.l.          ",
"          m.n.o.p.q.r.s.t.u.i.v.w.x.y.          ",
"        z.A.B.C.D.E.F.G.H.I.J.K.L.M.N.          ",
"      O.P.Q.R.S.T.U.V.W.X.Y.Z.`. +.+++          ",
"    @+#+$+%+&+*+=+-+7.v.w.x.;+>+.+,+'+          ",
"    )+!+~+{+&.5.6.j.J.]+`. +^+/+(+_+:+          ",
"      <+  [+}+|+X.Y.x.`.>+.+1+(+2+3+4+          ",
"          5+6+7+8+9+0+a+b+c+d+e+f+g+h+          ",
"                                                ",
"                                                ",
"                                                "};
