/* XPM */
static char * tool_option_xpm[] = {
"32 32 257 2",
"  	c None",
". 	c #909090",
"+ 	c #9E9E9E",
"@ 	c #969696",
"# 	c #A9A9A9",
"$ 	c #858585",
"% 	c #D03F0B",
"& 	c #DD6E42",
"* 	c #E07B51",
"= 	c #DF7A51",
"- 	c #D86133",
"; 	c #A7A7A7",
"> 	c #E0E0E0",
", 	c #E1E1E1",
"' 	c #8C8C8C",
") 	c #CCCCCC",
"! 	c #E5E5E5",
"~ 	c #D9D9D9",
"{ 	c #929292",
"] 	c #D85C2D",
"^ 	c #F6C9A8",
"/ 	c #FCDFBF",
"( 	c #FDE0BF",
"_ 	c #FCDEBF",
": 	c #EFAD89",
"< 	c #B93A0D",
"[ 	c #9F9F9F",
"} 	c #E4E4E4",
"| 	c #EAEAEA",
"1 	c #E6E6E6",
"2 	c #A5A5A5",
"3 	c #DDDDDD",
"4 	c #E9E9E9",
"5 	c #DBDBDB",
"6 	c #838383",
"7 	c #F4BE97",
"8 	c #FDDCB2",
"9 	c #FFDFB2",
"0 	c #FFE0B2",
"a 	c #FEDFB2",
"b 	c #FCDAB2",
"c 	c #E68C61",
"d 	c #888888",
"e 	c #D7D7D7",
"f 	c #E8E8E8",
"g 	c #EBEBEB",
"h 	c #DFDFDF",
"i 	c #C2C2C2",
"j 	c #D85B29",
"k 	c #FBD0A4",
"l 	c #FFD9A4",
"m 	c #FFDAA4",
"n 	c #FED7A4",
"o 	c #F5BA8E",
"p 	c #852100",
"q 	c #A8A8A8",
"r 	c #E3E3E3",
"s 	c #AAAAAA",
"t 	c #848484",
"u 	c #DA6131",
"v 	c #FBCA94",
"w 	c #FFD394",
"x 	c #FFD494",
"y 	c #FED294",
"z 	c #F7BD8B",
"A 	c #832100",
"B 	c #C1C1C1",
"C 	c #ADADAD",
"D 	c #818181",
"E 	c #E7E7E7",
"F 	c #DA5E2B",
"G 	c #FAC181",
"H 	c #FFCC81",
"I 	c #FFCD81",
"J 	c #FECA81",
"K 	c #F6B47A",
"L 	c #CDCDCD",
"M 	c #BFBFBF",
"N 	c #979797",
"O 	c #DEDEDE",
"P 	c #B5B5B5",
"Q 	c #D95A25",
"R 	c #FAB870",
"S 	c #FEC570",
"T 	c #FFC670",
"U 	c #FFC46B",
"V 	c #FFB545",
"W 	c #FDAD3B",
"X 	c #F39B4B",
"Y 	c #CFCFCF",
"Z 	c #E2E2E2",
"` 	c #DCDCDC",
" .	c #A4A4A4",
"..	c #7B7B7B",
"+.	c #8F8F8F",
"@.	c #C8C8C8",
"#.	c #B8B8B8",
"$.	c #D8571F",
"%.	c #F9B05E",
"&.	c #FEBE5E",
"*.	c #FFBF5E",
"=.	c #FFB340",
"-.	c #FF9C08",
";.	c #FF9A02",
">.	c #FD9502",
",.	c #EE7302",
"'.	c #C4C4C4",
").	c #D8D8D8",
"!.	c #DADADA",
"~.	c #D3D3D3",
"{.	c #9C9C9C",
"].	c #D74B0B",
"^.	c #F79629",
"/.	c #FEAB32",
"(.	c #FFAF36",
"_.	c #FFAC30",
":.	c #FFA41B",
"<.	c #FF9D0A",
"[.	c #FD9809",
"}.	c #EF7608",
"|.	c #B3B3B3",
"1.	c #CECECE",
"2.	c #BDBDBD",
"3.	c #8E8E8E",
"4.	c #D64706",
"5.	c #F68B14",
"6.	c #FEA017",
"7.	c #FFA217",
"8.	c #FD9D16",
"9.	c #EF7C12",
"0.	c #989898",
"a.	c #D2D2D2",
"b.	c #D0D0D0",
"c.	c #B2B2B2",
"d.	c #696969",
"e.	c #D74A0A",
"f.	c #F79324",
"g.	c #FEA728",
"h.	c #FFA928",
"i.	c #FDA427",
"j.	c #F0831F",
"k.	c #ABABAB",
"l.	c #D1D1D1",
"m.	c #CBCBCB",
"n.	c #BEBEBE",
"o.	c #2B2B2B",
"p.	c #D74D0F",
"q.	c #F79B35",
"r.	c #FEAF3B",
"s.	c #FFB13C",
"t.	c #FDAC3A",
"u.	c #F18B2E",
"v.	c #C3C3C3",
"w.	c #A6A6A6",
"x.	c #585858",
"y.	c #D85014",
"z.	c #F8A548",
"A.	c #FEB851",
"B.	c #FFBA52",
"C.	c #FDB54F",
"D.	c #F2943F",
"E.	c #B1B1B1",
"F.	c #6C6C6C",
"G.	c #D85219",
"H.	c #F8AD5B",
"I.	c #FEC166",
"J.	c #FFC268",
"K.	c #FDBD64",
"L.	c #F39C4F",
"M.	c #AEAEAE",
"N.	c #C9C9C9",
"O.	c #919191",
"P.	c #D54C14",
"Q.	c #F7B069",
"R.	c #FEC87A",
"S.	c #FFCB7D",
"T.	c #FFCB7E",
"U.	c #FFCC7E",
"V.	c #FDC477",
"W.	c #F09854",
"X.	c #7A1F00",
"Y.	c #777777",
"Z.	c #EE9759",
"`.	c #FCC784",
" +	c #FED08E",
".+	c #FFD28F",
"++	c #FFD290",
"@+	c #FFD18F",
"#+	c #FECF8C",
"$+	c #FAC07F",
"%+	c #E06F35",
"&+	c #390E00",
"*+	c #A3A3A3",
"=+	c #737373",
"-+	c #CC4915",
";+	c #F0A067",
">+	c #F9C288",
",+	c #FBC78E",
"'+	c #FBC88F",
")+	c #FAC68D",
"!+	c #F8BE84",
"~+	c #E8864D",
"{+	c #852504",
"]+	c #CACACA",
"^+	c #9F2A02",
"/+	c #BD4E20",
"(+	c #CE6C43",
"_+	c #D5744A",
":+	c #D37248",
"<+	c #C66136",
"[+	c #AC3D12",
"}+	c #631900",
"|+	c #D4D4D4",
"1+	c #B6B6B6",
"2+	c #D6D6D6",
"3+	c #D5D5D5",
"4+	c #747474",
"5+	c #BABABA",
"6+	c #6B6B6B",
"7+	c #C7C7C7",
"8+	c #757575",
"9+	c #A0A0A0",
"0+	c #BCBCBC",
"a+	c #767676",
"b+	c #6D6D6D",
"c+	c #AFAFAF",
"d+	c #ACACAC",
"e+	c #717171",
"f+	c #787878",
"g+	c #7F7F7F",
"h+	c #B4B4B4",
"i+	c #B9B9B9",
"j+	c #959595",
"k+	c #646464",
"l+	c #525252",
"m+	c #B0B0B0",
"n+	c #A2A2A2",
"o+	c #606060",
"p+	c #C6C6C6",
"q+	c #3E3E3E",
"r+	c #9B9B9B",
"s+	c #6F6F6F",
"t+	c #999999",
"u+	c #4B4B4B",
"v+	c #7C7C7C",
"w+	c #555555",
"x+	c #868686",
"y+	c #292929",
"z+	c #8B8B8B",
"A+	c #C0C0C0",
"B+	c #262626",
"C+	c #ECECEC",
"D+	c #666666",
"E+	c #878787",
"F+	c #414141",
"G+	c #8A8A8A",
"H+	c #434343",
"        . +           @ # $               % & * * * = -         ",
"      ; > , '         ) ! ~ {           ] ^ / ( ( ( ( _ : <     ",
"    [ } | 1 2         3 | 4 5 6         7 8 9 0 0 0 0 a b c     ",
"  d e f g 1 #         h | g 1 i       j k l m m m m m m n o p   ",
"  q r 4 4 } s         3 f | f h t     u v w x x x x x x y z A   ",
"  B } f f r C       D 3 1 f E , s     F G H I I I I I I J K A   ",
"  L r 1 1 r M       N O ! 1 1 , P     Q R S T T T T U V W X A   ",
"  Y Z } } r `  ...+.@.> } } } h #.    $.%.&.*.*.*.=.-.;.>.,.A   ",
"  '.h Z Z Z > ` ).~ O > !.~.Y '.{.    ].^./.(._.:.<.<.<.[.}.A   ",
"  |.!.> > > > > h h e 1.L L ) 2.3.    4.5.6.7.7.7.7.7.7.8.9.A   ",
"  0.a.3 O O O O 5 b.L L L L @.c.d.    e.f.g.h.h.h.h.h.h.i.j.A   ",
"    k.l.` ` !.~.L L L L L m.n.N o.    p.q.r.s.s.s.s.s.s.t.u.A   ",
"    t c.@.1.L L L L L L ) v.w.x.      y.z.A.B.B.B.B.B.B.C.D.A   ",
"      +.2.m.L L L L L L @.E.F.        G.H.I.J.J.J.J.J.J.K.L.A   ",
"        M.N.1.1.1.1.1.L i O.          P.Q.R.S.T.U.U.T.S.V.W.X.  ",
"        2 @.Y Y Y Y Y 1.n.Y.            Z.`. +.+++++@+#+$+%+&+  ",
"        *+N.b.b.b.b.b.Y 2.=+            -+;+>+,+'+'+)+!+~+{+    ",
"         .]+a.a.a.a.a.l.n.=+              ^+/+(+_+:+<+[+}+      ",
"        w.L |+|+|+|+|+~.B =+                  {.B 1+d.          ",
"        q Y 2+2+2+2+2+3+'.4+                  + '.5+6+          ",
"        s a.~ ~ ~ ~ ~ ).7+8+                  9+7+0+F.          ",
"        C 3+` ` ` ` ` !.]+a+                   .m.i b+          ",
"        c+).O O O O O 3 L Y.                  d+l.]+e+          ",
"        E.!.> O ` ` h h b.f+                N N.~ 3+c+g+        ",
"        h+` O m.C i+~ > ~.f+              j+]+5 h O 3+h+k+      ",
"        P O 3+4+  l+m+O 3+f+              n+e Z r r h N.o+      ",
"        |.h p+q+    r+h 2+s+              t+!.! 1 1 Z B u+      ",
"        w.O ~ v+    1+, 1.w+              x+2+E | 4 Z d+y+      ",
"        z+3+r |+h+A+, h s B+                p+f C+g , .         ",
"          {.3+, Z Z 3 #.w+                  d+> 1 ! 3+D+        ",
"            a+9+m+k.E+F+                    G+n+; 2 t+H+        ",
"                                                                "};
