/* XPM */
static char * tool_search_xpm[] = {
"32 32 329 2",
"  	c None",
". 	c #A0CAF5",
"+ 	c #A8CAEF",
"@ 	c #A7C7EC",
"# 	c #A4C3E8",
"$ 	c #A2BFE4",
"% 	c #9FBADF",
"& 	c #9CB5DA",
"* 	c #99B0D5",
"= 	c #97ABCF",
"- 	c #93A6CB",
"; 	c #91A2C6",
"> 	c #8F9EC2",
", 	c #8D9BBF",
"' 	c #7E8CB7",
") 	c #CBE4FD",
"! 	c #FEFFFF",
"~ 	c #FDFEFE",
"{ 	c #FCFDFD",
"] 	c #FAFCFD",
"^ 	c #F8FAFC",
"/ 	c #F7F9FB",
"( 	c #F5F8FA",
"_ 	c #F3F6FA",
": 	c #F1F5F9",
"< 	c #EFF3F8",
"[ 	c #EDF2F7",
"} 	c #EBF1F7",
"| 	c #AFBAD6",
"1 	c #7E9FCB",
"2 	c #CAE2FB",
"3 	c #FEFEFF",
"4 	c #FDFEFF",
"5 	c #FCFDFF",
"6 	c #FAFDFF",
"7 	c #F9FCFF",
"8 	c #F7FBFF",
"9 	c #F5FAFF",
"0 	c #F3F9FF",
"a 	c #F1F8FF",
"b 	c #EFF7FF",
"c 	c #EDF6FF",
"d 	c #EBF5FF",
"e 	c #AEB9D8",
"f 	c #78C6FE",
"g 	c #598CC8",
"h 	c #C8DFF9",
"i 	c #FCFEFF",
"j 	c #FBFDFF",
"k 	c #F8FCFF",
"l 	c #F6FBFF",
"m 	c #EEF7FF",
"n 	c #ECF6FF",
"o 	c #EAF5FF",
"p 	c #E8F4FE",
"q 	c #AAB6D5",
"r 	c #47B1FE",
"s 	c #5789C4",
"t 	c #C6DCF6",
"u 	c #F4FAFF",
"v 	c #F2F9FF",
"w 	c #F0F8FF",
"x 	c #E9F4FF",
"y 	c #E7F3FF",
"z 	c #E5F2FF",
"A 	c #ABB6D5",
"B 	c #409BE6",
"C 	c #3193E4",
"D 	c #2F90E2",
"E 	c #4F6FA9",
"F 	c #C4D9F2",
"G 	c #E8F4FF",
"H 	c #E6F3FF",
"I 	c #E4F2FF",
"J 	c #E1F1FE",
"K 	c #D4E3F6",
"L 	c #BEC8ED",
"M 	c #B8C3EB",
"N 	c #B1BDE9",
"O 	c #9DA6D8",
"P 	c #C2D6EF",
"Q 	c #F0F7FE",
"R 	c #EAF2FA",
"S 	c #E9F2FB",
"T 	c #E9F4FE",
"U 	c #E5F3FF",
"V 	c #E3F1FF",
"W 	c #E1F0FF",
"X 	c #DEEFFF",
"Y 	c #DBEEFF",
"Z 	c #D9EDFE",
"` 	c #D6EBFF",
" .	c #D4EAFE",
"..	c #B0BDEA",
"+.	c #BFD2EB",
"@.	c #EFF7FD",
"#.	c #C7CDDD",
"$.	c #A0AFCC",
"%.	c #98B1D0",
"&.	c #A5BDDF",
"*.	c #AAB8D6",
"=.	c #C8D2E4",
"-.	c #E1F0FD",
";.	c #E0F0FE",
">.	c #DDEFFF",
",.	c #DAEDFE",
"'.	c #D8ECFF",
").	c #D5EBFE",
"!.	c #D3EAFF",
"~.	c #D0E8FE",
"{.	c #AEBCEA",
"].	c #BCCEE7",
"^.	c #EFF6FC",
"/.	c #B8BFD4",
"(.	c #D3DFEE",
"_.	c #D7F7FF",
":.	c #C4F2FE",
"<.	c #BEEDFE",
"[.	c #BDECFE",
"}.	c #99B8E4",
"|.	c #AAB4CE",
"1.	c #DBEDFD",
"2.	c #DAEDFF",
"3.	c #D7ECFF",
"4.	c #D4EAFF",
"5.	c #D2E9FE",
"6.	c #CFE8FE",
"7.	c #CDE6FF",
"8.	c #ACBBE9",
"9.	c #B9CAE3",
"0.	c #C9CFDF",
"a.	c #C5DFF1",
"b.	c #FEFFFE",
"c.	c #CFEFFE",
"d.	c #AEDFFE",
"e.	c #ABDDFE",
"f.	c #B1E3FE",
"g.	c #C1F0FE",
"h.	c #93B1DA",
"i.	c #B6C4D9",
"j.	c #D1E9FF",
"k.	c #CEE7FE",
"l.	c #CCE6FE",
"m.	c #C9E5FE",
"n.	c #ABBAE9",
"o.	c #B4C3DC",
"p.	c #ABBCD7",
"q.	c #CEF8FE",
"r.	c #BBE6FE",
"s.	c #ACDFFE",
"t.	c #BAECFE",
"u.	c #C3F5FE",
"v.	c #C6F8FE",
"w.	c #BFEEFD",
"x.	c #8791B2",
"y.	c #D0E7FC",
"z.	c #D0E8FF",
"A.	c #CDE7FE",
"B.	c #CBE6FE",
"C.	c #C8E4FE",
"D.	c #C6E3FE",
"E.	c #A9B9E8",
"F.	c #A9B6D0",
"G.	c #A5BEDC",
"H.	c #BFEEFE",
"I.	c #ACDDFE",
"J.	c #BCEDFE",
"K.	c #CCFCFE",
"L.	c #D7FFFF",
"M.	c #DBFFFF",
"N.	c #D6FFFF",
"O.	c #CEFCFF",
"P.	c #8695B3",
"Q.	c #C4DBF1",
"R.	c #CAE5FE",
"S.	c #C7E4FE",
"T.	c #C5E3FF",
"U.	c #C2E2FE",
"V.	c #A7B8E7",
"W.	c #A5B1CA",
"X.	c #A0B8DA",
"Y.	c #ACDEFE",
"Z.	c #C4F5FE",
"`.	c #E6FFFF",
" +	c #ECFFFF",
".+	c #E4FFFF",
"++	c #D8FFFF",
"@+	c #8492AC",
"#+	c #BED7ED",
"$+	c #C6E4FE",
"%+	c #C4E2FE",
"&+	c #C1E1FE",
"*+	c #BFE0FE",
"=+	c #A6B7E7",
"-+	c #A0AECD",
";+	c #B2E4FE",
">+	c #C8F9FE",
",+	c #EEFFFF",
"'+	c #FAFEFF",
")+	c #F3FFFF",
"!+	c #D5F7FA",
"~+	c #7A829F",
"{+	c #C2DEF7",
"]+	c #C5E3FE",
"^+	c #C3E2FE",
"/+	c #C0E1FE",
"(+	c #BEDFFE",
"_+	c #BBDEFE",
":+	c #A4B6E6",
"<+	c #AAB4CD",
"[+	c #B2BCCD",
"}+	c #9DBDE8",
"|+	c #C5F6FE",
"1+	c #F4FEFF",
"2+	c #A2AEC9",
"3+	c #96A8BC",
"4+	c #BDDFFE",
"5+	c #B8DDFE",
"6+	c #A2B5E5",
"7+	c #BFA68B",
"8+	c #B4B6B7",
"9+	c #8D8DA1",
"0+	c #98B5DE",
"a+	c #C0EFFC",
"b+	c #D7F8FB",
"c+	c #A9B4CF",
"d+	c #818DA4",
"e+	c #BCDAF5",
"f+	c #BCDFFE",
"g+	c #BADDFE",
"h+	c #B7DCFE",
"i+	c #B5DBFE",
"j+	c #A1B4E4",
"k+	c #E6A44C",
"l+	c #FDB14D",
"m+	c #B68139",
"n+	c #868A8E",
"o+	c #939FB2",
"p+	c #7E88A9",
"q+	c #8493B0",
"r+	c #98A5BF",
"s+	c #858CA9",
"t+	c #91A3B8",
"u+	c #BAD8F3",
"v+	c #B9DDFE",
"w+	c #B6DCFE",
"x+	c #B4DBFE",
"y+	c #B2DAFE",
"z+	c #9FB4E3",
"A+	c #E6A34B",
"B+	c #FDB14C",
"C+	c #C6801F",
"D+	c #977F6A",
"E+	c #9CA6BA",
"F+	c #CDE6FD",
"G+	c #C3DDF4",
"H+	c #B3CCE2",
"I+	c #B0CAE1",
"J+	c #BAD6F1",
"K+	c #C0E0FD",
"L+	c #BADEFE",
"M+	c #B6DBFE",
"N+	c #B4DAFE",
"O+	c #B1D9FE",
"P+	c #AFD8FE",
"Q+	c #9EB3E2",
"R+	c #E6A44B",
"S+	c #FDB04C",
"T+	c #987F6A",
"U+	c #8B93A6",
"V+	c #C1D9EE",
"W+	c #C8E5FE",
"X+	c #BEE0FE",
"Y+	c #BCDEFE",
"Z+	c #B3DAFE",
"`+	c #AED8FE",
" @	c #ACD7FE",
".@	c #9CB2E2",
"+@	c #DB9F4B",
"@@	c #858494",
"#@	c #C0D8EE",
"$@	c #C0E1FF",
"%@	c #B0D9FE",
"&@	c #AAD6FE",
"*@	c #9BB1E1",
"=@	c #877B6B",
"-@	c #BB7D28",
";@	c #686678",
">@	c #9396AC",
",@	c #C2E1FE",
"'@	c #ADD7FE",
")@	c #ABD6FE",
"!@	c #A9D5FE",
"~@	c #A7D5FE",
"{@	c #9AB0E0",
"]@	c #6D6A67",
"^@	c #686677",
"/@	c #999AB4",
"(@	c #A7D4FE",
"_@	c #A5D4FE",
":@	c #99B0E0",
"<@	c #9798B1",
"[@	c #C0E0FE",
"}@	c #B2D9FE",
"|@	c #ADD8FE",
"1@	c #ABD7FE",
"2@	c #A8D5FE",
"3@	c #A6D4FE",
"4@	c #A5D3FE",
"5@	c #A3D3FE",
"6@	c #97AFDF",
"7@	c #797DAC",
"8@	c #9199C4",
"9@	c #9099C4",
"0@	c #8F98C3",
"a@	c #8E97C3",
"b@	c #8D97C3",
"c@	c #8C96C3",
"d@	c #8B95C2",
"e@	c #8A94C2",
"f@	c #8993C2",
"g@	c #8892C1",
"h@	c #8791C1",
"i@	c #8691C0",
"j@	c #8590C0",
"k@	c #848FC0",
"l@	c #838EBF",
"m@	c #828EC0",
"n@	c #747DB0",
"                                                                ",
"                                                                ",
"                                                                ",
"                                                                ",
"              . + @ # $ % & * = - ; > , '                       ",
"              ) ! ~ { ] ^ / ( _ : < [ } | 1                     ",
"              2 3 4 5 6 7 8 9 0 a b c d e f g                   ",
"              h i j 6 k l 9 0 a m n o p q f r s                 ",
"              t j 7 8 l u v w m n x y z A B C D E               ",
"              F 7 8 9 0 a b c d G H I J K L M N O               ",
"              P l u v Q R S T G U V W X Y Z `  ...              ",
"              +.u @.#.$.%.&.*.=.-.;.>.,.'.).!.~.{.              ",
"              ].^./.(._.:.<.[.}.|.1.2.3.4.5.6.7.8.              ",
"              9.0.a.b.c.d.e.f.g.h.i.`  .j.k.l.m.n.              ",
"              o.p.q.r.s.t.u.v.u.w.x.y.z.A.B.C.D.E.              ",
"              F.G.H.I.J.K.L.M.N.O.P.Q.l.R.S.T.U.V.              ",
"              W.X.H.Y.Z.L.`. +.+++@+#+m.$+%+&+*+=+              ",
"              |.-+[.;+>+M.,+'+)+!+~+{+]+^+/+(+_+:+              ",
"              <+[+}+g.|+L..+1+b.2+3+%+U.*+4+_+5+6+              ",
"              7+8+9+0+a+O.++b+c+d+e+&+*+f+g+h+i+j+              ",
"            k+l+m+n+o+p+q+r+s+t+u+/+(+_+v+w+x+y+z+              ",
"          A+B+C+D+E+F+G+H+I+J+K+*+4+L+5+M+N+O+P+Q+              ",
"        R+S+C+T+U+V+B.W+D.^+&+X+Y+g+h+i+Z+O+`+ @.@              ",
"      +@S+C+D+@@#@R.C.T.U.$@4+_+v+w+x+y+%@`+ @&@*@              ",
"      =@-@T+;@>@m.S.%+,@*+4+L+5+M+Z+O+P+'@)@!@~@{@              ",
"        ]@^@  /@D.^+&+X+Y+v+h+i+y+%@`+ @&@!@(@_@:@              ",
"              <@U.[@4+_+v+w+x+}@%@|@1@&@2@3@4@5@6@              ",
"              7@8@9@0@a@b@c@d@e@f@g@h@i@j@k@l@m@n@              ",
"                                                                ",
"                                                                ",
"                                                                ",
"                                                                "};
