/* XPM */
static char * tool_new_xpm[] = {
"24 24 142 2",
"  	c None",
". 	c #7198D9",
"+ 	c #628ED5",
"@ 	c #376EC9",
"# 	c #4B7DCE",
"$ 	c #5080CF",
"% 	c #487BCE",
"& 	c #4478CD",
"* 	c #4175CC",
"= 	c #3A70CA",
"- 	c #366BC2",
"; 	c #3366B9",
"> 	c #2E5CA8",
", 	c #6089CD",
"' 	c #7DA1DC",
") 	c #A1BBE6",
"! 	c #A6BFE8",
"~ 	c #A5BEE7",
"{ 	c #9CB8E4",
"] 	c #92B0E2",
"^ 	c #8CABE0",
"/ 	c #82A4DE",
"( 	c #779CD9",
"_ 	c #6790D2",
": 	c #4173C4",
"< 	c #B5C9E9",
"[ 	c #6892D6",
"} 	c #5584D1",
"| 	c #5E89D0",
"1 	c #7197D6",
"2 	c #A0B9E3",
"3 	c #A7BEE5",
"4 	c #BBCEED",
"5 	c #B0C6EA",
"6 	c #A8C0E8",
"7 	c #9DB8E5",
"8 	c #91AFE1",
"9 	c #7CA0DC",
"0 	c #D1DEF3",
"a 	c #DFE8F6",
"b 	c #739AD9",
"c 	c #3366BB",
"d 	c #5782C8",
"e 	c #C4D5F0",
"f 	c #B4C9EB",
"g 	c #9EB8E5",
"h 	c #86A7DE",
"i 	c #FFFFFF",
"j 	c #E6EDF8",
"k 	c #7198D8",
"l 	c #5282D0",
"m 	c #77B085",
"n 	c #8EC873",
"o 	c #4A7FA9",
"p 	c #C2D3EF",
"q 	c #BED0EE",
"r 	c #8DADE1",
"s 	c #ACE95B",
"t 	c #5187A3",
"u 	c #4E7BC5",
"v 	c #A7BFE5",
"w 	c #93B1E2",
"x 	c #AFC5EA",
"y 	c #D2DEF3",
"z 	c #D4E0F3",
"A 	c #4C7ECE",
"B 	c #4A7DCE",
"C 	c #477ACE",
"D 	c #A4E161",
"E 	c #95D06D",
"F 	c #5A84C9",
"G 	c #CEDCF3",
"H 	c #B8CCEC",
"I 	c #8EADE1",
"J 	c #88A9DF",
"K 	c #6891D6",
"L 	c #5B85C9",
"M 	c #D4E1F4",
"N 	c #CBDAF2",
"O 	c #789DDB",
"P 	c #5D86CA",
"Q 	c #DCE6F6",
"R 	c #689F91",
"S 	c #3B6EB5",
"T 	c #5E87CA",
"U 	c #E0E9F7",
"V 	c #DBE5F6",
"W 	c #D7E2F5",
"X 	c #3F6FBF",
"Y 	c #638ACB",
"Z 	c #83A2D7",
"` 	c #E4ECF8",
" .	c #DFE8F7",
"..	c #648ACC",
"+.	c #F5F8FD",
"@.	c #F1F6FC",
"#.	c #EEF4FC",
"$.	c #EAF0FA",
"%.	c #E4ECF9",
"&.	c #E1E9F8",
"*.	c #D4E1F5",
"=.	c #648BCC",
"-.	c #F6F9FD",
";.	c #F4F8FD",
">.	c #F2F6FC",
",.	c #E6EDF9",
"'.	c #E0E9F8",
").	c #3F70C1",
"!.	c #4B79C5",
"~.	c #668CCC",
"{.	c #8AA7D8",
"].	c #F8FAFD",
"^.	c #EDF2FB",
"/.	c #E4EBF8",
"(.	c #AAC2E9",
"_.	c #5383D0",
":.	c #94B2E2",
"<.	c #FEFEFF",
"[.	c #FCFEFF",
"}.	c #FAFCFE",
"|.	c #B4C9EC",
"1.	c #5886D2",
"2.	c #FCFDFF",
"3.	c #F9FBFE",
"4.	c #EEF4FB",
"5.	c #B9CDED",
"6.	c #FDFEFF",
"7.	c #FBFDFE",
"8.	c #BDCFEE",
"9.	c #5B88D3",
"0.	c #638ED5",
"a.	c #C8D7F1",
"b.	c #DCE5F6",
"c.	c #DAE5F6",
"d.	c #D8E3F5",
"e.	c #D6E1F4",
"f.	c #D4E0F4",
"g.	c #D3DFF4",
"h.	c #D0DEF3",
"i.	c #CDDBF2",
"j.	c #B4C8EB",
"k.	c #6B93D7",
"                                                ",
"          . + @ # $ % & * = - ; > , .           ",
"          . ' ) ! ~ { ] ^ / ( _ : < [ }         ",
"          | 1 2 2 3 4 5 6 7 8 9 % 0 a b         ",
"        c c c c c d e 4 f 6 g h % 0 i j k l     ",
"        c m n n o d e p q f 6 r % 0 i i a ' l   ",
"        c n s s t u 2 2 v 4 5 w % x y z 0 x A   ",
"  c c c c n s s t c c c d e 4 { % % B l C * =   ",
"  c m n n D s s E n n o F G e H { w I J 9 K =   ",
"  c n s s s s s s s s t L M N e 4 5 6 7 8 O =   ",
"  c n s s s s s s s s t P Q M G e 4 f 6 g / =   ",
"  c o t t E s s R t t S T U V W G e q f 6 ^ *   ",
"  c c c c n s s t X Y Y Z `  .V M N e 4 5 ] &   ",
"        c n s s t ..+.@.#.$.%.&.Q *.G e 4 { %   ",
"        c o t t S =.-.;.>.#.$.,.'.V W G e ~ $   ",
"        c ).!.~.~.{.].-.;.@.^.$./. .V M N (._.  ",
"          . :.i <.[.}.].-.+.@.#.$.` '.Q M |.1.  ",
"          . :.i i <.2.}.3.-.;.>.4.$.,.U V 5.1.  ",
"          . :.i i i 6.7.}.].-.;.@.^.$.`  .8.9.  ",
"          . :.i i i i <.[.}.].-.+.@.#.$.` p 0.  ",
"          . :.i i i i i <.[.}.3.-.;.>.#.$.a.K   ",
"          . ^ b.b.b.b.b.V c.d.W e.f.g.h.i.j.k.  ",
"          . . . . . . . . . . . . . . . . . .   ",
"                                                "};
