/* XPM */
static char * tool_proxy_xpm[] = {
"32 32 4 1",
" 	c None",
".	c #07F328",
"+	c #0DEA56",
"@	c #A42F01",
"                                ",
"                                ",
"                                ",
"             ......             ",
"          ............          ",
"         ..............         ",
"        ....       .....        ",
"       ...           ....       ",
"      ...             ....      ",
"     ...               ....     ",
"     ..                 ...     ",
"    ..                   ... +++",
"    ..                   ... +++",
"    .                 +++ ..++++",
"   ..                 ++++..++++",
"   ..                 +++++++++ ",
"   ..                  ++++++++ ",
"   ..                   ++++++  ",
"   ..                    +++++  ",
"    .                     +++   ",
"    ..                     .    ",
"    ..                          ",
"     ..            @@@          ",
"     ...          @@@@@         ",
"      ...        @@@@@@@        ",
"       ...       @@@@@@@        ",
"        ....     @@@@@@@        ",
"         ...      @@@@@         ",
"          ..       @@@          ",
"                                ",
"                                ",
"                                "};
