/* XPM */
static char * tool_down_xpm[] = {
"32 32 249 2",
"  	c None",
". 	c #B05501",
"+ 	c #BF5500",
"@ 	c #CE5500",
"# 	c #CC5600",
"$ 	c #CD5600",
"% 	c #CD5700",
"& 	c #CD5800",
"* 	c #CF5800",
"= 	c #C05800",
"- 	c #B25801",
"; 	c #D27323",
"> 	c #E79350",
", 	c #E48F49",
"' 	c #E58E48",
") 	c #E58E46",
"! 	c #E48D44",
"~ 	c #E48C43",
"{ 	c #E78E45",
"] 	c #D3721E",
"^ 	c #C15900",
"/ 	c #CF5600",
"( 	c #E79450",
"_ 	c #FFD5B4",
": 	c #FECCA5",
"< 	c #FECAA2",
"[ 	c #FDC89E",
"} 	c #FDC69A",
"| 	c #FDC496",
"1 	c #FFC89B",
"2 	c #E78F43",
"3 	c #D15B00",
"4 	c #CE5800",
"5 	c #E59048",
"6 	c #FECBA3",
"7 	c #FAC396",
"8 	c #FAC293",
"9 	c #FAC090",
"0 	c #FABF8D",
"a 	c #FABD89",
"b 	c #FDC08D",
"c 	c #E68C3D",
"d 	c #D15E00",
"e 	c #CF5A00",
"f 	c #E59046",
"g 	c #FDC99F",
"h 	c #FAC292",
"i 	c #FAC18F",
"j 	c #FABF8C",
"k 	c #FABE89",
"l 	c #FABB85",
"m 	c #FDBF89",
"n 	c #E68D3C",
"o 	c #D16000",
"p 	c #D05C00",
"q 	c #E69044",
"r 	c #FDC799",
"s 	c #FAC08E",
"t 	c #FABF8B",
"u 	c #FABE88",
"v 	c #FABC85",
"w 	c #FABA81",
"x 	c #FDBE85",
"y 	c #E78E3A",
"z 	c #D36200",
"A 	c #E68F41",
"B 	c #FDC494",
"C 	c #FABE86",
"D 	c #FABC84",
"E 	c #FABB80",
"F 	c #FABA7C",
"G 	c #FCBD81",
"H 	c #E88E38",
"I 	c #D46400",
"J 	c #D26100",
"K 	c #E6903F",
"L 	c #FDC28E",
"M 	c #FABC83",
"N 	c #FABB81",
"O 	c #FABB7F",
"P 	c #FAB878",
"Q 	c #FCBB7D",
"R 	c #E88F36",
"S 	c #D56700",
"T 	c #E7903C",
"U 	c #FDC088",
"V 	c #FABA7E",
"W 	c #FAB979",
"X 	c #FAB877",
"Y 	c #FAB774",
"Z 	c #FCBB78",
"` 	c #E99134",
" .	c #D76A00",
"..	c #D36400",
"+.	c #E7903A",
"@.	c #FDBF83",
"#.	c #FAB978",
"$.	c #FAB876",
"%.	c #FAB772",
"&.	c #FAB66F",
"*.	c #FCBA74",
"=.	c #E99133",
"-.	c #D76C00",
";.	c #D66700",
">.	c #E89037",
",.	c #FCBD7D",
"'.	c #FAB874",
").	c #FAB770",
"!.	c #FAB66E",
"~.	c #FAB469",
"{.	c #FCB66A",
"].	c #EA912D",
"^.	c #DA7000",
"/.	c #DE6C00",
"(.	c #EC9234",
"_.	c #FCBB77",
":.	c #FAB56C",
"<.	c #FAB56A",
"[.	c #FAB465",
"}.	c #F9AE59",
"|.	c #FAAA4E",
"1.	c #ED8F20",
"2.	c #E17700",
"3.	c #B65A00",
"4.	c #CA6300",
"5.	c #D36700",
"6.	c #D66800",
"7.	c #DE6E00",
"8.	c #E87100",
"9.	c #F39634",
"0.	c #FAB66D",
"a.	c #F9AB55",
"b.	c #F9A445",
"c.	c #F89D35",
"d.	c #F89725",
"e.	c #F79017",
"f.	c #F88E10",
"g.	c #F38806",
"h.	c #EC8100",
"i.	c #E37D00",
"j.	c #DD7900",
"k.	c #DB7800",
"l.	c #D47300",
"m.	c #C46900",
"n.	c #B57029",
"o.	c #D57617",
"p.	c #E58422",
"q.	c #E88D32",
"r.	c #EC8C29",
"s.	c #F38A1C",
"t.	c #F7952C",
"u.	c #F89D38",
"v.	c #F89322",
"w.	c #F78C0E",
"x.	c #F78905",
"y.	c #F78600",
"z.	c #F68700",
"A.	c #F38700",
"B.	c #EE8400",
"C.	c #EA8100",
"D.	c #E87E00",
"E.	c #DA7A06",
"F.	c #BF7929",
"G.	c #B38960",
"H.	c #D0853C",
"I.	c #E89746",
"J.	c #F9A856",
"K.	c #FAA247",
"L.	c #F99932",
"M.	c #F78E1A",
"N.	c #F78605",
"O.	c #F78200",
"P.	c #F78400",
"Q.	c #F78700",
"R.	c #F78800",
"S.	c #F78A00",
"T.	c #F78B00",
"U.	c #F88B00",
"V.	c #E78204",
"W.	c #D2801E",
"X.	c #BA8C60",
"Y.	c #A0734A",
"Z.	c #C17930",
"`.	c #EB8111",
" +	c #F3840C",
".+	c #F68202",
"++	c #F78300",
"@+	c #F78500",
"#+	c #F78900",
"$+	c #F88C00",
"%+	c #F88D00",
"&+	c #F88E00",
"*+	c #F58C00",
"=+	c #EE8600",
"-+	c #C77D25",
";+	c #A7774C",
">+	c #A97544",
",+	c #BC7730",
"'+	c #E97A00",
")+	c #F48000",
"!+	c #F78C00",
"~+	c #F88F00",
"{+	c #F89000",
"]+	c #F68E00",
"^+	c #EF8800",
"/+	c #C27D2D",
"(+	c #B07942",
"_+	c #AA7440",
":+	c #C37624",
"<+	c #E57D04",
"[+	c #F68400",
"}+	c #F89100",
"|+	c #F79000",
"1+	c #E98A04",
"2+	c #CA7F25",
"3+	c #B17A42",
"4+	c #A4764C",
"5+	c #CB791C",
"6+	c #E68004",
"7+	c #F58800",
"8+	c #F89200",
"9+	c #F69200",
"0+	c #EA8B04",
"a+	c #D1821C",
"b+	c #AB794C",
"c+	c #A5764C",
"d+	c #C57B25",
"e+	c #EC8300",
"f+	c #F48B00",
"g+	c #F08E00",
"h+	c #CB8226",
"i+	c #AC784D",
"j+	c #AE7742",
"k+	c #C17B2D",
"l+	c #F89201",
"m+	c #F79200",
"n+	c #C5802E",
"o+	c #B47B43",
"p+	c #AF7842",
"q+	c #C87E25",
"r+	c #E78804",
"s+	c #E98B04",
"t+	c #A8784C",
"u+	c #CF801B",
"v+	c #DD840A",
"w+	c #D1831B",
"x+	c #B07B48",
"y+	c #B07C48",
"z+	c #B17C48",
"                                                                ",
"                                                                ",
"                                                                ",
"                                                                ",
"                      . + @ # $ % & & * = -                     ",
"                      + ; > , ' ) ! ~ { ] ^                     ",
"                      / ( _ : < [ } | 1 2 3                     ",
"                      4 5 6 7 8 9 0 a b c d                     ",
"                      e f g h i j k l m n o                     ",
"                      p q r s t u v w x y z                     ",
"                      d A B u C D E F G H I                     ",
"                      J K L M N O F P Q R S                     ",
"                      z T U V F W X Y Z `  .                    ",
"                      ..+.@.#.$.Y %.&.*.=.-.                    ",
"                      ;.>.,.'.%.).!.~.{.].^.                    ",
"                      /.(._.!.:.<.[.}.|.1.2.                    ",
"            3.4.5.6.7.8.9.0.a.b.c.d.e.f.g.h.i.j.k.l.m.          ",
"            n.o.p.q.r.s.t.u.v.e.w.x.y.y.z.A.B.C.D.E.F.          ",
"            G.H.I.J.K.L.M.N.O.P.Q.R.S.T.T.U.U.S.V.W.X.          ",
"              Y.Z.`. +.+++@+Q.#+S.T.$+%+&+&+*+=+-+;+            ",
"                >+,+'+)+P.y.#+T.!+&+&+~+{+]+^+/+(+              ",
"                  _+:+<+[+R.S.!+&+{+}+}+|+1+2+3+                ",
"                    4+5+6+7+T.&+{+}+8+9+0+a+b+                  ",
"                      c+d+e+f+&+}+8+9+g+h+i+                    ",
"                        j+k+=+]+l+m+g+n+o+                      ",
"                          p+q+r+]+s+h+o+                        ",
"                            t+u+v+w+i+                          ",
"                              x+y+z+                            ",
"                                                                ",
"                                                                ",
"                                                                ",
"                                                                "};
