/* XPM */
static char * tool_sub_xpm[] = {
"32 32 4 1",
" 	c None",
".	c #99A4FB",
"+	c #4A5CE3",
"@	c #0A1B98",
"                                ",
"                                ",
"                                ",
"                                ",
"                                ",
"                                ",
"                                ",
"                                ",
"                                ",
"                                ",
"                                ",
"                                ",
"   ..........................   ",
"   .++++++++++++++++++++++++@   ",
"   .++++++++++++++++++++++++@   ",
"   .++++++++++++++++++++++++@   ",
"   .++++++++++++++++++++++++@   ",
"   .++++++++++++++++++++++++@   ",
"   .++++++++++++++++++++++++@   ",
"   .@@@@@@@@@@@@@@@@@@@@@@@@@   ",
"                                ",
"                                ",
"                                ",
"                                ",
"                                ",
"                                ",
"                                ",
"                                ",
"                                ",
"                                ",
"                                ",
"                                "};
