/* XPM */
static char * tool_startall_xpm[] = {
"32 32 25 1",
" 	c None",
".	c #A9FF9B",
"+	c #92EE84",
"@	c #71D460",
"#	c #4FBB3D",
"$	c #7CDD6C",
"%	c #8BE87C",
"&	c #92EE83",
"*	c #5AC349",
"=	c #66CC55",
"-	c #93EE84",
";	c #45B932",
">	c #44B532",
",	c #38AE25",
"'	c #169A00",
")	c #48B735",
"!	c #33AB1F",
"~	c #21A10C",
"{	c #23A20E",
"]	c #41B32E",
"^	c #2EA81A",
"/	c #24A20F",
"(	c #4BB939",
"_	c #3AAF26",
":	c #88E878",
"                                ",
"                                ",
"                                ",
"                                ",
"                                ",
"                                ",
"    .       .                   ",
"    +@+     +@+                 ",
"    +##$%.  +##$%.              ",
"    &###*=. &###*=.             ",
"    +######@+######@-           ",
"    +#######+########$%.        ",
"    +#######+#########*=.       ",
"    +#######+############@-     ",
"    +#######+##############$%.  ",
"    +#######+###############*;  ",
"    +#######+#############>,'   ",
"    -#######-###########)!~     ",
"    +#######+###########{       ",
"    +#######+########]^'        ",
"    +######]+######]!'          ",
"    &#####/~&#####/~            ",
"    &##(]{  &##(]{              ",
"    +#_^'   +#_^'               ",
"    :/      :/                  ",
"    '       '                   ",
"                                ",
"                                ",
"                                ",
"                                ",
"                                ",
"                                "};
