/* XPM */
static char * tool_option_24_xpm[] = {
"24 24 180 2",
"  	c None",
". 	c #ABABAB",
"+ 	c #9C9C9C",
"@ 	c #9F9F9F",
"# 	c #B5B5B5",
"$ 	c #E27F56",
"% 	c #E79671",
"& 	c #E89771",
"* 	c #E79771",
"= 	c #E48A63",
"- 	c #C1C1C1",
"; 	c #E7E7E7",
"> 	c #CACACA",
", 	c #C2C2C2",
"' 	c #E8E8E8",
") 	c #D5D5D5",
"! 	c #818181",
"~ 	c #ECA27A",
"{ 	c #FDDEB9",
"] 	c #FEE1B9",
"^ 	c #FDDFB9",
"/ 	c #F5C29D",
"( 	c #AD3E15",
"_ 	c #E6E6E6",
": 	c #EAEAEA",
"< 	c #D2D2D2",
"[ 	c #C8C8C8",
"} 	c #E9E9E9",
"| 	c #D65422",
"1 	c #FBD2A6",
"2 	c #FFDBA6",
"3 	c #FDD6A6",
"4 	c #CA6F46",
"5 	c #D0D0D0",
"6 	c #C6C6C6",
"7 	c #E1E1E1",
"8 	c #DA6130",
"9 	c #FCCA90",
"0 	c #FFD390",
"a 	c #FDCE90",
"b 	c #CE7548",
"c 	c #939393",
"d 	c #DEDEDE",
"e 	c #555555",
"f 	c #CBCBCB",
"g 	c #E2E2E2",
"h 	c #9B9B9B",
"i 	c #D95C28",
"j 	c #FBBF78",
"k 	c #FFC978",
"l 	c #FFC772",
"m 	c #FDBF6D",
"n 	c #CE6E3B",
"o 	c #DCDCDC",
"p 	c #E5E5E5",
"q 	c #DFDFDF",
"r 	c #A7A7A7",
"s 	c #A6A6A6",
"t 	c #DDDDDD",
"u 	c #E4E4E4",
"v 	c #A4A4A4",
"w 	c #D95720",
"x 	c #FAB461",
"y 	c #FFC061",
"z 	c #FFBF5F",
"A 	c #FFAD33",
"B 	c #FF9C09",
"C 	c #FB9103",
"D 	c #C94E04",
"E 	c #919191",
"F 	c #D7D7D7",
"G 	c #DADADA",
"H 	c #888888",
"I 	c #D74A09",
"J 	c #F89724",
"K 	c #FFAA2C",
"L 	c #FFA929",
"M 	c #FFA116",
"N 	c #FF9E0C",
"O 	c #FB940B",
"P 	c #C94F05",
"Q 	c #C5C5C5",
"R 	c #E0E0E0",
"S 	c #D4D4D4",
"T 	c #CDCDCD",
"U 	c #CCCCCC",
"V 	c #BCBCBC",
"W 	c #6D6D6D",
"X 	c #D74908",
"Y 	c #F8941C",
"Z 	c #FFA51F",
"` 	c #FFA61F",
" .	c #FB9C1E",
"..	c #CA530C",
"+.	c #9A9A9A",
"@.	c #CFCFCF",
"#.	c #C7C7C7",
"$.	c #343434",
"%.	c #D74C0E",
"&.	c #F99E33",
"*.	c #FFAF38",
"=.	c #FFB039",
"-.	c #FCA736",
";.	c #CB5816",
">.	c #B2B2B2",
",.	c #5F5F5F",
"'.	c #D85015",
").	c #FAAB4D",
"!.	c #FFBB55",
"~.	c #FFBB56",
"{.	c #FCB351",
"].	c #CB5F21",
"^.	c #808080",
"/.	c #BBBBBB",
"(.	c #797979",
"_.	c #D75118",
":.	c #F9B465",
"<.	c #FFC672",
"[.	c #FFC773",
"}.	c #FCBD6B",
"|.	c #CA6129",
"1.	c #ADADAD",
"2.	c #CECECE",
"3.	c #B7B7B7",
"4.	c #484848",
"5.	c #F3A766",
"6.	c #FECD88",
"7.	c #FFD18C",
"8.	c #FFD18D",
"9.	c #FECF8A",
"0.	c #F9BA78",
"a.	c #A94317",
"b.	c #D1D1D1",
"c.	c #B4B4B4",
"d.	c #474747",
"e.	c #CC5421",
"f.	c #EF9F66",
"g.	c #F7BA82",
"h.	c #F7BD84",
"i.	c #F7BC83",
"j.	c #F3AC73",
"k.	c #CC6330",
"l.	c #D3D3D3",
"m.	c #B6B6B6",
"n.	c #A7705D",
"o.	c #C4917E",
"p.	c #AB7765",
"q.	c #681E06",
"r.	c #B0B0B0",
"s.	c #D6D6D6",
"t.	c #BABABA",
"u.	c #C3C3C3",
"v.	c #B3B3B3",
"w.	c #D9D9D9",
"x.	c #D8D8D8",
"y.	c #BDBDBD",
"z.	c #9E9E9E",
"A.	c #DBDBDB",
"B.	c #A2A2A2",
"C.	c #BFBFBF",
"D.	c #7E7E7E",
"E.	c #969696",
"F.	c #BEBEBE",
"G.	c #626262",
"H.	c #6E6E6E",
"I.	c #7B7B7B",
"J.	c #C9C9C9",
"K.	c #E3E3E3",
"L.	c #4D4D4D",
"M.	c #898989",
"N.	c #B1B1B1",
"O.	c #C0C0C0",
"P.	c #8B8B8B",
"Q.	c #A0A0A0",
"R.	c #EBEBEB",
"S.	c #979797",
"T.	c #909090",
"U.	c #8A8A8A",
"V.	c #727272",
"W.	c #505050",
"      . +       @ #             $ % & * =       ",
"    - ; >       , ' ) !       ~ { ] ] ] ^ / (   ",
"  . _ : <       [ : } ,     | 1 2 2 2 2 2 3 4   ",
"  5 ' } <       6 ' } 7 !   8 9 0 0 0 0 0 a b   ",
"c d ; ; ) e     f _ ; g h   i j k k k k l m n   ",
"h o p p q r   s t u u 7 v   w x y y z A B C D   ",
"E F g g 7 t G o t ) 5 6 H   I J K L M N N O P   ",
"  Q d R R q d S T T U V W   X Y Z ` ` ` Z  ...  ",
"  +.5 o o F @.T T T #.v $.  %.&.*.=.=.=.=.-.;.  ",
"    v [ T T T T T > >.,.    '.).!.~.~.~.~.{.].  ",
"    ^./.U T T T T - (.      _.:.<.[.[.[.[.}.|.  ",
"      1.T @.@.@.2.3.4.        5.6.7.8.8.9.0.a.  ",
"      . 2.b.b.b.5 c.d.        e.f.g.h.i.j.k.    ",
"      1.b.l.l.l.< m.d.            n.o.p.q.      ",
"      r.S s.s.s.) t.d.            +.u.h         ",
"      v.F w.w.w.x.y.d.            + #.z.        ",
"      3.A.t t t o - d.            B.2.v         ",
"      t.d d o d q Q d.            t.F C.D.      ",
"      y.d Q E.F.d [ d.          m.G R o C.G.    ",
"      F.t H.  I.w.J.            - K.p K.T L.    ",
"      # R M.  E.t y.            N.p } ; /.      ",
"      +.o A.O.F t P.            Q.p R.; z.      ",
"        S.Q l.#.T.              U.6 5 J.V.      ",
"            W.                                  "};
