/* XPM */
static char * tool_up_xpm[] = {
"32 32 256 2",
"  	c None",
". 	c #C49C73",
"+ 	c #CB9867",
"@ 	c #CC9867",
"# 	c #C39569",
"$ 	c #DB9353",
"% 	c #E69248",
"& 	c #DB9352",
"* 	c #C49669",
"= 	c #C79363",
"- 	c #DC914E",
"; 	c #EFB17B",
"> 	c #F7BD8D",
", 	c #F0AF76",
"' 	c #DC8F49",
") 	c #C89564",
"! 	c #CA915D",
"~ 	c #D9965A",
"{ 	c #F0AC70",
"] 	c #F9C192",
"^ 	c #FCC89D",
"/ 	c #F9BE8B",
"( 	c #F0A766",
"_ 	c #D99555",
": 	c #CB925C",
"< 	c #F2A766",
"[ 	c #FAC69A",
"} 	c #FAC395",
"| 	c #FAC08E",
"1 	c #FAC18E",
"2 	c #FAC08D",
"3 	c #F1A057",
"4 	c #D99452",
"5 	c #C89563",
"6 	c #DC904C",
"7 	c #F1AA6D",
"8 	c #FBC598",
"9 	c #FAC191",
"0 	c #FABF8B",
"a 	c #FABE88",
"b 	c #FABC84",
"c 	c #F9BC84",
"d 	c #F0A35A",
"e 	c #DE8E42",
"f 	c #C7996A",
"g 	c #C79463",
"h 	c #DC8F4A",
"i 	c #F0AD73",
"j 	c #FBC190",
"k 	c #FAC08C",
"l 	c #FABF89",
"m 	c #FABE87",
"n 	c #FABC83",
"o 	c #FABB80",
"p 	c #FABA7E",
"q 	c #F8B574",
"r 	c #F0A65D",
"s 	c #DE8F3F",
"t 	c #CA9763",
"u 	c #C9915B",
"v 	c #D89455",
"w 	c #F0A665",
"x 	c #F9BC88",
"y 	c #FBC18F",
"z 	c #FABD88",
"A 	c #FABE86",
"B 	c #FABD84",
"C 	c #FABC82",
"D 	c #FABB7F",
"E 	c #FAB97B",
"F 	c #FAB877",
"G 	c #FAB978",
"H 	c #F8B26D",
"I 	c #F09F4D",
"J 	c #DA944B",
"K 	c #CC9459",
"L 	c #C89565",
"M 	c #D99456",
"N 	c #F1A15B",
"O 	c #FABF8D",
"P 	c #FBBF8B",
"Q 	c #FABD85",
"R 	c #FABB83",
"S 	c #FABB81",
"T 	c #FABA7D",
"U 	c #FAB97A",
"V 	c #FAB774",
"W 	c #FAB671",
"X 	c #FAB670",
"Y 	c #F9B46E",
"Z 	c #F19B40",
"` 	c #DB944A",
" .	c #CB9863",
"..	c #C39669",
"+.	c #DB8C44",
"@.	c #F0A15D",
"#.	c #FABA85",
"$.	c #FAB980",
"%.	c #FABA80",
"&.	c #FABA7F",
"*.	c #FAB97C",
"=.	c #FAB875",
"-.	c #FAB772",
";.	c #FAB66F",
">.	c #FAB46C",
",.	c #FAB268",
"'.	c #F9B063",
").	c #F9B062",
"!.	c #F09C40",
"~.	c #DE8E36",
"{.	c #C99A6A",
"].	c #B56616",
"^.	c #CC6A0C",
"/.	c #D97112",
"(.	c #DD781A",
"_.	c #E37B18",
":.	c #ED7C13",
"<.	c #F69D4A",
"[.	c #FBBC7F",
"}.	c #FAB777",
"|.	c #F9B775",
"1.	c #FAB56E",
"2.	c #FBB871",
"3.	c #F79F40",
"4.	c #EF850F",
"5.	c #E68313",
"6.	c #E38113",
"7.	c #E07D0C",
"8.	c #D67709",
"9.	c #C37316",
"0.	c #AF5100",
"a.	c #C65C00",
"b.	c #CF5E00",
"c.	c #D96200",
"d.	c #E36600",
"e.	c #F09034",
"f.	c #FBBB7C",
"g.	c #FAB773",
"h.	c #FAB771",
"i.	c #FAB66E",
"j.	c #FAB367",
"k.	c #FAB264",
"l.	c #F19228",
"m.	c #E67400",
"n.	c #DF7100",
"o.	c #D87000",
"p.	c #D16E00",
"q.	c #C16300",
"r.	c #DA6800",
"s.	c #EA8F34",
"t.	c #FBB874",
"u.	c #FAB267",
"v.	c #FAB062",
"w.	c #FAAD5C",
"x.	c #F9AA54",
"y.	c #F8A547",
"z.	c #F9A13C",
"A.	c #EC8918",
"B.	c #DF7600",
"C.	c #D56800",
"D.	c #E88D2F",
"E.	c #FBB063",
"F.	c #F9A248",
"G.	c #F89A36",
"H.	c #F89324",
"I.	c #F78C14",
"J.	c #F68706",
"K.	c #F98601",
"L.	c #EA7F00",
"M.	c #DC7800",
"N.	c #D66C00",
"O.	c #E77F13",
"P.	c #F99123",
"Q.	c #F7860E",
"R.	c #F68609",
"S.	c #F78506",
"T.	c #F78502",
"U.	c #F78500",
"V.	c #F98700",
"W.	c #EA8000",
"X.	c #DC7900",
"Y.	c #D76E00",
"Z.	c #E77803",
"`.	c #F88204",
" +	c #F67F00",
".+	c #F68100",
"++	c #F78300",
"@+	c #F78700",
"#+	c #F98A00",
"$+	c #EB8300",
"%+	c #DE7B00",
"&+	c #E77700",
"*+	c #F88000",
"=+	c #F68300",
"-+	c #F78400",
";+	c #F78800",
">+	c #F98B00",
",+	c #EC8400",
"'+	c #DF7E00",
")+	c #D87100",
"!+	c #E77900",
"~+	c #F88300",
"{+	c #F68400",
"]+	c #F78600",
"^+	c #F78A00",
"/+	c #F88C00",
"(+	c #EC8600",
"_+	c #E07F00",
":+	c #E87A00",
"<+	c #F78900",
"[+	c #F78C00",
"}+	c #F98E00",
"|+	c #ED8700",
"1+	c #E18100",
"2+	c #D97200",
"3+	c #F88400",
"4+	c #F78B00",
"5+	c #F88D00",
"6+	c #F99000",
"7+	c #ED8900",
"8+	c #E28100",
"9+	c #D97300",
"0+	c #E87B00",
"a+	c #F98500",
"b+	c #F88700",
"c+	c #F88900",
"d+	c #F88B00",
"e+	c #F98F00",
"f+	c #FA9100",
"g+	c #EE8A00",
"h+	c #E38200",
"i+	c #DA7400",
"j+	c #E97C00",
"k+	c #F98600",
"l+	c #F88F00",
"m+	c #F99200",
"n+	c #ED8A00",
"o+	c #E28300",
"p+	c #CA6D00",
"q+	c #D67300",
"r+	c #E47B00",
"s+	c #E47C00",
"t+	c #E47F00",
"u+	c #E58000",
"v+	c #E68200",
"w+	c #E78400",
"x+	c #E98600",
"y+	c #E08100",
"z+	c #D77C00",
"A+	c #CF7000",
"B+	c #DC7700",
"C+	c #DD7B00",
"D+	c #DE7C00",
"E+	c #E08000",
"F+	c #E28200",
"G+	c #DB7D00",
"                                                                ",
"                                                                ",
"                                                                ",
"                                                                ",
"                                .                               ",
"                              + @ +                             ",
"                            # $ % & *                           ",
"                          = - ; > , ' )                         ",
"                        ! ~ { ] ^ / ( _ :                       ",
"                      = ~ < [ } | 1 2 3 4 5                     ",
"                    * 6 7 8 9 | 0 a b c d e f                   ",
"                  g h i / j k l m n o p q r s t                 ",
"                u v w x y z A B C D E F G H I J K               ",
"              L M N O P Q R S D T U F V W X Y Z `  .            ",
"            ..+.@.#.$.%.&.p *.U G =.-.;.>.,.'.).!.~.{.          ",
"            ].^./.(._.:.<.[.}.|.-.X 1.2.3.4.5.6.7.8.9.          ",
"            0.a.b.  c.d.e.f.g.-.h.i.j.k.l.m.n.  o.p.q.          ",
"                      r.s.t.u.v.w.x.y.z.A.B.                    ",
"                      C.D.E.F.G.H.I.J.K.L.M.                    ",
"                      N.O.P.Q.R.S.T.U.V.W.X.                    ",
"                      Y.Z.`. +.+++U.@+#+$+%+                    ",
"                      o.&+*+=+-+U.@+;+>+,+'+                    ",
"                      )+!+~+{+]+@+;+^+/+(+_+                    ",
"                      )+:+~+U.@+<+^+[+}+|+1+                    ",
"                      2+:+3+]+;+^+4+5+6+7+8+                    ",
"                      9+0+a+b+c+d+/+e+f+g+h+                    ",
"                      i+j+k+@+<+d+5+l+m+n+o+                    ",
"                      p+q+r+s+t+u+v+w+x+y+z+                    ",
"                        A+B+M.C+D+'+E+F+G+                      ",
"                                                                ",
"                                                                ",
"                                                                "};
