/* XPM */
static char * tool_start_xpm[] = {
"32 32 4 1",
" 	c None",
".	c #A9FF9B",
"+	c #4FBB3D",
"@	c #169A00",
"                                ",
"                                ",
"                                ",
"    ..                          ",
"    .+..                        ",
"    .+++..                      ",
"    .+++++..                    ",
"    .+++++++..                  ",
"    .+++++++++..                ",
"    .+++++++++++..              ",
"    .+++++++++++++..            ",
"    .+++++++++++++++..          ",
"    .+++++++++++++++++..        ",
"    .+++++++++++++++++++..      ",
"    .+++++++++++++++++++++..    ",
"    .++++++++++++++++++++++@    ",
"    .++++++++++++++++++++@@     ",
"    .++++++++++++++++++@@       ",
"    .++++++++++++++++@@         ",
"    .+++++++++++++++@           ",
"    .+++++++++++++@@            ",
"    .+++++++++++@@              ",
"    .+++++++++@@                ",
"    .+++++++@@                  ",
"    .++++++@                    ",
"    .++++@@                     ",
"    .++@@                       ",
"    .@@                         ",
"    @                           ",
"                                ",
"                                ",
"                                "};
