/* XPM */
static char * Trash_xpm[] = {
"16 16 146 2",
"  	c None",
". 	c #BBBBB9",
"+ 	c #E2E1DF",
"@ 	c #E1E1E1",
"# 	c #A9ADAE",
"$ 	c #D9B49A",
"% 	c #D37537",
"& 	c #D78041",
"* 	c #D77F40",
"= 	c #D67E3E",
"- 	c #D67D3D",
"; 	c #D67B3A",
"> 	c #D67B39",
", 	c #D37434",
"' 	c #D7B399",
") 	c #A7AAAC",
"! 	c #C4C6C7",
"~ 	c #CC7C43",
"{ 	c #EC8539",
"] 	c #EE985B",
"^ 	c #EF9B60",
"/ 	c #EE985A",
"( 	c #EC9555",
"_ 	c #ED9250",
": 	c #EC8F4B",
"< 	c #EE893E",
"[ 	c #CB8048",
"} 	c #C1C4C4",
"| 	c #C8C8C7",
"1 	c #DCDAD9",
"2 	c #D8D6D5",
"3 	c #B6B5B4",
"4 	c #CFBDAF",
"5 	c #D7B9A4",
"6 	c #D3B8A5",
"7 	c #D3B8A4",
"8 	c #D3B9A5",
"9 	c #D3B9A6",
"0 	c #D3B9A7",
"a 	c #D2B9A8",
"b 	c #D2B9A7",
"c 	c #D6BAA7",
"d 	c #CEBDAF",
"e 	c #B2B1B0",
"f 	c #AE7243",
"g 	c #F38431",
"h 	c #EA7D2F",
"i 	c #EA7C2C",
"j 	c #EA7D2E",
"k 	c #EB8942",
"l 	c #EB8943",
"m 	c #EB7E30",
"n 	c #EA7C2D",
"o 	c #EA7725",
"p 	c #F47314",
"q 	c #AF6C38",
"r 	c #B38461",
"s 	c #FFA661",
"t 	c #F99D5B",
"u 	c #F99954",
"v 	c #FDD5B8",
"w 	c #FFE6D4",
"x 	c #FFF0E5",
"y 	c #FDCBA8",
"z 	c #F8934A",
"A 	c #F88B3D",
"B 	c #FF8528",
"C 	c #B27A4F",
"D 	c #AB876A",
"E 	c #FF9E53",
"F 	c #F79752",
"G 	c #F9AB73",
"H 	c #FEECE0",
"I 	c #FABF95",
"J 	c #FBCBA8",
"K 	c #FCD3B7",
"L 	c #F5802B",
"M 	c #F47010",
"N 	c #FF7005",
"O 	c #AB7D59",
"P 	c #A78B76",
"Q 	c #FF9B4D",
"R 	c #F69249",
"S 	c #FEF1E8",
"T 	c #FBC8A3",
"U 	c #F25F00",
"V 	c #F47214",
"W 	c #FEEFE4",
"X 	c #F9B07B",
"Y 	c #F26000",
"Z 	c #FF6E02",
"` 	c #A68469",
" .	c #A78F7D",
"..	c #FF8427",
"+.	c #F36B0C",
"@.	c #FBCDAB",
"#.	c #F9B786",
"$.	c #F58738",
"%.	c #F68A3C",
"&.	c #FBCFB0",
"*.	c #F7A261",
"=.	c #F36907",
"-.	c #FF6F04",
";.	c #A68A74",
">.	c #A99788",
",.	c #FD6C01",
"'.	c #F36600",
").	c #F57E22",
"!.	c #FEEEE2",
"~.	c #FDEBDA",
"{.	c #FEF6EF",
"].	c #FDDFC3",
"^.	c #F69533",
"/.	c #F69A37",
"(.	c #FE7910",
"_.	c #A89281",
":.	c #B2A69C",
"<.	c #FD6E05",
"[.	c #F86D05",
"}.	c #F77007",
"|.	c #F8892D",
"1.	c #FA9742",
"2.	c #FBAD64",
"3.	c #FA9E44",
"4.	c #F99B35",
"5.	c #FBA744",
"6.	c #FF861E",
"7.	c #AE9E92",
"8.	c #BCB9B4",
"9.	c #DA6309",
"0.	c #ED6B08",
"a.	c #EB6C0B",
"b.	c #EB6C09",
"c.	c #EB6F0C",
"d.	c #EB720E",
"e.	c #EC7715",
"f.	c #EC7D1D",
"g.	c #EE8221",
"h.	c #DD6F15",
"i.	c #B8B2AC",
"j.	c #ACA8A5",
"k.	c #A39D98",
"l.	c #A49E99",
"m.	c #A49D98",
"n.	c #A39C97",
"o.	c #ABA7A3",
"                                ",
"      . . . . . . . . . .       ",
"    + @ @ @ @ @ @ @ @ @ @ +     ",
"    # $ % & * = - ; > , ' )     ",
"    ! ~ { ] ^ / ( _ : < [ }     ",
"  | 1 @ @ @ @ @ @ @ @ @ @ 2 |   ",
"  3 4 5 6 7 8 9 6 0 a b c d e   ",
"    f g h i j k l m n o p q     ",
"    r s t u v w x y z A B C     ",
"    D E F G H I J K L M N O     ",
"    P Q R S T U V W X Y Z `     ",
"     ...+.@.#.$.%.&.*.=.-.;.    ",
"    >.,.'.).!.~.{.].^./.(._.    ",
"    :.<.[.}.|.1.2.3.4.5.6.7.    ",
"    8.9.0.a.b.c.d.e.f.g.h.i.    ",
"      j.k.l.l.l.m.m.m.n.o.      "};
