/* XPM */
static char * unknow_xpm[] = {
"16 16 160 2",
"  	c None",
". 	c #CC6802",
"+ 	c #CD6203",
"@ 	c #CD5E04",
"# 	c #CD6204",
"$ 	c #CC6501",
"% 	c #E49B4C",
"& 	c #F7D6A3",
"* 	c #FCEBCC",
"= 	c #FCEDD7",
"- 	c #FCE7C6",
"; 	c #F7D09A",
"> 	c #E49747",
", 	c #CC6602",
"' 	c #CD6001",
") 	c #F5CE96",
"! 	c #FCE0A3",
"~ 	c #FACF62",
"{ 	c #FBD266",
"] 	c #FBD16A",
"^ 	c #FBCD64",
"/ 	c #FAC75E",
"( 	c #FAD696",
"_ 	c #F3C486",
": 	c #CD6102",
"< 	c #CC6500",
"[ 	c #F5CD94",
"} 	c #FAD477",
"| 	c #FBD876",
"1 	c #FBDD85",
"2 	c #FBE086",
"3 	c #FBDE86",
"4 	c #FBDB82",
"5 	c #FBD680",
"6 	c #FACB6D",
"7 	c #F9C367",
"8 	c #F2C081",
"9 	c #CC6600",
"0 	c #E49848",
"a 	c #FBDE9F",
"b 	c #FAD777",
"c 	c #FBDF81",
"d 	c #B9A96C",
"e 	c #696244",
"f 	c #FCECB1",
"g 	c #695F43",
"h 	c #B9A267",
"i 	c #FCDF9F",
"j 	c #F9C666",
"k 	c #F9CE8A",
"l 	c #E3903D",
"m 	c #CC6700",
"n 	c #F7D49E",
"o 	c #F9CF65",
"p 	c #FBDA77",
"q 	c #FCE68F",
"r 	c #8B8258",
"s 	c #252521",
"t 	c #FCF0B3",
"u 	c #2F2D26",
"v 	c #8A7C53",
"w 	c #FCE2A5",
"x 	c #F9C65F",
"y 	c #F8B84C",
"z 	c #F5C689",
"A 	c #CC6901",
"B 	c #CD6000",
"C 	c #FCE9C8",
"D 	c #FACD60",
"E 	c #FCDD7D",
"F 	c #FCE793",
"G 	c #B9AE75",
"H 	c #524F3A",
"I 	c #696144",
"J 	c #CDBF97",
"K 	c #FCE2A6",
"L 	c #F9C55F",
"M 	c #F8B442",
"N 	c #FCEAD1",
"O 	c #CD5C00",
"P 	c #F8E7BD",
"Q 	c #F9C850",
"R 	c #FBD977",
"S 	c #FCE48F",
"T 	c #FCEFB5",
"U 	c #FCF0B6",
"V 	c #FCE895",
"W 	c #FCECB2",
"X 	c #FCE7AD",
"Y 	c #FBD379",
"Z 	c #FAC154",
"` 	c #F8AC2F",
" .	c #FAF2E7",
"..	c #FCE6C5",
"+.	c #F9C142",
"@.	c #F7D252",
"#.	c #FBDD82",
"$.	c #FCE28D",
"%.	c #FCE491",
"&.	c #FCE28E",
"*.	c #FCDE89",
"=.	c #FBD67C",
"-.	c #FAC963",
";.	c #F9B73F",
">.	c #F7A525",
",.	c #F9E6CB",
"'.	c #CC6800",
").	c #F6CD93",
"!.	c #F8BA3C",
"~.	c #F9C54C",
"{.	c #DCC650",
"].	c #BEAA48",
"^.	c #2F2D1C",
"/.	c #2B2A25",
"(.	c #7A7056",
"_.	c #BEA673",
":.	c #F9C155",
"<.	c #F8AD2C",
"[.	c #F8C272",
"}.	c #F5C488",
"|.	c #E39340",
"1.	c #FAD18A",
"2.	c #F7B92D",
"3.	c #887706",
"4.	c #B39C69",
"5.	c #E9DFC8",
"6.	c #EBDBB7",
"7.	c #E4CFA2",
"8.	c #746340",
"9.	c #B68E47",
"0.	c #F7A21D",
"a.	c #F8C57C",
"b.	c #E28C38",
"c.	c #F3C07F",
"d.	c #F9BB53",
"e.	c #D19526",
"f.	c #F9E0A9",
"g.	c #F8BE40",
"h.	c #F7B62B",
"i.	c #F9AF2B",
"j.	c #F8B138",
"k.	c #CF8A1D",
"l.	c #F7AF48",
"m.	c #F1B875",
"n.	c #CD6100",
"o.	c #F2BE7C",
"p.	c #F9CB82",
"q.	c #F8A929",
"r.	c #F8A721",
"s.	c #F8A51F",
"t.	c #F7A31E",
"u.	c #F8A324",
"v.	c #F8C57B",
"w.	c #F2B974",
"x.	c #E28F3C",
"y.	c #F5C587",
"z.	c #F9DBB0",
"A.	c #FAE2BE",
"B.	c #FADBAE",
"C.	c #F5C283",
"          . + @ # .             ",
"      $ % & * = - ; > ,         ",
"    ' ) ! ~ { ] ^ / ( _ :       ",
"  < [ } | 1 2 3 4 5 6 7 8 9     ",
"  0 a b c d e f g h i j k l     ",
"m n o p q r s t u v w x y z A   ",
"B C D E F G H t I J K L M N B   ",
"O P Q R S T U V W X Y Z `  .O   ",
"B ..+.@.#.$.%.&.*.=.-.;.>.,.B   ",
"'.).!.~.{.].^./.(._.:.<.[.}.A   ",
"  |.1.2.3.4.5.6.7.8.9.0.a.b.    ",
"  9 c.d.e.f.g.h.i.j.k.l.m.m     ",
"    n.o.p.q.r.s.t.u.v.w.n.      ",
"      9 x.y.z.A.B.C.b.m         ",
"          '.B O B A             ",
"                                "};
