/* XPM */
static char * up_arrow_xpm[] = {
"16 16 3 1",
" 	c None",
".	c #088006",
"+	c #05E100",
"                ",
"       ..       ",
"      .++.      ",
"     .++++.     ",
"   ..++++++..   ",
"  .++++++++++.  ",
" .....++++..... ",
"     .++++.     ",
"     .++++.     ",
"     .++++.     ",
"     .++++.     ",
"     .++++.     ",
"     .++++.     ",
"     .++++.     ",
"     ......     ",
"                "};
