/* XPM */
static char * up_info_xpm[] = {
"16 16 9 1",
" 	c None",
".	c #FAF5D9",
"+	c #F4E8A6",
"@	c #439F06",
"#	c #FDFAEB",
"$	c #F0DF83",
"%	c #EFDD7A",
"&	c #3D9D02",
"*	c #F0DF82",
"                ",
"     .+@@+.     ",
"   #$%&&&&%$#   ",
"  #%%&&&&&&%%#  ",
"  $%&&&&&&&&%$  ",
" .%&&&&&&&&&&%. ",
" +%%%%&&&&%%%%+ ",
" *%%%%&&&&%%%%* ",
" *%%%%&&&&%%%%* ",
" +%%%%&&&&%%%%+ ",
" .%%%%&&&&%%%%. ",
"  $%%%&&&&%%%$  ",
"  #%%%&&&&%%%#  ",
"   #$%&&&&%$#   ",
"     .+**+.     ",
"                "};
