/* XPM */
static char * yellow_10_block_xpm[] = {
"10 10 38 1",
" 	c None",
".	c #A09E49",
"+	c #D5D326",
"@	c #E6E442",
"#	c #E7E546",
"$	c #E5E33E",
"%	c #CAC821",
"&	c #D4CA22",
"*	c #FFFFFF",
"=	c #FFFCDB",
"-	c #F9F282",
";	c #E4D330",
">	c #FFF6CA",
",	c #FCF098",
"'	c #E5CB29",
")	c #FFEFA5",
"!	c #FCE87E",
"~	c #E5C321",
"{	c #FFE782",
"]	c #FCE064",
"^	c #E5BA19",
"/	c #FFDF62",
"(	c #FCD84B",
"_	c #E4B112",
":	c #FFD646",
"<	c #FCCF36",
"[	c #E3A70B",
"}	c #FFCE2C",
"|	c #FBC522",
"1	c #D49205",
"2	c #FFC215",
"3	c #F8B40D",
"4	c #805C1C",
"5	c #DC8F01",
"6	c #E99B02",
"7	c #EA9D02",
"8	c #E89A02",
"9	c #CF8704",
".+@#####$%",
"&*=******-",
";*>*>>>>*,",
"'*)*))))*!",
"~*{*{{{{*]",
"^*/*////*(",
"_*:*::::*<",
"[*}*}}}}*|",
"1*2******3",
"4567777789"};
