/* XPM */
static char * yellow_1_block_xpm[] = {
"10 10 50 1",
" 	c None",
".	c #A09E49",
"+	c #D5D326",
"@	c #E6E442",
"#	c #E7E546",
"$	c #E5E33E",
"%	c #CAC821",
"&	c #D4CA22",
"*	c #FCF7A5",
"=	c #FFFCDB",
"-	c #FFFCDD",
";	c #FFFFFF",
">	c #FFFCD7",
",	c #F9F282",
"'	c #E4D330",
")	c #FEF4B2",
"!	c #FFF6CA",
"~	c #FCF098",
"{	c #E5CB29",
"]	c #FEEC92",
"^	c #FFEFA5",
"/	c #FFEFA4",
"(	c #FCE87E",
"_	c #E5C321",
":	c #FEE474",
"<	c #FFE782",
"[	c #FCE064",
"}	c #E5BA19",
"|	c #FEDC57",
"1	c #FFDF62",
"2	c #FCD84B",
"3	c #E4B112",
"4	c #FED33E",
"5	c #FFD646",
"6	c #FCCF36",
"7	c #E3A70B",
"8	c #FECA27",
"9	c #FFCE2C",
"0	c #FBC522",
"a	c #D49205",
"b	c #FCBA10",
"c	c #FFC215",
"d	c #FEC115",
"e	c #F8B40D",
"f	c #805C1C",
"g	c #DC8F01",
"h	c #E99B02",
"i	c #EA9D02",
"j	c #E89A02",
"k	c #CF8704",
".+@#####$%",
"&*=-;;-->,",
"')!!;;!!!~",
"{]^^;;^^/(",
"_:<<;;<<<[",
"}|11;;1112",
"3455;;5556",
"7899;;9990",
"abcc;;ccde",
"fghiiiiijk"};
