/* XPM */
static char * yellow_7_block_xpm[] = {
"10 10 44 1",
" 	c None",
".	c #A09E49",
"+	c #D5D326",
"@	c #E6E442",
"#	c #E7E546",
"$	c #E5E33E",
"%	c #CAC821",
"&	c #D4CA22",
"*	c #FFFFFF",
"=	c #F9F282",
"-	c #E4D330",
";	c #FEF4B2",
">	c #FFF6CA",
",	c #FCF098",
"'	c #E5CB29",
")	c #FEEC92",
"!	c #FFEFA5",
"~	c #FCE87E",
"{	c #E5C321",
"]	c #FEE474",
"^	c #FFE782",
"/	c #FCE064",
"(	c #E5BA19",
"_	c #FEDC57",
":	c #FFDF62",
"<	c #FCD84B",
"[	c #E4B112",
"}	c #FED33E",
"|	c #FFD646",
"1	c #FCCF36",
"2	c #E3A70B",
"3	c #FECA27",
"4	c #FFCE2C",
"5	c #FBC522",
"6	c #D49205",
"7	c #FCBA10",
"8	c #FFC215",
"9	c #F8B40D",
"0	c #805C1C",
"a	c #DC8F01",
"b	c #E99B02",
"c	c #EA9D02",
"d	c #E89A02",
"e	c #CF8704",
".+@#####$%",
"&********=",
"-;>>>>>>*,",
"')!!!!!!*~",
"{]^^^^^^*/",
"(_::::::*<",
"[}||||||*1",
"23444444*5",
"67888888*9",
"0abcccccde"};
