/* XPM */
static char * yellow_6_block_xpm[] = {
"10 10 36 1",
" 	c None",
".	c #A09E49",
"+	c #D5D326",
"@	c #E6E442",
"#	c #E7E546",
"$	c #E5E33E",
"%	c #CAC821",
"&	c #D4CA22",
"*	c #FFFFFF",
"=	c #F9F282",
"-	c #E4D330",
";	c #FFF6CA",
">	c #FCF098",
",	c #E5CB29",
"'	c #FFEFA5",
")	c #FFEFA4",
"!	c #FCE87E",
"~	c #E5C321",
"{	c #FCE064",
"]	c #E5BA19",
"^	c #FFDF62",
"/	c #FCD84B",
"(	c #E4B112",
"_	c #FFD646",
":	c #FCCF36",
"<	c #E3A70B",
"[	c #FFCE2C",
"}	c #FBC522",
"|	c #D49205",
"1	c #F8B40D",
"2	c #805C1C",
"3	c #DC8F01",
"4	c #E99B02",
"5	c #EA9D02",
"6	c #E89A02",
"7	c #CF8704",
".+@#####$%",
"&********=",
"-*;;;;;;;>",
",*'''''')!",
"~********{",
"]*^^^^^^*/",
"(*______*:",
"<*[[[[[[*}",
"|********1",
"2345555567"};
