/* XPM */
static char * yellow_block_xpm[] = {
"10 10 48 1",
" 	c #A09E49",
".	c #D5D326",
"+	c #E6E442",
"@	c #E7E546",
"#	c #E5E33E",
"$	c #CAC821",
"%	c #D4CA22",
"&	c #FCF7A5",
"*	c #FFFCDB",
"=	c #FFFCDD",
"-	c #FFFCD7",
";	c #F9F282",
">	c #E4D330",
",	c #FEF4B2",
"'	c #FFF6CA",
")	c #FCF098",
"!	c #E5CB29",
"~	c #FEEC92",
"{	c #FFEFA5",
"]	c #FFEFA4",
"^	c #FCE87E",
"/	c #E5C321",
"(	c #FEE474",
"_	c #FFE782",
":	c #FCE064",
"<	c #E5BA19",
"[	c #FEDC57",
"}	c #FFDF62",
"|	c #FCD84B",
"1	c #E4B112",
"2	c #FED33E",
"3	c #FFD646",
"4	c #FCCF36",
"5	c #E3A70B",
"6	c #FECA27",
"7	c #FFCE2C",
"8	c #FBC522",
"9	c #D49205",
"0	c #FCBA10",
"a	c #FFC215",
"b	c #FEC115",
"c	c #F8B40D",
"d	c #805C1C",
"e	c #DC8F01",
"f	c #E99B02",
"g	c #EA9D02",
"h	c #E89A02",
"i	c #CF8704",
" .+@@@@@#$",
"%&*=====-;",
">,''''''')",
"!~{{{{{{]^",
"/(_______:",
"<[}}}}}}}|",
"1233333334",
"5677777778",
"90aaaaaabc",
"defggggghi"};
