/* XPM */
static char * yellow_4_block_xpm[] = {
"10 10 44 1",
" 	c None",
".	c #A09E49",
"+	c #D5D326",
"@	c #E6E442",
"#	c #E7E546",
"$	c #E5E33E",
"%	c #CAC821",
"&	c #D4CA22",
"*	c #FFFFFF",
"=	c #FFFCDB",
"-	c #FFFCDD",
";	c #FFFCD7",
">	c #F9F282",
",	c #E4D330",
"'	c #FFF6CA",
")	c #FCF098",
"!	c #E5CB29",
"~	c #FFEFA5",
"{	c #FFEFA4",
"]	c #FCE87E",
"^	c #E5C321",
"/	c #FFE782",
"(	c #FCE064",
"_	c #E5BA19",
":	c #FCD84B",
"<	c #E4B112",
"[	c #FED33E",
"}	c #FFD646",
"|	c #FCCF36",
"1	c #E3A70B",
"2	c #FECA27",
"3	c #FFCE2C",
"4	c #FBC522",
"5	c #D49205",
"6	c #FCBA10",
"7	c #FFC215",
"8	c #FEC115",
"9	c #F8B40D",
"0	c #805C1C",
"a	c #DC8F01",
"b	c #E99B02",
"c	c #EA9D02",
"d	c #E89A02",
"e	c #CF8704",
".+@#####$%",
"&*=--*--;>",
",*'''*''')",
"!*~~~*~~{]",
"^*///*///(",
"_********:",
"<[}}}*}}}|",
"12333*3334",
"56777*7789",
"0abcccccde"};
