/* XPM */
static char * yellow_2_block_xpm[] = {
"10 10 37 1",
" 	c None",
".	c #A09E49",
"+	c #D5D326",
"@	c #E6E442",
"#	c #E7E546",
"$	c #E5E33E",
"%	c #CAC821",
"&	c #D4CA22",
"*	c #FFFFFF",
"=	c #F9F282",
"-	c #E4D330",
";	c #FEF4B2",
">	c #FFF6CA",
",	c #FCF098",
"'	c #E5CB29",
")	c #FEEC92",
"!	c #FFEFA5",
"~	c #FCE87E",
"{	c #E5C321",
"]	c #FCE064",
"^	c #E5BA19",
"/	c #FFDF62",
"(	c #FCD84B",
"_	c #E4B112",
":	c #FFD646",
"<	c #FCCF36",
"[	c #E3A70B",
"}	c #FFCE2C",
"|	c #FBC522",
"1	c #D49205",
"2	c #F8B40D",
"3	c #805C1C",
"4	c #DC8F01",
"5	c #E99B02",
"6	c #EA9D02",
"7	c #E89A02",
"8	c #CF8704",
".+@#####$%",
"&********=",
"-;>>>>>>*,",
"')!!!!!!*~",
"{********]",
"^*///////(",
"_*:::::::<",
"[*}}}}}}}|",
"1********2",
"3456666678"};
