/* XPM */
static char * yellow_5_block_xpm[] = {
"10 10 39 1",
" 	c None",
".	c #A09E49",
"+	c #D5D326",
"@	c #E6E442",
"#	c #E7E546",
"$	c #E5E33E",
"%	c #CAC821",
"&	c #D4CA22",
"*	c #FFFFFF",
"=	c #F9F282",
"-	c #E4D330",
";	c #FFF6CA",
">	c #FCF098",
",	c #E5CB29",
"'	c #FFEFA5",
")	c #FFEFA4",
"!	c #FCE87E",
"~	c #E5C321",
"{	c #FCE064",
"]	c #E5BA19",
"^	c #FEDC57",
"/	c #FFDF62",
"(	c #FCD84B",
"_	c #E4B112",
":	c #FED33E",
"<	c #FFD646",
"[	c #FCCF36",
"}	c #E3A70B",
"|	c #FECA27",
"1	c #FFCE2C",
"2	c #FBC522",
"3	c #D49205",
"4	c #F8B40D",
"5	c #805C1C",
"6	c #DC8F01",
"7	c #E99B02",
"8	c #EA9D02",
"9	c #E89A02",
"0	c #CF8704",
".+@#####$%",
"&********=",
"-*;;;;;;;>",
",*'''''')!",
"~********{",
"]^//////*(",
"_:<<<<<<*[",
"}|111111*2",
"3********4",
"5678888890"};
