/* XPM */
static char * yellow_3_block_xpm[] = {
"10 10 40 1",
" 	c None",
".	c #A09E49",
"+	c #D5D326",
"@	c #E6E442",
"#	c #E7E546",
"$	c #E5E33E",
"%	c #CAC821",
"&	c #D4CA22",
"*	c #FFFFFF",
"=	c #F9F282",
"-	c #E4D330",
";	c #FEF4B2",
">	c #FFF6CA",
",	c #FCF098",
"'	c #E5CB29",
")	c #FEEC92",
"!	c #FFEFA5",
"~	c #FCE87E",
"{	c #E5C321",
"]	c #FCE064",
"^	c #E5BA19",
"/	c #FEDC57",
"(	c #FFDF62",
"_	c #FCD84B",
":	c #E4B112",
"<	c #FED33E",
"[	c #FFD646",
"}	c #FCCF36",
"|	c #E3A70B",
"1	c #FECA27",
"2	c #FFCE2C",
"3	c #FBC522",
"4	c #D49205",
"5	c #F8B40D",
"6	c #805C1C",
"7	c #DC8F01",
"8	c #E99B02",
"9	c #EA9D02",
"0	c #E89A02",
"a	c #CF8704",
".+@#####$%",
"&********=",
"-;>>>>>>*,",
"')!!!!!!*~",
"{********]",
"^/((((((*_",
":<[[[[[[*}",
"|1222222*3",
"4********5",
"678999990a"};
