/* XPM */
static char * about_xpm[] = {
"16 16 116 2",
"  	c None",
". 	c #3B4B77",
"+ 	c #3A4A77",
"@ 	c #384978",
"# 	c #384A79",
"$ 	c #3A4B77",
"% 	c #3D4C76",
"& 	c #3B4C78",
"* 	c #A4ADC3",
"= 	c #EDEFF4",
"- 	c #FCFCFD",
"; 	c #F7F9FB",
"> 	c #E2E7EF",
", 	c #9AA5BE",
"' 	c #3E4E79",
") 	c #3C4D78",
"! 	c #D0D5E0",
"~ 	c #F5F8FA",
"{ 	c #E8EFF4",
"] 	c #E2EAF3",
"^ 	c #D9E3EE",
"/ 	c #D3DFEB",
"( 	c #D8E2ED",
"_ 	c #B9C4D6",
": 	c #41517B",
"< 	c #3D4D76",
"[ 	c #EFF3F7",
"} 	c #F4F7FA",
"| 	c #EBF0F6",
"1 	c #DFE8F2",
"2 	c #D4E0ED",
"3 	c #C2D3E4",
"4 	c #C5D5E5",
"5 	c #8D9CB8",
"6 	c #435177",
"7 	c #40507A",
"8 	c #E8EFF5",
"9 	c #F3F7FA",
"0 	c #FAFCFD",
"a 	c #ECF1F7",
"b 	c #DFE7F2",
"c 	c #D0DDEB",
"d 	c #C1D2E4",
"e 	c #789DC4",
"f 	c #C5D2E1",
"g 	c #46557F",
"h 	c #394A79",
"i 	c #FAFBFD",
"j 	c #E0E9F2",
"k 	c #EEF3F8",
"l 	c #FFFFFF",
"m 	c #C1CCD7",
"n 	c #CEDBE9",
"o 	c #394B7A",
"p 	c #3A4B7A",
"q 	c #D6E1ED",
"r 	c #DEE7F1",
"s 	c #EBF0F5",
"t 	c #E0E6EC",
"u 	c #D2DAE2",
"v 	c #91AECD",
"w 	c #C9D6E7",
"x 	c #45547E",
"y 	c #E0E5ED",
"z 	c #CBD9E8",
"A 	c #C8D7E8",
"B 	c #C0D0E3",
"C 	c #B5CAE0",
"D 	c #9DB9D6",
"E 	c #608EBC",
"F 	c #B5C7DB",
"G 	c #485883",
"H 	c #4A577A",
"I 	c #98A4BD",
"J 	c #D4E0EC",
"K 	c #A6BED8",
"L 	c #A5BED8",
"M 	c #87A8CC",
"N 	c #4B7EB2",
"O 	c #AAC1D9",
"P 	c #7E91B1",
"Q 	c #546083",
"R 	c #475780",
"S 	c #B7C2D5",
"T 	c #C3D3E4",
"U 	c #779DC5",
"V 	c #5E8DBA",
"W 	c #A9C0D9",
"X 	c #9BAEC8",
"Y 	c #495985",
"Z 	c #8C9BB8",
"` 	c #C2D0E0",
" .	c #CCD9E8",
"..	c #C7D6E5",
"+.	c #B5C6DA",
"@.	c #7E90B2",
"#.	c #4A5A86",
"$.	c #586383",
"%.	c #4B5B83",
"&.	c #A6AC98",
"*.	c #A7AD98",
"=.	c #ABB198",
"-.	c #5E6880",
";.	c #5E5E3E",
">.	c #EBEDC1",
",.	c #F5F8CA",
"'.	c #DDDFAB",
").	c #80805C",
"!.	c #A8AA84",
"~.	c #8A8B66",
"{.	c #E3E6BA",
"].	c #F3F6C9",
"^.	c #D3D5B0",
"/.	c #393936",
"(.	c #464646",
"_.	c #303030",
"          . + @ # $ %           ",
"        & * = - ; > , '         ",
"      ) ! ~ { ] ^ / ( _ :       ",
"    < * ~ [ } | 1 2 3 4 5 6     ",
"    7 = 8 9 0 a b c d e f g     ",
"    h i j k l l l l m   n o     ",
"    p } q r l s t u v   w o     ",
"    x y z A l B C D   E F G     ",
"    H I J K l L M   N O P Q     ",
"      R S T U l   V W X Y       ",
"        R Z `  ...+.@.#.        ",
"          $.%.&.*.=.-.          ",
"            ;.>.,.'.;.          ",
"            ;.).!.~.;.          ",
"            ;.{.].^.;.          ",
"              /.(._.            "};
