/* XPM */
static char * checkmd5_xpm[] = {
"16 16 47 1",
" 	c None",
".	c #000000",
"+	c #59BB0A",
"@	c #50AB06",
"#	c #6FC02D",
"$	c #56AE0F",
"%	c #4DA507",
"&	c #53AB0C",
"*	c #4AA004",
"=	c #84C550",
"-	c #52AB0A",
";	c #4EA607",
">	c #5FAF1F",
",	c #5BAC1A",
"'	c #77BA40",
")	c #52AC09",
"!	c #53AE09",
"~	c #4FA807",
"{	c #56AA12",
"]	c #53AE0A",
"^	c #60AE21",
"/	c #7EBB4D",
"(	c #6CB233",
"_	c #59AF14",
":	c #53B307",
"<	c #59B80C",
"[	c #52AE08",
"}	c #5EB31A",
"|	c #68C31E",
"1	c #5FBE12",
"2	c #5CBE0E",
"3	c #5EC00F",
"4	c #64C418",
"5	c #65BE1D",
"6	c #5FA724",
"7	c #74BC3A",
"8	c #8CD74F",
"9	c #8AD74D",
"0	c #89D74C",
"a	c #86D349",
"b	c #6BB034",
"c	c #7FBA50",
"d	c #9FDC6F",
"e	c #ABE67C",
"f	c #77B843",
"g	c #487227",
"h	c #6E9F46",
"                ",
" .  . ..  ...   ",
" .... . . .     ",
" .... . .  .. + ",
" .  . . .   .@# ",
" .  . ..  . $%  ",
"           &*=  ",
"          -;>   ",
"  ,     ')!~    ",
"  {]^/(_:<[     ",
"   }|123456     ",
"    7890ab      ",
"     cdef       ",
"      gh        ",
"                ",
"                "};
