/* XPM */
static char * delete_xpm[] = {
"16 16 76 1",
" 	c None",
".	c #A0272E",
"+	c #A1272E",
"@	c #A0262D",
"#	c #CE3737",
"$	c #E1403F",
"%	c #E13F40",
"&	c #E13F3F",
"*	c #9F262D",
"=	c #DE3E3E",
"-	c #F74A4A",
";	c #F64A4A",
">	c #9E262D",
",	c #9E262C",
"'	c #DA3D3D",
")	c #F24848",
"!	c #F46868",
"~	c #FCCFCF",
"{	c #F35959",
"]	c #F9ACAC",
"^	c #F24C4C",
"/	c #9C252C",
"(	c #D63C3C",
"_	c #ED4646",
":	c #FBD8D8",
"<	c #FFFFFF",
"[	c #FCDFDF",
"}	c #EF5858",
"|	c #F7B6B6",
"1	c #D33B3B",
"2	c #E84444",
"3	c #EA5656",
"4	c #FBDFDF",
"5	c #FCE2E2",
"6	c #9A242B",
"7	c #D03A3A",
"8	c #E44344",
"9	c #E65555",
"0	c #FAE2E2",
"a	c #E44343",
"b	c #CF3A3A",
"c	c #9A242C",
"d	c #CC3838",
"e	c #DF4242",
"f	c #E25353",
"g	c #98242B",
"h	c #C83838",
"i	c #DA4040",
"j	c #DE5252",
"k	c #F9DEDE",
"l	c #F9E1E1",
"m	c #98232A",
"n	c #C43636",
"o	c #D53E3E",
"p	c #F7DADA",
"q	c #F8DEDE",
"r	c #D95050",
"s	c #F7D9D9",
"t	c #D54040",
"u	c #96232A",
"v	c #C13535",
"w	c #D13D3D",
"x	c #DB6B6A",
"y	c #F5D6D6",
"z	c #D44F4F",
"A	c #D03D3D",
"B	c #F5D6D7",
"C	c #DB6C6C",
"D	c #96222A",
"E	c #BD3434",
"F	c #CC3C3C",
"G	c #942229",
"H	c #B02E2E",
"I	c #BA3333",
"J	c #BA3332",
"K	c #BA3232",
"                ",
"  .+++++.+++..  ",
" @#$%&&%&&&&&#@ ",
" *=----;-;---=> ",
" ,')!~{)){]^)'> ",
" /(_:<[}}[<|_(/ ",
" /1234<55<4321/ ",
" 678890<<098abc ",
" 6deef0<<0feed6 ",
" ghijk<ll<kjihg ",
" mnop<qrrq<stnm ",
" uvwxyzAAzBCAvD ",
" DEFFFFFFFFFFED ",
" GHIIJIKJIJKJHG ",
"  GGGGGGGGGGGG  ",
"                "};
