/* XPM */
static char * detail_xpm[] = {
"16 16 104 2",
"  	c None",
". 	c #848682",
"+ 	c #7F817C",
"@ 	c #838580",
"# 	c #7E807B",
"$ 	c #FFFFFF",
"% 	c #82837F",
"& 	c #FCFCFC",
"* 	c #FBFBFB",
"= 	c #FAFAF9",
"- 	c #F8F8F7",
"; 	c #F6F6F5",
"> 	c #F4F4F3",
", 	c #F2F2F1",
"' 	c #F1F1EF",
") 	c #FEFEFE",
"! 	c #888A85",
"~ 	c #EFEFED",
"{ 	c #FCFCFB",
"] 	c #F3F3F1",
"^ 	c #EDEDEB",
"/ 	c #ECECE9",
"( 	c #FAFAFA",
"_ 	c #F5F5F3",
": 	c #EAEAE7",
"< 	c #F8F8F8",
"[ 	c #CC0000",
"} 	c #E8E8E5",
"| 	c #F6F6F6",
"1 	c #F5F5F4",
"2 	c #F3F3F2",
"3 	c #E6E6E3",
"4 	c #E5E5E1",
"5 	c #EBECED",
"6 	c #A1B5CE",
"7 	c #527BAF",
"8 	c #547DB0",
"9 	c #A0B4CC",
"0 	c #E3E4E3",
"a 	c #E1E2DF",
"b 	c #A1B3C8",
"c 	c #5D84B5",
"d 	c #486FA0",
"e 	c #F1F1F0",
"f 	c #9FB4CD",
"g 	c #7393BD",
"h 	c #D9E1EA",
"i 	c #BBCBDB",
"j 	c #4E79AD",
"k 	c #A2B5CB",
"l 	c #D2D7DA",
"m 	c #6E90BA",
"n 	c #D7E0EA",
"o 	c #AFBFD0",
"p 	c #4471A9",
"q 	c #F0F0EE",
"r 	c #5079AE",
"s 	c #CFDAE5",
"t 	c #EFF3F6",
"u 	c #DAE3EB",
"v 	c #97B0CB",
"w 	c #426EA8",
"x 	c #3A69A5",
"y 	c #426FA8",
"z 	c #CCD7E2",
"A 	c #F1F4F7",
"B 	c #C8D2D9",
"C 	c #82A2C5",
"D 	c #3A6AA6",
"E 	c #EEEEEC",
"F 	c #4F79AE",
"G 	c #C4D2E0",
"H 	c #D7E1EA",
"I 	c #C0D1E0",
"J 	c #95B0CD",
"K 	c #4671AA",
"L 	c #D4D8D9",
"M 	c #4974AA",
"N 	c #C1CFDD",
"O 	c #DDE6EE",
"P 	c #9CACBC",
"Q 	c #779CC6",
"R 	c #3969A6",
"S 	c #A7BCD7",
"T 	c #557EB1",
"U 	c #A1B9D3",
"V 	c #9CB6D4",
"W 	c #507AB0",
"X 	c #B1C4DC",
"Y 	c #B3C5DC",
"Z 	c #507AAF",
"` 	c #99B2D0",
" .	c #7894B2",
"..	c #3F6DA9",
"+.	c #848681",
"@.	c #7B7F7C",
"#.	c #5F748B",
"$.	c #436CA0",
"%.	c #436C9F",
"&.	c #60758B",
"*.	c #7C7F7B",
"=.	c #62768A",
"-.	c #466E9E",
";.	c #436DA1",
". + + + + + + + + + + + + @     ",
"# $ $ $ $ $ $ $ $ $ $ $ $ %     ",
"# $ & & & * = - ; > , ' ) %     ",
"# $ & ! ! ! ! ! ! ! ! ~ ) %     ",
"# $ & { = - ; > ] ' ~ ^ ) %     ",
"# $ { ! ! ! ! ! ! ~ ^ / ) %     ",
"# $ ( - ; _ ] ' ~ ^ / : ) %     ",
"# $ < [ [ [ [ [ ^ / : } ) %     ",
"# $ | 1 2 ' ~ ^ / : } 3 ) %     ",
"# $ 1 ! ! ! ! ! ! ! 3 4 ) %     ",
"# $ 2 5 6 7 8 9 0 3 a b c d     ",
"# $ e f g h i j k l b m n o p   ",
"# $ q r s t u v w x y z A B C D ",
"# $ E F G H I J K L M N O P Q R ",
"# $ $ S T U V W X $ Y Z `  ...  ",
"+.# # @.#.$.%.&.*.# *.=.-.;.    "};
