/* XPM */
static char * down_xpm[] = {
"16 16 62 1",
" 	c None",
".	c #BE7312",
"+	c #BE7212",
"@	c #DA9131",
"#	c #E9A042",
"$	c #BD7210",
"%	c #E89E3D",
"&	c #FCB252",
"*	c #BD710E",
"=	c #E79B37",
"-	c #FAAE4A",
";	c #FAAD4A",
">	c #E79A37",
",	c #BD700E",
"'	c #BC700D",
")	c #E69732",
"!	c #F8A942",
"~	c #F8A943",
"{	c #F8AA42",
"]	c #BC6F0C",
"^	c #E4942C",
"/	c #F6A53B",
"(	c #FACC90",
"_	c #FEF4E6",
":	c #FAD5A5",
"<	c #F7A53B",
"[	c #BC6E0A",
"}	c #E39126",
"|	c #F6A134",
"1	c #FFFFFF",
"2	c #FCE0BC",
"3	c #F6A237",
"4	c #BC6E08",
"5	c #E28E20",
"6	c #F49D2C",
"7	c #F8C98B",
"8	c #FAD4A2",
"9	c #F49E2F",
"0	c #BB6C07",
"a	c #E08B1C",
"b	c #F29925",
"c	c #F7C584",
"d	c #F9D29F",
"e	c #E08B1B",
"f	c #BB6C06",
"g	c #E08816",
"h	c #F0941E",
"i	c #F0941D",
"j	c #F0951E",
"k	c #DF8816",
"l	c #BA6B04",
"m	c #DE8410",
"n	c #EE9016",
"o	c #BA6A02",
"p	c #DC810A",
"q	c #ED8C0E",
"r	c #EC8C0E",
"s	c #BA6901",
"t	c #D07704",
"u	c #DC7E06",
"v	c #B96900",
"w	c #BA6900",
"                ",
"  ............  ",
" +@##########@+ ",
" $%&&&&&&&&&&%$ ",
" *=-------;-->, ",
" ')!!!~!!!{!!)' ",
" ]^/(______:<^] ",
" [}||:111123|}[ ",
" 45666711896654 ",
" 0abbbbcdbbbbe0 ",
" fghhihhijiihkf ",
" lmnnnnnnnnnnml ",
" opqrrrrrrqrrpo ",
" stuuuuuuuuuuts ",
"  vwvvwwwwvwvw  ",
"                "};
