/* XPM */
static char * error_info_xpm[] = {
"16 16 8 1",
" 	c None",
".	c #F3DFDF",
"+	c #E3B3B3",
"@	c #D89595",
"#	c #F9EEEE",
"$	c #D89696",
"%	c #D58E8E",
"&	c #700303",
"                ",
"     .+@@+.     ",
"   #$%%%%%%$#   ",
"  #%%%%%%%%%%#  ",
"  $%&&&%%&&&%$  ",
" .%%&&&&&&&&%%. ",
" +%%&&&&&&&&%%+ ",
" @%%%&&&&&&%%%@ ",
" @%%%&&&&&&%%%@ ",
" +%%&&&&&&&&%%+ ",
" .%%&&&&&&&&%%. ",
"  $%&&&%%&&&%$  ",
"  #%%%%%%%%%%#  ",
"   #$%%%%%%$#   ",
"     .+@@+.     ",
"                "};
