/* XPM */
static char * fail_xpm[] = {
"16 16 65 1",
" 	c None",
".	c #F38383",
"+	c #F95555",
"@	c #F58888",
"#	c #F58889",
"$	c #F47D7E",
"%	c #F47E7E",
"&	c #F47D7D",
"*	c #F47E7D",
"=	c #F27373",
"-	c #F37373",
";	c #FCE6E6",
">	c #FFFFFF",
",	c #F8B8B7",
"'	c #FEF8F8",
")	c #F37372",
"!	c #F16869",
"~	c #F26868",
"{	c #FAD2D2",
"]	c #FEF6F6",
"^	c #FBD8D8",
"/	c #F16868",
"(	c #F15E5D",
"_	c #F05E5D",
":	c #FCE3E2",
"<	c #FEFBFB",
"[	c #F7AEAD",
"}	c #F15E5E",
"|	c #F05D5D",
"1	c #EF5353",
"2	c #F05353",
"3	c #F8BFBF",
"4	c #FEF7F7",
"5	c #F48585",
"6	c #EE4848",
"7	c #EF4948",
"8	c #F9C2C2",
"9	c #F7B3B3",
"0	c #EF4848",
"a	c #EE4849",
"b	c #FB3030",
"c	c #ED3E3E",
"d	c #EE3E3E",
"e	c #F7AEAE",
"f	c #ED3E3D",
"g	c #EC3333",
"h	c #F7AAAA",
"i	c #ED3333",
"j	c #EC3433",
"k	c #EB2829",
"l	c #F7A5A6",
"m	c #F6A5A5",
"n	c #EC2828",
"o	c #EB2828",
"p	c #F6A6A5",
"q	c #EB2929",
"r	c #EA1E1E",
"s	c #EA1E1D",
"t	c #EA1D1E",
"u	c #E91D1E",
"v	c #E81413",
"w	c #E91313",
"x	c #E91413",
"y	c #E91314",
"z	c #E81313",
"                ",
"  .++++++++++.  ",
" .@#@@@@@@@@@@. ",
" +$%%$&&&&*$$*+ ",
" +=-;>;-,'',)=+ ",
" +!~>>>{]>>^~/+ ",
" +(_:>>>>><[}|+ ",
" +1223>>>45221+ ",
" +6768>>>>90a6+ ",
" bcde>>>>>>effb ",
" bgg>>>hh>>>ijb ",
" bkkl>mnom>poqb ",
" brrstrrrrrutrb ",
" .vwxwyvwwzwwx. ",
"  .bbbbbbbbbb.  ",
"                "};
