/* XPM */
static char * finish_xpm[] = {
"17 18 90 1",
" 	c None",
".	c #D12121",
"+	c #DE5F5F",
"@	c #E06D6D",
"#	c #DE6D6D",
"$	c #BD1212",
"%	c #DD3E3E",
"&	c #FFCBCB",
"*	c #FFCCCC",
"=	c #DD7272",
"-	c #C70000",
";	c #F18A8A",
">	c #FFB8B8",
",	c #FFB9B9",
"'	c #B61C1C",
")	c #EC5252",
"!	c #FFA4A4",
"~	c #FFA5A5",
"{	c #E27070",
"]	c #EB4848",
"^	c #FF9090",
"/	c #FF9191",
"(	c #B82828",
"_	c #C9AC8B",
":	c #CF7931",
"<	c #C30000",
"[	c #BE0000",
"}	c #CB0808",
"|	c #FD6B6B",
"1	c #FF7C7C",
"2	c #FF7D7D",
"3	c #E55C5C",
"4	c #930000",
"5	c #E3A137",
"6	c #EBC67A",
"7	c #EE4830",
"8	c #FA3E3E",
"9	c #FE6060",
"0	c #FF6767",
"a	c #FF6868",
"b	c #E83030",
"c	c #B80000",
"d	c #B50000",
"e	c #B41313",
"f	c #940000",
"g	c #D99228",
"h	c #F2C871",
"i	c #DD8848",
"j	c #FF5252",
"k	c #FF5353",
"l	c #F63535",
"m	c #A40000",
"n	c #DC9B35",
"o	c #E6C077",
"p	c #F04F39",
"q	c #FF3D3D",
"r	c #FF3E3E",
"s	c #D91F1F",
"t	c #CA882A",
"u	c #EEC26A",
"v	c #DE854C",
"w	c #FF2828",
"x	c #FF2929",
"y	c #CA1515",
"z	c #D59330",
"A	c #EAC983",
"B	c #ED2D19",
"C	c #FF1313",
"D	c #C10D0D",
"E	c #ECBB60",
"F	c #D37E47",
"G	c #FF0202",
"H	c #F10707",
"I	c #990606",
"J	c #CE8D2A",
"K	c #E6C47F",
"L	c #B53012",
"M	c #B60000",
"N	c #9A0000",
"O	c #E2B15A",
"P	c #BF9254",
"Q	c #BE802B",
"R	c #EECF88",
"S	c #DEA94F",
"T	c #C59F66",
"U	c #B97A26",
"V	c #EBCA82",
"W	c #935C27",
"X	c #B38245",
"Y	c #7F6152",
"       .+@#$     ",
"      %&***=     ",
"     -;>,,,,'    ",
"     ))!~~~~{    ",
"    ))]^^////(   ",
" _:<[}|11222234  ",
" 5678900aabcdef  ",
" ghijjjjklm      ",
"  nopqqqrs       ",
"  tuvwwwxy       ",
"   zABCCCD       ",
"    EFGGHI       ",
"    JKLMN        ",
"     OP          ",
"     QR          ",
"      ST         ",
"      UVW        ",
"       XY        "};
