/* XPM */
static char * info_xpm[] = {
"16 16 145 2",
"  	c None",
". 	c #5778CA",
"+ 	c #7496E0",
"@ 	c #82A4E9",
"# 	c #7C9EE2",
"$ 	c #6485CE",
"% 	c #3C5CAB",
"& 	c #3B5AAF",
"* 	c #789AEA",
"= 	c #9ABCFF",
"- 	c #A0C2FF",
"; 	c #AACAFE",
"> 	c #A7C8FC",
", 	c #A1C3FF",
"' 	c #9CBEFF",
") 	c #698AD8",
"! 	c #3653A6",
"~ 	c #7698F1",
"{ 	c #8FB1FF",
"] 	c #98BAFF",
"^ 	c #A0C1FD",
"/ 	c #F5F9FD",
"( 	c #F0F4F9",
"_ 	c #9EBFF9",
": 	c #92B4FF",
"< 	c #6F91E6",
"[ 	c #5778D5",
"} 	c #81A2FE",
"| 	c #8BADFF",
"1 	c #93B5FF",
"2 	c #99BAFD",
"3 	c #D9E1EE",
"4 	c #D1D9E6",
"5 	c #99BBFB",
"6 	c #95B7FF",
"7 	c #8EB0FF",
"8 	c #84A6FF",
"9 	c #5272CA",
"0 	c #304C9C",
"a 	c #6F91F0",
"b 	c #7B9DFB",
"c 	c #85A7FF",
"d 	c #8DAEFF",
"e 	c #96B7FE",
"f 	c #99B9FC",
"g 	c #9EBDFD",
"h 	c #94B6FD",
"i 	c #8FB0FF",
"j 	c #88A9FF",
"k 	c #7FA1FE",
"l 	c #7193F1",
"m 	c #2A4286",
"n 	c #3F5DB1",
"o 	c #6A8CEA",
"p 	c #7496F4",
"q 	c #7D9FFC",
"r 	c #86A6FA",
"s 	c #E3E8EC",
"t 	c #FBFCFD",
"u 	c #FEFFFF",
"v 	c #8DABEF",
"w 	c #86A8FF",
"x 	c #80A1FE",
"y 	c #7899F8",
"z 	c #6F91EF",
"A 	c #405BA7",
"B 	c #415FB4",
"C 	c #6385E3",
"D 	c #6C8EEC",
"E 	c #7B9CFA",
"F 	c #7D9EF8",
"G 	c #F6F8FA",
"H 	c #86A3F0",
"I 	c #7799F7",
"J 	c #7192F0",
"K 	c #698BE8",
"L 	c #4662AF",
"M 	c #3C59AB",
"N 	c #5C7DDB",
"O 	c #6485E3",
"P 	c #6B8CEA",
"Q 	c #7596F2",
"R 	c #F4F7FA",
"S 	c #7E9BEA",
"T 	c #7394F2",
"U 	c #6E90ED",
"V 	c #688AE7",
"W 	c #6283E1",
"X 	c #435DA6",
"Y 	c #304A91",
"Z 	c #5476D3",
"` 	c #5B7DDA",
" .	c #6283E0",
"..	c #6688E5",
"+.	c #6A8BE7",
"@.	c #F3F6F9",
"#.	c #FDFFFF",
"$.	c #7693E2",
"%.	c #698AE8",
"&.	c #6586E4",
"*.	c #6081DF",
"=.	c #5B7CD9",
"-.	c #314784",
";.	c #4969C4",
">.	c #5374D1",
",.	c #5879D6",
"'.	c #5F80DC",
").	c #F1F5F8",
"!.	c #FCFEFF",
"~.	c #6D8ADA",
"{.	c #5F80DE",
"].	c #5C7DDA",
"^.	c #4766BE",
"/.	c #314A8E",
"(.	c #4B6CC8",
"_.	c #5071CD",
":.	c #5878D0",
"<.	c #D8E3F2",
"[.	c #EEF6F9",
"}.	c #F0F8FB",
"|.	c #DCE6F3",
"1.	c #6B87D4",
"2.	c #5475D2",
"3.	c #4F70CC",
"4.	c #1E336D",
"5.	c #365099",
"6.	c #4768C4",
"7.	c #4C6CC8",
"8.	c #5976C3",
"9.	c #5975C3",
"0.	c #5875C2",
"a.	c #5171CA",
"b.	c #496AC5",
"c.	c #203777",
"d.	c #2C4077",
"e.	c #3B59AC",
"f.	c #4565C1",
"g.	c #4869C5",
"h.	c #4565C0",
"i.	c #324F9F",
"j.	c #172859",
"k.	c #1D2B50",
"l.	c #223363",
"m.	c #1D2E5F",
"n.	c #142042",
"                                ",
"          . + @ # $ %           ",
"      & * = - ; > , ' )         ",
"    ! ~ { ] ^ / ( _ = : <       ",
"    [ } | 1 2 3 4 5 6 7 8 9     ",
"  0 a b c d e f g h i j k l m   ",
"  n o p q r s t u v w x y z A   ",
"  B C D p E F G u H q I J K L   ",
"  M N O P J Q R u S T U V W X   ",
"  Y Z `  ...+.@.#.$.%.&.*.=.-.  ",
"    ;.>.,.N '.).!.~.{.].,.^.    ",
"    /.(._.:.<.[.}.|.1.2.3.4.    ",
"      5.6.7.8.8.9.0.a.b.c.      ",
"        d.e.f.g.b.h.i.j.        ",
"            k.l.m.n.            ",
"                                "};
