/* XPM */
static char * logo_16_xpm[] = {
"16 16 9 1",
" 	c None",
".	c #3F28EC",
"+	c #543ED3",
"@	c #AA946D",
"#	c #947F86",
"$	c #FFEB07",
"%	c #7F69A0",
"&	c #EAD520",
"*	c #D4C03A",
"                ",
"  ............  ",
" ..........+@.. ",
" .........#$$@. ",
" .......%&$$$+. ",
" .....+*$$$$#.. ",
" ...+@$$$$$&... ",
" ..#&$$$$$$%... ",
" .&$$$$$$$*.... ",
" .$$$$$$$$+.... ",
" .....$$$@..... ",
" .....$$&+..... ",
" .....$$#...... ",
" .....$&....... ",
"  ............  ",
"                "};
