/* XPM */
static char * movie_xpm[] = {
"16 16 158 2",
"  	c None",
". 	c #923D31",
"+ 	c #B6210D",
"@ 	c #B42401",
"# 	c #29820B",
"$ 	c #198112",
"% 	c #337131",
"& 	c #804E47",
"* 	c #C72405",
"= 	c #F8400E",
"- 	c #FF4A16",
"; 	c #FC4F10",
"> 	c #62C31F",
", 	c #40C817",
"' 	c #23B008",
") 	c #048102",
"! 	c #486A4A",
"~ 	c #804E46",
"{ 	c #DF2E06",
"] 	c #FF7132",
"^ 	c #FF903E",
"/ 	c #EE9A5F",
"( 	c #DCA17D",
"_ 	c #A4D181",
": 	c #8AD761",
"< 	c #5ECA2B",
"[ 	c #2DBA11",
"} 	c #008A00",
"| 	c #466747",
"1 	c #C92502",
"2 	c #FF7233",
"3 	c #F89D47",
"4 	c #CDB38E",
"5 	c #C2C6C6",
"6 	c #D2DBE0",
"7 	c #E0D9E5",
"8 	c #E3E0E4",
"9 	c #BFE1AC",
"0 	c #58C22E",
"a 	c #1BAF0C",
"b 	c #007100",
"c 	c #913B2E",
"d 	c #FB4211",
"e 	c #FE9040",
"f 	c #D1B692",
"g 	c #B7C2D0",
"h 	c #989A9D",
"i 	c #BEBFBF",
"j 	c #FBFBFB",
"k 	c #FDF9FE",
"l 	c #FFF7FF",
"m 	c #BCE2AB",
"n 	c #30B315",
"o 	c #009300",
"p 	c #30602F",
"q 	c #B82109",
"r 	c #FF5015",
"s 	c #EE9C5B",
"t 	c #C3C8C8",
"u 	c #CFD1D5",
"v 	c #7F7F7F",
"w 	c #464646",
"x 	c #757575",
"y 	c #DFDFDF",
"z 	c #FFFFFF",
"A 	c #F9FCF7",
"B 	c #55BF48",
"C 	c #009903",
"D 	c #0B5F0E",
"E 	c #B1210F",
"F 	c #EE5024",
"G 	c #DBA382",
"H 	c #CFD7DB",
"I 	c #D7D7D8",
"J 	c #696969",
"K 	c #2D2D2D",
"L 	c #000000",
"M 	c #242424",
"N 	c #949494",
"O 	c #FEFEFF",
"P 	c #83D075",
"Q 	c #1B9C06",
"R 	c #156509",
"S 	c #115CA7",
"T 	c #158EEE",
"U 	c #7DB7E0",
"V 	c #EBE1DC",
"W 	c #DADADA",
"X 	c #3B3B3C",
"Y 	c #0C0C0C",
"Z 	c #5A5A5B",
"` 	c #EEF0FA",
" .	c #F7E375",
"..	c #E4BD0B",
"+.	c #A0810B",
"@.	c #0B5CA8",
"#.	c #008EFF",
"$.	c #46B0F6",
"%.	c #F1EBE6",
"&.	c #DEDBD8",
"*.	c #171818",
"=.	c #2F2F2F",
"-.	c #A5A5A5",
";.	c #FBFCFD",
">.	c #FFFFF6",
",.	c #F1C641",
"'.	c #EAB315",
").	c #A47D11",
"!.	c #315A85",
"~.	c #0078EA",
"{.	c #0695FD",
"].	c #A8DAF9",
"^.	c #EADED0",
"/.	c #211D19",
"(.	c #706F6F",
"_.	c #EAEAEA",
":.	c #EFDA9B",
"<.	c #D5A313",
"[.	c #E5B31C",
"}.	c #8E782E",
"|.	c #0054AD",
"1.	c #0082F2",
"2.	c #1895F8",
"3.	c #90C1E5",
"4.	c #C9CAC8",
"5.	c #FCF9F3",
"6.	c #EAD59A",
"7.	c #D3A018",
"8.	c #EEC02C",
"9.	c #C79F09",
"0.	c #495C73",
"a.	c #0055B8",
"b.	c #0078E5",
"c.	c #0883ED",
"d.	c #48A3F8",
"e.	c #77B1E4",
"f.	c #E2C976",
"g.	c #E7BA40",
"h.	c #E1AD16",
"i.	c #F8CE2E",
"j.	c #E2C00C",
"k.	c #837945",
"l.	c #4C596E",
"m.	c #043F89",
"n.	c #0956B2",
"o.	c #0A5CC1",
"p.	c #2563A7",
"q.	c #EAC216",
"r.	c #FFD713",
"s.	c #F6DF1E",
"t.	c #CBB80B",
"u.	c #827D46",
"v.	c #3E455D",
"w.	c #272D5A",
"x.	c #3B3A51",
"y.	c #BCB510",
"z.	c #BAB511",
"A.	c #959331",
"                                ",
"          . + @ # $ %           ",
"      & * = - ; > , ' ) !       ",
"    ~ { ] ^ / ( _ : < [ } |     ",
"    1 2 3 4 5 6 7 8 9 0 a b     ",
"  c d e f g h i j k l m n o p   ",
"  q r s t u v w x y z A B C D   ",
"  E F G H I J K L M N O P Q R   ",
"  S T U V W X Y L L Z `  ...+.  ",
"  @.#.$.%.&.*.L =.-.;.>.,.'.).  ",
"  !.~.{.].^./.(._.z z :.<.[.}.  ",
"    |.1.2.3.4.z z 5.6.7.8.9.    ",
"    0.a.b.c.d.e.f.g.h.i.j.k.    ",
"      l.m.n.o.p.q.r.s.t.u.      ",
"          v.w.x.y.z.A.          ",
"                                "};
