/* XPM */
static char * msgsystem_16_xpm[] = {
"16 16 153 2",
"  	c None",
". 	c #4199CB",
"+ 	c #46A8D6",
"@ 	c #3DA0D1",
"# 	c #285E9C",
"$ 	c #327DB4",
"% 	c #51A0CD",
"& 	c #64BEE2",
"* 	c #6CD4F3",
"= 	c #57B9E1",
"- 	c #3998CA",
"; 	c #2074B0",
"> 	c #195091",
", 	c #2464A0",
"' 	c #3D84B8",
") 	c #53A5CF",
"! 	c #69C0E3",
"~ 	c #77D5F2",
"{ 	c #5CB2DB",
"] 	c #3D8BC0",
"^ 	c #276FAB",
"/ 	c #15609F",
"( 	c #1F69A4",
"_ 	c #2378B2",
": 	c #0A75AE",
"< 	c #218FC2",
"[ 	c #3799C8",
"} 	c #4EC1E6",
"| 	c #61CAEA",
"1 	c #6ECEEC",
"2 	c #56A5D0",
"3 	c #3E8ABE",
"4 	c #296DA9",
"5 	c #144C8F",
"6 	c #0D7FB7",
"7 	c #0673B2",
"8 	c #0390C6",
"9 	c #1594C8",
"0 	c #2BAED9",
"a 	c #3FB8E0",
"b 	c #4FC0E4",
"c 	c #4DA7D2",
"d 	c #3D82B8",
"e 	c #3276AE",
"f 	c #39A1CE",
"g 	c #1E6EA9",
"h 	c #168ABF",
"i 	c #0E73B1",
"j 	c #0069AC",
"k 	c #0074B1",
"l 	c #077BB3",
"m 	c #197BB2",
"n 	c #2B94C4",
"o 	c #3BB5DD",
"p 	c #42B5DC",
"q 	c #3894C4",
"r 	c #3698C7",
"s 	c #36B0D8",
"t 	c #278EC1",
"u 	c #1788BF",
"v 	c #066CAE",
"w 	c #1D5096",
"x 	c #004B92",
"y 	c #003B7F",
"z 	c #004184",
"A 	c #095191",
"B 	c #176AA4",
"C 	c #24A6D2",
"D 	c #2EADD7",
"E 	c #32AED7",
"F 	c #30AAD4",
"G 	c #2AA0CE",
"H 	c #1F72A9",
"I 	c #13407E",
"J 	c #044D92",
"K 	c #21478E",
"L 	c #002268",
"M 	c #002266",
"N 	c #002A6E",
"O 	c #003276",
"P 	c #064082",
"Q 	c #1186BD",
"R 	c #1A94C7",
"S 	c #1F94C7",
"T 	c #208FC3",
"U 	c #1C80B8",
"V 	c #15427F",
"W 	c #0B1B59",
"X 	c #010846",
"Y 	c #152F80",
"Z 	c #001D69",
"` 	c #001A62",
" .	c #001C60",
"..	c #001E61",
"+.	c #003A7D",
"@.	c #0269AB",
"#.	c #0869AB",
"$.	c #0D71B1",
"%.	c #0F6EAE",
"&.	c #0D498A",
"*.	c #081654",
"=.	c #020742",
"-.	c #000037",
";.	c #011C78",
">.	c #002880",
",.	c #000F4D",
"'.	c #001253",
").	c #001F61",
"!.	c #004690",
"~.	c #014A94",
"{.	c #014B98",
"].	c #011F64",
"^.	c #00043D",
"/.	c #000034",
"(.	c #05063A",
"_.	c #181F72",
":.	c #001272",
"<.	c #000B4F",
"[.	c #00053C",
"}.	c #000640",
"|.	c #000843",
"1.	c #000C48",
"2.	c #000F4C",
"3.	c #002A7B",
"4.	c #00277F",
"5.	c #000339",
"6.	c #00002E",
"7.	c #202153",
"8.	c #0A0B5A",
"9.	c #000450",
"0.	c #000130",
"a.	c #000132",
"b.	c #00043B",
"c.	c #000C5B",
"d.	c #001371",
"e.	c #000E6F",
"f.	c #000354",
"g.	c #0D0D40",
"h.	c #0F0F35",
"i.	c #000022",
"j.	c #00003C",
"k.	c #000027",
"l.	c #000025",
"m.	c #00024A",
"n.	c #00014C",
"o.	c #131343",
"p.	c #313142",
"q.	c #101023",
"r.	c #020213",
"s.	c #00000D",
"t.	c #030317",
"u.	c #151527",
"v.	c #35354A",
"                                ",
"              . + @             ",
"        # $ % & * = - ;         ",
"      > , ' ) ! ~ { ] ^ / (     ",
"    _ : < [ } | 1 2 3 4 5 6     ",
"    7 8 9 0 a b c d e f g h i   ",
"    j k l m n o p q r s t u v   ",
"  w x y z A B C D E F G H I J   ",
"  K L M N O P Q R S T U V W X   ",
"  Y Z `  ...+.@.#.$.%.&.*.=.-.  ",
"    ;.>.,.,.'.).!.~.{.].^./.(.  ",
"    _.:.<.[.}.|.1.2.3.4.5.6.7.  ",
"      8.9.6.0.a.b.c.d.e.f.g.    ",
"        h.i.j.k.l.m.n.j.o.      ",
"          p.q.r.s.t.u.v.        ",
"                                "};
