/* XPM */
static char * new_xpm[] = {
"16 16 92 2",
"  	c None",
". 	c #6AB266",
"+ 	c #9FD899",
"@ 	c #76A876",
"# 	c #949494",
"$ 	c #76CC62",
"% 	c #B0FE94",
"& 	c #A1CA9C",
"* 	c #E0E0E0",
"= 	c #DBDBDB",
"- 	c #D6D6D6",
"; 	c #D1D1D1",
"> 	c #CCCCCC",
", 	c #66CA46",
"' 	c #9AFB69",
") 	c #9FCB98",
"! 	c #E6E6E6",
"~ 	c #E4E4E4",
"{ 	c #DADADA",
"] 	c #D3D3D3",
"^ 	c #BABABA",
"/ 	c #A7A7A7",
"( 	c #3A9E22",
"_ 	c #59BE34",
": 	c #74D845",
"< 	c #82E64E",
"[ 	c #8CD371",
"} 	c #7EC667",
"| 	c #95BD93",
"1 	c #E3E3E3",
"2 	c #DCDCDC",
"3 	c #B6B6B6",
"4 	c #CACACA",
"5 	c #A2A2A2",
"6 	c #45AA24",
"7 	c #6CD038",
"8 	c #A1C79C",
"9 	c #E7E7E7",
"0 	c #B8B8B8",
"a 	c #B2B2B2",
"b 	c #A8A8A8",
"c 	c #2C9D16",
"d 	c #44BA22",
"e 	c #9EC59A",
"f 	c #E9E9E9",
"g 	c #E5E5E5",
"h 	c #DDDDDD",
"i 	c #087504",
"j 	c #0D7C06",
"k 	c #109208",
"l 	c #16A40A",
"m 	c #6BB167",
"n 	c #93C090",
"o 	c #92BF90",
"p 	c #BCD1BB",
"q 	c #EAEAEA",
"r 	c #109008",
"s 	c #18A40C",
"t 	c #8EC18C",
"u 	c #F0F0F0",
"v 	c #EFEFEF",
"w 	c #EEEEEE",
"x 	c #ECECEC",
"y 	c #E2E2E2",
"z 	c #2E9E16",
"A 	c #46BA22",
"B 	c #96C590",
"C 	c #F2F2F2",
"D 	c #EDEDED",
"E 	c #E8E8E8",
"F 	c #1D830E",
"G 	c #78AB6D",
"H 	c #90C385",
"I 	c #B7D2B6",
"J 	c #F3F3F3",
"K 	c #EBEBEB",
"L 	c #C5C5C5",
"M 	c #F6F6F6",
"N 	c #F5F5F5",
"O 	c #F4F4F4",
"P 	c #C6C6C6",
"Q 	c #F7F7F7",
"R 	c #F1F1F1",
"S 	c #F8F8F8",
"T 	c #999999",
"U 	c #AEAEAE",
"V 	c #C4C4C4",
"W 	c #C3C3C3",
"X 	c #C2C2C2",
"Y 	c #C1C1C1",
"Z 	c #C0C0C0",
"` 	c #BFBFBF",
"                                ",
"      . + + @ # # # # #         ",
"      $ % % & * = - ; > #       ",
"      , ' ' ) ! ~ * { ] ^ /     ",
"( _ _ : < < [ } } | 1 2 3 4 5   ",
"6 7 7 7 7 7 7 7 7 8 9 ~ 0 a b # ",
"c d d d d d d d d e f 9 g h ] # ",
"i j j k l l m n o p q f 9 ~ 2 # ",
"      r s s t u v w x q f 9 y # ",
"      z A A B C u v D x q E ! # ",
"      F G H I J C u v D K f E # ",
"        L M N O J C u w x q E # ",
"        P Q M N O C R v D K f # ",
"        P S Q M N O C u w x q T ",
"        U P P L L V W X Y Z ` # ",
"                                "};
