/* XPM */
static char * ok_xpm[] = {
"16 16 56 1",
" 	c None",
".	c #7EC23D",
"+	c #8CD049",
"@	c #73B632",
"#	c #98DB55",
"$	c #8ADA3B",
"%	c #94DB4E",
"&	c #86C748",
"*	c #91DC46",
"=	c #7ED627",
"-	c #81C53F",
";	c #9BDF57",
">	c #7CD622",
",	c #89D63D",
"'	c #8CCD4D",
")	c #80D829",
"!	c #7CD623",
"~	c #80C33F",
"{	c #76B835",
"]	c #70B52E",
"^	c #95DF4C",
"/	c #7BD720",
"(	c #8BD542",
"_	c #79BB3A",
":	c #ADE873",
"<	c #9DDA63",
"[	c #94D356",
"}	c #86DB32",
"|	c #82D92B",
"1	c #7CBF3C",
"2	c #97D45B",
"3	c #A7E868",
"4	c #A7E768",
"5	c #A3E167",
"6	c #87C54A",
"7	c #A0E35D",
"8	c #7FD925",
"9	c #8BD244",
"0	c #98D55D",
"a	c #A4E663",
"b	c #A1E55F",
"c	c #9EE45A",
"d	c #8ADD37",
"e	c #88DB35",
"f	c #77B937",
"g	c #8DCC50",
"h	c #97E24E",
"i	c #84DC2D",
"j	c #80DA27",
"k	c #8ACF46",
"l	c #7DC03D",
"m	c #8FDE41",
"n	c #8EDE3F",
"o	c #6DB12D",
"p	c #6BAB2F",
"q	c #7DBF3D",
"                ",
"                ",
"          .+@   ",
"          #$%   ",
"         &*=-   ",
"         ;>,    ",
"        ')!~    ",
"   {   ]^/(     ",
"  _:<  [}|1     ",
"  23456789      ",
"   0abcdef      ",
"    ghijk       ",
"     lmno       ",
"      pq        ",
"                ",
"                "};
