/* XPM */
static char * option_xpm[] = {
"16 16 95 2",
"  	c None",
". 	c #C9D1D8",
"+ 	c #BCC5CF",
"@ 	c #C1CAD2",
"# 	c #CCD3D9",
"$ 	c #B3BDC8",
"% 	c #BAC4CD",
"& 	c #D3D9DF",
"* 	c #BDC5CF",
"= 	c #CCD3DA",
"- 	c #BEC7D1",
"; 	c #B0BDC9",
"> 	c #ABB9C8",
", 	c #B6C1CD",
"' 	c #A5B1BE",
") 	c #CDD4DB",
"! 	c #C9D0D7",
"~ 	c #CFD6DC",
"{ 	c #D0D7DD",
"] 	c #ADB9C6",
"^ 	c #9AA9B8",
"/ 	c #B3C1CF",
"( 	c #D7E2ED",
"_ 	c #D6E2ED",
": 	c #C2D0DD",
"< 	c #A3B2C1",
"[ 	c #DDE1E6",
"} 	c #AEB9C4",
"| 	c #C1CAD3",
"1 	c #9BAABA",
"2 	c #9DACBB",
"3 	c #A4B1BE",
"4 	c #9EACBA",
"5 	c #A6B5C4",
"6 	c #ACBBC9",
"7 	c #DBE6F0",
"8 	c #D4E0EC",
"9 	c #BAC9D7",
"0 	c #A0AEBB",
"a 	c #E7EBEE",
"b 	c #8D9FB0",
"c 	c #D0DCE7",
"d 	c #C9D6E2",
"e 	c #96A5B5",
"f 	c #BEC7D0",
"g 	c #9CAEBF",
"h 	c #C1CFDC",
"i 	c #8FA0B0",
"j 	c #8295A9",
"k 	c #BAC9D6",
"l 	c #B9C9D6",
"m 	c #BFC8D1",
"n 	c #9FAEBE",
"o 	c #95A8BB",
"p 	c #D3DFEB",
"q 	c #AABACA",
"r 	c #BFC9D3",
"s 	c #B1BDC8",
"t 	c #D3D9E0",
"u 	c #7E92A6",
"v 	c #879AAD",
"w 	c #8297AC",
"x 	c #8297AB",
"y 	c #8EA2B4",
"z 	c #BECCD9",
"A 	c #C8D5E2",
"B 	c #ABBBCB",
"C 	c #8B9DAF",
"D 	c #A6B3BF",
"E 	c #B9C2CC",
"F 	c #C8D0D7",
"G 	c #8B9EB2",
"H 	c #8DA2B6",
"I 	c #738A9F",
"J 	c #93A6B9",
"K 	c #93A5B7",
"L 	c #A1AFBC",
"M 	c #9BAAB8",
"N 	c #B5C0CA",
"O 	c #7F94A8",
"P 	c #8498AD",
"Q 	c #A3B1BF",
"R 	c #8699AC",
"S 	c #ABB7C3",
"T 	c #ACBBCB",
"U 	c #ACBBCA",
"V 	c #ACB9C5",
"W 	c #99ABBD",
"X 	c #CCDAE6",
"Y 	c #A1B2C2",
"Z 	c #B2BDC8",
"` 	c #93A2B1",
" .	c #798DA1",
"..	c #8A9BAB",
"+.	c #B7BABD",
"                                ",
"                .     +         ",
"              @ # $ % & *       ",
"              = - ; > , ' ) !   ",
"      ~   { ] ^ / ( _ : < [ }   ",
"  | 1 2 3 4 5 6 7     8 9 0     ",
"a b c d e   f g         h i     ",
"  j k l ^ m n o c     p q r s   ",
"  t u v     w x y z A B C D E   ",
"          F 4   G H I J K       ",
"        L < M N O P   Q R       ",
"      S T   U '                 ",
"      V W X Y Z                 ",
"        `  ...                  ",
"          +.                    ",
"                                "};
