/* XPM */
static char * pause_xpm[] = {
"16 16 103 2",
"  	c None",
". 	c #92DF54",
"+ 	c #89CA56",
"@ 	c #76BC3E",
"# 	c #77BD40",
"$ 	c #8ACA57",
"% 	c #7EC743",
"& 	c #7FB157",
"* 	c #ADC896",
"= 	c #B6CEA2",
"- 	c #AEC998",
"; 	c #80B157",
"> 	c #7EC742",
", 	c #74BF38",
"' 	c #94BC73",
") 	c #B2D099",
"! 	c #B7DA9A",
"~ 	c #B9DF9B",
"{ 	c #B2D199",
"] 	c #92BA70",
"^ 	c #74BE37",
"/ 	c #8BCF55",
"( 	c #7CB250",
"_ 	c #B1DD8B",
": 	c #BAEE8D",
"< 	c #BBEF8E",
"[ 	c #B1DE8A",
"} 	c #79B24C",
"| 	c #67B429",
"1 	c #AADF7B",
"2 	c #B7EF82",
"3 	c #ACE47D",
"4 	c #BEEA98",
"5 	c #A9E672",
"6 	c #A8E770",
"7 	c #AFE482",
"8 	c #B6EE80",
"9 	c #ACE07C",
"0 	c #C7E5AE",
"a 	c #76BF36",
"b 	c #B6F078",
"c 	c #CFEBB7",
"d 	c #FFFFFF",
"e 	c #A6E36C",
"f 	c #9FE15F",
"g 	c #D9EFC8",
"h 	c #B2EE74",
"i 	c #B5F078",
"j 	c #77C136",
"k 	c #B4DA96",
"l 	c #88CF43",
"m 	c #B5F06E",
"n 	c #CDE9B6",
"o 	c #A4E166",
"p 	c #9ADF52",
"q 	c #D8ECC8",
"r 	c #98EA39",
"s 	c #AAEE5A",
"t 	c #89D143",
"u 	c #DBECCD",
"v 	c #7AC82A",
"w 	c #B4F264",
"x 	c #B6F266",
"y 	c #CCE6B6",
"z 	c #9ADE4C",
"A 	c #8FDC34",
"B 	c #D7EAC8",
"C 	c #9FEC3B",
"D 	c #A3EF3F",
"E 	c #7ECB2D",
"F 	c #7DC041",
"G 	c #ACF246",
"H 	c #AFF44A",
"I 	c #CAE3B3",
"J 	c #9EDD4D",
"K 	c #96DC3B",
"L 	c #D6E8C8",
"M 	c #AAF044",
"N 	c #80C244",
"O 	c #8AB864",
"P 	c #7ED027",
"Q 	c #B8F84F",
"R 	c #A1DE4B",
"S 	c #A4DE52",
"T 	c #ACEC4A",
"U 	c #AFEE4A",
"V 	c #A0DC4C",
"W 	c #B8F74F",
"X 	c #83D22A",
"Y 	c #73AD44",
"Z 	c #78D020",
"` 	c #B1F34A",
" .	c #C5FC59",
"..	c #B3F44B",
"+.	c #7BD223",
"@.	c #91BA6F",
"#.	c #5DB319",
"$.	c #6FD316",
"%.	c #82E122",
"&.	c #82E223",
"*.	c #70D417",
"=.	c #749E51",
"-.	c #468E0B",
"                                ",
"          . + @ # $ .           ",
"        % & * = = - ; >         ",
"      , ' ) ! ~ ~ ! { ] ^       ",
"    / ( _ : < < < < : [ } /     ",
"    | 1 2 3 4 5 6 4 7 8 9 |     ",
"  0 a b b c d e f d g h i j 0   ",
"  k l m m n d o p d q r s t k   ",
"  u v w x y d z A d B C D E u   ",
"    F G H I d J K d L M G N     ",
"    O P Q R S T U S V W X O     ",
"      Y Z `  . . . ...+.Y       ",
"        @.#.$.%.&.*.#.@.        ",
"            =.-.-.=.            ",
"                                ",
"                                "};
