/* XPM */
static char * plus_xpm[] = {
"16 16 99 2",
"  	c None",
". 	c #037884",
"+ 	c #037883",
"@ 	c #037882",
"# 	c #05A2A8",
"$ 	c #06B6BC",
"% 	c #06B5BC",
"& 	c #037682",
"* 	c #06B2B8",
"= 	c #09CAD2",
"- 	c #09CAD1",
"; 	c #09CAD0",
"> 	c #06B1B7",
", 	c #037681",
"' 	c #027580",
") 	c #06ADB4",
"! 	c #08C4CC",
"~ 	c #08C4CB",
"{ 	c #A2E9EC",
"] 	c #8BE4E7",
"^ 	c #08C4CA",
"/ 	c #06ACB3",
"( 	c #027480",
"_ 	c #02747F",
": 	c #06A9AF",
"< 	c #08BEC6",
"[ 	c #08BEC5",
"} 	c #FFFFFF",
"| 	c #E0F7F7",
"1 	c #08BEC4",
"2 	c #06A8AE",
"3 	c #02747E",
"4 	c #02727E",
"5 	c #06A5AA",
"6 	c #08B9C0",
"7 	c #08B8C0",
"8 	c #E0F6F7",
"9 	c #08B8BE",
"0 	c #06A4AA",
"a 	c #02717C",
"b 	c #05A0A6",
"c 	c #07B3BA",
"d 	c #A6E4E6",
"e 	c #E0F6F6",
"f 	c #FBFEFE",
"g 	c #C0ECED",
"h 	c #07B2B8",
"i 	c #05A0A5",
"j 	c #02707C",
"k 	c #059CA2",
"l 	c #07ADB4",
"m 	c #C0EAEC",
"n 	c #E0F4F5",
"o 	c #07ACB2",
"p 	c #059BA1",
"q 	c #02707B",
"r 	c #016E7A",
"s 	c #04989D",
"t 	c #06A8AD",
"u 	c #E0F4F4",
"v 	c #06A6AC",
"w 	c #06A7AC",
"x 	c #04979C",
"y 	c #016E78",
"z 	c #049398",
"A 	c #06A2A8",
"B 	c #06A2A7",
"C 	c #06A2A6",
"D 	c #E0F3F4",
"E 	c #06A1A6",
"F 	c #06A0A6",
"G 	c #049298",
"H 	c #016C78",
"I 	c #048F94",
"J 	c #069CA2",
"K 	c #069CA1",
"L 	c #EFF8F9",
"M 	c #D0ECED",
"N 	c #069CA0",
"O 	c #069BA0",
"P 	c #069AA0",
"Q 	c #048E93",
"R 	c #016B76",
"S 	c #048A90",
"T 	c #05969B",
"U 	c #05969A",
"V 	c #149CA0",
"W 	c #119A9F",
"X 	c #05959A",
"Y 	c #04898F",
"Z 	c #016A76",
"` 	c #006A75",
" .	c #027F84",
"..	c #04868C",
"+.	c #04868B",
"@.	c #04868A",
"#.	c #03868A",
"$.	c #027E83",
"%.	c #006974",
"                                ",
"    . . . . + + + + + + + +     ",
"  @ # $ $ $ $ % % % % % % # @   ",
"  & * = = = = = - - ; ; ; > ,   ",
"  ' ) ! ! ! ~ { ] ^ ^ ^ ^ / (   ",
"  _ : < < [ [ } | 1 1 1 1 2 3   ",
"  4 5 6 7 7 7 } 8 9 9 9 9 0 4   ",
"  a b c d e e } f e e g h i j   ",
"  j k l m } } } } } } n o p q   ",
"  r s 2 2 t t } u v w v v x r   ",
"  y z A A B C } D E E F F G y   ",
"  H I J J K K L M N O O P Q H   ",
"  R S T T T U V W U U X X Y Z   ",
"  `  ...+.@.@.@.#.@.@.@.@.$.`   ",
"    %.%.%.%.%.%.%.%.%.%.%.%.    ",
"                                "};
