/* XPM */
static char * property_xpm[] = {
"16 16 137 2",
"  	c None",
". 	c #A4A4A7",
"+ 	c #ADACAD",
"@ 	c #AAABAC",
"# 	c #ADADAF",
"$ 	c #AEAFB0",
"% 	c #ACADAF",
"& 	c #ABACAE",
"* 	c #B8B3B3",
"= 	c #E6C4B7",
"- 	c #AE9C98",
"; 	c #A8A9AE",
"> 	c #B6B5B8",
", 	c #CFC8CB",
"' 	c #C7C8CB",
") 	c #C6C7CA",
"! 	c #C8C8CB",
"~ 	c #C8C9CB",
"{ 	c #C8C7C8",
"] 	c #CEC1BC",
"^ 	c #A29493",
"/ 	c #73757A",
"( 	c #AAABB0",
"_ 	c #C7C6D1",
": 	c #DFD9E5",
"< 	c #DBDCE8",
"[ 	c #D9DAE6",
"} 	c #D8D9E5",
"| 	c #D9DAE7",
"1 	c #DED9D4",
"2 	c #DFBE77",
"3 	c #B7AE9F",
"4 	c #AEB0B9",
"5 	c #727378",
"6 	c #ACAEB2",
"7 	c #CDCBD3",
"8 	c #E5DEE6",
"9 	c #E0E1E9",
"0 	c #DEDFE7",
"a 	c #DDDEE6",
"b 	c #DEDFE8",
"c 	c #EACF93",
"d 	c #DB9B21",
"e 	c #C3B8AA",
"f 	c #C6C7D0",
"g 	c #737478",
"h 	c #AEAFB3",
"i 	c #CECDD5",
"j 	c #E0E1EA",
"k 	c #DFE0E8",
"l 	c #DEDFE9",
"m 	c #E2DCD0",
"n 	c #ECB43D",
"o 	c #C39C5C",
"p 	c #DBDDE6",
"q 	c #C8C9D0",
"r 	c #747579",
"s 	c #AFB1B5",
"t 	c #D0CED6",
"u 	c #E5DFE7",
"v 	c #E2E2EB",
"w 	c #E1E1EA",
"x 	c #ECCE89",
"y 	c #D79926",
"z 	c #CAC1BB",
"A 	c #E6E7F1",
"B 	c #C9CAD1",
"C 	c #75777A",
"D 	c #B1B2B6",
"E 	c #D2D0D7",
"F 	c #E7E0E8",
"G 	c #E3E4EC",
"H 	c #E2E3ED",
"I 	c #E7DECD",
"J 	c #EAAF34",
"K 	c #C6A46F",
"L 	c #DFE1EB",
"M 	c #E7E7F0",
"N 	c #CCCDD4",
"O 	c #77787C",
"P 	c #B2B3B7",
"Q 	c #D3D1D9",
"R 	c #E8E1E9",
"S 	c #E5E6EE",
"T 	c #E5E5EC",
"U 	c #EFCC7E",
"V 	c #D5992E",
"W 	c #D4CECC",
"X 	c #E6E7F0",
"Y 	c #E8E8F0",
"Z 	c #CFCFD6",
"` 	c #797A7E",
" .	c #B3B4B7",
"..	c #D4D3DA",
"+.	c #E8E2EA",
"@.	c #EAE0C9",
"#.	c #E8AA2D",
"$.	c #CDB086",
"%.	c #E4E6F0",
"&.	c #E6E7EF",
"*.	c #E7E8F1",
"=.	c #CECFD7",
"-.	c #7B7C7F",
";.	c #B4B5B8",
">.	c #D7D5DC",
",.	c #EBE4EC",
"'.	c #E8E8ED",
").	c #EFC872",
"!.	c #D69F3B",
"~.	c #DEDADC",
"{.	c #E8E9F1",
"].	c #E3E3EC",
"^.	c #E1E2EB",
"/.	c #7A7A7D",
"(.	c #B6B7BA",
"_.	c #D9D8DF",
":.	c #ECE6F0",
"<.	c #ECE1CC",
"[.	c #E9AB32",
"}.	c #D7BF9F",
"|.	c #E4E5F0",
"1.	c #D9DAE3",
"2.	c #DBDCE5",
"3.	c #BDBEC5",
"4.	c #747578",
"5.	c #B4B5B7",
"6.	c #AFAEB0",
"7.	c #BAB8BB",
"8.	c #D3BBA3",
"9.	c #B58E5C",
"0.	c #A9A7A6",
"a.	c #A5A5A8",
"b.	c #A9AAAD",
"c.	c #B1B2B4",
"d.	c #828387",
"e.	c #757578",
"f.	c #766961",
"                                ",
"                                ",
"      . + @ # $ % & * = -       ",
"    ; > , ' ) ! ~ ) { ] ^ /     ",
"    ( _ : < [ } | 1 2 3 4 5     ",
"    6 7 8 9 0 a b c d e f g     ",
"    h i 8 j k l m n o p q r     ",
"    s t u v w 9 x y z A B C     ",
"    D E F G H I J K L M N O     ",
"    P Q R S T U V W X Y Z `     ",
"     ...+.A @.#.$.%.&.*.=.-.    ",
"    ;.>.,.'.).!.~.{.].^.N /.    ",
"    (._.:.<.[.}.|.1.2.X 3.4.    ",
"    5.6.7.8.9.0.a.b.c.% d.e.    ",
"          f.                    ",
"                                "};
