/* XPM */
static char * proxy_xpm[] = {
"16 16 102 2",
"  	c None",
". 	c #BDBEBB",
"+ 	c #BEC0BC",
"@ 	c #9FB5C5",
"# 	c #2386CA",
"$ 	c #2188CC",
"% 	c #2481C4",
"& 	c #478CC1",
"* 	c #D8D9D7",
"= 	c #F2F2F0",
"- 	c #DADBD9",
"; 	c #9EB4C4",
"> 	c #167AC1",
", 	c #1282CB",
"' 	c #137FC7",
") 	c #3B8AC3",
"! 	c #D0D1CF",
"~ 	c #DADDD8",
"{ 	c #D7DAD5",
"] 	c #DADCD8",
"^ 	c #D0D0CE",
"/ 	c #A7BBC7",
"( 	c #4092C9",
"_ 	c #3C98CF",
": 	c #3A9FD7",
"< 	c #55ACDA",
"[ 	c #D4D4D2",
"} 	c #CCCFC8",
"| 	c #CDD0CA",
"1 	c #CACDC6",
"2 	c #D3D4D2",
"3 	c #BBBDB8",
"4 	c #A4A6A2",
"5 	c #ACAEA8",
"6 	c #CED0CE",
"7 	c #CED0CA",
"8 	c #B6B8B5",
"9 	c #A5A6A4",
"0 	c #A4A5A4",
"a 	c #ABACAA",
"b 	c #CACCC6",
"c 	c #C6C8C2",
"d 	c #C8CCC5",
"e 	c #B5B8B2",
"f 	c #B0B4AE",
"g 	c #AFB1AE",
"h 	c #A0A29E",
"i 	c #B4B8B2",
"j 	c #B4BEC0",
"k 	c #ADB4B5",
"l 	c #9EA7A9",
"m 	c #B7C1C2",
"n 	c #D6DAD3",
"o 	c #D5D9D2",
"p 	c #CCD0C8",
"q 	c #CDD2CA",
"r 	c #CCD0C9",
"s 	c #9EB5C5",
"t 	c #1D82C9",
"u 	c #1A84CC",
"v 	c #1D7DC3",
"w 	c #448AC0",
"x 	c #CED1CA",
"y 	c #CDD1CA",
"z 	c #9EB5C3",
"A 	c #1281C9",
"B 	c #3C8FC7",
"C 	c #D6CEAF",
"D 	c #D3CBA8",
"E 	c #AFBFC8",
"F 	c #589CCA",
"G 	c #529FCD",
"H 	c #52A7D3",
"I 	c #6CB4D8",
"J 	c #C9CAC8",
"K 	c #CBCCC7",
"L 	c #BBBCB5",
"M 	c #BCBDBA",
"N 	c #BABBB8",
"O 	c #C8C9C6",
"P 	c #C6C6C4",
"Q 	c #ACAEAB",
"R 	c #959792",
"S 	c #9D9F9A",
"T 	c #ABABAB",
"U 	c #7B7B7B",
"V 	c #848484",
"W 	c #929292",
"X 	c #858585",
"Y 	c #A3A3A3",
"Z 	c #B3B5B1",
"` 	c #A7A8A6",
" .	c #A6A8A5",
"..	c #A8A9A7",
"+.	c #AEB0AD",
"@.	c #9C9C9C",
"#.	c #9B9B9B",
"$.	c #C4C6C1",
"%.	c #C6C7C2",
"&.	c #C5C6C2",
"*.	c #C5C6C1",
"=.	c #C8CAC5",
"                                ",
"                                ",
"        . + +     @ # $ % &     ",
"      * = = = -   ; > , ' )     ",
"    ! ~ { { { ] ^ / ( _ : <     ",
"    [ } | | | 1 2   3 4 5 6     ",
"    [ } 7 7 7 1 2 8 9 0 9 a     ",
"    [ b c c c d 2 e f g h i     ",
"    [ } 7 7 7 1 2   j k l m     ",
"    [ n o p q r 2 s t u v w     ",
"    [ n o | x y 2 z > , A B     ",
"    [ C D o o o 2 E F G H I     ",
"    J K L M N O P   Q R S .     ",
"    T U V W X U Y Z `  ...+.    ",
"        @.W #.    $.%.&.*.=.    ",
"                                "};
