/* XPM */
static char * quit_xpm[] = {
"16 16 92 2",
"  	c None",
". 	c #2E3436",
"+ 	c #8F918D",
"@ 	c #717370",
"# 	c #6C6D6B",
"$ 	c #50524F",
"% 	c #4D4D4C",
"& 	c #414241",
"* 	c #333433",
"= 	c #2E2E2D",
"- 	c #242424",
"; 	c #090B0B",
"> 	c #000000",
", 	c #D4D4D3",
"' 	c #8E8484",
") 	c #838383",
"! 	c #797979",
"~ 	c #727272",
"{ 	c #6B6B6B",
"] 	c #5C5C5C",
"^ 	c #575757",
"/ 	c #4F4F4E",
"( 	c #111313",
"_ 	c #A40000",
": 	c #8B8B8B",
"< 	c #7B7B7B",
"[ 	c #737373",
"} 	c #6E6E6E",
"| 	c #686868",
"1 	c #6D6D6C",
"2 	c #131616",
"3 	c #E78888",
"4 	c #8D8D8D",
"5 	c #848484",
"6 	c #7D7D7D",
"7 	c #767676",
"8 	c #717171",
"9 	c #6D6D6D",
"0 	c #8F8F8F",
"a 	c #8C8C8C",
"b 	c #B2B3B0",
"c 	c #CBCDC9",
"d 	c #636363",
"e 	c #161919",
"f 	c #DC5050",
"g 	c #8E8E8E",
"h 	c #898989",
"i 	c #C4C7C1",
"j 	c #D83C3C",
"k 	c #D94343",
"l 	c #D93F3F",
"m 	c #D83A3A",
"n 	c #BEC0BC",
"o 	c #616161",
"p 	c #717170",
"q 	c #CC0000",
"r 	c #929292",
"s 	c #656565",
"t 	c #7E7E7E",
"u 	c #707170",
"v 	c #CD0303",
"w 	c #969696",
"x 	c #848584",
"y 	c #70706F",
"z 	c #262826",
"A 	c #222422",
"B 	c #9B9B9B",
"C 	c #989898",
"D 	c #262926",
"E 	c #9F9F9F",
"F 	c #9A9A9A",
"G 	c #949494",
"H 	c #A2A2A2",
"I 	c #767978",
"J 	c #313331",
"K 	c #9A9393",
"L 	c #A6A6A6",
"M 	c #B1B1B1",
"N 	c #898C8B",
"O 	c #58441E",
"P 	c #523300",
"Q 	c #BDBEBD",
"R 	c #B7B7B7",
"S 	c #C1C1C0",
"T 	c #797C7C",
"U 	c #674000",
"V 	c #734800",
"W 	c #C5C6C5",
"X 	c #BDBDBC",
"Y 	c #584015",
"Z 	c #805001",
"` 	c #8F5902",
"  . . . . . . . . . . . . . . . ",
"  . + @ # $ % & * = - ; > > > . ",
"  . , ' ) ! ~ { ] ^ / ( > > > . ",
"  . _ _ : ) < [ } | 1 2 > > > . ",
"  . _ 3 _ 4 5 6 7 8 9 2 > > > . ",
"_ _ _ 3 3 _ 0 a b c d e > > > . ",
"_ 3 3 3 f 3 _ g h i d e > > > . ",
"_ 3 j k l m 3 _ n o p e > > > . ",
"_ f f q q f _ r s t u e > > > . ",
"_ _ _ v f _ w r x t y e z A A . ",
"  . _ f _ B C r x t y 2 D D D . ",
"  . _ _ E B F G h H I e J J J . ",
"  . _ K E L H M N . O P P P P . ",
"  . Q H R S T . O U U V V V V . ",
"  . W X T . Y Z Z Z ` ` ` ` ` . ",
"  . . . . . . . . . . . . . . . "};
