/* XPM */
static char * reload_xpm[] = {
"16 16 80 1",
" 	c None",
".	c #D4A20B",
"+	c #D2A00A",
"@	c #D9AF09",
"#	c #D8AF09",
"$	c #CE9D0A",
"%	c #D4AC08",
"&	c #D4AB08",
"*	c #D4AC09",
"=	c #CA9A09",
"-	c #D0A808",
";	c #D5B122",
">	c #E4CE71",
",	c #E4CC6D",
"'	c #D2AB10",
")	c #D2AD15",
"!	c #CB9A09",
"~	c #C79708",
"{	c #CBA408",
"]	c #E4D080",
"^	c #FEFEFC",
"/	c #FFFFFF",
"(	c #F7F1D8",
"_	c #F9F4E2",
":	c #CDA811",
"<	c #CBA407",
"[	c #C49408",
"}	c #C7A007",
"|	c #D6BA4B",
"1	c #F8F4E2",
"2	c #DCC669",
"3	c #F0E6BE",
"4	c #D8BE53",
"5	c #C7A107",
"6	c #C09206",
"7	c #C29D06",
"8	c #EEE3B8",
"9	c #D6BE5A",
"0	c #E5D596",
"a	c #FCFAF4",
"b	c #E6D79A",
"c	c #BD8E06",
"d	c #BE9906",
"e	c #EFE5C0",
"f	c #CAAC33",
"g	c #C19D10",
"h	c #C8A92E",
"i	c #CFB448",
"j	c #BA8C06",
"k	c #BA9605",
"l	c #D9C678",
"m	c #ECE2BC",
"n	c #C4A529",
"o	c #C6A934",
"p	c #D0B857",
"q	c #B68805",
"r	c #B59205",
"s	c #B59204",
"t	c #BA9914",
"u	c #F0EAD0",
"v	c #FCFBF6",
"w	c #BD9E1F",
"x	c #B38604",
"y	c #B18E04",
"z	c #B3910A",
"A	c #CFBA67",
"B	c #E1D4A0",
"C	c #DDCE95",
"D	c #C4AA44",
"E	c #B38504",
"F	c #AF8203",
"G	c #AD8B04",
"H	c #AC8B04",
"I	c #AF8202",
"J	c #AC8002",
"K	c #A88703",
"L	c #A97E02",
"M	c #AA7D02",
"N	c #A97D02",
"O	c #AA7E02",
"                ",
"  ............  ",
" +@@@@#@#@#@@@+ ",
" $%&%%&%&&&&*&$ ",
" =----;>,')---! ",
" ~{{{]^//(_:{<~ ",
" [}}|/123//45}[ ",
" 6778/970a/b776 ",
" cdde/fddghiddc ",
" jkkl/mnopkkkkj ",
" qrstu///vwrrrq ",
" xyyyzABCDyyyyE ",
" FGHHHHHHHHHHHI ",
" JKKKKKKKKKKKKJ ",
"  LMLNMMMOLMLM  ",
"                "};
