/* XPM */
static char * run_xpm[] = {
"16 16 64 1",
" 	c None",
".	c #1C7A00",
"+	c #1C7900",
"@	c #239500",
"#	c #26A400",
"$	c #229500",
"%	c #1C7800",
"&	c #26A000",
"*	c #2AB200",
"=	c #1C7700",
"-	c #249C00",
";	c #28AC00",
">	c #1C7600",
",	c #239700",
"'	c #28A600",
")	c #42B220",
"!	c #F2FAEF",
"~	c #93D380",
"{	c #38AE14",
"]	c #28A700",
"^	c #27A600",
"/	c #1B7400",
"(	c #229300",
"_	c #26A100",
":	c #41AC20",
"<	c #FFFFFF",
"[	c #F8FCF7",
"}	c #A0D690",
"|	c #44AE24",
"1	c #218F00",
"2	c #249B00",
"3	c #40A820",
"4	c #FCFDFB",
"5	c #A3D594",
"6	c #1B7200",
"7	c #208A00",
"8	c #249600",
"9	c #3FA220",
"0	c #E4F2DF",
"a	c #68B650",
"b	c #1A7100",
"c	c #1F8600",
"d	c #229000",
"e	c #3D9E20",
"f	c #94C884",
"g	c #289308",
"h	c #208600",
"i	c #1A7000",
"j	c #1E8200",
"k	c #3C9920",
"l	c #C4E0BB",
"m	c #439C28",
"n	c #1A6F00",
"o	c #1D7E00",
"p	c #208400",
"q	c #2A8A0C",
"r	c #5EA648",
"s	c #1F8400",
"t	c #1A6E00",
"u	c #1E7E00",
"v	c #1E7F00",
"w	c #196C00",
"x	c #1A7200",
"y	c #1C7500",
"                ",
"  ............  ",
" +@##########$+ ",
" %&**********&% ",
" =-;;;;;;;;;;-= ",
" >,')!~{]'^'',> ",
" /(_:<<[}|___(/ ",
" /123<<<<45--1/ ",
" 6789<<<<0a8876 ",
" bcde<<4fgdddhb ",
" ij7k<lm77777ji ",
" nopqrspssssson ",
" t+uuvuuuuuuu+t ",
" wxyyyyyyyyyyxw ",
"  wwwwwwwwwwww  ",
"                "};
