/* XPM */
static char * stop_xpm[] = {
"16 16 90 1",
" 	c None",
".	c #1F1F91",
"+	c #1E1E90",
"@	c #4F4FBF",
"#	c #6969D8",
"$	c #696AD8",
"%	c #1C1C8E",
"&	c #6262D2",
"*	c #8282F2",
"=	c #6161D2",
"-	c #1C1B8E",
";	c #18188D",
">	c #5959CE",
",	c #7676EB",
"'	c #7878EB",
")	c #8888ED",
"!	c #8383EC",
"~	c #7676EA",
"{	c #7F7FEC",
"]	c #7C7CEB",
"^	c #5959CC",
"/	c #18188C",
"(	c #16168C",
"_	c #5050C8",
":	c #6B6BE3",
"<	c #7D7DE6",
"[	c #FFFFFF",
"}	c #DADAF8",
"|	c #B5B5F1",
"1	c #A2A2ED",
"2	c #14148A",
"3	c #4848C2",
"4	c #5F5FDB",
"5	c #7373E0",
"6	c #D7D7F6",
"7	c #AFAFED",
"8	c #9B9BE8",
"9	c #4747C2",
"0	c #121288",
"a	c #3F3FBC",
"b	c #5454D4",
"c	c #6969D9",
"d	c #D4D4F4",
"e	c #A9A9E9",
"f	c #9494E4",
"g	c #5354D4",
"h	c #101086",
"i	c #3636B6",
"j	c #4848CC",
"k	c #5F5FD2",
"l	c #D1D1F2",
"m	c #A4A4E6",
"n	c #8C8CDF",
"o	c #0E0E86",
"p	c #2E2EB0",
"q	c #3D3DC4",
"r	c #5555CC",
"s	c #CECEF0",
"t	c #9E9EE2",
"u	c #8585DA",
"v	c #3C3CC4",
"w	c #0C0B84",
"x	c #2525AB",
"y	c #3131BD",
"z	c #4A4BC5",
"A	c #CBCBEE",
"B	c #9898DE",
"C	c #7E7ED5",
"D	c #0B0B84",
"E	c #080882",
"F	c #1D1DA5",
"G	c #2626B5",
"H	c #3030B8",
"I	c #7676D0",
"J	c #6262C9",
"K	c #4E4EC2",
"L	c #4444BF",
"M	c #2526B5",
"N	c #1C1CA5",
"O	c #060680",
"P	c #1414A0",
"Q	c #1A1AAE",
"R	c #1A1AAD",
"S	c #14149F",
"T	c #040480",
"U	c #090991",
"V	c #0C0C9A",
"W	c #03037E",
"X	c #03027E",
"Y	c #02037E",
"                ",
"  ............  ",
" +@##$#######@+ ",
" %&**********=- ",
" ;>,')!~~{)]~^/ ",
" (_:<[}::|[1:_( ",
" 2345[6447[8492 ",
" 0abc[dbbe[fga0 ",
" hijk[ljjm[njih ",
" opqr[sqqt[uvpo ",
" wxyz[AyyB[CyxD ",
" EFGHIJGGKILMNE ",
" OPQQQQQQQQRQSO ",
" TUVVVVVVVVVVUT ",
"  WWWWWWWWWXWY  ",
"                "};
