/* XPM */
static char * sub_xpm[] = {
"16 16 89 1",
" 	c None",
".	c #037884",
"+	c #037883",
"@	c #037882",
"#	c #05A2A8",
"$	c #06B6BC",
"%	c #06B5BC",
"&	c #037682",
"*	c #06B2B8",
"=	c #09CAD2",
"-	c #09CAD1",
";	c #09CAD0",
">	c #06B1B7",
",	c #037681",
"'	c #027580",
")	c #06ADB4",
"!	c #08C4CC",
"~	c #08C4CB",
"{	c #08C4CA",
"]	c #06ACB3",
"^	c #027480",
"/	c #02747F",
"(	c #06A9AF",
"_	c #08BEC6",
":	c #08BEC5",
"<	c #08BEC4",
"[	c #06A8AE",
"}	c #02747E",
"|	c #02727E",
"1	c #06A5AA",
"2	c #08B9C0",
"3	c #08B8C0",
"4	c #08B8BF",
"5	c #08B8BE",
"6	c #06A4AA",
"7	c #02717C",
"8	c #05A0A6",
"9	c #07B3BA",
"0	c #C0ECEE",
"a	c #FFFFFF",
"b	c #E0F6F6",
"c	c #07B2B8",
"d	c #05A0A5",
"e	c #02707C",
"f	c #059CA2",
"g	c #07ADB4",
"h	c #A6E0E3",
"i	c #E0F4F5",
"j	c #C0EAEB",
"k	c #07ACB2",
"l	c #059BA1",
"m	c #02707B",
"n	c #016E7A",
"o	c #04989D",
"p	c #06A8AD",
"q	c #06A7AC",
"r	c #06A6AC",
"s	c #04979C",
"t	c #016E78",
"u	c #049398",
"v	c #06A2A8",
"w	c #06A2A7",
"x	c #06A2A6",
"y	c #06A1A6",
"z	c #06A0A6",
"A	c #049298",
"B	c #016C78",
"C	c #048F94",
"D	c #069CA2",
"E	c #069CA1",
"F	c #069CA0",
"G	c #069BA0",
"H	c #069AA0",
"I	c #048E93",
"J	c #016B76",
"K	c #048A90",
"L	c #05969B",
"M	c #05969A",
"N	c #05959A",
"O	c #04898F",
"P	c #016A76",
"Q	c #006A75",
"R	c #027F84",
"S	c #04868C",
"T	c #04868B",
"U	c #04868A",
"V	c #03868A",
"W	c #027E83",
"X	c #006974",
"                ",
"  ....++++++++  ",
" @#$$$$%%%%%%#@ ",
" &*=====--;;;>, ",
" ')!!!~~~{{{{]^ ",
" /(__::_:<<<<[} ",
" |123334555556| ",
" 7890aaaaaabcde ",
" efghiiiiiijklm ",
" no[[ppqqrqrrsn ",
" tuvvwxxyyyzzAt ",
" BCDDEEFFFGGHIB ",
" JKLLLMMMMMNNOP ",
" QRSTUUUVUUUUWQ ",
"  XXXXXXXXXXXX  ",
"                "};
