/* XPM */
static char * success_xpm[] = {
"16 16 98 2",
"  	c None",
". 	c #43BF43",
"+ 	c #2FB92F",
"@ 	c #29B629",
"# 	c #28B228",
"$ 	c #2EB02E",
"% 	c #47C147",
"& 	c #17B417",
"* 	c #02AC02",
"= 	c #00A900",
"- 	c #00A700",
"; 	c #00A400",
"> 	c #02A102",
", 	c #0FA20F",
"' 	c #3DBE3D",
") 	c #06AF06",
"! 	c #00AB00",
"~ 	c #00A100",
"{ 	c #009D00",
"] 	c #009800",
"^ 	c #039603",
"/ 	c #048B04",
"( 	c #44BB44",
"_ 	c #09B009",
": 	c #0B950B",
"< 	c #A9C4A9",
"[ 	c #B3CBB3",
"} 	c #35A135",
"| 	c #008A00",
"1 	c #23B623",
"2 	c #70AE70",
"3 	c #FFFFFF",
"4 	c #CCE8CC",
"5 	c #048D04",
"6 	c #008600",
"7 	c #007900",
"8 	c #0BAF0B",
"9 	c #0E900E",
"0 	c #E4E9E4",
"a 	c #FDFDFD",
"b 	c #48AB48",
"c 	c #008700",
"d 	c #008200",
"e 	c #007800",
"f 	c #04AB04",
"g 	c #00A000",
"h 	c #009C00",
"i 	c #009B00",
"j 	c #76AE76",
"k 	c #FAFAFA",
"l 	c #B7DBB7",
"m 	c #028802",
"n 	c #007F00",
"o 	c #007700",
"p 	c #03A803",
"q 	c #51B151",
"r 	c #D1DAD1",
"s 	c #91C591",
"t 	c #138C13",
"u 	c #E0E4E0",
"v 	c #EFF1EF",
"w 	c #359E35",
"x 	c #007C00",
"y 	c #007500",
"z 	c #03A503",
"A 	c #7FC97F",
"B 	c #F2F2F2",
"C 	c #CAD4CA",
"D 	c #E8E8E8",
"E 	c #9AC79A",
"F 	c #018301",
"G 	c #006E00",
"H 	c #019A01",
"I 	c #019501",
"J 	c #82C082",
"K 	c #DCDCDC",
"L 	c #D2D6D2",
"M 	c #239123",
"N 	c #007B00",
"O 	c #005E00",
"P 	c #009600",
"Q 	c #009400",
"R 	c #008F00",
"S 	c #028C02",
"T 	c #7DB17D",
"U 	c #74AC74",
"V 	c #006D00",
"W 	c #008C00",
"X 	c #008B00",
"Y 	c #017F01",
"Z 	c #006F00",
"` 	c #007A00",
" .	c #007E00",
"..	c #007600",
"+.	c #006400",
"@.	c #005B00",
"#.	c #005C00",
"$.	c #005500",
"                                ",
"            . + @ # $           ",
"        % & * = - ; > ,         ",
"      ' ) ! = - ; ~ { ] ^ /     ",
"    ( _ ! = - ; ~ : < [ } |     ",
"    1 ! = - ; ~ { 2 3 4 5 6 7   ",
"    8 = - ; ~ { 9 0 a b c d e   ",
"    f - g h i ] j k l m d n o   ",
"    p ; q r s t u v w d n x y   ",
"    z ~ { A B C D E F n x x G   ",
"    H { ] I J K L M n x x N O   ",
"      P Q R S T U n x x x V     ",
"      7 W X c F Y x x N Z       ",
"          ` n  .x N ..+.        ",
"              @.#.$.            ",
"                                "};
