/* XPM */
static char * up_xpm[] = {
"16 16 70 1",
" 	c None",
".	c #BE7312",
"+	c #BE7212",
"@	c #DA9131",
"#	c #E9A042",
"$	c #BD7210",
"%	c #E89E3D",
"&	c #FCB252",
"*	c #BD710E",
"=	c #E79B37",
"-	c #FAAE4A",
";	c #FAAD4A",
">	c #E79A37",
",	c #BD700E",
"'	c #BC700D",
")	c #E69732",
"!	c #F8A942",
"~	c #F8A943",
"{	c #F8AA45",
"]	c #F9B45A",
"^	c #F8AA42",
"/	c #BC6F0C",
"(	c #E4942C",
"_	c #F6A53B",
":	c #F7A53B",
"<	c #F7A63E",
"[	c #FCE1BF",
"}	c #FEF6EC",
"|	c #F8B35A",
"1	c #BC6E0A",
"2	c #E39126",
"3	c #F6A134",
"4	c #F6A53D",
"5	c #FCE3C3",
"6	c #FFFFFF",
"7	c #F8B660",
"8	c #BC6E08",
"9	c #E28E20",
"0	c #F49D2C",
"a	c #F4A236",
"b	c #FCE8CE",
"c	c #FEFAF5",
"d	c #F6B45E",
"e	c #BB6C07",
"f	c #E08B1C",
"g	c #F29925",
"h	c #F5B562",
"i	c #F8CC91",
"j	c #F8CB91",
"k	c #F7C687",
"l	c #F29A28",
"m	c #E08B1B",
"n	c #BB6C06",
"o	c #E08816",
"p	c #F0941E",
"q	c #F0941D",
"r	c #F0951E",
"s	c #DF8816",
"t	c #BA6B04",
"u	c #DE8410",
"v	c #EE9016",
"w	c #BA6A02",
"x	c #DC810A",
"y	c #ED8C0E",
"z	c #EC8C0E",
"A	c #BA6901",
"B	c #D07704",
"C	c #DC7E06",
"D	c #B96900",
"E	c #BA6900",
"                ",
"  ............  ",
" +@##########@+ ",
" $%&&&&&&&&&&%$ ",
" *=-------;-->, ",
" ')!!!~{]!^!!)' ",
" /(__:<[}|:_:(/ ",
" 12334566}73321 ",
" 890ab6666cd098 ",
" efghiiiijiklme ",
" noppqppqrqqpsn ",
" tuvvvvvvvvvvut ",
" wxyzzzzzzyzzxw ",
" ABCCCCCCCCCCBA ",
"  DEDDEEEEDEDE  ",
"                "};
