/* XPM */
static char * wait_xpm[] = {
"16 16 69 1",
" 	c None",
".	c #CD8324",
"+	c #CC8222",
"@	c #DA9131",
"#	c #E9A042",
"$	c #CC801F",
"%	c #E89D3D",
"&	c #FCB251",
"*	c #FCB252",
"=	c #CB7F1C",
"-	c #E69A37",
";	c #FAAE4A",
">	c #FAAD4A",
",	c #CA7D19",
"'	c #E69732",
")	c #F9A943",
"!	c #F9B35A",
"~	c #FEF9F3",
"{	c #FCD4A1",
"]	c #F9AF51",
"^	c #E59732",
"/	c #CA7B16",
"(	c #E4942C",
"_	c #F7A53B",
":	c #F8B053",
"<	c #FFFFFF",
"[	c #FEFCF8",
"}	c #FBD7A8",
"|	c #F8B156",
"1	c #C97A14",
"2	c #E39126",
"3	c #F5A134",
"4	c #F6AC4D",
"5	c #FEFDFB",
"6	c #FAD7A9",
"7	c #C87810",
"8	c #E28E20",
"9	c #F49D2C",
"0	c #F5A946",
"a	c #FDF2E4",
"b	c #F6BB6E",
"c	c #C8760E",
"d	c #E08B1B",
"e	c #F29925",
"f	c #F3A540",
"g	c #F8CD94",
"h	c #F29C2B",
"i	c #C8770E",
"j	c #C7750B",
"k	c #DF8715",
"l	c #F0941D",
"m	c #F1A139",
"n	c #FBE2C2",
"o	c #F2A440",
"p	c #C77308",
"q	c #DD8410",
"r	c #EF9016",
"s	c #EE9520",
"t	c #F2AF57",
"u	c #EE9016",
"v	c #DE8410",
"w	c #C67205",
"x	c #DD810A",
"y	c #ED8C0E",
"z	c #C57002",
"A	c #D07703",
"B	c #DB7E05",
"C	c #C46F00",
"D	c #C56F00",
"                ",
"  ............  ",
" +@##########@+ ",
" $%&&**&&*&&&%$ ",
" =-;;;;;;;>;;-= ",
" ,')!~{])))))^, ",
" /(_:<<[}|___(/ ",
" 1234<<<<563321 ",
" 7890<<<<ab9987 ",
" cdef<<5gheeedi ",
" jklm<nolllllkj ",
" pqrsturrrrrrvp ",
" wxyyyyyyyyyyxw ",
" zABBBBBBBBBBAz ",
"  CCCCCDCCCCCC  ",
"                "};
