/* XPM */
static char * waittask_xpm[] = {
"16 16 89 1",
" 	c None",
".	c #CDA608",
"+	c #F7C60A",
"@	c #F5C20B",
"#	c #F4C20D",
"$	c #F7CF40",
"%	c #F8D75E",
"&	c #F6CE3B",
"*	c #F4C20A",
"=	c #F4C10A",
"-	c #F3C10A",
";	c #F0BD0A",
">	c #F1C527",
",	c #FDF9E9",
"'	c #FFFFFF",
")	c #FDFAEE",
"!	c #F5D972",
"~	c #F0C324",
"{	c #EEBC09",
"]	c #EFBB09",
"^	c #EEBB09",
"/	c #EAB809",
"(	c #EEC535",
"_	c #FEFEFE",
":	c #FBF2D5",
"<	c #EFCB50",
"[	c #E9B608",
"}	c #E9B609",
"|	c #E5B208",
"1	c #E7B821",
"2	c #FBF5DE",
"3	c #FCF6E4",
"4	c #F1D782",
"5	c #E4AF07",
"6	c #E4B007",
"7	c #E1AD06",
"8	c #E3B41F",
"9	c #FCF7E8",
"0	c #FEFDFA",
"a	c #FDFBF4",
"b	c #DEAA06",
"c	c #DFAA07",
"d	c #DBA706",
"e	c #E1B633",
"f	c #FDFBF5",
"g	c #D9A406",
"h	c #D9A505",
"i	c #D5A105",
"j	c #DBAC23",
"k	c #F7EDCF",
"l	c #FEFDFC",
"m	c #FBF7EA",
"n	c #E9CF82",
"o	c #D49F04",
"p	c #D49F05",
"q	c #D19B04",
"r	c #D09C06",
"s	c #F6ECD1",
"t	c #FCF9F0",
"u	c #EAD393",
"v	c #D4A520",
"w	c #CF9A03",
"x	c #CF9904",
"y	c #CF9A04",
"z	c #CC9503",
"A	c #CB9502",
"B	c #F4E8CA",
"C	c #FDFBF6",
"D	c #E8D193",
"E	c #D0A01F",
"F	c #CA9502",
"G	c #CA9402",
"H	c #CA9303",
"I	c #C79002",
"J	c #C69002",
"K	c #D6B04C",
"L	c #E2C780",
"M	c #C68F02",
"N	c #C58F02",
"O	c #C58E02",
"P	c #C48E01",
"Q	c #C48E02",
"R	c #C18A01",
"S	c #C18A00",
"T	c #C08A01",
"U	c #C08901",
"V	c #C08801",
"W	c #C08900",
"X	c #BF8800",
"                ",
"  ............  ",
" .++++++++++++. ",
" .@#$%&**=*---. ",
" .;>,')!~{]{{^. ",
" ./(_''':<[[}[. ",
" .|12'''''3456. ",
" .789''0'''abc. ",
" .def'ff'''agh. ",
" .ijkl''''mnop. ",
" .qrs'''tuvwxy. ",
" .zAB'CDEFGGHH. ",
" .IJKLKMNNOOPQ. ",
" .RRSTUUTUVUWX. ",
"  ............  ",
"                "};
